<?xml version="1.0" encoding="iso-8859-1"?>
<!-- Generator: Adobe Illustrator 27.2.0, SVG Export Plug-In . SVG Version: 6.00 Build 0)  -->
<svg version="1.1" id="Calque_1" xmlns="http://www.w3.org/2000/svg" xmlns:xlink="http://www.w3.org/1999/xlink" x="0px" y="0px"
	 viewBox="0 0 1366 768" style="enable-background:new 0 0 1366 768;" xml:space="preserve">
<image style="display:none;overflow:visible;" width="984" height="866" xlink:href="../../../../Capture d&#x2019;e&#x301;cran 2025-05-13 a&#x300; 15.06.20.png"  transform="matrix(0.5 0 0 0.5 993 141)">
</image>
<circle style="opacity:0.79;fill:#22B573;" cx="678.766" cy="373.311" r="345.311"/>
<g style="display:none;opacity:0.71;">
	<polyline style="display:inline;fill:#FFFFFF;stroke:#D20A11;stroke-width:3;stroke-miterlimit:10;" points="523.921,579.896 
		626.465,631.401 766.038,533.742 	"/>
	<polygon style="display:inline;fill:#00FFFF;stroke:#D20A11;stroke-width:3;stroke-miterlimit:10;" points="520.862,572.739 
		627.229,624.283 768.521,523.082 662.081,481.21 	"/>
	<g style="display:inline;">
		<path style="fill:#00FFFF;" d="M525.895,566.285c1.736-1.14,3.629-2.325,5.703-2.221c2.074,0.104,4.136,2.194,3.38,4.128"/>
		<g>
			<path style="fill:#D20A11;" d="M526.652,567.58c0.877-0.575,1.765-1.149,2.725-1.577c-0.179,0.08,0.082-0.033,0.144-0.057
				c0.12-0.046,0.241-0.089,0.364-0.129c0.243-0.079,0.49-0.146,0.74-0.197c0.034-0.007,0.412-0.063,0.253-0.046
				c-0.147,0.015,0.269-0.014,0.258-0.013c0.129-0.005,0.257-0.005,0.386,0c0.077,0.003,0.383,0.052,0.059-0.01
				c0.212,0.041,0.417,0.094,0.622,0.159c0.137,0.043,0.129,0.058,0.002-0.006c0.117,0.058,0.233,0.114,0.346,0.18
				c0.075,0.043,0.147,0.092,0.221,0.137c0.338,0.208-0.186-0.185,0.109,0.077c0.143,0.127,0.267,0.276,0.408,0.404
				c0.123,0.112-0.112-0.187,0.035,0.042c0.056,0.087,0.111,0.172,0.162,0.262c0.076,0.136,0.102,0.218,0.03,0.025
				c0.035,0.094,0.061,0.189,0.092,0.284c0.057,0.172,0.034,0.209,0.021,0.008c0.006,0.091-0.015,0.211,0.009,0.295
				c0.038,0.135,0.078-0.237,0.004,0.018c-0.035,0.12-0.065,0.238-0.108,0.357c-0.267,0.739,0.3,1.675,1.048,1.845
				c0.844,0.192,1.56-0.256,1.845-1.048c0.933-2.587-1.257-5.191-3.671-5.849c-2.735-0.746-5.413,0.805-7.615,2.248
				c-0.655,0.43-0.993,1.347-0.538,2.052C525.022,567.696,525.95,568.04,526.652,567.58L526.652,567.58z"/>
		</g>
	</g>
	<g style="display:inline;">
		<path style="fill:#00FFFF;" d="M534.224,560.678c2.803-0.697,5.991,0.681,7.403,3.2"/>
		<g>
			<path style="fill:#D20A11;" d="M534.622,562.124c0.075-0.018,0.459-0.146,0.51-0.104c-0.048-0.04-0.347,0.038-0.038,0.008
				c0.086-0.008,0.172-0.015,0.259-0.02c0.328-0.019,0.658-0.012,0.985,0.019c0.125,0.012,0.288,0.095-0.038-0.01
				c0.063,0.02,0.14,0.022,0.205,0.034c0.171,0.031,0.34,0.068,0.508,0.112c0.168,0.044,0.335,0.093,0.499,0.149
				c0.082,0.028,0.164,0.058,0.245,0.089c0.143,0.054,0.183,0.157-0.021-0.013c0.109,0.091,0.295,0.137,0.423,0.203
				c0.154,0.08,0.305,0.166,0.452,0.258c0.148,0.092,0.287,0.194,0.432,0.291c0.166,0.111-0.278-0.233-0.015-0.013
				c0.053,0.044,0.107,0.088,0.159,0.134c0.263,0.228,0.499,0.478,0.728,0.739c0.127,0.145-0.003,0.019-0.04-0.06
				c0.034,0.071,0.106,0.144,0.152,0.211c0.109,0.157,0.209,0.319,0.304,0.485c0.39,0.681,1.376,0.974,2.052,0.538
				c0.688-0.444,0.955-1.323,0.538-2.052c-1.785-3.121-5.617-4.723-9.097-3.89c-0.764,0.183-1.291,1.092-1.048,1.845
				C533.034,561.871,533.804,562.32,534.622,562.124L534.622,562.124z"/>
		</g>
	</g>
	<g style="display:inline;">
		<path style="fill:#00FFFF;" d="M539.42,557.475c1.241-1.43,3.253-2.145,5.118-1.82c1.865,0.325,3.516,1.68,4.2,3.445"/>
		<g>
			<path style="fill:#D20A11;" d="M540.481,558.536c0.142-0.159,0.289-0.312,0.447-0.455c0.067-0.06,0.245-0.208,0.079-0.08
				c0.075-0.058,0.153-0.111,0.231-0.164c0.196-0.131,0.401-0.251,0.612-0.357c0.084-0.042,0.17-0.084,0.257-0.121
				c-0.196,0.084,0.014,0.002,0.104-0.029c0.201-0.069,0.406-0.127,0.614-0.173c0.035-0.008,0.405-0.079,0.219-0.048
				c-0.159,0.027,0.123-0.012,0.152-0.014c0.212-0.017,0.424-0.022,0.637-0.014c0.118,0.004,0.235,0.016,0.353,0.025
				c0.243,0.019-0.316-0.074,0.085,0.02c0.198,0.046,0.393,0.092,0.587,0.155c0.085,0.028,0.169,0.062,0.254,0.09
				c0.158,0.051-0.169-0.092,0.075,0.035c0.18,0.094,0.359,0.186,0.532,0.294c0.096,0.06,0.188,0.123,0.281,0.187
				c0.099,0.068,0.133,0.108,0.019,0.011c0.172,0.146,0.339,0.295,0.496,0.458c0.062,0.065,0.123,0.131,0.183,0.199
				c0.023,0.027,0.241,0.309,0.137,0.163c-0.091-0.127,0.064,0.101,0.079,0.123c0.062,0.094,0.122,0.189,0.178,0.286
				c0.045,0.078,0.088,0.157,0.129,0.237c0.014,0.027,0.187,0.426,0.07,0.134c0.292,0.725,1.013,1.317,1.845,1.048
				c0.701-0.227,1.361-1.066,1.048-1.845c-0.885-2.198-2.74-3.987-5.115-4.468c-2.43-0.492-5.049,0.319-6.71,2.181
				c-0.522,0.585-0.62,1.552,0,2.121C538.931,559.06,539.923,559.161,540.481,558.536L540.481,558.536z"/>
		</g>
	</g>
	<g style="display:inline;">
		<path style="fill:#00FFFF;" d="M548.15,553.503c1.692-0.964,3.862-1.033,5.611-0.176c1.749,0.856,3.026,2.612,3.302,4.54"/>
		<g>
			<path style="fill:#D20A11;" d="M548.907,554.798c0.107-0.059,0.213-0.117,0.323-0.17c0.044-0.021,0.338-0.137,0.109-0.052
				c0.205-0.076,0.413-0.144,0.624-0.2c0.118-0.031,0.236-0.058,0.355-0.082c0.035-0.007,0.41-0.06,0.233-0.041
				c-0.169,0.018,0.247-0.015,0.236-0.014c0.097-0.005,0.195-0.008,0.292-0.009c0.243-0.002,0.487,0.01,0.728,0.037
				c-0.219-0.025,0.006,0.004,0.106,0.024c0.119,0.023,0.238,0.05,0.355,0.08c0.212,0.055,0.42,0.122,0.624,0.2
				c0.143,0.054-0.119-0.071,0.11,0.052c0.097,0.052,0.197,0.1,0.293,0.155c0.174,0.098,0.337,0.209,0.503,0.319
				c0.227,0.151-0.055-0.064,0.064,0.049c0.08,0.076,0.168,0.144,0.249,0.219c0.146,0.135,0.284,0.278,0.416,0.427
				c0.073,0.083,0.146,0.167,0.213,0.254c-0.131-0.168-0.023-0.022,0.04,0.071c0.112,0.165,0.216,0.334,0.312,0.509
				c0.053,0.097,0.103,0.195,0.151,0.295c0.052,0.109,0.108,0.268,0.033,0.067c0.155,0.417,0.269,0.839,0.337,1.279
				c0.121,0.778,1.136,1.277,1.845,1.048c0.846-0.274,1.177-1.012,1.048-1.845c-0.344-2.217-1.837-4.289-3.814-5.345
				c-2.276-1.216-5.052-1.159-7.302,0.085c-0.687,0.38-0.97,1.383-0.538,2.052C547.304,554.956,548.172,555.205,548.907,554.798
				L548.907,554.798z"/>
		</g>
	</g>
	<g style="display:inline;">
		<path style="fill:#00FFFF;" d="M555.688,547.114c3.087-1.289,7.09,1.046,7.487,4.368"/>
		<g>
			<path style="fill:#D20A11;" d="M556.087,548.56c0.176-0.071,0.354-0.135,0.537-0.186c0.091-0.025,0.182-0.048,0.274-0.067
				c0.049-0.01,0.448-0.078,0.17-0.036c-0.267,0.04,0.071-0.003,0.126-0.006c0.093-0.006,0.187-0.01,0.28-0.011
				c0.188-0.002,0.373,0.012,0.561,0.024c0.347,0.023-0.165-0.044-0.027-0.005c0.104,0.029,0.217,0.039,0.323,0.063
				c0.184,0.042,0.366,0.093,0.546,0.152c0.09,0.03,0.178,0.064,0.267,0.095c0.275,0.096-0.291-0.144-0.009-0.004
				c0.171,0.084,0.341,0.165,0.507,0.26c0.165,0.094,0.325,0.197,0.481,0.306c0.039,0.027,0.077,0.055,0.115,0.083
				c0.09,0.067,0.052,0.037-0.115-0.09c-0.002,0.009,0.206,0.172,0.218,0.183c0.142,0.125,0.278,0.256,0.407,0.394
				c0.064,0.069,0.127,0.139,0.188,0.211c0.225,0.265-0.021,0.049-0.001-0.009c-0.015,0.042,0.279,0.416,0.31,0.468
				c0.056,0.095,0.173,0.451,0.257,0.498c-0.089-0.216-0.103-0.249-0.044-0.099c0.017,0.044,0.033,0.088,0.048,0.132
				c0.031,0.089,0.059,0.178,0.084,0.269c0.034,0.121,0.15,0.789,0.085,0.297c0.101,0.775,0.617,1.54,1.5,1.5
				c0.726-0.032,1.609-0.667,1.5-1.5c-0.141-1.08-0.455-2.106-1.095-3.003c-0.629-0.882-1.407-1.625-2.343-2.181
				c-1.747-1.037-4.031-1.408-5.949-0.63c-0.724,0.294-1.317,1.012-1.048,1.845C554.468,548.212,555.308,548.876,556.087,548.56
				L556.087,548.56z"/>
		</g>
	</g>
	<g style="display:inline;">
		<path style="fill:#00FFFF;" d="M562.23,544.307c-0.241-2.354,2.779-4.044,4.993-3.208s3.441,3.28,3.725,5.629"/>
		<g>
			<path style="fill:#D20A11;" d="M563.73,544.307c-0.012-0.141-0.009-0.279-0.009-0.42c0-0.322-0.09,0.299,0.004-0.004
				c0.018-0.058,0.061-0.362,0.119-0.384c-0.024,0.058-0.047,0.116-0.071,0.175c0.029-0.06,0.06-0.12,0.094-0.178
				c0.034-0.058,0.069-0.116,0.106-0.172c0.093-0.132,0.076-0.112-0.053,0.058c0.011-0.068,0.162-0.185,0.206-0.23
				c0.084-0.085,0.191-0.157,0.268-0.247c0.085-0.07,0.053-0.046-0.096,0.073c0.057-0.042,0.116-0.081,0.175-0.12
				c0.09-0.058,0.182-0.113,0.276-0.164c0.082-0.045,0.517-0.211,0.13-0.075c0.241-0.084,0.481-0.148,0.728-0.213
				c0.299-0.078-0.304,0.008,0.03-0.008c0.126-0.006,0.251-0.017,0.377-0.016c0.087,0,0.304-0.028,0.376,0.021
				c-0.221-0.032-0.248-0.034-0.081-0.005c0.053,0.01,0.105,0.022,0.157,0.036c0.122,0.031,0.239,0.072,0.359,0.112
				c-0.317-0.104,0.019,0.01,0.093,0.048c0.145,0.074,0.286,0.155,0.422,0.243c0.042,0.027,0.362,0.268,0.09,0.049
				c0.221,0.178,0.428,0.373,0.619,0.583c0.029,0.032,0.309,0.376,0.196,0.226c-0.113-0.151,0.146,0.216,0.169,0.251
				c0.159,0.245,0.303,0.5,0.431,0.762c0.049,0.101,0.158,0.345,0.056,0.102c0.065,0.156,0.124,0.315,0.179,0.474
				c0.096,0.28,0.178,0.565,0.246,0.853c0.029,0.123,0.055,0.247,0.079,0.371c0.013,0.07,0.093,0.611,0.043,0.221
				c0.099,0.775,0.619,1.539,1.5,1.5c0.727-0.033,1.607-0.666,1.5-1.5c-0.322-2.521-1.358-4.995-3.543-6.449
				c-2.087-1.389-4.806-1.065-6.672,0.538c-0.985,0.846-1.609,2.183-1.502,3.489c0.064,0.78,0.644,1.538,1.5,1.5
				C562.988,545.773,563.799,545.145,563.73,544.307L563.73,544.307z"/>
		</g>
	</g>
	<g style="display:inline;">
		<path style="fill:#00FFFF;" d="M571.188,538.734c2.717-0.479,5.612,1.653,5.96,4.39"/>
		<g>
			<path style="fill:#D20A11;" d="M571.586,540.181c0.294-0.049-0.352,0.029-0.075,0.009c0.081-0.006,0.162-0.014,0.243-0.018
				c0.162-0.007,0.324-0.006,0.486,0.003c0.08,0.005,0.161,0.017,0.242,0.02c-0.452-0.02-0.203-0.03-0.079-0.008
				c0.159,0.028,0.317,0.064,0.473,0.108c0.157,0.044,0.309,0.099,0.462,0.152c0.257,0.089-0.321-0.153-0.058-0.026
				c0.061,0.029,0.123,0.057,0.184,0.087c0.294,0.146,0.566,0.322,0.835,0.51c0.149,0.104-0.271-0.226-0.078-0.059
				c0.062,0.053,0.125,0.105,0.186,0.159c0.122,0.109,0.239,0.222,0.35,0.341c0.096,0.102,0.416,0.532,0.133,0.131
				c0.094,0.133,0.19,0.262,0.276,0.401c0.086,0.137,0.165,0.279,0.237,0.424c0.036,0.072,0.062,0.151,0.102,0.22
				c-0.03-0.07-0.059-0.139-0.089-0.209c0.02,0.05,0.039,0.101,0.057,0.151c0.11,0.307,0.183,0.624,0.227,0.947
				c0.047,0.344,0.406,0.73,0.689,0.896c0.321,0.188,0.795,0.268,1.156,0.151c0.363-0.117,0.713-0.342,0.896-0.689
				c0.202-0.382,0.209-0.732,0.151-1.156c-0.241-1.768-1.378-3.264-2.781-4.298c-1.448-1.066-3.269-1.433-5.024-1.14
				c-0.776,0.13-1.279,1.13-1.048,1.845C570.013,539.972,570.755,540.319,571.586,540.181L571.586,540.181z"/>
		</g>
	</g>
	<g style="display:inline;">
		<path style="fill:#00FFFF;" d="M574.778,536.171c1.517-0.581,3.132-1.172,4.729-0.872s3.07,1.873,2.637,3.44"/>
		<g>
			<path style="fill:#D20A11;" d="M575.177,537.617c0.786-0.3,1.578-0.598,2.401-0.781c0.11-0.024,0.221-0.045,0.331-0.067
				c0.143-0.029,0.147-0.025,0-0.007c0.199-0.025,0.399-0.039,0.599-0.043c0.202-0.004,0.399,0.012,0.6,0.022
				c-0.295-0.016-0.021-0.001,0.053,0.014c0.087,0.018,0.173,0.039,0.258,0.064c0.069,0.02,0.136,0.044,0.204,0.067
				c0.265,0.086-0.166-0.096-0.011-0.003c0.139,0.084,0.286,0.151,0.423,0.242c0.031,0.02,0.144,0.128,0.177,0.125
				c-0.146-0.114-0.178-0.136-0.094-0.065c0.027,0.023,0.054,0.047,0.08,0.072c0.071,0.066,0.244,0.332,0.329,0.348
				c-0.115-0.152-0.14-0.184-0.077-0.094c0.02,0.028,0.04,0.057,0.058,0.087c0.047,0.073,0.087,0.148,0.131,0.223
				c0.12,0.204-0.003-0.071-0.024-0.079c0.038,0.016,0.069,0.206,0.079,0.24c0.018,0.065,0.029,0.131,0.045,0.196
				c0.044,0.174-0.004-0.325-0.017-0.049c-0.002,0.044-0.023,0.164-0.005,0.203c0.034-0.212,0.04-0.26,0.018-0.144
				c-0.009,0.052-0.021,0.103-0.036,0.153c-0.19,0.76,0.245,1.662,1.048,1.845c0.777,0.177,1.641-0.233,1.845-1.048
				c0.559-2.235-0.961-4.25-2.97-5.064c-2.038-0.826-4.3-0.091-6.241,0.651c-0.731,0.279-1.314,1.023-1.048,1.845
				C573.562,537.282,574.392,537.917,575.177,537.617L575.177,537.617z"/>
		</g>
	</g>
	<g style="display:inline;">
		<path style="fill:#00FFFF;" d="M581.177,531.634c0.104-1.562,2.26-2.249,3.653-1.536c1.393,0.713,2.151,2.227,2.816,3.644"/>
		<g>
			<path style="fill:#D20A11;" d="M582.677,531.634c0.025-0.281-0.09,0.353-0.009,0.108c0.018-0.056,0.122-0.368,0.017-0.089
				c-0.097,0.26,0.007,0.023,0.038-0.037c0.147-0.281-0.228,0.23-0.044,0.054c0.051-0.049,0.101-0.099,0.151-0.149
				c0.177-0.177-0.307,0.198-0.077,0.059c0.126-0.076,0.261-0.138,0.385-0.214c-0.356,0.218-0.211,0.087-0.077,0.044
				c0.073-0.023,0.146-0.044,0.22-0.062c0.073-0.018,0.154-0.023,0.226-0.045c-0.41,0.128-0.218,0.026-0.053,0.018
				c0.169-0.008,0.334,0.02,0.502,0.017c-0.082-0.01-0.164-0.021-0.246-0.031c0.05,0.009,0.101,0.019,0.151,0.031
				c0.074,0.017,0.148,0.038,0.221,0.062c0.036,0.012,0.072,0.024,0.108,0.038c0.109,0.042,0.048,0.016-0.183-0.078
				c0.051,0.049,0.178,0.091,0.239,0.127c0.084,0.048,0.162,0.105,0.244,0.155c0.266,0.16-0.212-0.195,0.001-0.003
				c0.155,0.14,0.307,0.277,0.449,0.432c0.065,0.071,0.125,0.147,0.19,0.219c0.07,0.086,0.042,0.049-0.084-0.113
				c0.039,0.052,0.078,0.104,0.116,0.157c0.48,0.673,0.841,1.421,1.191,2.166c0.335,0.712,1.413,0.95,2.052,0.538
				c0.733-0.472,0.896-1.291,0.538-2.052c-0.881-1.873-2.14-4.104-4.359-4.557c-1.073-0.219-2.192-0.088-3.157,0.446
				c-1.049,0.581-1.645,1.584-1.748,2.76c-0.069,0.784,0.739,1.534,1.5,1.5C582.049,533.095,582.603,532.474,582.677,531.634
				L582.677,531.634z"/>
		</g>
	</g>
	<g style="display:inline;">
		<path style="fill:#00FFFF;" d="M588.255,528.265c2.72-0.651,5.773,0.403,7.513,2.592"/>
		<g>
			<path style="fill:#D20A11;" d="M588.653,529.712c0.161-0.037,0.324-0.063,0.486-0.098c0.206-0.043-0.377,0.035-0.017,0.002
				c0.073-0.007,0.146-0.015,0.219-0.02c0.329-0.025,0.66-0.028,0.989-0.008c0.073,0.004,0.146,0.01,0.22,0.016
				c0.05,0.004,0.368,0.04,0.129,0.011c-0.22-0.027,0.03,0.007,0.073,0.014c0.091,0.015,0.181,0.032,0.271,0.051
				c0.324,0.067,0.644,0.155,0.956,0.263c0.053,0.018,0.377,0.179,0.413,0.156c-0.172-0.073-0.207-0.087-0.105-0.042
				c0.034,0.015,0.067,0.03,0.1,0.046c0.067,0.031,0.133,0.063,0.198,0.096c0.295,0.149,0.58,0.317,0.854,0.503
				c0.076,0.052,0.15,0.106,0.225,0.159c0.153,0.109,0.044,0.005-0.042-0.033c0.132,0.058,0.267,0.225,0.374,0.324
				c0.256,0.238,0.491,0.495,0.711,0.767c0.495,0.613,1.613,0.554,2.121,0c0.598-0.651,0.528-1.467,0-2.121
				c-2.108-2.609-5.74-3.724-8.972-2.978c-0.765,0.176-1.29,1.097-1.048,1.845C587.067,529.464,587.833,529.901,588.653,529.712
				L588.653,529.712z"/>
		</g>
	</g>
	<g style="display:inline;">
		<path style="fill:#00FFFF;" d="M593.059,524.034c1.489-1.281,3.705-1.649,5.528-0.917c1.823,0.732,3.17,2.53,3.36,4.485"/>
		<g>
			<path style="fill:#D20A11;" d="M594.12,525.095c0.316-0.264-0.135,0.069,0.065-0.053c0.095-0.058,0.183-0.126,0.278-0.185
				c0.19-0.117,0.389-0.215,0.589-0.314c-0.279,0.138,0.099-0.033,0.138-0.047c0.084-0.029,0.169-0.056,0.255-0.081
				c0.215-0.063,0.433-0.102,0.652-0.148c-0.325,0.069,0.078-0.005,0.133-0.009c0.089-0.006,0.178-0.01,0.267-0.012
				c0.224-0.005,0.444,0.016,0.667,0.026c-0.329-0.015,0.071,0.014,0.129,0.025c0.087,0.018,0.174,0.037,0.26,0.059
				c0.129,0.033,0.258,0.071,0.384,0.114c0.037,0.013,0.372,0.152,0.189,0.068c-0.18-0.083,0.17,0.09,0.168,0.088
				c0.094,0.049,0.187,0.102,0.278,0.157c0.091,0.055,0.179,0.115,0.268,0.173c0.233,0.15-0.073-0.078,0.053,0.035
				c0.159,0.143,0.32,0.279,0.469,0.434c0.074,0.077,0.143,0.158,0.216,0.236c0.188,0.204-0.052-0.093,0.044,0.047
				c0.121,0.177,0.242,0.35,0.348,0.537c0.053,0.093,0.103,0.187,0.151,0.282c0.017,0.035,0.153,0.356,0.082,0.17
				c-0.072-0.187,0.047,0.144,0.059,0.179c0.034,0.101,0.064,0.203,0.091,0.306c0.027,0.103,0.052,0.206,0.073,0.311
				c0.016,0.079,0.061,0.459,0.022,0.107c0.086,0.777,0.629,1.539,1.5,1.5c0.739-0.033,1.592-0.665,1.5-1.5
				c-0.278-2.523-1.784-4.802-4.164-5.806c-2.466-1.041-5.253-0.523-7.285,1.178c-0.604,0.506-0.561,1.606,0,2.121
				C592.641,525.684,593.476,525.634,594.12,525.095L594.12,525.095z"/>
		</g>
	</g>
	<g style="display:inline;">
		<path style="fill:#00FFFF;" d="M600.219,520.351c1.585-0.583,3.257-1.175,4.925-0.907s3.272,1.729,3.063,3.405"/>
		<g>
			<path style="fill:#D20A11;" d="M600.617,521.798c0.844-0.31,1.695-0.619,2.577-0.805c0.097-0.02,0.195-0.037,0.292-0.057
				c0.049-0.008,0.097-0.016,0.146-0.025c-0.13,0.015-0.141,0.017-0.033,0.005c0.221-0.017,0.439-0.038,0.661-0.039
				c0.098,0,0.196,0.001,0.294,0.006c0.034,0.002,0.413,0.036,0.242,0.014c-0.141-0.018,0.09,0.019,0.114,0.024
				c0.093,0.019,0.185,0.042,0.276,0.068c0.122,0.035,0.467,0.19,0.179,0.046c0.155,0.077,0.309,0.151,0.457,0.241
				c0.081,0.049,0.157,0.11,0.24,0.157c-0.095-0.054-0.165-0.142-0.033-0.025c0.127,0.112,0.251,0.227,0.364,0.353
				c0.219,0.243,0.017-0.005,0.01-0.001c0.006-0.003,0.112,0.168,0.121,0.183c0.048,0.077,0.084,0.161,0.131,0.238
				c0.1,0.164-0.073-0.245-0.025-0.06c0.022,0.085,0.052,0.174,0.078,0.258c0.064,0.208-0.03-0.007,0.002-0.08
				c-0.053,0.119,0.009,0.409-0.005,0.549c-0.079,0.783,0.747,1.534,1.5,1.5c0.88-0.039,1.415-0.661,1.5-1.5
				c0.219-2.162-1.512-3.931-3.397-4.644c-2.12-0.801-4.472-0.041-6.489,0.699c-0.734,0.27-1.312,1.03-1.048,1.845
				C599.005,521.471,599.829,522.087,600.617,521.798L600.617,521.798z"/>
		</g>
	</g>
	<g style="display:inline;">
		<path style="fill:#00FFFF;" d="M607.799,515.339c2.674-1.296,6.323,0.269,7.228,3.099"/>
		<g>
			<path style="fill:#D20A11;" d="M608.556,516.635c0.299-0.141-0.329,0.114-0.019,0.004c0.087-0.031,0.172-0.063,0.26-0.091
				c0.145-0.046,0.293-0.085,0.442-0.117c0.074-0.016,0.201-0.019,0.27-0.049c-0.266,0.117-0.237,0.028-0.036,0.012
				c0.152-0.012,0.304-0.017,0.457-0.015c0.163,0.002,0.394,0.071,0.549,0.035c-0.103,0.024-0.339-0.058-0.08-0.007
				c0.075,0.015,0.151,0.028,0.226,0.044c0.18,0.039,0.359,0.087,0.535,0.143c0.073,0.023,0.146,0.049,0.219,0.075
				c0.051,0.018,0.367,0.117,0.121,0.044c-0.233-0.069,0.018,0.012,0.073,0.039c0.083,0.04,0.165,0.083,0.246,0.127
				c0.148,0.081,0.293,0.169,0.434,0.263c0.064,0.043,0.126,0.088,0.189,0.132c0.267,0.184-0.255-0.224-0.014-0.008
				c0.126,0.112,0.253,0.221,0.371,0.341c0.063,0.063,0.258,0.359,0.336,0.374c-0.091-0.017-0.198-0.275-0.015-0.012
				c0.044,0.062,0.085,0.126,0.126,0.19c0.089,0.142,0.171,0.288,0.245,0.439c0.02,0.041,0.04,0.083,0.058,0.125
				c0.047,0.104,0.026,0.055-0.062-0.146c-0.014,0.052,0.077,0.213,0.093,0.262c0.246,0.743,1.047,1.306,1.845,1.048
				c0.741-0.24,1.312-1.048,1.048-1.845c-0.616-1.859-2.023-3.311-3.819-4.069c-1.828-0.771-3.811-0.776-5.613,0.073
				c-0.712,0.336-0.95,1.413-0.538,2.052C606.976,516.828,607.795,516.994,608.556,516.635L608.556,516.635z"/>
		</g>
	</g>
	<g style="display:inline;">
		<path style="fill:#00FFFF;" d="M614.596,510.685c3.169-1.17,7.125,0.914,7.953,4.189"/>
		<g>
			<path style="fill:#D20A11;" d="M614.995,512.132c0.196-0.07,0.394-0.132,0.596-0.18c0.1-0.024,0.202-0.041,0.303-0.063
				c0.278-0.061-0.232,0.012-0.042,0.003c0.399-0.02,0.781-0.03,1.182-0.008c0.284,0.016-0.225-0.052-0.04-0.009
				c0.1,0.024,0.204,0.034,0.305,0.055c0.186,0.038,0.37,0.084,0.552,0.139c0.163,0.049,0.458,0.097,0.588,0.206
				c-0.11-0.093-0.227-0.106-0.025-0.005c0.093,0.046,0.187,0.09,0.279,0.139c0.169,0.089,0.334,0.185,0.495,0.288
				c0.088,0.056,0.174,0.114,0.259,0.174c0.041,0.029,0.268,0.222,0.098,0.069c-0.175-0.157,0.094,0.083,0.128,0.114
				c0.065,0.057,0.129,0.115,0.191,0.174c0.15,0.142,0.293,0.292,0.428,0.448c0.078,0.09,0.301,0.232,0.024,0.017
				c0.061,0.047,0.107,0.147,0.15,0.209c0.107,0.156,0.206,0.316,0.296,0.482c0.049,0.091,0.093,0.184,0.141,0.275
				c0.162,0.31-0.106-0.309,0.012,0.021c0.07,0.197,0.135,0.392,0.189,0.594c0.2,0.759,1.08,1.295,1.845,1.048
				c0.78-0.253,1.262-1.032,1.048-1.845c-1.064-4.035-5.831-6.655-9.798-5.237c-0.737,0.264-1.31,1.034-1.048,1.845
				C613.385,511.81,614.204,512.415,614.995,512.132L614.995,512.132z"/>
		</g>
	</g>
	<g style="display:inline;">
		<path style="fill:#00FFFF;" d="M620.539,507.473c3.026-0.877,6.564,0.588,8.084,3.347"/>
		<g>
			<path style="fill:#D20A11;" d="M620.937,508.919c0.18-0.05,0.361-0.096,0.545-0.132c0.048-0.009,0.365-0.077,0.132-0.028
				c-0.231,0.049,0.109-0.011,0.134-0.013c0.371-0.034,0.745-0.036,1.116-0.009c0.074,0.005,0.149,0.013,0.223,0.02
				c0.365,0.032-0.219-0.044-0.01-0.002c0.184,0.037,0.367,0.066,0.549,0.11c0.182,0.044,0.362,0.094,0.54,0.151
				c0.089,0.029,0.178,0.059,0.266,0.091c0.042,0.015,0.346,0.124,0.135,0.047c-0.212-0.077,0.115,0.053,0.129,0.059
				c0.068,0.032,0.135,0.064,0.202,0.098c0.167,0.084,0.331,0.175,0.491,0.271c0.16,0.097,0.317,0.199,0.469,0.307
				c0.037,0.026,0.283,0.227,0.117,0.084c-0.171-0.146,0.101,0.089,0.108,0.095c0.284,0.244,0.538,0.513,0.784,0.795
				c0.116,0.133,0.037,0.048-0.026-0.041c0.054,0.076,0.11,0.15,0.163,0.227c0.117,0.17,0.223,0.345,0.324,0.525
				c0.385,0.684,1.379,0.972,2.052,0.538c0.692-0.446,0.95-1.32,0.538-2.052c-1.883-3.345-6.086-5.07-9.778-4.036
				c-0.755,0.211-1.298,1.072-1.048,1.845C619.342,508.642,620.128,509.146,620.937,508.919L620.937,508.919z"/>
		</g>
	</g>
	<g style="display:inline;">
		<path style="fill:#00FFFF;" d="M626.465,503.759c2.736-1.281,6.438,0.635,6.971,3.609"/>
		<g>
			<path style="fill:#D20A11;" d="M627.222,505.054c0.276-0.126-0.303,0.103-0.035,0.016c0.083-0.027,0.164-0.058,0.247-0.083
				c0.166-0.05,0.334-0.083,0.504-0.119c0.297-0.064-0.34,0.025-0.057,0.008c0.086-0.005,0.171-0.014,0.258-0.018
				c0.172-0.007,0.345-0.005,0.517,0.007c0.082,0.005,0.177,0.027,0.258,0.024c-0.38,0.013-0.209-0.03-0.056-0.001
				c0.171,0.032,0.341,0.072,0.508,0.121c0.156,0.045,0.337,0.154,0.495,0.17c-0.21-0.091-0.262-0.113-0.157-0.067
				c0.04,0.017,0.08,0.036,0.119,0.054c0.079,0.037,0.158,0.076,0.235,0.117c0.155,0.082,0.306,0.17,0.452,0.266
				c0.073,0.048,0.144,0.099,0.216,0.148c0.23,0.157-0.252-0.219-0.027-0.021c0.131,0.115,0.263,0.227,0.386,0.351
				c0.103,0.104,0.224,0.312,0.347,0.386c-0.122-0.073-0.182-0.25-0.027-0.028c0.049,0.071,0.097,0.143,0.142,0.216
				c0.084,0.135,0.154,0.275,0.229,0.414c0.157,0.291-0.052-0.178-0.013-0.042c0.024,0.082,0.061,0.162,0.087,0.244
				c0.058,0.18,0.102,0.364,0.138,0.55c0.147,0.772,1.118,1.283,1.845,1.048c0.825-0.267,1.205-1.018,1.048-1.845
				c-0.352-1.852-1.727-3.473-3.387-4.317c-1.843-0.936-3.898-1.049-5.787-0.189c-0.716,0.326-0.946,1.419-0.538,2.052
				C625.646,505.256,626.456,505.403,627.222,505.054L627.222,505.054z"/>
		</g>
	</g>
	<g style="display:inline;">
		<path style="fill:#00FFFF;" d="M631.634,501.435c1.237-1.45,3.058-2.563,4.955-2.385c1.897,0.178,3.645,2.034,3.217,3.891"/>
		<g>
			<path style="fill:#D20A11;" d="M632.695,502.495c0.301-0.347,0.625-0.673,0.979-0.967c0.09-0.074,0.232-0.172,0.06-0.049
				c0.089-0.063,0.178-0.127,0.27-0.188c0.2-0.132,0.406-0.255,0.619-0.365c0.077-0.04,0.155-0.077,0.233-0.114
				c0.371-0.177-0.271,0.08,0.119-0.045c0.204-0.065,0.405-0.132,0.614-0.178c0.04-0.009,0.39-0.074,0.177-0.04
				c-0.211,0.034,0.139-0.01,0.182-0.012c0.128-0.007,0.257-0.008,0.385-0.004c0.047,0.001,0.412,0.031,0.175,0.005
				c-0.23-0.026,0.129,0.031,0.146,0.034c0.095,0.022,0.189,0.049,0.282,0.08c0.158,0.052,0.204,0.084,0.025-0.003
				c0.089,0.043,0.177,0.085,0.263,0.132c0.086,0.047,0.171,0.097,0.253,0.151c0.069,0.045,0.314,0.274,0.076,0.045
				c0.141,0.136,0.284,0.265,0.421,0.406c0.193,0.199-0.074-0.133,0.018,0.013c0.051,0.081,0.108,0.158,0.157,0.24
				c0.048,0.082,0.087,0.169,0.135,0.251c0.089,0.152-0.078-0.261-0.001,0.007c0.031,0.108,0.061,0.215,0.088,0.324
				c0.07,0.275,0.008-0.191-0.001-0.011c-0.005,0.091,0.003,0.19,0.003,0.281c0.001,0.315,0.061-0.285-0.009,0.055
				c-0.158,0.766,0.223,1.657,1.048,1.845c0.75,0.171,1.675-0.226,1.845-1.048c0.532-2.573-1.325-5.117-3.861-5.673
				c-2.581-0.565-5.156,0.79-6.818,2.707c-0.514,0.592-0.626,1.547,0,2.121C631.137,503.013,632.146,503.128,632.695,502.495
				L632.695,502.495z"/>
		</g>
	</g>
	<g style="display:inline;">
		<path style="fill:#00FFFF;" d="M639.995,495.448c2.474-0.679,5.338,1.045,5.896,3.549"/>
		<g>
			<path style="fill:#D20A11;" d="M640.394,496.895c0.076-0.02,0.43-0.047,0.463-0.099c-0.033,0.052-0.424,0.044-0.087,0.017
				c0.065-0.005,0.13-0.009,0.195-0.011c0.143-0.005,0.287-0.003,0.43,0.006c0.076,0.005,0.158,0.021,0.234,0.021
				c-0.42,0-0.232-0.034-0.089-0.008c0.284,0.051,0.563,0.128,0.833,0.228c0.124,0.046,0.295,0.172-0.066-0.033
				c0.068,0.039,0.145,0.066,0.215,0.1c0.13,0.064,0.257,0.134,0.381,0.209c0.124,0.075,0.244,0.157,0.363,0.239
				c0.243,0.168-0.276-0.235-0.053-0.042c0.05,0.043,0.101,0.084,0.15,0.128c0.229,0.202,0.411,0.438,0.621,0.656
				c-0.047-0.06-0.093-0.119-0.14-0.179c0.031,0.042,0.061,0.085,0.091,0.128c0.037,0.054,0.072,0.109,0.107,0.164
				c0.076,0.122,0.146,0.247,0.21,0.375c0.056,0.113,0.107,0.335-0.022-0.073c0.023,0.074,0.058,0.147,0.083,0.22
				c0.052,0.149,0.094,0.301,0.129,0.455c0.178,0.765,1.096,1.29,1.845,1.048c0.799-0.258,1.239-1.026,1.048-1.845
				c-0.773-3.316-4.48-5.458-7.742-4.597c-0.759,0.2-1.295,1.08-1.048,1.845C638.801,496.627,639.581,497.109,640.394,496.895
				L640.394,496.895z"/>
		</g>
	</g>
	<g style="display:inline;">
		<path style="fill:#00FFFF;" d="M645.228,493.893c2.604-2.501,7.343-2.208,9.619,0.594"/>
		<g>
			<path style="fill:#D20A11;" d="M646.289,494.954c0.076-0.072,0.154-0.141,0.233-0.211c0.102-0.091,0.208-0.159,0.038-0.037
				c0.169-0.121,0.34-0.236,0.52-0.34c0.179-0.104,0.364-0.195,0.551-0.284c-0.188,0.09-0.094,0.035,0.043-0.015
				c0.098-0.035,0.195-0.071,0.293-0.102c0.198-0.063,0.398-0.118,0.601-0.163c0.102-0.023,0.204-0.041,0.306-0.06
				c0.078-0.015,0.367-0.031,0.034-0.009c0.419-0.028,0.831-0.057,1.252-0.031c0.083,0.005,0.167,0.014,0.25,0.02
				c0.411,0.03-0.306-0.063,0.099,0.012c0.205,0.038,0.41,0.077,0.612,0.13c0.202,0.052,0.401,0.113,0.597,0.183
				c0.078,0.028,0.155,0.06,0.233,0.088c-0.295-0.106-0.023-0.009,0.041,0.023c0.185,0.093,0.369,0.186,0.547,0.293
				c0.089,0.053,0.176,0.108,0.262,0.166c-0.001-0.001,0.311,0.22,0.15,0.1c-0.16-0.12,0.109,0.091,0.138,0.117
				c0.078,0.068,0.155,0.138,0.23,0.21c0.166,0.16,0.319,0.329,0.466,0.506c0.518,0.623,1.586,0.536,2.121,0
				c0.617-0.617,0.519-1.496,0-2.121c-2.861-3.443-8.533-3.606-11.741-0.594c-0.591,0.555-0.56,1.561,0,2.121
				C644.757,495.543,645.697,495.51,646.289,494.954L646.289,494.954z"/>
		</g>
	</g>
	<g style="display:inline;">
		<path style="fill:#00FFFF;" d="M650.785,489.56c2.498-1.361,5.963-0.532,7.575,1.811"/>
		<g>
			<path style="fill:#D20A11;" d="M651.542,490.855c0.076-0.04,0.151-0.08,0.228-0.117c0.135-0.065,0.245-0.029-0.031,0.007
				c0.141-0.018,0.295-0.11,0.433-0.151c0.163-0.049,0.327-0.091,0.493-0.125c0.073-0.015,0.185-0.016,0.251-0.046
				c-0.067,0.03-0.306,0.032-0.096,0.014c0.34-0.03,0.679-0.042,1.021-0.02c0.068,0.004,0.136,0.011,0.204,0.016
				c0.343,0.025-0.24-0.045-0.043-0.009c0.169,0.031,0.336,0.059,0.503,0.099c0.316,0.076,0.614,0.222,0.926,0.298
				c-0.083-0.02-0.253-0.115-0.077-0.028c0.076,0.038,0.153,0.074,0.229,0.114c0.151,0.079,0.299,0.164,0.442,0.255
				c0.125,0.08,0.245,0.196,0.377,0.261c-0.276-0.136-0.121-0.093-0.026-0.011c0.065,0.055,0.128,0.112,0.19,0.17
				c0.124,0.116,0.242,0.239,0.354,0.366c0.036,0.041,0.085,0.13,0.132,0.156c-0.118-0.156-0.144-0.19-0.078-0.101
				c0.031,0.041,0.06,0.083,0.089,0.125c0.45,0.641,1.332,1.002,2.052,0.538c0.636-0.41,1.021-1.366,0.538-2.052
				c-2.133-3.034-6.329-4.103-9.627-2.349c-0.694,0.369-0.965,1.39-0.538,2.052C649.944,491.022,650.8,491.25,651.542,490.855
				L651.542,490.855z"/>
		</g>
	</g>
</g>
<polygon style="display:none;opacity:0.51;fill:#FFFFFF;" points="543.825,572.251 625.12,614.07 752.141,523.037 668.714,492.046 
	"/>
<g style="display:none;">
	<path style="display:inline;stroke:#D20A11;stroke-miterlimit:10;" d="M734.464,591.68l17.849-2.883l31.239-12.005l3.113,0.508
		l5.982-2.977l21.452-8.547l5.932-3.212l-1.531-6.228l-4.497-0.94l-26.243,6.973l2.714,4.539
		c11.988-0.099,18.656-3.582,22.589-7.014c2.686-2.344,6.102-6.415,9.837-5.633c1.615,0.338,3.433,1.614,3.607,3.263
		c0.195,1.844-1.676,4.043-4.795,4.744"/>
	<polyline style="display:inline;stroke:#D20A11;stroke-miterlimit:10;" points="732.893,587.752 749.201,578.516 779.402,567.994 
		781.28,566.363 788.682,563.913 	"/>
	<g style="display:inline;">
		<path d="M785.309,576.45"/>
		<g>
			<path style="fill:#D20A11;" d="M785.309,577.95c1.93,0,1.934-3,0-3C783.378,574.95,783.375,577.95,785.309,577.95L785.309,577.95
				z"/>
		</g>
	</g>
	<g style="display:inline;">
		<path d="M785.512,575.308c-0.018-1.597-0.043-3.237-0.64-4.718c-0.596-1.481-1.902-2.79-3.495-2.906"/>
		<g>
			<path style="fill:#D20A11;" d="M787.012,575.308c-0.023-2.037-0.108-4.143-1.081-5.984c-0.921-1.742-2.582-2.962-4.554-3.141
				c-0.784-0.071-1.534,0.741-1.5,1.5c0.039,0.873,0.66,1.424,1.5,1.5c0.29,0.026-0.197-0.055-0.016-0.002
				c0.069,0.02,0.143,0.031,0.213,0.049c0.088,0.024,0.174,0.053,0.26,0.081c0.235,0.076-0.057,0.001-0.056-0.027
				c-0.001,0.024,0.387,0.208,0.432,0.237c0.062,0.039,0.121,0.084,0.183,0.123c0.151,0.094-0.204-0.184,0.002,0.004
				c0.124,0.113,0.248,0.225,0.363,0.348c0.051,0.055,0.102,0.11,0.15,0.167c0.18,0.209,0.094,0.017,0.011,0.005
				c0.069,0.009,0.25,0.372,0.281,0.424c0.087,0.146,0.163,0.296,0.24,0.447c0.085,0.167,0.04,0.032-0.016-0.051
				c0.046,0.069,0.069,0.177,0.097,0.255c0.068,0.192,0.128,0.388,0.18,0.585c0.052,0.197,0.096,0.396,0.134,0.597
				c0.021,0.112,0.036,0.224,0.057,0.336c0.042,0.234-0.019-0.229,0.001,0.008c0.071,0.847,0.108,1.688,0.118,2.539
				c0.009,0.784,0.684,1.537,1.5,1.5C786.317,576.772,787.021,576.149,787.012,575.308L787.012,575.308z"/>
		</g>
	</g>
	<g style="display:inline;">
		<path d="M787.891,575.003c1.126-0.756,1.423-2.354,1.041-3.656c-0.382-1.301-1.296-2.37-2.206-3.376
			c-0.667-0.736-1.392-1.492-2.343-1.777"/>
		<g>
			<path style="fill:#D20A11;" d="M788.648,576.298c2.152-1.524,2.346-4.272,1.265-6.514c-0.517-1.072-1.333-1.997-2.127-2.873
				c-0.851-0.938-1.78-1.763-3.005-2.163c-0.746-0.243-1.671,0.283-1.845,1.048c-0.188,0.823,0.248,1.585,1.048,1.845
				c0.256,0.083-0.04-0.048,0.099,0.029c0.082,0.045,0.166,0.085,0.246,0.132c0.101,0.059,0.198,0.124,0.294,0.191
				c-0.128-0.089-0.045-0.039,0.031,0.027c0.344,0.297,0.657,0.624,0.962,0.96c0.295,0.324,0.586,0.651,0.863,0.991
				c0.051,0.062,0.203,0.264,0.081,0.099c0.058,0.078,0.115,0.156,0.171,0.236c0.139,0.198,0.27,0.401,0.39,0.61
				c0.048,0.083,0.094,0.168,0.138,0.253c0.015,0.03,0.17,0.365,0.106,0.213c-0.054-0.129,0.046,0.133,0.055,0.157
				c0.036,0.106,0.07,0.214,0.098,0.323c0.02,0.078,0.036,0.157,0.053,0.235c0.082,0.363,0.004-0.189,0.004,0.022
				c0.001,0.183,0.019,0.363,0.009,0.547c-0.001,0.024-0.06,0.371-0.011,0.162c0.051-0.223-0.041,0.148-0.042,0.154
				c-0.02,0.077-0.046,0.152-0.067,0.229c-0.073,0.264,0.088-0.11-0.005,0.024c-0.042,0.061-0.076,0.14-0.111,0.206
				c-0.076,0.142-0.127,0.182,0.002,0.03c-0.05,0.059-0.102,0.118-0.156,0.173c-0.049,0.05-0.337,0.262-0.06,0.065
				c-0.639,0.452-1.003,1.331-0.538,2.052C787.005,576.394,787.964,576.783,788.648,576.298L788.648,576.298z"/>
		</g>
	</g>
	<g style="display:inline;">
		<path d="M791.757,574.878c-0.043-2.711-0.124-5.565-1.515-7.893c-0.498-0.833-1.267-1.63-2.237-1.672"/>
		<g>
			<path style="fill:#D20A11;" d="M793.257,574.878c-0.034-2.156-0.088-4.386-0.751-6.457c-0.687-2.147-2.034-4.408-4.5-4.607
				c-0.784-0.063-1.534,0.735-1.5,1.5c0.039,0.867,0.66,1.432,1.5,1.5c-0.329-0.027,0.3,0.134,0.023-0.001
				c0.088,0.043,0.444,0.302,0.265,0.145c0.142,0.124,0.272,0.258,0.397,0.399c0.066,0.075,0.116,0.16,0.027,0.032
				c0.053,0.077,0.107,0.155,0.157,0.234c0.488,0.77,0.682,1.298,0.916,2.213c0.107,0.419,0.188,0.843,0.256,1.27
				c0.043,0.267-0.021-0.182,0.014,0.086c0.014,0.108,0.026,0.217,0.037,0.325c0.023,0.218,0.043,0.436,0.059,0.654
				c0.068,0.901,0.086,1.804,0.101,2.707c0.013,0.784,0.681,1.537,1.5,1.5C792.559,576.342,793.271,575.719,793.257,574.878
				L793.257,574.878z"/>
		</g>
	</g>
	<g style="display:inline;">
		<path d="M751.632,588.084c0.256-0.959,0.386-1.951,0.386-2.943c-0.001-1.048-0.155-2.121-0.656-3.042s-1.39-1.671-2.429-1.811"/>
		<g>
			<path style="fill:#D20A11;" d="M752.716,588.383c0.472-1.812,0.658-3.889,0.096-5.705c-0.509-1.647-1.799-3.195-3.581-3.475
				c-0.599-0.094-1.21,0.153-1.384,0.786c-0.147,0.534,0.182,1.289,0.786,1.384c0.154,0.024,0.3,0.065,0.451,0.101
				c0.127,0.048,0.145,0.051,0.054,0.01c0.07,0.032,0.139,0.066,0.206,0.103c0.134,0.073,0.271,0.154,0.39,0.25
				c-0.112-0.091,0.18,0.179,0.21,0.21c0.363,0.376,0.615,0.878,0.772,1.492c0.339,1.321,0.187,2.873-0.17,4.247
				c-0.153,0.588,0.194,1.221,0.786,1.384C751.914,589.328,752.563,588.973,752.716,588.383L752.716,588.383z"/>
		</g>
	</g>
	<g style="display:inline;">
		<path d="M753.6,587.789c0.94-0.949,0.664-2.515,0.297-3.799c-0.605-2.118-1.497-4.464-3.53-5.312"/>
		<g>
			<path style="fill:#D20A11;" d="M754.396,588.584c1.584-1.702,0.879-4.181,0.199-6.129c-0.665-1.906-1.715-3.901-3.66-4.749
				c-0.557-0.243-1.207-0.164-1.539,0.404c-0.279,0.476-0.156,1.295,0.404,1.539c0.679,0.296,1.193,0.722,1.558,1.243
				c0.466,0.664,0.773,1.334,1.025,2.038c0.271,0.756,0.517,1.537,0.665,2.327c0.053,0.283,0.095,0.699,0.053,1.078
				c0.016-0.139-0.02,0.092-0.031,0.133c-0.024,0.098-0.05,0.201-0.09,0.294c0.045-0.105-0.03,0.039-0.045,0.062
				c-0.156,0.251,0.078-0.054-0.13,0.169C751.82,588.052,753.407,589.647,754.396,588.584L754.396,588.584z"/>
		</g>
	</g>
	<g style="display:inline;">
		<path d="M734.778,591.339c-0.844-0.39-1.547-1.079-1.952-1.917c-0.147-0.303-0.248-0.685-0.053-0.959
			c0.252-0.352,0.814-0.269,1.17-0.023c0.884,0.611,1.066,2.021,0.367,2.836"/>
		<g>
			<path style="fill:#D20A11;" d="M734.967,591.015c-0.502-0.235-0.917-0.545-1.281-0.961c-0.165-0.189-0.305-0.392-0.433-0.622
				c-0.112-0.201-0.237-0.454-0.214-0.644c0.004-0.033,0.018-0.07,0.034-0.099c0.004-0.008,0.038-0.071,0.011-0.017
				c0.016-0.033,0.033-0.033,0.003-0.01c0.018-0.014,0.039-0.025,0.059-0.036c-0.056,0.033,0.001-0.002,0.023-0.008
				c0.029-0.007,0.057-0.016,0.086-0.02c-0.067,0.009,0.028,0.003,0.045,0.003c0.025,0,0.05,0.002,0.074,0.004
				c-0.018-0.002-0.061-0.014,0.013,0.003c0.057,0.013,0.112,0.027,0.167,0.047c0.066,0.023-0.072-0.039,0.035,0.014
				c0.023,0.011,0.046,0.023,0.068,0.035c0.022,0.012,0.044,0.025,0.065,0.039c0.001,0,0.095,0.067,0.044,0.028
				c0.088,0.067,0.161,0.148,0.236,0.229c0.006,0.007,0.045,0.055,0.01,0.009c0.015,0.019,0.029,0.039,0.043,0.059
				c0.035,0.05,0.067,0.102,0.097,0.155c0.068,0.121,0.074,0.138,0.111,0.245c0.038,0.111,0.065,0.224,0.085,0.339
				c0.012,0.069-0.006-0.088,0.004,0.028c0.003,0.037,0.007,0.073,0.009,0.11c0.003,0.061,0.004,0.123,0.001,0.184
				c-0.002,0.061-0.006,0.123-0.015,0.183c0.003-0.018,0.013-0.063-0.003,0.009c-0.008,0.036-0.014,0.072-0.022,0.108
				c-0.014,0.059-0.031,0.118-0.051,0.176c-0.008,0.023-0.016,0.046-0.025,0.069c-0.029,0.078,0.016-0.023-0.02,0.044
				c-0.032,0.059-0.061,0.119-0.098,0.176c-0.013,0.021-0.027,0.041-0.041,0.061c-0.01,0.015-0.021,0.03-0.032,0.045
				c0.021-0.027,0.017-0.024-0.011,0.011c-0.13,0.155-0.152,0.378,0,0.53c0.134,0.134,0.4,0.156,0.53,0
				c0.775-0.925,0.708-2.445-0.221-3.254c-0.475-0.413-1.298-0.665-1.799-0.146c-0.563,0.582-0.114,1.466,0.266,2.012
				c0.448,0.644,1.056,1.174,1.768,1.508c0.183,0.086,0.404,0.051,0.513-0.135C735.197,591.365,735.151,591.101,734.967,591.015
				L734.967,591.015z"/>
		</g>
	</g>
</g>
<path style="display:none;opacity:0.65;fill:#FFFFFF;" d="M817.053,562.633l-79.773,27.926c-1.279,0.448-2.678-0.226-3.125-1.505
	l0,0c-0.448-1.279,0.226-2.678,1.505-3.125l79.773-27.926c1.279-0.448,2.678,0.226,3.125,1.505l0,0
	C819.005,560.787,818.332,562.186,817.053,562.633z"/>
<g>
	<g>
		<path style="opacity:0.78;fill:#FF0000;" d="M622.655,455.269c-18.298-24.21,7.259-40.974,4.313-121.614
			c-1.102-30.153-5.476-49.719,6.9-72.451c6.598-12.119,13.282-16.551,20.7-33.638c7.028-16.187,8.497-29.408,10.35-47.438
			c4.017-39.07,0-76.764,0-76.764l0,0c-0.109,0.109,5.146-5.201,6.038-6.038c7.277-6.825,32.396-4.982,37.088,6.038
			c2.014,4.73-1.822,6.251-2.588,18.113c-0.667,10.339,2.006,12.91,1.725,24.15c-0.201,8.043-1.734,13.278-2.588,17.25
			c-3.549,16.519,0.119,32.271,3.45,46.576c8.751,37.576,25.157,41.368,33.638,76.764c1.087,4.538,1.41,6.949,3.45,39.676
			c5.805,93.15,5.296,107.444-5.175,122.477c-13,18.663-32.052,25.111-37.088,26.738
			C675.297,484.011,639.111,477.041,622.655,455.269z"/>
		<ellipse style="opacity:0.47;fill:#FFFFFF;" cx="685.618" cy="312.954" rx="55.201" ry="23.658"/>
	</g>
	<g>
		<path style="opacity:0.75;fill:#FFFF00;" d="M740.819,484.594c-4.278,4.052-4.716,11.866-2.588,17.25
			c4.77,12.063,23.502,14.645,34.501,13.8c12.618-0.97,28.419-7.477,28.463-14.663c0.05-8.149-20.218-7.989-27.6-24.15
			c-5.545-12.139-0.086-25.311,0.862-27.6c5.864-14.149,15.477-12.864,25.875-25.875c14.75-18.457,15.607-46.319,7.763-66.414
			c-2.444-6.261-5.423-13.89-12.938-19.838c-19.156-15.161-54.041-8.51-68.139,7.763c-29.159,33.66,11.961,105.132,29.325,104.364
			c2.227-0.098,4.632-1.42,6.9,0c6.286,3.935,4.822,24.729-5.175,31.051C751.662,484.334,745.795,479.882,740.819,484.594z"/>
		<ellipse style="opacity:0.52;fill:#FFFFFF;" cx="766.263" cy="396.618" rx="44.419" ry="16.969"/>
	</g>
</g>
<ellipse transform="matrix(0.0437 -0.999 0.999 0.0437 -20.5328 1162.3142)" style="display:none;fill:#4E83ED;" cx="596.872" cy="591.882" rx="66.946" ry="150.408"/>
<ellipse transform="matrix(0.0437 -0.999 0.999 0.0437 -20.7725 1162.9036)" style="display:none;fill:#4E8DED;" cx="597.06" cy="592.302" rx="59.744" ry="134.226"/>
<ellipse transform="matrix(0.0437 -0.999 0.999 0.0437 -16.6106 1158.4192)" style="display:none;fill:#4EA7ED;" cx="596.799" cy="587.886" rx="54.191" ry="121.749"/>
<g style="display:none;opacity:0.89;">
	<g style="display:inline;">
		<path style="fill:#D1D1E6;stroke:#666666;stroke-width:2;stroke-linecap:round;stroke-linejoin:round;stroke-miterlimit:10;" d="
			M655.151,525.344c-54.542-43.293-110.198-94.579-162.83-114.674c9.197,49.012,18.487,102.994,27.847,160.295
			c2.707,2.766,5.421,5.561,8.139,8.379C569.974,566.407,612.897,544.967,655.151,525.344z"/>
		
			<path style="opacity:0.9;fill:#D8E6E6;stroke:#666666;stroke-width:2;stroke-linecap:round;stroke-linejoin:round;stroke-miterlimit:10;" d="
			M643.334,531.851c-14.276-23.365-28.608-47.553-42.921-71.145c-27.743,34.738-55.419,70.197-82.49,98.659
			c51.091,24.767,104.335,52.154,156.125,64.819C663.856,594.829,653.609,563.718,643.334,531.851z"/>
		<path style="fill:#FFFFDE;stroke:#666666;stroke-width:2;stroke-linecap:round;stroke-linejoin:round;stroke-miterlimit:10;" d="
			M729.534,489.431c-17.078,42.332-34.474,92.157-52.047,144.696c-53.043-7.942-107.699-31.779-160.078-56.01
			C587.141,557.97,660.909,511.845,729.534,489.431z"/>
		<path style="fill:#FFFFFF;stroke:#666666;stroke-width:2;stroke-linecap:round;stroke-linejoin:round;stroke-miterlimit:10;" d="
			M499.566,414.122c8.16,49.137,16.387,102.23,24.666,158.035c-2.603,1.55-5.201,3.055-7.792,4.512
			c-7.038-55.382-14.035-108.195-20.981-157.524C496.826,417.479,498.195,415.804,499.566,414.122z"/>
	</g>
</g>
<ellipse style="display:none;fill:#EDEDED;stroke:#1D1D1B;stroke-linecap:round;stroke-miterlimit:10;" cx="550" cy="475.5" rx="77.5" ry="31"/>
<path style="fill:none;" d="M487,497c-4.333-4.333-8.667-8.667-13-13"/>
<image style="display:none;overflow:visible;" width="672" height="520" xlink:href="../../../../../Desktop/Capture d&#x2019;e&#x301;cran 2025-06-10 a&#x300; 16.02.25.png"  transform="matrix(0.5 0 0 0.5 1064 479)">
</image>
<g>
	
		<ellipse style="fill:#DE7E0C;stroke:#1D1D1B;stroke-linecap:round;stroke-miterlimit:10;" cx="578.462" cy="449.306" rx="114" ry="44.194"/>
	<path style="fill:#B65534;stroke:#1D1D1B;stroke-linecap:round;stroke-miterlimit:10;" d="M669.462,476.5
		c-1.265,1.265,4.761,52.347,4,75c-0.775,23.079-7.948,57.069-8.953,58.796c-0.016,0.027-0.09,0.148-0.047,0.204
		c0.486,0.642,14.87-9.434,17-11c20.462-15.046,21.692-62.176,22-74c0,0,1.266-30.166-11.657-80.925
		c-0.063-0.249-0.277-1.088-0.343-1.075c-0.15,0.029,0.943,4.397,1,7c0,0,0.141,6.443-20,23l0,0
		C672.462,473.5,670.129,475.833,669.462,476.5z"/>
	<path style="fill:#FFF29A;stroke:#1D1D1B;stroke-linecap:round;stroke-miterlimit:10;" d="M673.393,549.869
		c0.029-0.314,0.053-0.573,0.069-0.745v-44.023c0-0.082-0.002-0.163-0.007-0.245l-0.972-16.021
		c-0.014-0.224-0.046-0.446-0.096-0.664l-2.46-10.661c-0.292-1.263-1.172-2.31-2.366-2.814
		c-35.11-14.817-70.219-29.634-105.329-44.451c-1.675-0.707-3.694-0.267-4.745,1.218c-0.008,0.012-0.017,0.024-0.025,0.036
		c-1.609,2.324-0.465,5.648,0,7c1.826,5.308,12.411,25.009,27.568,51.252c0.283,0.49,0.463,1.039,0.522,1.601l3.888,36.936
		c0.015,0.141,0.022,0.282,0.022,0.423v44.215c0,1.57,0.909,2.998,2.332,3.661l71.668,33.912c2.341,1.093,1.531-2.391,2.092-4.913
		l0.867-3.9c0.028-0.124,0.049-0.249,0.065-0.375l2.976-14.811c0.943-5.266,1.016-12.763,2-20
		C672.619,557.988,673.239,551.501,673.393,549.869z"/>
	<path style="fill:#F6A000;stroke:#1D1D1B;stroke-linecap:round;stroke-miterlimit:10;" d="M509.412,485.486
		c0.023,0.006,0.059,0.015,0.101,0.026c0.589,0.148,1.028,0.233,1.228,0.273c0.002,0,0.429,0.095,1.284,0.285
		c0.285,0.063,2.442,0.543,2.496,0.555c0,0,11.814,2.627,12.885,2.863c0.028,0.006,0.057,0.012,0.057,0.012
		c0.019,0.004,0.038,0.007,0.057,0.01l12.845,1.976c0.065,0.01,0.131,0.016,0.197,0.019l24.783,0.991
		c0.079,0.003,0.158,0.001,0.237-0.006l19.338-1.842c0.882-0.084,1.688,0.502,1.88,1.367l1.634,7.352
		c0.02,0.089,0.033,0.18,0.038,0.271l0.991,15.863l1.991,22.895c0.006,0.07,0.008,0.14,0.006,0.211l-0.996,29.895l-1.5,28.643
		l-1.49,14.263c-0.006,0.062-0.016,0.124-0.029,0.185l-2.683,12.52c-0.173,0.809-0.889,1.388-1.717,1.388h-26.114
		c-0.09,0-0.18-0.007-0.269-0.021l-19.198-2.979l-23.806-3.968c-0.129-0.021-0.255-0.057-0.376-0.107l-21.818-8.926l-14.665-6.844
		c-0.221-0.103-0.418-0.251-0.579-0.435l-6.578-7.518c-0.118-0.135-0.215-0.288-0.287-0.452l-6.855-15.668
		c-0.025-0.056-0.046-0.113-0.065-0.171l-6.936-21.799c-0.024-0.076-0.043-0.153-0.057-0.232l-3.949-22.709
		c-0.02-0.115-0.029-0.232-0.025-0.35l0.992-35.724c0.002-0.067,0.008-0.133,0.017-0.2l2.973-20.811
		c0.009-0.06,0.02-0.119,0.035-0.178l3.954-15.815c0.016-0.065,0.036-0.128,0.059-0.191c0.988-2.302,4.977-14.604,5.965-16.906
		c1.432-0.317-0.359,9.973,0,10.682c0.07,0.138,0.131,0.337,0.112,0.616l2.736,7.295c0.1,0.267,0.264,0.506,0.477,0.696l8.621,7.663
		c0.038,0.031,0.075,0.062,0.113,0.092c4.279,3.418,8.131,5.585,10.942,6.956c4.028,1.965,9.019,3.643,19,7
		c1.255,0.422,2.294,0.767,3,1"/>
	<path style="fill:#F6A000;stroke:#1D1D1B;stroke-linecap:round;stroke-miterlimit:10;" d="M495.316,481.427"/>
	<path style="fill:#F6A000;stroke:#1D1D1B;stroke-linecap:round;stroke-miterlimit:10;" d="M486.462,475.5"/>
</g>
</svg>
