<?xml version="1.0" encoding="iso-8859-1"?>
<!-- Generator: Adobe Illustrator 27.2.0, SVG Export Plug-In . SVG Version: 6.00 Build 0)  -->
<svg version="1.1" id="Calque_1" xmlns="http://www.w3.org/2000/svg" xmlns:xlink="http://www.w3.org/1999/xlink" x="0px" y="0px"
	 viewBox="0 0 1366 768" style="enable-background:new 0 0 1366 768;" xml:space="preserve">
<filter  id="AI_FlouGaussien_4">
	<feGaussianBlur  stdDeviation="4"></feGaussianBlur>
</filter>
<image style="display:none;overflow:visible;" width="850" height="980" xlink:href="../../../../../../../Desktop/Capture d&#x2019;e&#x301;cran 2025-06-04 a&#x300; 02.07.06.png"  transform="matrix(0.5 0 0 0.5 568 203)">
</image>
<path style="fill:#FCEE21;" d="M1147.153,394.332c0,194.675-157.815,352.49-352.49,352.49
	c-179.199,0-310.893-144.234-343.868-274.657c-9.436-37.319-9.046-66.597-8.622-77.833c5.445-144.128,131.272-352.49,352.49-352.49
	C989.338,41.841,1147.153,199.657,1147.153,394.332z"/>
<g style="opacity:0.46;filter:url(#AI_FlouGaussien_4);">
	<ellipse style="fill:#F7931E;" cx="799.876" cy="595" rx="255.298" ry="93"/>
</g>
<g>
	<g>
		<path style="fill:none;stroke:#333333;stroke-width:8;stroke-linecap:round;stroke-linejoin:round;stroke-miterlimit:10;" d="
			M655.5,581.5c-2.12-4.527-6.049-14.675-3-26c0.696-2.587,1.332-10.832,13-19c20-14,31.137-17.008,41-21
			c18.971-7.679,32.316-12.312,37-15c0.398-0.229,1.985-1,4-1c0,0,2.02,0.198,4,2c2.778,2.529,5.196,13.741,6,29"/>
		<path style="fill:none;stroke:#333333;stroke-width:8;stroke-linecap:round;stroke-linejoin:round;stroke-miterlimit:10;" d="
			M898,563c-0.546-11.908,0.136-21.728,1-29c0.389-3.274,0.559-3.875,1-4c4.338-1.233,21.019,47.369,28,75
			c1.391,5.507,2.496,10.571,3,17c0.68,8.67,0.004,16.448-1,28c-0.363,4.173-0.731,7.626-1,10"/>
		<path style="fill:none;stroke:#333333;stroke-width:3;stroke-linecap:round;stroke-linejoin:round;stroke-miterlimit:10;" d="
			M737,504c18.834-26.597,30.494-46.615,33-53c0.516-1.316,2.023-5.432,6-8c4.4-2.842,9.443-2.253,11-2
			c7.901,1.283,12.742,7.999,16,12c7.627,9.366,18.876,15.085,28,23c10.573,9.172,33.098,28.587,68,56"/>
		<path style="fill:none;stroke:#333333;stroke-width:6;stroke-linecap:round;stroke-linejoin:round;stroke-miterlimit:10;" d="
			M935,191c4.144,8.179,2,21,2,21c-2.333,13.951-9.474,166.466-16,369"/>
		<path style="fill:none;stroke:#333333;stroke-width:6;stroke-linecap:round;stroke-linejoin:round;stroke-miterlimit:10;" d="
			M673,532c-9.646-182.594-16.111-298.308-18-304c-0.166-0.499-1.561-4.009,0-7c0.978-1.874,2.656-2.664,5-4
			c5.298-3.02,8.281-5.574,9-6c14.505-8.599,237.726-25.433,249-31c0.635-0.314,29,21,8,4"/>
		<path style="fill:none;stroke:#333333;stroke-width:6;stroke-linecap:round;stroke-linejoin:round;stroke-miterlimit:10;" d="
			M655,222.882"/>
		
			<line style="fill:none;stroke:#333333;stroke-width:6;stroke-linecap:round;stroke-linejoin:round;stroke-miterlimit:10;" x1="668" y1="432" x2="924" y2="460"/>
		<path style="fill:#006837;stroke:#000000;stroke-miterlimit:10;" d="M909.188,450.157L676,425l-10-202l254-28l-2.908,248.143
			C917.043,447.355,913.376,450.609,909.188,450.157z"/>
	</g>
	
		<line style="fill:none;stroke:#333333;stroke-width:2;stroke-linecap:round;stroke-linejoin:round;stroke-miterlimit:10;" x1="776" y1="200" x2="776" y2="209.491"/>
	
		<line style="fill:none;stroke:#333333;stroke-width:2;stroke-linecap:round;stroke-linejoin:round;stroke-miterlimit:10;" x1="666" y1="326.233" x2="669.973" y2="326.233"/>
	
		<line style="fill:none;stroke:#333333;stroke-width:2;stroke-linecap:round;stroke-linejoin:round;stroke-miterlimit:10;" x1="926" y1="329" x2="919.329" y2="329"/>
</g>
<g>
	<g>
		<g>
			<path style="fill:#FFFFFF;" d="M715.136,297.452c4.215-2.956,6.811-7.608,7.054-12.76c-1,0-2,0-3,0
				c0,3.57,0.001,7.14,0.002,10.71c0,1.321-0.512,3.673,0.743,4.533c1.05,0.719,2.498,0.774,3.684,0.417
				c2.692-0.81,3.926-3.443,4.567-5.964c0.838-3.294,1.328-6.687,1.587-10.073c0.148-1.94-2.807-1.893-3,0
				c-0.42,4.131-0.1,8.325,0.971,12.339c0.423,1.586,0.895,3.467,2.712,3.916c1.654,0.409,3.077-0.902,3.868-2.208
				c0.968-1.596,1.563-3.556,2.197-5.303c0.74-2.04,1.391-4.113,1.951-6.21c1.076-4.028,1.793-8.137,2.218-12.283c-1,0-2,0-3,0
				c0.415,9.331,0.827,18.67,0.69,28.013c-0.069,4.698-0.277,9.395-0.695,14.075c-0.382,4.273-0.74,8.724-1.836,12.884
				c-0.732,2.78-2.783,6.631-6.222,4.634c-3.63-2.108-3.198-7.532-2.559-11.052c0.734-4.043,2.859-7.027,5.906-9.689
				c2.777-2.425,5.726-4.63,8.482-7.086c2.683-2.39,5.501-4.708,7.582-7.671c2.109-3.003,2.94-6.541,2.962-10.174
				c0.012-1.931-2.988-1.933-3,0c-0.02,3.376-0.855,6.501-2.945,9.196c-2.147,2.768-4.999,4.968-7.584,7.301
				c-3.011,2.718-6.441,4.986-9.291,7.877c-3.073,3.118-4.722,6.826-5.257,11.155c-0.512,4.14-0.383,9.097,3.122,11.97
				c3.006,2.463,7.125,2.168,9.53-0.942c2.466-3.189,2.806-7.643,3.329-11.489c0.672-4.947,1.088-9.924,1.304-14.911
				c0.491-11.363-0.013-22.738-0.518-34.091c-0.087-1.961-2.806-1.895-3,0c-0.666,6.501-2.209,12.903-4.55,19.003
				c-0.483,1.259-0.894,2.828-1.831,3.838c-0.322,0.347-0.013,0.306-0.179,0.101c-0.188-0.233-0.225-0.702-0.307-0.982
				c-0.216-0.741-0.404-1.49-0.566-2.245c-0.704-3.278-0.824-6.635-0.485-9.966c-1,0-2,0-3,0c-0.149,1.942-1.153,15.443-5.324,13.03
				c0.248,0.432,0.495,0.863,0.743,1.295c-0.001-4.649-0.001-9.298-0.002-13.947c0-1.939-2.909-1.921-3,0
				c-0.19,4.029-2.258,7.848-5.568,10.169C712.053,295.962,713.55,298.564,715.136,297.452L715.136,297.452z"/>
		</g>
	</g>
	<g>
		<g>
			<path style="fill:#FFFFFF;" d="M757.903,278.441c-4.178,1.905-7.407,5.263-9.085,9.542c-0.793,2.021-1.186,4.204-1.249,6.371
				c-0.059,1.999-0.202,5.02,1.393,6.491c0.93,0.858,2.227,1.014,3.436,1.018c1.636,0.005,3.274-0.047,4.909-0.071
				c1.572-0.023,3.143-0.047,4.715-0.07c1.135-0.017,2.493,0.17,3.544-0.368c2.353-1.204,2.4-4.187,2.168-6.441
				c-0.287-2.784-0.908-5.525-1.917-8.138c-1.071-2.774-2.461-5.861-4.654-7.941c-1.983-1.882-5.156-2.782-7.519-1.023
				c-1.191,0.887-0.8,2.683,0.757,2.795c6.756,0.488,13.56-1.272,19.241-4.959c-0.752-0.432-1.505-0.863-2.257-1.295
				c-0.543,4.278-1.085,8.556-1.628,12.834c-0.268,2.109-0.592,4.22-0.79,6.337c-0.168,1.792-0.091,3.709,0.81,5.316
				c1.537,2.743,5.413,3.926,7.666,1.322c1.027-1.187,1.421-2.754,1.632-4.272c0.279-2.012,0.445-4.043,0.659-6.062
				c0.533-5.033,1.067-10.065,1.6-15.098c-1,0-2,0-3,0c0.03,6.706-0.024,13.419,0.093,20.124c0.043,2.469,0.262,5.095,1.497,7.291
				c1.133,2.015,3.776,4.235,5.839,2.019c0.904-0.971,1.432-2.396,1.939-3.599c0.571-1.354,1.044-2.741,1.415-4.163
				c0.734-2.815,1.105-5.727,1.295-8.626c0.188-2.876,0.187-5.761,0.158-8.642c-0.012-1.2,0.041-2.516-0.79-3.484
				c-0.769-0.896-2.043-1.136-3.076-0.544c-2.347,1.346-1.996,4.759,0.501,5.665c1.187,0.431,2.494,0.262,3.64-0.211
				c1.402-0.578,2.499-1.74,3.95-2.196c-0.633-0.482-1.266-0.964-1.899-1.446c0.278,4.538,0.556,9.076,0.833,13.615
				c0.217,3.541,0.104,7.531,2.733,10.267c0.613,0.638,1.49,0.488,2.121,0c1.265-0.977,2.289-2.172,3.107-3.544
				c0.991-1.662-1.602-3.173-2.59-1.514c-0.694,1.165-1.565,2.109-2.638,2.937c0.707,0,1.414,0,2.121,0
				c-1.052-1.094-1.405-2.585-1.573-4.056c-0.209-1.838-0.258-3.702-0.371-5.548c-0.248-4.052-0.496-8.104-0.744-12.156
				c-0.057-0.933-0.917-1.755-1.899-1.446c-1.708,0.537-3.027,2.081-4.738,2.471c-0.378,0.086-1.085,0.035-1.176-0.015
				c-0.022-0.012,0.073-0.169,0.071-0.17c0.156,0.069-0.53-0.192-0.633-0.07c-0.123,0.146,0.046,1.201,0.049,1.446
				c0.042,4.169,0.056,8.38-0.549,12.515c-0.297,2.027-0.746,4.037-1.397,5.98c-0.318,0.948-0.683,1.875-1.117,2.776
				c-0.2,0.416-0.585,0.884-0.687,1.324c-0.034,0.149-0.414,0.399,0.011,0.396c-0.142,0.001-0.442-0.354-0.54-0.45
				c-2.525-2.474-1.869-7.346-1.883-10.516c-0.024-5.476-0.048-10.952-0.072-16.428c-0.009-1.971-2.801-1.88-3,0
				c-0.49,4.62-0.979,9.24-1.469,13.86c-0.238,2.251-0.405,4.524-0.719,6.765c-0.157,1.117-0.51,3.48-2.105,3.282
				c-1.867-0.231-2.187-2.612-2.143-4.063c0.066-2.14,0.467-4.297,0.736-6.418c0.584-4.601,1.167-9.201,1.751-13.802
				c0.144-1.134-1.379-1.865-2.257-1.295c-5.281,3.427-11.449,5.003-17.727,4.549c0.252,0.932,0.505,1.863,0.757,2.795
				c3.557-2.649,6.639,4.393,7.603,6.758c0.835,2.051,1.435,4.209,1.791,6.393c0.192,1.175,0.988,4.527-0.481,5.147
				c-0.277,0.117-0.758,0.006-1.057,0.007c-0.579,0.003-1.158,0.017-1.737,0.026c-1.241,0.018-2.481,0.037-3.722,0.055
				c-1.158,0.017-2.316,0.034-3.474,0.052c-0.737,0.011-2.502,0.341-3.091-0.238c-0.465-0.457-0.339-1.695-0.382-2.31
				c-0.06-0.876-0.064-1.756-0.007-2.633c0.11-1.665,0.486-3.33,1.109-4.879c1.433-3.56,4.256-6.176,7.706-7.749
				C761.172,280.231,759.649,277.645,757.903,278.441L757.903,278.441z"/>
		</g>
	</g>
	<g>
		<g>
			<path style="fill:#FFFFFF;" d="M807.593,280.037c-1.361,2.288-2.722,4.576-4.082,6.864c-1.303,2.191-2.81,4.358-3.906,6.662
				c-0.859,1.807-1.006,3.984,0.605,5.428c1.279,1.146,3.111,1.359,4.757,1.391c1.192,0.023,2.386,0.007,3.578,0.01
				c1.126,0.003,2.42,0.166,3.432-0.433c1.881-1.114,1.424-4.074,1.49-5.91c0.19-5.315,0.38-10.63,0.57-15.946
				c0.214-5.98,0.427-11.959,0.641-17.939c0.06-1.681-2.554-2.05-2.946-0.399c-1.909,8.036-1.619,16.354-1.263,24.544
				c0.16,3.68,0.455,7.661,2.334,10.927c1.554,2.701,4.83,5.143,8.044,3.831c1.764-0.72,0.992-3.623-0.798-2.893
				c-2.854,1.165-4.87-2.383-5.567-4.622c-1.005-3.225-0.998-6.659-1.118-10.003c-0.253-7.018-0.372-14.108,1.262-20.986
				c-0.982-0.133-1.964-0.266-2.946-0.399c-0.312,8.72-0.623,17.441-0.935,26.161c-0.077,2.159-0.154,4.319-0.232,6.478
				c-0.039,1.08-0.077,2.159-0.116,3.239c-0.01,0.288,0.111,1.098-0.054,1.334c-0.084,0.121-1.027,0.018-1.308,0.017
				c-1.771-0.004-3.672,0.189-5.424-0.105c-0.47-0.079-1.174-0.206-1.486-0.614c-0.524-0.684,0.108-1.707,0.457-2.33
				c2.416-4.325,5.071-8.534,7.604-12.792C811.172,279.887,808.58,278.377,807.593,280.037L807.593,280.037z"/>
		</g>
	</g>
	<g>
		<g>
			<path style="fill:#FFFFFF;" d="M828.607,252.305c1.197,6.224,0.274,12.777-2.578,18.435c-0.867,1.72,1.72,3.24,2.59,1.514
				c3.237-6.42,4.239-13.688,2.881-20.747C831.135,249.614,828.243,250.416,828.607,252.305L828.607,252.305z"/>
		</g>
	</g>
	<g>
		<g>
			<path style="fill:#FFFFFF;" d="M674.57,297.874c3.185,1.787,6.6,3.542,10.366,3.008c3.747-0.531,5.724-3.248,7.097-6.53
				c1.534-3.668,3.061-7.38,3.926-11.272c0.911-4.101,1.315-8.3,2.172-12.415c0.839-4.029,1.9-8.012,3.168-11.927
				c0.317-0.979,0.648-1.953,0.99-2.924c0.064-0.18,0.483-0.909,0.449-1.078c0.029-0.049,0.059-0.098,0.088-0.147
				c-0.138,0.023-0.277,0.047-0.415,0.07c-0.014,0.142,0.283,0.539,0.344,0.67c0.84,1.802,1.233,3.838,1.451,5.803
				c0.932,8.404,0.709,17.072,0.021,25.485c-0.317,3.875-1.65,8.706,1.112,12.006c1.175,1.404,2.961,2.171,4.786,1.84
				c1.883-0.342,3.354-1.707,4.635-3.039c1.338-1.393-0.781-3.517-2.121-2.121c-0.913,0.95-2.282,2.547-3.777,2.207
				c-1.509-0.343-2.104-2.158-2.196-3.503c-0.134-1.959,0.257-3.971,0.434-5.918c0.186-2.043,0.332-4.089,0.438-6.138
				c0.212-4.097,0.264-8.203,0.155-12.304c-0.103-3.896-0.167-7.916-0.981-11.742c-0.467-2.194-2.111-8.121-5.508-5.849
				c-1.425,0.953-1.839,3.016-2.351,4.532c-0.633,1.875-1.218,3.766-1.754,5.671c-1.072,3.809-1.947,7.674-2.613,11.575
				c-0.677,3.97-1.112,7.961-2.332,11.817c-0.652,2.06-1.446,4.072-2.261,6.073c-0.693,1.701-1.323,3.722-2.71,5.004
				c-3.206,2.964-8.03,0.28-11.1-1.442C674.398,294.338,672.884,296.928,674.57,297.874L674.57,297.874z"/>
		</g>
	</g>
	<g>
		<g>
			<path style="fill:#FFFFFF;" d="M835.563,298.603c2.896-7.698,5.79-15.411,8.027-23.332c1.101-3.899,2.042-7.847,2.731-11.841
				c0.678-3.93,1.355-8.075,1.223-12.075c-0.109-3.311-1.629-6.963-5.259-7.619c-3.293-0.595-5.446,2.109-5.94,5.069
				c-0.28,1.677-0.242,3.372-0.257,5.066c-0.02,2.156-0.04,4.312-0.06,6.469c-0.041,4.395-0.082,8.791-0.123,13.186
				c-0.091,9.786-0.182,19.572-0.273,29.358c0.982-0.133,1.964-0.266,2.946-0.399c-0.972-6.769-1.929-15.153,4.043-20.004
				c-0.785-0.101-1.571-0.202-2.356-0.304c1.109,1.844,1.767,3.891,1.817,6.051c0.049,2.129-0.655,4.134-0.886,6.232
				c-0.222,2.016,0.116,3.977,1.522,5.515c1.074,1.175,2.741,1.982,4.354,1.596c1.738-0.416,2.731-1.885,3.358-3.453
				c0.846-2.114,1.453-4.364,1.986-6.575c1.067-4.425,1.652-8.962,1.785-13.511c0.057-1.972-2.787-1.871-3,0
				c-0.504,4.432-0.835,8.882-0.971,13.34c-0.089,2.916-0.63,7.366,2.526,8.98c3.356,1.716,6.112-1.841,7.228-4.565
				c1.585-3.868,2.358-8.025,2.385-12.2c0.013-1.985-2.768-1.86-3,0c-0.544,4.361-0.741,8.756-0.551,13.148
				c0.076,1.75-0.14,4.182,0.897,5.689c0.981,1.425,2.816,1.427,4.196,0.613c2.803-1.652,4.221-5.655,4.831-8.661
				c0.706-3.481,0.665-7.05,0.547-10.582c-0.064-1.931-2.926-1.931-3,0c-0.191,4.988,0.774,10.635,3.434,14.946
				c1.169,1.894,3.196,2.752,5.351,2.046c2.252-0.737,3.48-2.809,4.468-4.814c0.85-1.726-1.736-3.248-2.59-1.514
				c-0.627,1.272-1.349,3.045-2.844,3.486c-1.764,0.52-2.421-1.824-2.932-3.092c-1.421-3.522-2.031-7.27-1.886-11.059c-1,0-2,0-3,0
				c0.173,5.207,0.417,11.302-2.911,15.683c-0.187,0.246-0.846,1.167-1.232,1.099c-0.159-0.028-0.157-1.051-0.184-1.407
				c-0.128-1.703-0.199-3.41-0.214-5.118c-0.03-3.5,0.187-6.993,0.621-10.465c-1,0-2,0-3,0c-0.021,3.232-0.527,6.411-1.559,9.477
				c-0.319,0.947-2.716,6.782-4.218,4.044c-0.521-0.95-0.434-2.216-0.42-3.26c0.024-1.734,0.08-3.468,0.163-5.2
				c0.169-3.548,0.463-7.088,0.864-10.617c-1,0-2,0-3,0c-0.111,3.815-0.549,7.599-1.36,11.33c-0.402,1.85-0.889,3.681-1.457,5.487
				c-0.297,0.942-0.77,3.616-2.024,3.816c-1.412,0.224-2.188-1.777-2.239-2.832c-0.09-1.847,0.615-3.677,0.842-5.497
				c0.421-3.369-0.362-6.771-2.107-9.673c-0.538-0.894-1.61-0.909-2.356-0.304c-6.865,5.576-5.933,15.138-4.815,22.923
				c0.245,1.709,2.931,1.241,2.946-0.399c0.147-15.757,0.293-31.514,0.44-47.271c0.015-1.644-0.025-3.299,0.066-4.941
				c0.065-1.162,0.202-2.75,1.132-3.584c0.933-0.836,2.226-0.331,3.013,0.462c1.195,1.203,1.29,3.076,1.265,4.673
				c-0.113,7.422-1.79,14.908-3.788,22.024c-2.245,8-5.167,15.787-8.091,23.558C831.99,299.615,834.888,300.396,835.563,298.603
				L835.563,298.603z"/>
		</g>
	</g>
	<g>
		<g>
			<path style="fill:#FFFFFF;" d="M690.976,283.291c2.391-2.841,5.092-5.428,8.11-7.597c1.461-1.05,2.958-2.186,4.839-1.63
				c1.545,0.457,2.874,1.478,4.314,2.174c6.383,3.087,13.899-0.17,16.035-6.914c0.584-1.845-2.311-2.634-2.893-0.798
				c-0.947,2.988-3.447,5.294-6.565,5.827c-1.645,0.281-3.367,0.057-4.889-0.622c-1.485-0.662-2.812-1.619-4.321-2.237
				c-3.446-1.41-6.184,0.193-8.926,2.267c-2.881,2.179-5.499,4.644-7.826,7.408C687.619,282.638,689.731,284.771,690.976,283.291
				L690.976,283.291z"/>
		</g>
	</g>
	<g>
		<g>
			<path style="fill:#FFFFFF;" d="M868.776,276.624c1.93,0,1.934-3,0-3C866.846,273.624,866.843,276.624,868.776,276.624
				L868.776,276.624z"/>
		</g>
	</g>
</g>
</svg>
