<?xml version="1.0" encoding="iso-8859-1"?>
<!-- Generator: Adobe Illustrator 27.2.0, SVG Export Plug-In . SVG Version: 6.00 Build 0)  -->
<svg version="1.1" id="Calque_1" xmlns="http://www.w3.org/2000/svg" xmlns:xlink="http://www.w3.org/1999/xlink" x="0px" y="0px"
	 viewBox="0 0 1366 768" style="enable-background:new 0 0 1366 768;" xml:space="preserve">
<circle style="opacity:0.75;fill:#22B573;" cx="700.727" cy="374.077" r="314.273"/>
<g>
	<ellipse style="fill:#F15A24;" cx="701.104" cy="606.935" rx="53.343" ry="38.512"/>
	<ellipse style="fill:#B4252D;" cx="700.717" cy="594.771" rx="18.114" ry="11.939"/>
	<path style="fill:#D4524C;" d="M650.143,320.374c-3.578,15.623-9.51,41.704-14.22,63.419c-0.401,1.85-1.045,4.844-1.625,8.879
		c-0.261,1.814-3.472,25.026,0.813,39.32c6.799,22.682,36.08,34.946,56.879,37.206c2.97,0.323,34.07,3.205,57.691-18.603
		c4.431-4.091,15.271-14.099,18.282-30.018c1.794-9.484,0.069-17.146-0.813-21.14c-4.28-19.397-9.244-45.581-15.438-79.486"/>
	<ellipse style="fill:#F7931E;" cx="699.688" cy="412.805" rx="67.105" ry="51.667"/>
	<ellipse style="fill:#F15A24;" cx="699.688" cy="398.19" rx="60.93" ry="37.052"/>
	<ellipse style="fill:#F0836E;" cx="701.069" cy="319.803" rx="50.903" ry="31.408"/>
	<ellipse style="opacity:0.62;fill:#D4524C;" cx="699.894" cy="319.763" rx="48.373" ry="29.847"/>
	<path style="fill:#CC2639;" d="M694.748,580.226c-1.182-9.017,0.809-18.2,0.412-27.288c-0.811-18.56-0.821-73.64-0.823-79.764
		c0-0.237,0.298-1.104,0-2.099c-0.841-2.812-5.434-3.475-5.352-3.778c0.072-0.266,3.513,0.457,5.352,0.84
		c6.157,1.28,6.714,1.306,7.41,1.259c3.732-0.25,6.233-2.241,6.587-1.679c0.23,0.365-0.822,1.201-1.647,2.519
		c-1.739,2.776-1.368,5.92-1.235,7.557c1.02,12.552-0.721,25.192-0.412,37.783c0.222,9.026-0.291,4.602-0.412,25.189
		c-0.146,25.025,0.61,31.752,0,37.783c-0.067,0.658-0.182,1.632,0,2.939c0.739,5.298,5.047,6.552,4.94,9.656
		c-0.108,3.134-4.628,5.523-7.41,6.297c-0.382,0.106-6.333,1.661-10.292-2.099c-0.594-0.564-2.942-2.794-2.47-5.038
		c0.491-2.331,3.549-2.41,4.94-5.458C695.181,582.993,694.877,581.215,694.748,580.226z"/>
</g>
<g style="display:none;opacity:0.54;">
	<circle style="display:inline;fill:#E30613;" cx="700.356" cy="284.178" r="2.939"/>
	<circle style="display:inline;fill:#0087CB;" cx="715.359" cy="283.405" r="3.712"/>
	<circle style="display:inline;fill:#FFE600;" cx="723.402" cy="270.412" r="4.64"/>
	<ellipse style="display:inline;fill:#005EAA;" cx="723.402" cy="295.212" rx="4.331" ry="3.97"/>
	
		<line style="display:inline;stroke:#B3201F;stroke-width:2;stroke-miterlimit:10;" x1="703.913" y1="284.023" x2="711.028" y2="284.023"/>
	
		<line style="display:inline;stroke:#B3201F;stroke-width:5;stroke-miterlimit:10;" x1="717.525" y1="279.692" x2="720.463" y2="274.588"/>
	
		<line style="display:inline;stroke:#B3201F;stroke-width:5;stroke-miterlimit:10;" x1="717.525" y1="287.117" x2="720.927" y2="291.138"/>
</g>
<g style="display:none;opacity:0.88;">
	<circle style="display:inline;fill:#E30613;" cx="641.258" cy="103.749" r="11.614"/>
	<circle style="display:inline;fill:#0087CB;" cx="654.482" cy="161.629" r="14.67"/>
	<circle style="display:inline;fill:#FFE600;" cx="710.536" cy="184.095" r="18.338"/>
	
		<ellipse transform="matrix(0.9851 -0.1723 0.1723 0.9851 -25.4414 108.7673)" style="display:inline;fill:#005EAA;" cx="613.995" cy="200.976" rx="15.689" ry="17.115"/>
	
		<line style="display:inline;stroke:#B3201F;stroke-width:2;stroke-miterlimit:10;" x1="644.282" y1="117.493" x2="649.125" y2="145.19"/>
	
		<line style="display:inline;stroke:#B3201F;stroke-width:5;stroke-miterlimit:10;" x1="670.407" y1="167.531" x2="692.278" y2="175.497"/>
	
		<line style="display:inline;stroke:#B3201F;stroke-width:5;stroke-miterlimit:10;" x1="641.505" y1="172.585" x2="628.166" y2="188.57"/>
</g>
<g style="display:none;opacity:0.72;">
	<circle style="display:inline;fill:#E30613;" cx="714.166" cy="213.264" r="4.7"/>
	<circle style="display:inline;fill:#0087CB;" cx="694.134" cy="226.528" r="5.937"/>
	<circle style="display:inline;fill:#FFE600;" cx="693.622" cy="250.96" r="7.421"/>
	
		<ellipse transform="matrix(0.8611 -0.5084 0.5084 0.8611 -16.6909 372.5195)" style="display:inline;fill:#005EAA;" cx="673.458" cy="216.808" rx="6.926" ry="6.349"/>
	
		<line style="display:inline;stroke:#B3201F;stroke-width:2;stroke-miterlimit:10;" x1="709.393" y1="216.369" x2="699.595" y2="222.154"/>
	
		<line style="display:inline;stroke:#B3201F;stroke-width:5;stroke-miterlimit:10;" x1="694.17" y1="233.4" x2="694.273" y2="242.819"/>
	
		<line style="display:inline;stroke:#B3201F;stroke-width:5;stroke-miterlimit:10;" x1="688.133" y1="223.176" x2="680.178" y2="220.405"/>
</g>
<g style="display:none;opacity:0.48;">
	<circle style="display:inline;fill:#E30613;" cx="733.72" cy="133.951" r="8.611"/>
	<circle style="display:inline;fill:#0087CB;" cx="774.831" cy="149.689" r="10.877"/>
	<circle style="display:inline;fill:#FFE600;" cx="811.801" cy="124.43" r="13.597"/>
	
		<ellipse transform="matrix(0.4051 -0.9143 0.9143 0.4051 290.9081 828.8264)" style="display:inline;fill:#005EAA;" cx="782.362" cy="190.866" rx="11.633" ry="12.69"/>
	
		<line style="display:inline;stroke:#B3201F;stroke-width:2;stroke-miterlimit:10;" x1="743.434" y1="137.759" x2="762.495" y2="146.205"/>
	
		<line style="display:inline;stroke:#B3201F;stroke-width:5;stroke-miterlimit:10;" x1="785.039" y1="142.315" x2="798.971" y2="132.129"/>
	
		<line style="display:inline;stroke:#B3201F;stroke-width:5;stroke-miterlimit:10;" x1="776.226" y1="162.204" x2="780.568" y2="177.017"/>
</g>
<g style="display:none;opacity:0.4;">
	<circle style="display:inline;fill:#E30613;" cx="696.682" cy="333.272" r="2.525"/>
	<circle style="display:inline;fill:#0087CB;" cx="696.017" cy="320.382" r="3.189"/>
	<circle style="display:inline;fill:#FFE600;" cx="684.855" cy="313.472" r="3.987"/>
	<ellipse style="display:inline;fill:#005EAA;" cx="706.161" cy="313.472" rx="3.411" ry="3.721"/>
	
		<line style="display:inline;stroke:#B3201F;stroke-width:2;stroke-miterlimit:10;" x1="696.549" y1="330.216" x2="696.549" y2="324.103"/>
	
		<line style="display:inline;stroke:#B3201F;stroke-width:5;stroke-miterlimit:10;" x1="692.828" y1="318.522" x2="688.443" y2="315.997"/>
	
		<line style="display:inline;stroke:#B3201F;stroke-width:5;stroke-miterlimit:10;" x1="699.207" y1="318.522" x2="702.662" y2="315.598"/>
</g>
<g>
	<path style="fill:#ED1E79;" d="M864.498,291.149c-0.665,2.788,0.795,5.976,3,7c1.552,0.721,3.022,0.16,4,0
		c5.912-0.969,11.855,9.756,18,17c10.593,12.487,15.26,6.934,23,18c5.887,8.416,6.528,16.402,14,19c2.02,0.702,5.182,1.234,6,0
		c0.777-1.172-0.699-3.725-7-11c-6.035-6.967-10.481-11.322-14-15c-9.398-9.823-6.855-9.254-13-15c-10.709-10.013-15.319-8.83-20-17
		c-2.217-3.869-3.003-7.311-6-8C869.62,285.488,865.365,287.515,864.498,291.149z"/>
	<path style="fill:#FFFF00;" d="M844.498,325.149c-2.05-0.773-3.271,1.514-15,7c-5.534,2.588-8.354,3.884-11,4
		c-6.494,0.284-11.547-4.062-16-8c-12.131-10.728-20.458-18.702-24-22c-1.788-1.665-1.219-1.078-29-25
		c-9.25-7.965-13.858-12.029-13-16c1.131-5.235,10.657-7.282,14-8c36.776-7.901,93.823,23.479,112,34
		c21.483,12.434,44.102,27.816,50,45c1.67,4.867,2.338,10.866,7,23c4.124,10.736,6.92,14.677,5,19c-2.838,6.391-13.263,7.497-18,8
		c-11.919,1.265-21.269-2.652-29-6c-13.724-5.942-21.99-9.522-27-18C841.363,346.691,850.394,327.371,844.498,325.149z"/>
	<path style="fill:#FCEE21;" d="M882.498,296.149c-3.471-6.021-4.262-11.195-3-44c1.291-33.577,2.767-45.019,4-53
		c2.229-14.436,5.441-29.08,16-41c5.065-5.718,8.809-7.409,12-7c2.836,0.364,6.166,2.506,12,14c4.766,9.389,5.028,12.853,9,23
		c3.995,10.208,12.097,30.905,20,38c0.423,0.38,1.572,1.373,2,3c0.868,3.301-1.945,6.511-8,13
		c-6.101,6.538-11.758,13.486-17.962,19.926c-1.564,1.624-3.423,3.533-3.038,4.074c0.619,0.871,6.202-3,14-6
		c5.619-2.161,13.537-5.207,23-4c9.445,1.205,15.798,6.056,17,7c10.23,8.03,12.4,19.53,13,23c1.863,10.768-1.397,18.954-5,28
		c-5.13,12.881-9.542,23.959-20,27c-2.507,0.729-5.733,0.965-25-7c-15.503-6.409-23.254-9.613-32-15
		C895.26,309.764,887.641,305.071,882.498,296.149z"/>
</g>
<g>
	<path style="fill:#2E3192;" d="M528.305,321.874c-1.286,0.013-2.508-1.11-3.007-2.255c-1.02-2.344,0.833-5.161,3.007-8.268
		c3.533-5.048,5.299-7.571,9.02-12.026c8.453-10.121,6.798-11.397,13.529-18.039c3.139-3.098,9.019-8.268,9.02-8.268
		c0.005-0.026,0.197-1.626,0.752-3.007c0.414-1.032,0.723-1.802,1.503-2.255c1.147-0.666,2.506-0.179,3.006,0
		c0.119,0.043,2.763,1.028,3.007,3.007c0.177,1.441-1.017,2.613-3.007,4.51c-1.91,1.821-3.595,2.902-3.758,3.007
		c-2.55,1.641-3.787,3.458-8.268,9.771c-3.059,4.31-6.152,8.633-7.516,10.523c-8.995,12.458-8.734,10.384-11.274,15.033
		C531.855,318.115,530.634,321.851,528.305,321.874z"/>
	<path style="fill:#298DE2;" d="M524.741,308.817c-14.654,7.833-27.917,7.595-30.71,7.5c-7.781-0.262-16.021-0.539-22.899-6.236
		c-12.317-10.202-10.146-29.403-9.3-36.875c0.87-7.691,1.778-15.72,7.567-20.538c5.903-4.913,10.21-8.498,15.026-9.428
		c0.501-0.097,1.909-0.339,2.361-1.331c0.91-1.998-3.118-4.709-4.686-7.888c-2.226-4.511,0.963-9.03,5.15-18.458
		c4.471-10.069,12.653-28.494,8.969-39.277c-0.234-0.685-0.765-2.067-0.469-3.804c0.899-5.279,8.695-9.504,14.277-9.484
		c8.99,0.032,15.376,11.087,22.359,23.531c9.727,17.336,14.385,33.099,17.04,44.238c5.648,23.695,8.473,35.543,3.962,47.781
		C546.522,297.174,529.552,306.246,524.741,308.817z"/>
	<path style="fill:#29ABE2;" d="M548.367,296.31c2.402-4.506,7.537-13.22,19.024-24.573c13.605-13.447,20.497-15.153,53.901-35.67
		c25.011-15.362,37.083-24.192,42.804-19.817c2.504,1.916,3.597,6.213,3.171,9.512c-0.758,5.866-6.442,9.528-8.719,11.097
		c-23.428,16.142-21.554,41.786-41.219,46.767c-3.546,0.898-11.672,2.107-14.268,7.927c-0.771,1.729-0.77,3.228-0.793,3.963
		c-0.264,8.486-6.97,17.953-11.097,23.78c-4.871,6.877-16.794,23.709-36.462,28.536c-9.416,2.311-12.638-0.086-13.475-0.793
		c-1.99-1.68-3.823-5.051-2.378-17.439C539.924,320.436,541.163,309.826,548.367,296.31z"/>
</g>
<path style="display:none;fill:#0000FF;stroke:#00FFFF;stroke-width:0.5;stroke-miterlimit:10;" d="M236.862,500.723
	c-11.823,1.332-19.131,4.403-28.22,0c-1.928-0.934-8.191-4.265-11.545-10.903c-6.067-12.01,1.364-26.985,3.848-32.71
	c15.68-36.133-12.423-56.961-3.207-109.674c5.344-30.569,15.015-24.823,26.296-70.55c7.268-29.461,13.238-53.66,3.207-70.55
	c-1.669-2.81-5.923-9.025-3.848-14.751c2.314-6.385,11.202-8.588,17.958-10.262c4.614-1.143,23.198-5.748,27.579,1.283
	c3.092,4.963-3.476,11.577-7.696,22.448c-2.124,5.471-6.17,18.501,2.565,54.516c6.727,27.734,14.611,42.621,21.806,60.93
	c0,0,28.587,72.736,10.262,162.907c-1.12,5.513-2.935,12.721-8.979,17.317C275.766,509.181,265.12,497.54,236.862,500.723z"/>
</svg>
