<?xml version="1.0" encoding="iso-8859-1"?>
<!-- Generator: Adobe Illustrator 27.2.0, SVG Export Plug-In . SVG Version: 6.00 Build 0)  -->
<svg version="1.1" id="Calque_1" xmlns="http://www.w3.org/2000/svg" xmlns:xlink="http://www.w3.org/1999/xlink" x="0px" y="0px"
	 viewBox="0 0 1400 1400" style="enable-background:new 0 0 1400 1400;" xml:space="preserve">
<circle style="opacity:0.79;fill:#0000FF;" cx="709.5" cy="691.5" r="691.5"/>
<g>
	<g>
		<path style="opacity:0.78;fill:#FF0000;" d="M683.135,803.624c-36.643-48.481,14.537-82.052,8.636-243.538
			c-2.206-60.382-10.965-99.565,13.818-145.086c13.212-24.269,26.597-33.144,41.453-67.362
			c14.074-32.415,17.015-58.89,20.727-94.997c8.043-78.239,0.001-153.723,0-153.723l0,0c-0.219,0.219,10.304-10.415,12.091-12.091
			c14.573-13.668,64.875-9.977,74.27,12.091c4.033,9.472-3.649,12.518-5.182,36.272c-1.336,20.704,4.018,25.854,3.454,48.362
			c-0.403,16.106-3.472,26.59-5.182,34.544c-7.108,33.08,0.238,64.623,6.909,93.27c17.523,75.247,50.377,82.841,67.362,153.723
			c2.177,9.087,2.824,13.916,6.909,79.452c11.626,186.536,10.606,215.161-10.363,245.265c-26.033,37.374-64.185,50.287-74.27,53.544
			C788.555,861.181,716.089,847.224,683.135,803.624z"/>
		<ellipse style="opacity:0.47;fill:#FFFFFF;" cx="809.222" cy="518.633" rx="110.542" ry="47.375"/>
	</g>
	<g>
		<path style="opacity:0.75;fill:#FFFF00;" d="M919.764,862.349c-8.566,8.114-9.445,23.763-5.182,34.544
			c9.551,24.158,47.064,29.328,69.089,27.635c25.268-1.942,56.909-14.973,56.998-29.363c0.101-16.318-40.487-15.998-55.271-48.362
			c-11.105-24.309-0.173-50.686,1.727-55.271c11.742-28.333,30.994-25.761,51.817-51.817c29.538-36.96,31.255-92.756,15.545-132.996
			c-4.895-12.537-10.859-27.816-25.908-39.726c-38.361-30.36-108.22-17.043-136.45,15.545
			c-58.392,67.405,23.952,210.532,58.725,208.994c4.459-0.197,9.276-2.843,13.818,0c12.587,7.88,9.657,49.52-10.363,62.18
			C941.477,861.827,929.728,852.912,919.764,862.349z"/>
		<ellipse style="opacity:0.52;fill:#FFFFFF;" cx="970.717" cy="686.173" rx="88.952" ry="33.982"/>
	</g>
</g>
<g>
	<path style="opacity:0.78;fill:#E2007E;" d="M524.379,908.915c-36.643-48.481,14.537-82.052,8.636-243.538
		c-2.206-60.382-10.965-99.565,13.818-145.086c13.212-24.269,26.597-33.144,41.453-67.362c14.074-32.415,17.015-58.89,20.727-94.997
		c8.043-78.239,0.001-153.723,0-153.723l0,0c-0.219,0.219,10.304-10.415,12.091-12.091c14.573-13.668,64.875-9.977,74.27,12.091
		c4.033,9.472-3.649,12.518-5.182,36.272c-1.336,20.704,4.018,25.854,3.454,48.362c-0.403,16.106-3.472,26.59-5.182,34.544
		c-7.108,33.08,0.238,64.623,6.909,93.27c17.523,75.247,50.377,82.841,67.362,153.723c2.177,9.087,2.824,13.916,6.909,79.452
		c11.626,186.536,10.606,215.161-10.363,245.265c-26.033,37.374-64.185,50.287-74.27,53.544
		C629.798,966.472,557.333,952.516,524.379,908.915z"/>
	<ellipse style="opacity:0.47;fill:#FFFFFF;" cx="650.466" cy="623.924" rx="110.542" ry="47.375"/>
</g>
<g>
	<path style="opacity:0.78;fill:#56AF31;" d="M470.379,940.915c-36.642-48.481,14.537-82.052,8.636-243.538
		c-2.206-60.382-10.965-99.565,13.818-145.086c13.212-24.269,26.597-33.144,41.453-67.362c14.074-32.415,17.015-58.89,20.727-94.997
		c8.043-78.239,0.001-153.723,0-153.723l0,0c-0.219,0.219,10.304-10.415,12.091-12.091c14.573-13.668,64.875-9.977,74.27,12.091
		c4.033,9.472-3.649,12.518-5.182,36.272c-1.336,20.704,4.018,25.854,3.454,48.362c-0.403,16.106-3.472,26.59-5.182,34.544
		c-7.108,33.08,0.238,64.623,6.909,93.27c17.523,75.247,50.377,82.841,67.362,153.723c2.177,9.087,2.824,13.916,6.909,79.452
		c11.626,186.536,10.606,215.161-10.363,245.265c-26.033,37.374-64.185,50.287-74.27,53.544
		C575.798,998.472,503.333,984.516,470.379,940.915z"/>
	<ellipse style="opacity:0.47;fill:#FFFFFF;" cx="596.466" cy="655.924" rx="110.542" ry="47.375"/>
</g>
<g>
	<path style="opacity:0.78;fill:#FFE600;" d="M414.379,971.915c-36.642-48.481,14.537-82.052,8.636-243.538
		c-2.206-60.382-10.965-99.565,13.818-145.086c13.212-24.269,26.597-33.144,41.453-67.362c14.074-32.415,17.015-58.89,20.727-94.997
		c8.043-78.239,0.001-153.723,0-153.723l0,0c-0.219,0.219,10.304-10.415,12.091-12.091c14.573-13.668,64.875-9.977,74.27,12.091
		c4.033,9.472-3.649,12.518-5.182,36.272c-1.336,20.704,4.018,25.854,3.454,48.362c-0.403,16.106-3.472,26.59-5.182,34.544
		c-7.108,33.08,0.238,64.623,6.909,93.27c17.523,75.247,50.377,82.841,67.362,153.723c2.177,9.087,2.824,13.916,6.909,79.452
		c11.626,186.536,10.606,215.161-10.363,245.265c-26.033,37.374-64.185,50.287-74.27,53.544
		C519.798,1029.472,447.333,1015.516,414.379,971.915z"/>
	<ellipse style="opacity:0.47;fill:#FFFFFF;" cx="540.466" cy="686.924" rx="110.542" ry="47.375"/>
</g>
<g>
	<path style="opacity:0.78;fill:#0087CB;" d="M360.379,994.915c-36.642-48.481,14.537-82.052,8.636-243.538
		c-2.206-60.382-10.965-99.565,13.818-145.086c13.212-24.269,26.597-33.144,41.453-67.362c14.074-32.415,17.015-58.89,20.727-94.997
		c8.043-78.239,0.001-153.723,0-153.723l0,0c-0.219,0.219,10.304-10.415,12.091-12.091c14.573-13.668,64.875-9.977,74.27,12.091
		c4.033,9.472-3.649,12.518-5.182,36.272c-1.336,20.704,4.018,25.854,3.454,48.362c-0.403,16.106-3.472,26.59-5.182,34.544
		c-7.108,33.08,0.238,64.623,6.909,93.27c17.523,75.247,50.377,82.841,67.362,153.723c2.177,9.087,2.824,13.916,6.909,79.452
		c11.626,186.536,10.606,215.161-10.363,245.265c-26.033,37.374-64.185,50.287-74.27,53.544
		C465.798,1052.472,393.333,1038.516,360.379,994.915z"/>
	<ellipse style="opacity:0.47;fill:#FFFFFF;" cx="486.466" cy="709.924" rx="110.542" ry="47.375"/>
</g>
<g>
	<path style="opacity:0.78;fill:#EF7D29;" d="M258.379,1058.915c-36.642-48.481,14.537-82.052,8.636-243.538
		c-2.206-60.382-10.965-99.565,13.818-145.086c13.212-24.269,26.597-33.144,41.453-67.362c14.074-32.415,17.015-58.89,20.727-94.997
		c8.043-78.239,0.001-153.723,0-153.723l0,0c-0.219,0.219,10.304-10.415,12.091-12.091c14.573-13.668,64.875-9.977,74.27,12.091
		c4.033,9.472-3.649,12.518-5.182,36.272c-1.336,20.704,4.018,25.854,3.454,48.362c-0.403,16.106-3.472,26.59-5.182,34.544
		c-7.108,33.08,0.238,64.623,6.909,93.27c17.523,75.247,50.377,82.841,67.362,153.723c2.177,9.087,2.824,13.916,6.909,79.452
		c11.626,186.536,10.606,215.161-10.363,245.265c-26.033,37.374-64.185,50.287-74.27,53.544
		C363.798,1116.472,291.333,1102.516,258.379,1058.915z"/>
	<ellipse style="opacity:0.47;fill:#FFFFFF;" cx="384.466" cy="773.924" rx="110.542" ry="47.375"/>
</g>
<g>
	<path style="opacity:0.75;fill:#EF7D29;" d="M784.784,935.876c-8.566,8.114-9.445,23.763-5.182,34.544
		c9.551,24.158,47.064,29.328,69.089,27.636c25.268-1.942,56.909-14.973,56.998-29.363c0.101-16.318-40.487-15.998-55.271-48.362
		c-11.105-24.309-0.173-50.686,1.727-55.271c11.742-28.333,30.994-25.761,51.817-51.817c29.538-36.96,31.255-92.756,15.545-132.996
		c-4.895-12.537-10.859-27.816-25.908-39.726c-38.361-30.36-108.22-17.043-136.45,15.545
		c-58.392,67.405,23.952,210.532,58.725,208.994c4.459-0.197,9.276-2.843,13.818,0c12.587,7.88,9.657,49.52-10.363,62.18
		C806.497,935.354,794.748,926.439,784.784,935.876z"/>
	<ellipse style="opacity:0.52;fill:#FFFFFF;" cx="835.737" cy="759.7" rx="88.952" ry="33.982"/>
</g>
<g>
	<path style="opacity:0.75;fill:#005EAA;" d="M722.784,968.876c-8.566,8.114-9.445,23.763-5.182,34.544
		c9.551,24.158,47.064,29.328,69.089,27.635c25.268-1.942,56.909-14.973,56.998-29.363c0.101-16.318-40.487-15.998-55.271-48.362
		c-11.105-24.309-0.173-50.686,1.727-55.271c11.742-28.333,30.994-25.761,51.817-51.817c29.538-36.96,31.255-92.756,15.545-132.996
		c-4.895-12.537-10.859-27.816-25.908-39.726c-38.361-30.36-108.22-17.043-136.45,15.545
		c-58.392,67.405,23.952,210.532,58.725,208.994c4.459-0.197,9.276-2.843,13.818,0c12.587,7.88,9.657,49.52-10.363,62.18
		C744.497,968.354,732.748,959.439,722.784,968.876z"/>
	<ellipse style="opacity:0.52;fill:#FFFFFF;" cx="773.737" cy="792.7" rx="88.952" ry="33.982"/>
</g>
<g>
	<path style="opacity:0.75;fill:#E15B10;" d="M658.784,998.876c-8.566,8.114-9.445,23.763-5.182,34.544
		c9.551,24.158,47.064,29.328,69.089,27.635c25.268-1.942,56.909-14.973,56.998-29.363c0.101-16.318-40.487-15.998-55.271-48.362
		c-11.105-24.309-0.173-50.686,1.727-55.271c11.742-28.333,30.994-25.761,51.817-51.817c29.538-36.96,31.255-92.756,15.545-132.996
		c-4.895-12.537-10.859-27.816-25.908-39.726c-38.361-30.36-108.22-17.043-136.45,15.545
		c-58.392,67.405,23.952,210.532,58.725,208.994c4.459-0.197,9.276-2.843,13.818,0c12.587,7.88,9.657,49.52-10.363,62.18
		C680.497,998.354,668.748,989.439,658.784,998.876z"/>
	<ellipse style="opacity:0.52;fill:#FFFFFF;" cx="709.737" cy="822.7" rx="88.952" ry="33.982"/>
</g>
<g>
	<path style="opacity:0.75;fill:#60AEC8;" d="M595.784,1027.876c-8.566,8.114-9.445,23.762-5.182,34.544
		c9.551,24.158,47.064,29.328,69.089,27.635c25.268-1.942,56.909-14.973,56.998-29.363c0.101-16.318-40.487-15.998-55.271-48.362
		c-11.105-24.309-0.173-50.686,1.727-55.271c11.742-28.333,30.994-25.761,51.817-51.817c29.538-36.96,31.255-92.756,15.545-132.996
		c-4.895-12.537-10.859-27.816-25.908-39.726c-38.361-30.36-108.22-17.043-136.45,15.545
		c-58.392,67.405,23.952,210.532,58.725,208.994c4.459-0.197,9.276-2.843,13.818,0c12.587,7.88,9.657,49.52-10.363,62.18
		C617.497,1027.354,605.748,1018.439,595.784,1027.876z"/>
	<ellipse style="opacity:0.52;fill:#FFFFFF;" cx="646.737" cy="851.7" rx="88.952" ry="33.982"/>
</g>
<g>
	<path style="opacity:0.75;fill:#B3201F;" d="M525.735,1080.703c-8.566,8.114-9.445,23.763-5.182,34.544
		c9.551,24.157,47.064,29.328,69.089,27.635c25.268-1.942,56.909-14.973,56.998-29.363c0.101-16.318-40.487-15.998-55.271-48.362
		c-11.105-24.309-0.173-50.686,1.727-55.271c11.742-28.333,30.994-25.761,51.817-51.817c29.538-36.96,31.255-92.756,15.545-132.996
		c-4.895-12.537-10.859-27.816-25.908-39.726c-38.361-30.36-108.22-17.043-136.45,15.545
		c-58.392,67.405,23.952,210.532,58.725,208.994c4.459-0.197,9.276-2.843,13.818,0c12.587,7.88,9.657,49.52-10.363,62.18
		C547.447,1080.181,535.698,1071.266,525.735,1080.703z"/>
	<ellipse style="opacity:0.52;fill:#FFFFFF;" cx="576.688" cy="904.527" rx="88.952" ry="33.982"/>
</g>
</svg>
