<?xml version="1.0" encoding="iso-8859-1"?>
<!-- Generator: Adobe Illustrator 27.2.0, SVG Export Plug-In . SVG Version: 6.00 Build 0)  -->
<svg version="1.1" id="Calque_1" xmlns="http://www.w3.org/2000/svg" xmlns:xlink="http://www.w3.org/1999/xlink" x="0px" y="0px"
	 viewBox="0 0 1366 768" style="enable-background:new 0 0 1366 768;" xml:space="preserve">
<image style="display:none;overflow:visible;" width="1024" height="1024" xlink:href="../../../../../../../Downloads/ChatGPT Image 13 mai 2025, 16_26_06.png"  transform="matrix(0.6377 0 0 0.6377 356 57)">
</image>
<g>
	<defs>
		<ellipse id="SVGID_1_" cx="682.413" cy="397.5" rx="302.413" ry="321.716"/>
	</defs>
	<clipPath id="SVGID_00000119093020513010175390000017523209237215638690_">
		<use xlink:href="#SVGID_1_"  style="overflow:visible;"/>
	</clipPath>
	
		<ellipse style="opacity:0.91;clip-path:url(#SVGID_00000119093020513010175390000017523209237215638690_);fill:#FF00FF;" cx="827.763" cy="297.358" rx="241.931" ry="257.373"/>
	
		<ellipse style="opacity:0.77;clip-path:url(#SVGID_00000119093020513010175390000017523209237215638690_);fill:#00FFFF;" cx="486.938" cy="266.69" rx="277.963" ry="295.705"/>
	
		<ellipse style="opacity:0.78;clip-path:url(#SVGID_00000119093020513010175390000017523209237215638690_);fill:#FFFF00;" cx="698.292" cy="597.221" rx="276.933" ry="294.61"/>
</g>
<g>
	<defs>
		<ellipse id="SVGID_00000175281957091642991530000007744333267501719215_" cx="682.5" cy="403.5" rx="302.5" ry="315.5"/>
	</defs>
	<clipPath id="SVGID_00000177459154423035275200000015145539797824501892_">
		<use xlink:href="#SVGID_00000175281957091642991530000007744333267501719215_"  style="overflow:visible;"/>
	</clipPath>
	
		<path style="clip-path:url(#SVGID_00000177459154423035275200000015145539797824501892_);fill:#FFFFFF;stroke:#000000;stroke-width:8;stroke-miterlimit:10;" d="
		M545.898,396.145c5.643,10.15,13.037,19.086,13.037,19.086c1.22,1.474,3.479,4.213,7.225,8.005
		c15.68,15.876,27.796,17.969,42.888,46.584c15.283,28.977,11.066,63.172,2.631,131.564c-6.923,56.134-11.906,92.833-35.522,102.62
		c-13.259,5.495-59.031,18.786-89.463,13.156c-57.153-10.572-46.602-10.827-71.044-21.05
		c-54.338-22.726-65.486-162.508-10.525-234.183c12.811-16.707,18.436-20.618,26.821-30.157c0,0,8.409-9.137,17.91-23.784
		c10.437-16.091,21.662-46.331,27.628-85.516c11.392-32.952,7.609-46.528,1.316-52.625c-5.899-5.716-13.087-3.412-18.419-10.525
		c-8.128-10.842-5.644-29.525,2.631-40.785c16.324-22.21,59.967-22.038,77.622-1.316c6.383,7.492,11.59,20.277,7.894,31.575
		c-3.78,11.552-15.527,10.437-22.366,21.05c-7.034,10.916-0.553,20.262,5.263,51.31
		C537.813,355.252,536.653,379.516,545.898,396.145z"/>
	
		<path style="clip-path:url(#SVGID_00000177459154423035275200000015145539797824501892_);fill:#F7931E;stroke:#000000;stroke-width:7;stroke-linecap:round;stroke-miterlimit:10;" d="
		M910.123,768.5l-188.743-8.371c-3.779,0.117-6.716-3.231-6.075-6.925l59.459-342.549c0.082-0.47,0.138-0.945,0.169-1.421
		l6.287-95.815c0.277-4.222-1.44-8.329-4.64-11.097l-4.389-3.797c-3.344-2.893-5.055-7.242-4.58-11.638l2.336-21.617
		c0.217-2.006,1.449-3.765,3.269-4.667l3.404-1.687c1.879-0.931,3.947-1.416,6.044-1.416h49.981c3.735,0,7.306,1.536,9.875,4.249
		l0,0c2.266,2.394,3.579,5.534,3.689,8.828l0.821,24.416c0.1,2.983-0.792,5.915-2.537,8.337l-0.454,0.63
		c-1.684,2.337-2.574,5.152-2.54,8.032l1.091,92.981C842.594,405.257,910.079,768.22,910.123,768.5"/>
	
		<path style="clip-path:url(#SVGID_00000177459154423035275200000015145539797824501892_);fill:#FF1D25;stroke:#000000;stroke-width:8;stroke-miterlimit:10;" d="
		M712.357,731.535H578.785c-5.718,0-10.381-4.584-10.477-10.302l-5.401-319.69c-0.314-18.569,7.534-36.34,21.469-48.616
		l28.304-24.934c2.183-1.923,3.468-4.667,3.548-7.575l3.558-129.263c0.095-3.453-1.518-6.731-4.312-8.763l-4.998-3.635
		c-2.869-2.087-4.487-5.483-4.301-9.025l1.937-36.804c0.198-3.766,2.405-7.135,5.778-8.822v0c1.455-0.728,3.06-1.106,4.686-1.106
		h53.225c1.267,0,2.523,0.23,3.708,0.678l1.969,0.745c3.877,1.467,6.525,5.081,6.755,9.22l1.994,35.895
		c0.12,2.159-0.431,4.302-1.577,6.135l-3.038,4.861c-1.041,1.665-1.593,3.59-1.593,5.554v131.716c0,2.942,1.237,5.749,3.408,7.734
		l39.288,35.92c1.341,1.226,2.34,2.78,2.899,4.508l12.679,39.189c0.351,1.084,0.522,2.218,0.508,3.357l-3.762,299.721
		c-0.033,2.625-1.05,5.143-2.851,7.054l-12.205,12.955C718.004,730.344,715.245,731.535,712.357,731.535z"/>
</g>
</svg>
