<?xml version="1.0" encoding="iso-8859-1"?>
<!-- Generator: Adobe Illustrator 27.2.0, SVG Export Plug-In . SVG Version: 6.00 Build 0)  -->
<svg version="1.1" xmlns="http://www.w3.org/2000/svg" xmlns:xlink="http://www.w3.org/1999/xlink" x="0px" y="0px"
	 viewBox="0 0 1366 768" style="enable-background:new 0 0 1366 768;" xml:space="preserve">
<g id="Calque_1">
	
		<image style="display:none;overflow:visible;" width="2254" height="826" xlink:href="../../../../../Desktop/Capture d&#x2019;e&#x301;cran 2025-06-10 a&#x300; 21.58.47.png"  transform="matrix(0.5 0 0 0.5 136.5636 251.1898)">
	</image>
</g>
<g id="Calque_2">
	
		<image style="display:none;overflow:visible;" width="838" height="802" xlink:href="../../../../../Desktop/Capture d&#x2019;e&#x301;cran 2025-06-12 a&#x300; 15.49.46.png"  transform="matrix(0.5 0 0 0.5 801 107)">
	</image>
	
		<image style="display:none;overflow:visible;" width="1340" height="594" xlink:href="../../../../../Desktop/Capture d&#x2019;e&#x301;cran 2025-06-12 a&#x300; 16.10.51.png"  transform="matrix(0.6649 0 0 0.6649 209 181)">
	</image>
	<g>
		<defs>
			<ellipse id="SVGID_1_" cx="601" cy="449.5" rx="285.5" ry="287"/>
		</defs>
		<clipPath id="SVGID_00000074439452799521980490000007710246994249081791_">
			<use xlink:href="#SVGID_1_"  style="overflow:visible;"/>
		</clipPath>
		<g style="clip-path:url(#SVGID_00000074439452799521980490000007710246994249081791_);">
			
				<circle style="fill:#00FFFF;stroke:#1D1D1B;stroke-linecap:round;stroke-miterlimit:10;" cx="601.185" cy="448.151" r="285.588"/>
			<path style="opacity:0.36;fill:#EB6209;" d="M712.866,485.605c-1.848-14.657,8.82-40.025,8.82-40.025
				c11.784-28.021,18.104-43.051,25.665-45.738c5.277-1.876,9.952-6.245,15.053-8.941c0.083-0.044,0.347-0.182,0.534-0.51
				c0.901-1.578-1.354-5.138-2.158-6.828c-3.127-6.576-0.543-19.055,4.929-26.434c2.99-4.032,6.293-5.8,7.834-6.492
				c1.448-0.65,6.927-3.11,12.311,0.097c5.193,3.094,6.905,9.44,7.703,12.398c0.33,1.225,2.767,10.711-0.752,19.977
				c0,0-0.492,1.296-6.305,11.452c0-0.001,2.975,2.902,3.577,3.498c3.155,3.126,5.795,6.981,6.891,8.729
				c2.839,4.528,4.006,8.784,5.838,15.66c3.323,12.472,4.147,22.73,4.346,25.479c0.663,9.16,0.267,16.202-0.036,21.268
				c-0.944,15.797-3.845,31.319-3.846,31.325c-5.553-15.587-5.75-16.237-5.75-16.238c-3.455-11.39-4.339-21.426-5.07-29.725
				c-0.503-5.707-0.902-10.238-0.761-16.205c0.031-1.31,0.091-2.818-0.001-2.82c-0.23-0.007-1.447,9.517-2.003,19.196
				c-0.617,10.724-0.022,14.658-0.452,33.023c-0.226,9.652-0.432,10.347-0.775,11.11c-7.963,17.698-57.877,1.031-57.552-5.789
				c0.014-0.303,0.174-1.544,0.439-2.888c0.645-3.271,1.61-5.605,1.858-6.218c1.271-3.141,2.646-7.927,5.397-17.499
				c1.475-5.131,2.541-10.669,4.673-21.745c2.335-12.128,1.888-12.436,2.991-16.769c0.062-0.245,0.263-1.025,0.176-1.069
				c-0.268-0.133-3,6.856-8.067,20.048c-4.197,10.927-9.625,21.151-13.567,32.212c0,0-2.95,8.276-8.177,11.758
				c-0.374,0.249-0.885,0.51-1.426,0.374C713.528,490.857,713.044,487.017,712.866,485.605z"/>
			<path style="opacity:0.36;fill:#E00916;" d="M766.113,564.828c-6.862-18.701,4.612-53.809,4.612-53.809
				c12.674-38.78,19.472-59.58,31.517-64.57c8.406-3.483,15.161-10.09,23.061-14.605c0.129-0.073,0.537-0.306,0.769-0.769
				c1.114-2.231-3.595-6.416-5.381-8.456c-6.948-7.936-5.788-24.681,1.537-35.36c4.003-5.836,9.113-8.789,11.53-9.993
				c2.271-1.132,10.868-5.415,20.755-2.306c9.536,2.999,14.042,10.915,16.143,14.605c0.87,1.528,7.399,13.387,3.844,26.136
				c0,0-0.497,1.783-7.687,16.143c0-0.001,5.752,3.187,6.918,3.843c6.113,3.443,11.545,7.936,13.837,9.993
				c5.938,5.33,8.993,10.635,13.836,19.217c8.786,15.567,12.798,28.749,13.837,32.285c3.46,11.785,4.595,21.024,5.381,27.673
				c2.452,20.736,1.537,41.501,1.537,41.51c-13.338-19.178-13.836-19.986-13.837-19.986c-8.732-14.133-12.788-27.014-16.143-37.666
				c-2.307-7.325-4.138-13.14-5.427-20.929c-0.283-1.71-0.568-3.684-0.723-3.669c-0.389,0.037-0.001,12.666,1.537,25.367
				c1.705,14.072,3.712,19.072,7.687,43.047c2.089,12.601,1.92,13.545,1.537,14.605c-8.881,24.596-97.195,12.779-98.393,3.844
				c-0.053-0.397-0.102-2.043,0-3.844c0.249-4.383,1.277-7.609,1.537-8.456c1.336-4.337,2.428-10.834,4.612-23.83
				c1.171-6.966,1.549-14.381,2.306-29.21c0.829-16.238-0.002-16.55,0.746-22.405c0.042-0.331,0.18-1.385,0.022-1.425
				c-0.485-0.121-3.298,9.512-8.456,27.673c-4.272,15.044-10.797,29.417-14.605,44.584c0,0-2.85,11.349-10.762,16.911
				c-0.566,0.398-1.36,0.839-2.306,0.769C768.572,571.53,766.774,566.63,766.113,564.828z"/>
			<path style="opacity:0.82;fill:#6DBE93;" d="M587.853,483.847c-6.634-14.153-2.46-42.917-2.46-42.917
				c4.611-31.772,7.084-48.814,14.786-53.841c5.376-3.508,9.299-9.335,14.221-13.613c0.08-0.07,0.335-0.29,0.445-0.676
				c0.528-1.862-3.123-4.744-4.555-6.194c-5.57-5.643-6.524-18.973-2.636-28.068c2.125-4.97,5.305-7.763,6.83-8.932
				c1.433-1.099,6.855-5.256,13.929-3.691c6.823,1.509,10.724,7.357,12.543,10.082c0.753,1.129,6.446,9.907,5.348,20.297
				c0,0-0.154,1.453-3.565,13.443c0-0.001,4.259,1.999,5.124,2.413c4.532,2.169,8.709,5.229,10.487,6.647
				c4.61,3.675,7.248,7.59,11.449,13.933c7.621,11.504,11.734,21.555,12.811,24.254c3.59,8.997,5.328,16.192,6.558,21.373
				c3.835,16.158,5.375,32.642,5.376,32.648c-11.104-13.947-11.529-14.54-11.529-14.54c-7.434-10.377-11.546-20.185-14.946-28.297
				c-2.338-5.578-4.194-10.006-5.886-16.042c-0.371-1.325-0.772-2.858-0.876-2.833c-0.262,0.064,1.319,10.004,3.693,19.898
				c2.631,10.962,4.522,14.73,9.734,33.309c2.74,9.764,5.417,105.629,5.267,106.501c-3.499,20.228-69.251-5.05-71-12
				c-0.078-0.309,1.252-72.808,1.134-74.24c-0.287-3.484,0.078-6.125,0.168-6.817c0.46-3.546,0.528-8.776,0.665-19.238
				c0.073-5.608-0.441-11.499-1.47-23.28c-1.127-12.9-1.726-13.072-1.826-17.764c-0.006-0.265-0.022-1.111-0.133-1.127
				c-0.344-0.052-1.26,7.81-2.888,22.62c-1.349,12.267-4.305,24.208-5.324,36.531c0,0-0.763,9.221-5.584,14.327
				c-0.345,0.365-0.841,0.785-1.494,0.815C590.23,488.919,588.492,485.21,587.853,483.847z"/>
			<path style="opacity:0.36;fill:#E00916;" d="M358.799,477.244c-4.725-12.878,3.176-37.053,3.176-37.053
				c8.727-26.704,13.409-41.027,21.702-44.463c5.788-2.398,10.44-6.948,15.88-10.057c0.089-0.051,0.37-0.21,0.529-0.529
				c0.767-1.536-2.476-4.418-3.705-5.823c-4.784-5.465-3.986-16.995,1.059-24.349c2.757-4.019,6.275-6.052,7.94-6.881
				c1.564-0.779,7.484-3.729,14.292-1.588c6.567,2.065,9.67,7.516,11.116,10.057c0.599,1.052,5.095,9.218,2.647,17.997
				c0,0-0.342,1.228-5.293,11.116c0-0.001,3.961,2.194,4.764,2.647c4.209,2.371,7.95,5.465,9.528,6.881
				c4.089,3.67,6.192,7.324,9.528,13.233c6.05,10.72,8.813,19.796,9.528,22.232c2.382,8.115,3.164,14.477,3.705,19.056
				c1.689,14.279,1.059,28.578,1.059,28.584c-9.184-13.206-9.528-13.762-9.528-13.762c-6.013-9.732-8.806-18.602-11.116-25.937
				c-1.588-5.044-2.849-9.048-3.737-14.412c-0.195-1.177-0.391-2.536-0.498-2.526c-0.268,0.025-0.001,8.722,1.059,17.468
				c1.174,9.69,2.556,13.133,5.293,29.642C449.165,477.451,461.264,565.27,461,566c-6.115,16.937-67.175-9.847-68-16
				c-0.037-0.274-12.039-69.928-11.969-71.168c0.171-3.018,0.879-5.24,1.059-5.823c0.92-2.986,1.672-7.46,3.176-16.409
				c0.806-4.797,1.067-9.903,1.588-20.114c0.571-11.181-0.002-11.396,0.514-15.428c0.029-0.228,0.124-0.954,0.016-0.981
				c-0.334-0.083-2.271,6.55-5.823,19.056c-2.942,10.359-7.435,20.256-10.057,30.701c0,0-1.962,7.815-7.411,11.645
				c-0.39,0.274-0.936,0.578-1.588,0.529C360.493,481.858,359.254,478.484,358.799,477.244z"/>
			<path style="opacity:0.36;fill:#D8BB2F;" d="M277.113,571.535c-6.862-20.127,4.612-57.91,4.612-57.91
				c12.674-41.735,19.472-64.121,31.517-69.492c8.406-3.748,15.161-10.859,23.061-15.718c0.129-0.079,0.538-0.329,0.769-0.827
				c1.114-2.401-3.595-6.905-5.381-9.1c-6.948-8.541-5.788-26.562,1.537-38.055c4.003-6.281,9.113-9.458,11.53-10.755
				c2.272-1.218,10.868-5.827,20.755-2.482c9.536,3.227,14.042,11.747,16.143,15.718c0.87,1.645,7.399,14.407,3.844,28.128
				c0,0-0.497,1.919-7.687,17.373c0-0.001,5.752,3.429,6.918,4.136c6.113,3.705,11.545,8.541,13.837,10.755
				c5.938,5.736,8.993,11.446,13.837,20.682c8.786,16.754,12.798,30.94,13.837,34.746c3.46,12.683,4.595,22.626,5.381,29.782
				c2.452,22.317,1.537,44.664,1.537,44.673c-13.338-20.64-13.836-21.509-13.837-21.509c-8.732-15.211-12.788-29.073-16.143-40.537
				c-2.307-7.883-4.138-14.142-5.427-22.525c-0.283-1.84-0.568-3.964-0.723-3.948c-0.389,0.04-0.001,13.631,1.537,27.3
				c1.705,15.145,3.712,20.526,7.687,46.328c2.089,13.561,1.92,14.577,1.537,15.718c-8.881,26.471-97.195,13.753-98.393,4.136
				c-0.053-0.428-0.102-2.198,0-4.136c0.249-4.717,1.277-8.189,1.537-9.1c1.336-4.667,2.428-11.66,4.612-25.646
				c1.171-7.497,1.549-15.477,2.306-31.437c0.829-17.475-0.002-17.811,0.746-24.113c0.042-0.356,0.18-1.491,0.022-1.533
				c-0.485-0.13-3.298,10.237-8.456,29.782c-4.272,16.19-10.797,31.659-14.605,47.982c0,0-2.85,12.214-10.762,18.2
				c-0.566,0.428-1.36,0.903-2.306,0.827C279.572,578.747,277.774,573.473,277.113,571.535z"/>
			<path style="opacity:0.36;fill:#75A071;" d="M645.91,553.028c-6.862-18.701,4.612-53.809,4.612-53.809
				c12.674-38.78,19.472-59.58,31.517-64.57c8.406-3.483,15.161-10.09,23.061-14.605c0.129-0.073,0.537-0.306,0.769-0.769
				c1.114-2.231-3.595-6.416-5.381-8.456c-6.948-7.936-5.788-24.681,1.537-35.36c4.003-5.836,9.113-8.789,11.53-9.993
				c2.271-1.132,10.868-5.415,20.755-2.306c9.536,2.999,14.042,10.915,16.143,14.605c0.87,1.528,7.399,13.387,3.844,26.136
				c0,0-0.497,1.783-7.687,16.143c0-0.001,5.752,3.187,6.918,3.843c6.113,3.443,11.545,7.936,13.837,9.993
				c5.938,5.33,8.993,10.635,13.836,19.217c8.786,15.567,12.798,28.749,13.837,32.285c3.46,11.785,4.595,21.024,5.381,27.673
				c2.452,20.736,1.537,41.501,1.537,41.51c-13.338-19.178-13.836-19.986-13.837-19.986c-8.732-14.133-12.788-27.014-16.143-37.666
				c-2.307-7.325-4.138-13.14-5.427-20.929c-0.283-1.71-0.568-3.684-0.723-3.669c-0.389,0.037-0.001,12.666,1.537,25.367
				c1.705,14.072,3.712,19.072,7.687,43.047c2.089,12.601,1.92,13.545,1.537,14.605c-8.881,24.596-97.195,12.779-98.393,3.844
				c-0.053-0.397-0.102-2.043,0-3.844c0.249-4.383,1.277-7.609,1.537-8.456c1.336-4.337,2.428-10.834,4.612-23.83
				c1.171-6.966,1.549-14.381,2.306-29.21c0.829-16.238-0.002-16.55,0.746-22.405c0.042-0.331,0.18-1.385,0.022-1.425
				c-0.485-0.121-3.298,9.512-8.456,27.673c-4.272,15.044-10.797,29.417-14.605,44.584c0,0-2.85,11.349-10.762,16.911
				c-0.566,0.398-1.36,0.839-2.306,0.769C648.369,559.729,646.571,554.829,645.91,553.028z"/>
			<path style="opacity:0.36;fill:#0000FF;" d="M701.319,662.465c-8.926-28.052,6-80.712,6-80.712
				c16.488-58.169,25.331-89.369,41-96.854c10.935-5.224,19.723-15.135,30-21.908c0.167-0.11,0.699-0.458,1-1.153
				c1.449-3.346-4.677-9.623-7-12.683c-9.038-11.904-7.53-37.021,2-53.039c5.208-8.754,11.855-13.183,15-14.989
				c2.955-1.698,14.138-8.122,27-3.459c12.406,4.498,18.268,16.373,21,21.908c1.131,2.292,9.625,20.08,5,39.203
				c0,0-0.647,2.674-10,24.214c0.001-0.001,7.483,4.78,9,5.765c7.952,5.164,15.019,11.904,18,14.989
				c7.725,7.994,11.699,15.953,18,28.826c11.43,23.351,16.649,43.123,18,48.427c4.501,17.677,5.977,31.535,7,41.509
				c3.19,31.104,2,62.251,2,62.264c-17.351-28.767-18-29.979-18-29.979c-11.36-21.2-16.636-40.52-21-56.498
				c-3.001-10.987-5.383-19.71-7.06-31.394c-0.368-2.565-0.739-5.525-0.94-5.503c-0.507,0.055-0.002,18.999,2,38.05
				c2.218,21.108,4.829,28.608,10,64.57c2.718,18.901,2.498,20.317,2,21.908c-11.553,36.894-126.442,19.168-128,5.765
				c-0.069-0.596-0.133-3.064,0-5.765c0.324-6.574,1.661-11.413,2-12.683c1.738-6.505,3.159-16.251,6-35.744
				c1.523-10.449,2.015-21.571,3-43.815c1.078-24.356-0.003-24.824,0.971-33.607c0.055-0.497,0.234-2.078,0.029-2.137
				c-0.631-0.181-4.29,14.267-11,41.509c-5.558,22.565-14.046,44.124-19,66.876c0,0-3.707,17.023-14,25.367
				c-0.736,0.597-1.769,1.258-3,1.153C704.517,672.517,702.178,665.167,701.319,662.465z"/>
			<path style="opacity:0.61;fill:#B74A22;" d="M382.087,571.456c-7.416-20.212,4.985-58.156,4.985-58.156
				c13.698-41.912,21.045-64.394,34.063-69.787c9.085-3.764,16.386-10.905,24.924-15.785c0.139-0.079,0.581-0.33,0.831-0.831
				c1.204-2.411-3.885-6.934-5.816-9.139c-7.509-8.577-6.256-26.675,1.662-38.217c4.327-6.307,9.849-9.499,12.462-10.8
				c2.455-1.223,11.746-5.852,22.431-2.492c10.307,3.241,15.177,11.797,17.447,15.785c0.94,1.651,7.997,14.468,4.154,28.247
				c0,0-0.537,1.927-8.308,17.447c0-0.001,6.217,3.444,7.477,4.154c6.607,3.721,12.478,8.577,14.954,10.8
				c6.418,5.76,9.719,11.495,14.954,20.77c9.496,16.825,13.832,31.071,14.954,34.893c3.739,12.737,4.966,22.722,5.816,29.909
				c2.65,22.412,1.661,44.854,1.662,44.863c-14.415-20.728-14.954-21.601-14.954-21.601c-9.438-15.275-13.821-29.196-17.447-40.709
				c-2.493-7.916-4.472-14.202-5.865-22.62c-0.306-1.848-0.614-3.981-0.781-3.965c-0.421,0.04-0.001,13.689,1.662,27.416
				c1.843,15.209,4.012,20.613,8.308,46.525c2.258,13.619,2.075,14.639,1.662,15.785c-9.598,26.583-105.047,13.811-106.342,4.154
				c-0.058-0.429-0.111-2.208,0-4.154c0.269-4.737,1.38-8.224,1.662-9.139c1.444-4.687,2.624-11.709,4.985-25.755
				c1.265-7.529,1.674-15.543,2.492-31.57c0.896-17.549-0.002-17.887,0.806-24.215c0.046-0.358,0.194-1.497,0.024-1.54
				c-0.524-0.13-3.564,10.28-9.139,29.909c-4.617,16.259-11.669,31.793-15.785,48.186c0,0-3.08,12.266-11.631,18.277
				c-0.612,0.43-1.47,0.907-2.492,0.831C384.745,578.699,382.801,573.403,382.087,571.456z"/>
			<path style="opacity:0.61;fill:#007C37;" d="M587.168,583.525c-7.416-20.212,4.985-58.156,4.985-58.156
				c13.698-41.912,21.045-64.393,34.063-69.787c9.085-3.764,16.386-10.905,24.924-15.785c0.139-0.079,0.581-0.33,0.831-0.831
				c1.204-2.411-3.885-6.934-5.816-9.139c-7.509-8.577-6.256-26.675,1.662-38.217c4.327-6.307,9.849-9.499,12.462-10.8
				c2.455-1.223,11.746-5.852,22.432-2.492c10.307,3.241,15.177,11.797,17.447,15.785c0.94,1.651,7.997,14.468,4.154,28.247
				c0,0-0.537,1.927-8.308,17.447c0-0.001,6.217,3.444,7.477,4.154c6.607,3.721,12.477,8.577,14.954,10.8
				c6.418,5.76,9.719,11.495,14.954,20.77c9.496,16.825,13.832,31.071,14.954,34.893c3.739,12.737,4.966,22.722,5.816,29.909
				c2.65,22.412,1.661,44.854,1.662,44.863c-14.415-20.728-14.954-21.601-14.954-21.601c-9.438-15.275-13.821-29.196-17.447-40.709
				c-2.493-7.916-4.472-14.202-5.865-22.62c-0.306-1.848-0.614-3.981-0.781-3.965c-0.421,0.04-0.001,13.689,1.662,27.416
				c1.843,15.209,4.012,20.613,8.308,46.525c2.258,13.619,2.075,14.639,1.662,15.785c-9.598,26.583-105.047,13.811-106.342,4.154
				c-0.058-0.429-0.111-2.208,0-4.154c0.269-4.737,1.38-8.224,1.662-9.139c1.444-4.687,2.624-11.709,4.985-25.755
				c1.265-7.529,1.674-15.543,2.492-31.57c0.896-17.55-0.002-17.887,0.807-24.215c0.046-0.358,0.194-1.497,0.024-1.54
				c-0.524-0.13-3.564,10.28-9.139,29.909c-4.617,16.259-11.669,31.793-15.785,48.186c0,0-3.08,12.266-11.631,18.278
				c-0.612,0.43-1.47,0.907-2.492,0.831C589.826,590.768,587.882,585.472,587.168,583.525z"/>
			<path style="opacity:0.61;fill:#ED1E79;" d="M463.5,627.5c-8.926-24.328,6-70,6-70c16.488-50.449,25.331-77.508,41-84
				c10.935-4.531,19.723-13.126,30-19c0.167-0.096,0.699-0.397,1-1c1.449-2.902-4.677-8.346-7-11c-9.038-10.324-7.53-32.107,2-46
				c5.208-7.592,11.855-11.433,15-13c2.955-1.472,14.138-7.044,27-3c12.406,3.901,18.268,14.2,21,19c1.131,1.988,9.625,17.415,5,34
				c0,0-0.647,2.319-10,21c0.001-0.001,7.483,4.145,9,5c7.952,4.479,15.019,10.324,18,13c7.725,6.933,11.699,13.836,18,25
				c11.43,20.252,16.649,37.399,18,42c4.501,15.331,5.977,27.35,7,36c3.19,26.976,2,53.989,2,54c-17.351-24.949-18-26-18-26
				c-11.36-18.386-16.636-35.142-21-49c-3.001-9.529-5.383-17.094-7.06-27.227c-0.368-2.224-0.739-4.792-0.94-4.773
				c-0.507,0.048-0.002,16.477,2,33c2.218,18.307,4.829,24.812,10,56c2.718,16.392,2.498,17.621,2,19
				c-11.553,31.997-126.442,16.624-128,5c-0.069-0.517-0.133-2.657,0-5c0.324-5.702,1.661-9.899,2-11c1.738-5.641,3.159-14.094,6-31
				c1.523-9.062,2.015-18.708,3-38c1.078-21.124-0.003-21.53,0.971-29.147c0.055-0.431,0.234-1.802,0.029-1.853
				c-0.631-0.157-4.29,12.374-11,36c-5.558,19.57-14.046,38.268-19,58c0,0-3.707,14.764-14,22c-0.736,0.518-1.769,1.091-3,1
				C466.699,636.218,464.36,629.843,463.5,627.5z"/>
			<path style="opacity:0.61;fill:#FF0000;" d="M469.319,625.844c-8.926-24.328,6-70,6-70c16.488-50.448,25.331-77.508,41-84
				c10.935-4.531,19.723-13.126,30-19c0.167-0.096,0.699-0.397,1-1c1.449-2.902-4.677-8.346-7-11c-9.038-10.324-7.53-32.107,2-46
				c5.208-7.592,11.855-11.433,15-13c2.955-1.472,14.138-7.044,27-3c12.406,3.901,18.268,14.2,21,19c1.131,1.988,9.625,17.415,5,34
				c0,0-0.647,2.319-10,21c0.001-0.001,7.483,4.145,9,5c7.952,4.479,15.019,10.324,18,13c7.725,6.933,11.699,13.836,18,25
				c11.43,20.252,16.649,37.399,18,42c4.501,15.331,5.977,27.35,7,36c3.19,26.976,2,53.989,2,54c-17.351-24.949-18-26-18-26
				c-11.36-18.386-16.636-35.142-21-49c-3.001-9.529-5.383-17.094-7.06-27.227c-0.368-2.224-0.739-4.792-0.94-4.773
				c-0.507,0.048-0.002,16.477,2,33c2.218,18.307,4.829,24.812,10,56c2.718,16.392,2.498,17.621,2,19
				c-11.553,31.997-126.442,16.624-128,5c-0.069-0.517-0.133-2.657,0-5c0.324-5.702,1.661-9.899,2-11c1.738-5.641,3.159-14.094,6-31
				c1.523-9.062,2.015-18.708,3-38c1.078-21.124-0.003-21.53,0.971-29.147c0.055-0.431,0.234-1.802,0.029-1.853
				c-0.631-0.157-4.29,12.374-11,36c-5.558,19.57-14.046,38.268-19,58c0,0-3.707,14.764-14,22c-0.736,0.518-1.769,1.091-3,1
				C472.517,634.562,470.178,628.187,469.319,625.844z"/>
			<path style="opacity:0.61;fill:#FFFF00;" d="M491.305,696.682c9.85-27.337-3.324-79.72-3.324-79.72
				c-14.552-57.863-22.358-88.899-37.77-96.8c-10.756-5.514-19.211-15.573-29.258-22.591c-0.164-0.114-0.684-0.475-0.961-1.17
				c-1.337-3.345,4.993-9.324,7.416-12.261c9.427-11.425,8.752-36.22-0.243-52.322c-4.915-8.799-11.412-13.386-14.495-15.272
				c-2.897-1.772-13.862-8.477-26.87-4.315c-12.548,4.015-18.8,15.517-21.713,20.878c-1.207,2.22-10.285,19.46-6.295,38.456
				c0,0,0.558,2.656,9.193,24.192c-0.001-0.001-7.637,4.458-9.186,5.378c-8.119,4.821-15.404,11.224-18.486,14.163
				c-7.986,7.617-12.22,15.324-18.944,27.795c-12.197,22.622-18.068,41.926-19.593,47.107c-5.084,17.264-7.018,30.868-8.37,40.66
				c-4.218,30.537-4.06,61.263-4.06,61.276c18.294-27.759,18.982-28.931,18.982-28.931c12.055-20.505,17.968-39.362,22.859-54.958
				c3.363-10.724,6.032-19.238,8.095-30.693c0.453-2.514,0.921-5.419,1.122-5.39c0.505,0.072-0.627,18.718-3.259,37.42
				c-2.915,20.722-5.773,28.023-12.132,63.279c-3.342,18.53-3.169,19.933-2.724,21.517c10.325,36.737,125.736,23.131,127.737,9.979
				c0.089-0.585,0.234-3.014,0.191-5.68c-0.106-6.488-1.282-11.3-1.579-12.563c-1.522-6.467-2.619-16.117-4.813-35.417
				c-1.176-10.346-1.3-21.32-1.548-43.268c-0.271-24.032,0.825-24.457,0.142-33.143c-0.039-0.491-0.165-2.055,0.042-2.106
				c0.637-0.157,3.815,14.201,9.619,41.265c4.808,22.418,12.577,43.944,16.775,66.525c0,0,3.141,16.896,13.152,25.462
				c0.716,0.613,1.727,1.299,2.96,1.237C487.775,706.478,490.356,699.315,491.305,696.682z"/>
			<path style="opacity:0.86;" d="M372.891,625.95c-10.505-27.092,1.405-79.777,1.405-79.777
				c13.156-58.196,20.212-89.411,35.429-97.681c10.62-5.771,18.831-16.031,28.706-23.289c0.161-0.118,0.672-0.491,0.933-1.192
				c1.256-3.376-5.216-9.201-7.709-12.079c-9.699-11.194-9.621-35.999-1.017-52.313c4.702-8.915,11.086-13.657,14.123-15.616
				c2.854-1.841,13.654-8.808,26.759-4.96c12.641,3.711,19.168,15.06,22.21,20.35c1.26,2.19,10.75,19.207,7.219,38.293
				c0,0-0.494,2.669-8.608,24.406c0-0.001,7.742,4.273,9.313,5.155c8.232,4.624,15.67,10.85,18.822,13.714
				c8.167,7.422,12.586,15.025,19.608,27.331c12.738,22.321,19.072,41.479,20.721,46.622c5.498,17.137,7.759,30.69,9.347,40.447
				c4.952,30.427,5.533,61.148,5.534,61.161c-18.956-27.311-19.673-28.466-19.673-28.466
				c-12.545-20.209-18.911-38.918-24.175-54.392c-3.62-10.64-6.494-19.087-8.832-30.489c-0.513-2.503-1.051-5.395-1.251-5.362
				c-0.503,0.084,1.078,18.697,4.158,37.331c3.413,20.646,6.446,27.876,13.652,62.969c3.787,18.444,3.648,19.851,3.241,21.445
				c-9.438,36.974-125.143,26.151-127.46,13.051c-0.103-0.583-0.307-3.008-0.328-5.674c-0.05-6.489,1.009-11.328,1.276-12.597
				c1.366-6.502,2.23-16.175,3.959-35.523c0.927-10.371,0.787-21.345,0.506-43.293c-0.307-24.032-1.413-24.43-0.94-33.13
				c0.027-0.492,0.116-2.059-0.092-2.105c-0.64-0.142-3.473,14.288-8.623,41.484c-4.267,22.527-11.515,44.234-15.169,66.91
				c0,0-2.734,16.967-12.536,25.771c-0.701,0.63-1.695,1.34-2.93,1.308C376.656,635.658,373.903,628.559,372.891,625.95z"/>
			<path style="opacity:0.86;" d="M580.217,617.085c-5.549-25.776,15.438-69.953,15.438-69.953
				c23.182-48.798,35.616-74.972,52.026-79.45c11.453-3.125,21.328-10.644,32.31-15.215c0.179-0.074,0.747-0.309,1.127-0.878
				c1.829-2.74-3.504-9.058-5.446-12.049c-7.558-11.637-3.11-33.453,8.219-46.228c6.191-6.981,13.3-9.979,16.629-11.145
				c3.128-1.095,14.968-5.24,27.167,0.558c11.767,5.592,16.18,16.781,18.237,21.996c0.852,2.16,7.178,18.882,0.346,35.03
				c0,0-0.956,2.258-12.759,19.896c0.001-0.001,6.854,5.185,8.242,6.25c7.274,5.584,13.486,12.432,16.078,15.533
				c6.717,8.035,9.719,15.539,14.45,27.661c8.583,21.989,11.43,40.014,12.145,44.844c2.382,16.094,2.216,28.438,2.057,37.317
				c-0.496,27.69-5.338,54.834-5.34,54.845c-13.814-27.524-14.315-28.672-14.315-28.672c-8.766-20.094-11.724-37.731-14.17-52.318
				c-1.682-10.03-3.017-17.993-3.306-28.458c-0.063-2.297-0.082-4.942-0.284-4.949c-0.509-0.019-2.236,16.654-2.492,33.62
				c-0.284,18.798,1.422,25.72,2.318,57.93c0.471,16.929,0.087,18.142-0.594,19.47c-15.789,30.805-127.573-0.009-127.542-11.965
				c0.001-0.532,0.228-2.703,0.678-5.054c1.094-5.72,2.988-9.784,3.474-10.852c2.488-5.471,5.042-13.826,10.15-30.535
				c2.738-8.957,4.534-18.641,8.126-38.009c3.933-21.207,2.916-21.761,4.914-29.33c0.113-0.428,0.476-1.791,0.28-1.869
				c-0.604-0.242-5.93,11.936-15.784,34.924c-8.162,19.041-19.11,36.811-26.695,56.096c0,0-5.676,14.429-16.859,20.375
				c-0.8,0.425-1.901,0.868-3.109,0.612C582.206,626.322,580.752,619.568,580.217,617.085z"/>
			<g>
				<path style="fill:#FF7BAC;stroke:#000000;stroke-width:5;stroke-miterlimit:10;" d="M853.884,708.347
					c-15.113,4.885-37.224,10.193-64.274,10.445c-29.028,0.271-52.633-5.383-68.292-10.445
					c-7.736-24.845-16.119-61.38-16.069-106.053c0.05-44.28,8.368-80.518,16.069-105.249c15.186-4.907,37.601-10.291,65.078-10.445
					c28.666-0.16,51.977,5.433,67.488,10.445c1.821,9.264,12.314,46.957,12.052,79.54c-0.126,15.603,3.129,27.342,0,56.24
					C862.483,664.711,855.366,689.591,853.884,708.347z"/>
				<g>
					<g>
						<polygon style="fill:#FF7BAC;" points="721.318,497.045 739.553,491.471 762.293,488.207 786.341,486.559 815.319,488.207 
							830.584,489.814 853.833,497.045 860.311,517.131 853.884,514.72 839.422,510.703 816.123,509.096 790.413,508.293 
							762.293,508.293 743.011,510.703 722.925,514.72 716.116,517.131 						"/>
						<path d="M721.318,497.045c4.511-1.559,13.525-4.673,18.043-6.2c7.607-1.346,15.229-2.611,22.845-3.896
							c0,0,24.016-2.119,24.016-2.119l0.08-0.007l0.137,0.006c4.071,0.172,24.128,1.021,27.76,1.188
							c3.815,0.211,12.724,1.21,16.622,1.541c6.042,1.689,17.718,5.356,23.731,7.174c0,0,1.194,0.366,1.194,0.366l0.392,1.203
							c0,0,6.536,20.067,6.536,20.067s1.591,4.884,1.591,4.884s-4.825-1.798-4.825-1.798s-6.432-2.396-6.432-2.396
							c1.318,0.393-14.657-4.114-14.241-3.991c0,0,0.488,0.084,0.488,0.084l-19.212-1.382c-5.415-0.449-13.711-0.669-19.221-0.911
							c-4.795-0.249-14.449-0.51-19.25-0.521c0.277,0.016-20.196-0.284-19.059-0.293c0.137-0.027-19.749,2.104-19.228,2.027
							c-6.527,1.174-14.006,2.493-20.056,3.507c0,0-6.875,2.222-6.875,2.222s-1.297,0.419-1.297,0.419
							C716.682,512.634,719.645,502.619,721.318,497.045L721.318,497.045z M721.318,497.045c0,0-4.514,20.264-4.514,20.264
							s-0.925-0.848-0.925-0.848s6.742-2.598,6.742-2.598l0.039-0.015c0,0,0.087-0.02,0.087-0.02
							c6.669-1.51,13.335-3.039,20.015-4.498c0.145-0.022,19.24-2.777,19.393-2.8c6.924-0.084,22.428-0.381,29.123-0.366
							c6.975,0.155,17.242,0.389,24.192,0.545c3.629,0.133,20.471,1.332,24.362,1.562c0,0,0.247,0.068,0.247,0.068l14.473,3.975
							l0.105,0.029c0,0,0.104,0.039,0.104,0.039s6.422,2.424,6.422,2.424s-3.234,3.087-3.234,3.087s-6.42-20.104-6.42-20.104
							s1.585,1.569,1.585,1.569c-5.813-1.809-17.414-5.515-23.203-7.377c0,0,0.436,0.09,0.436,0.09s-10.985-1.254-10.985-1.254
							c-6.85-0.865-26.64-1.95-32.902-2.528c0,0-24.08,1.176-24.08,1.176c-7.093,0.837-15.277,1.819-22.733,2.654
							C740.042,491.977,721.281,497.085,721.318,497.045L721.318,497.045z"/>
					</g>
					<polygon style="fill:#FF7BAC;stroke:#000000;stroke-width:5;stroke-miterlimit:10;" points="716.497,518.737 714.087,528.379 
						712.48,534.806 711.677,548.464 722.121,546.857 752.652,545.251 783.986,544.447 804.875,544.447 831.388,545.251 
						850.67,546.857 865.132,550.071 862.722,536.413 859.508,517.934 850.67,513.113 837.815,510.703 816.123,509.9 
						796.037,508.293 774.688,508.293 741.404,511.507 729.352,513.113 					"/>
					<g>
						<polygon style="fill:#FF7BAC;" points="710.873,550.071 707.66,566.14 721.672,566.14 760.686,564.533 809.695,563.729 
							845.85,564.533 867.768,566.14 865.935,556.499 865.692,550.071 852.277,546.857 830.584,545.251 797.705,545.251 
							769.16,545.251 733.369,547.661 						"/>
						<path d="M710.873,550.071l-2.689,16.173c0,0-0.525-0.64-0.525-0.64c5.911-0.187,14.207-0.286,19.999-0.765
							c19.439-1.35,40.675-2.425,60.049-2.819c6.973-0.162,23.341-0.721,30.089-0.439c7.224,0.091,17.904,0.305,25.104,0.448
							c3.691-0.044,21.11,1.396,25.05,1.622c0,0-2.633,2.954-2.633,2.954l-1.807-9.646l-0.035-0.189l-0.006-0.179
							c0,0-0.226-6.428-0.226-6.428l1.878,2.291l-13.406-3.25c0,0,0.384,0.06,0.384,0.06c-5.425-0.41-16.267-1.289-21.683-1.74
							c-9.084-0.067-20.086-0.135-29.812-0.285c-12.457,0.023-24.953-0.782-37.402-0.187c-8.344,0.423-21.56,0.978-29.907,1.333
							C728.371,548.764,715.902,549.702,710.873,550.071L710.873,550.071z M710.873,550.071c5.175-0.739,17.332-2.43,22.292-3.106
							c12.404-1.122,24.997-2.42,37.409-3.253c20-0.374,40.008-0.595,60.009-0.742c5.583,0.35,16.476,1.094,22.057,1.493
							c0,0,0.198,0.047,0.198,0.047s13.424,3.177,13.424,3.177s1.803,0.427,1.803,0.427c0.068,1.22,0.268,6.953,0.336,8.291
							c0,0-0.042-0.368-0.042-0.368s1.859,9.636,1.859,9.636s0.617,3.2,0.617,3.2c-1.41-0.117-21.128-1.589-23.164-1.75
							c-5.613-0.375-14.245-0.391-19.955-0.596c-5.789-0.14-14.256-0.508-19.965-0.52c-19.395,0.256-40.721-0.005-60.022,0.526
							c-13.35,0.278-26.696,0.768-40.07,0.141c0,0-0.667-0.031-0.667-0.031s0.143-0.609,0.143-0.609
							S710.873,550.071,710.873,550.071L710.873,550.071z"/>
					</g>
					<g>
						<polygon style="fill:#FF7BAC;" points="708.463,566.943 706.856,582.208 705.249,602.294 705.249,620.981 708.463,643.134 
							719.711,648.09 745.944,650.862 772.828,651.936 799.901,651.936 839.422,649.696 858.652,648.118 867.592,643.133 
							869.149,615.149 869.149,592.929 867.542,574.977 865.763,566.943 842.683,565.486 818.27,564.266 799.901,564.266 
							779.777,564.267 762.092,564.267 737.699,564.267 715.073,566.096 						"/>
						<path d="M708.463,566.943c-0.897,10.032-1.86,25.223-2.444,35.412c-0.03-0.307,0.379,18.69,0.356,18.625
							c1.168,6.48,2.359,14.839,3.539,21.942c0,0-0.86-1.132-0.86-1.132s11.316,4.802,11.316,4.802s-0.487-0.13-0.487-0.13
							c5.876,0.565,20.287,1.909,25.93,2.462c5.717,0.2,20.053,0.628,25.993,0.822c8.343,0.065,17.61-0.102,26.002-0.112
							c1.078,0.014,3.258-0.061,4.333-0.156c11.849-0.807,27.224-1.551,38.993-2.379c0,0,17.316-1.456,17.316-1.456
							s-1.006,0.306-1.006,0.306s8.933-4.997,8.933-4.997s-1.277,2.042-1.277,2.042c0.242-4.75,1.716-27.005,1.616-31.28
							c0.048-3.579-0.012-15.726,0.046-18.572c0.015,0.354-1.622-19.172-1.464-17.668c0,0-1.731-8.045-1.731-8.045
							s2.055,1.759,2.055,1.759c-15.972-1.124-31.909-2.2-47.88-3.057c-22.978-0.206-56.982-0.716-80.043-1.205
							C729.65,565.522,716.635,565.965,708.463,566.943L708.463,566.943z M708.463,566.943c8.095-1.401,20.866-2.464,29.182-3.334
							c0.018-0.033,32.057-0.585,32.089-0.608c18.544-0.051,45.856-1.17,64.142,0.018c9.731,0.286,23.92,1.262,33.705,1.774
							c0.272,1.21,1.985,8.601,2.251,9.979c-0.004,0.104,1.715,17.947,1.714,18.04c0,0,0,0.116,0,0.116l0.025,12.6
							c0.012,2.092,0.009,7.428,0.018,9.451c-0.074,0.806-1.377,26.604-1.504,28.293c0,0-0.073,1.374-0.073,1.374l-1.204,0.669
							l-8.948,4.972c0,0-0.474,0.263-0.474,0.263l-0.532,0.043c-17.813,1.598-38.732,2.634-56.572,3.539
							c-1.089,0.082-3.271,0.133-4.362,0.105c-8.47-0.107-17.79-0.028-26.21-0.198c-6.008-0.313-20.335-0.948-26.177-1.297
							c-5.65-0.632-20.201-2.36-25.995-3.026c0,0-0.273-0.032-0.273-0.032s-0.214-0.098-0.214-0.098s-11.18-5.11-11.18-5.11
							s-0.758-0.347-0.758-0.347c-0.992-7.716-2.064-15.425-2.99-23.149c0.002-0.062,0.352-18.691,0.357-18.748
							C705.418,592.019,707.009,576.983,708.463,566.943L708.463,566.943z"/>
					</g>
					<g>
						<polygon style="fill:#FF7BAC;" points="709.267,645.679 709.267,651.65 711.677,662.551 721.318,665.765 744.834,669.381 
							773.534,671.303 808.962,669.381 853.884,665.765 865.132,660.141 867.542,650.5 867.542,642.449 862.722,644.876 
							848.26,648.893 825.764,651.303 799.251,652.91 764.703,652.107 732.947,649.315 719.711,647.286 						"/>
						<path d="M709.267,645.679c0.009,1.973,0.17,4.232,0.199,5.926c0,0,2.751,10.826,2.751,10.826s-0.365-0.405-0.365-0.405
							l9.729,2.948l-0.137-0.033c7.865,1.034,15.738,2.013,23.596,3.094c8.955,0.414,19.225,0.915,28.616,1.432
							c7.995-0.603,26.185-1.763,34.916-2.298c3.337-0.29,21.356-1.866,25.061-2.188c0,0,20.054-1.668,20.054-1.668
							s-0.902,0.252-0.902,0.252l11.233-5.654l-1.303,1.624c0,0,2.42-9.638,2.42-9.638l-0.074,0.602l0.022-8.051
							c0,0,3.566,2.197,3.566,2.197s-4.827,2.414-4.827,2.414s-0.22,0.11-0.22,0.11l-0.225,0.062l-14.472,3.978
							c0,0-0.201,0.055-0.201,0.055s-0.187,0.019-0.187,0.019c-4.189,0.425-14.376,1.456-18.396,1.847
							c-8.854,0.887-21.816,1.251-30.749,1.761c-0.042,0.002-0.127,0.007-0.167,0.003c0,0-22.62-0.837-22.62-0.837l-11.302-0.472
							c-9.751-0.911-21.214-2.294-30.968-3.356C726.624,649.11,716.965,647.038,709.267,645.679L709.267,645.679z M709.267,645.679
							c6.196,0.758,16.014,1.896,22.424,2.723c0.705,0.105,2.099,0.232,2.809,0.254c9.755,0.594,21.213,1.413,30.944,2.002
							c0,0,11.29,0.053,11.29,0.053c-0.096,0.041,23.177,0.183,22.398,0.217c11.305-0.894,25.485-1.545,36.683-3.047
							c0,0,12.19-1.38,12.19-1.38s-0.387,0.074-0.387,0.074s14.451-4.056,14.451-4.056l-0.445,0.172l4.814-2.44
							c0,0,3.556-1.802,3.556-1.802l0.011,3.999c0,0,0.022,8.051,0.022,8.051s0.001,0.301,0.001,0.301
							c-0.228,0.91-2.585,10.391-2.753,11.06c0,0-1.026,0.509-1.026,0.509l-11.263,5.594c0,0-0.433,0.215-0.433,0.215l-0.469,0.037
							c-18.593,1.399-41.764,3.433-60.31,4.098c0,0-20.137,0.826-20.137,0.826s-0.134,0.005-0.134,0.005s-0.089-0.007-0.089-0.007
							c-9.587-0.748-19.167-1.593-28.749-2.407c-7.831-1.331-15.646-2.765-23.47-4.143c0,0-0.089-0.016-0.089-0.016
							s-0.048-0.017-0.048-0.017l-9.553-3.479c0,0-0.31-0.113-0.31-0.113s-0.055-0.292-0.055-0.292
							c-0.003-0.045-2.079-10.98-2.075-11.021C709.062,651.649,709.267,645.679,709.267,645.679L709.267,645.679z"/>
					</g>
					<g>
						<polygon style="fill:#FF7BAC;" points="713.284,662.551 714.349,671.723 717.866,689.282 729.454,696.078 749.392,700.892 
							783.986,701.919 815.319,701.116 840.683,698.315 859.359,688.407 861.918,675.406 863.753,661.479 847.457,666.569 
							829.781,668.175 793.627,669.782 762.293,670.586 747.58,669.381 718.908,664.962 						"/>
						<path d="M713.284,662.551c0.398,3.111,0.956,6.305,1.373,9.11c0,0,4.018,17.458,4.018,17.458l-0.391-0.549
							c0,0,11.746,6.526,11.746,6.526s-0.308-0.124-0.308-0.124s20.031,4.426,20.031,4.426s-0.315-0.042-0.315-0.042
							c12.352,0.011,24.697,0.592,37.036,0.426c7.448-0.241,21.215-0.75,28.786-0.983c5.142-0.647,19.209-2.232,25.156-2.904
							c0,0-0.874,0.269-0.874,0.269l18.649-9.957l-1.276,1.719c0.745-3.907,1.903-9.452,2.615-13.313c0,0,1.807-13.452,1.807-13.452
							s3.142,2.644,3.142,2.644l-16.31,5.043l-0.255,0.079c0,0-0.241,0.02-0.241,0.02c-6.391,0.474-15.033,1.406-21.318,1.6
							c-12.135,0.418-30.697,1.149-42.693,1.215c0,0-21.334,0.161-21.334,0.161l-0.098,0.001c0,0-0.046-0.005-0.046-0.005
							c-0.023,0.006-14.717-1.535-14.745-1.532c-0.012-0.002-14.281-2.569-14.294-2.572c-4.769-0.875-9.539-1.739-14.302-2.653
							C717.05,664.32,715.216,663.413,713.284,662.551L713.284,662.551z M713.284,662.551c1.711,0.713,3.987,1.532,5.656,2.203
							c4.806,0.561,9.604,1.172,14.404,1.772c-0.03,0.004,14.641,1.875,14.32,1.841c0,0,14.739,0.884,14.739,0.884
							c-0.775-0.023,21.344-0.916,21.149-0.936c5.303-0.17,15.977-0.692,21.271-1.04c0,0,21.248-1.155,21.248-1.155
							c6.228-0.303,14.896-1.362,21.171-1.931c0,0-0.496,0.099-0.496,0.099s16.282-5.135,16.282-5.135s3.632-1.145,3.632-1.145
							c-0.347,2.361-1.875,14.754-2.247,17.402c-0.706,4.384-2.039,10.234-2.838,14.646c0,0-1.047,0.552-1.047,0.552
							s-18.702,9.859-18.702,9.859s-0.418,0.22-0.418,0.22c-6.667,0.716-19.359,2.091-26.028,2.746
							c-7.667,0.079-21.379,0.43-28.904,0.496c-12.381-0.191-24.76-0.987-37.128-1.501c0,0-0.191-0.01-0.191-0.01
							s-0.125-0.033-0.125-0.033l-19.844-5.202c0,0-0.186-0.049-0.186-0.049l-0.123-0.076c0,0-11.429-7.066-11.429-7.066
							l-0.333-0.206l-0.059-0.344l-3.016-17.659C713.769,668.608,713.583,665.519,713.284,662.551L713.284,662.551z"/>
					</g>
					<g>
						<polygon style="fill:#FF7BAC;" points="717.301,689.868 719.711,696.295 721.318,707.544 728.549,713.167 738.994,717.185 
							749.438,719.595 756.669,720.398 768.72,721.202 782.591,721.202 800.054,721.202 818.27,720.082 830.585,717.988 
							841.747,714.605 853.884,708.347 856.165,705.277 859.508,687.458 848.511,696.078 827.371,700.313 804.875,701.919 
							785.677,702.922 759.149,701.077 737.261,698.315 						"/>
						<path d="M717.301,689.868c0.86,2.24,1.828,4.335,2.661,6.392c0,0,1.974,11.195,1.974,11.195s-0.235-0.404-0.235-0.404
							l7.391,5.418c-1.366-0.602,10.666,3.78,10.321,3.626c-0.97-0.228,10.636,2.202,10.34,2.138
							c4.912,0.534,13.467,0.965,19.062,1.208c1.328-0.022,5.053-0.071,6.437-0.093c7.98-0.167,17.814-0.173,25.746-0.386
							c0,0,17.13-1.203,17.13-1.203l-0.247,0.029c0,0,12.301-2.173,12.301-2.173s-0.294,0.069-0.294,0.069l11.153-3.415l-0.41,0.166
							c0,0,12.119-6.293,12.119-6.293l-0.853,0.724c0,0,2.272-3.076,2.272-3.076l-0.449,1.026l3.374-17.814
							c0,0,3.932,2.387,3.932,2.387l-11.021,8.588l-0.457,0.356l-0.56,0.112c-7.102,1.418-14.216,2.773-21.329,4.131
							c-0.07,0.003-20.898,1.304-20.991,1.309c-6.022,0.298-14.777,0.574-20.895,0.822c-10.182-0.923-20.407-1.52-30.531-2.91
							c-3.932-0.595-14.039-2.141-18.07-2.758C731.278,696.401,723.236,692.448,717.301,689.868L717.301,689.868z M717.301,689.868
							c5.543,2.268,14.491,5.533,20.246,7.772c3.034,0.199,14.302,1.429,17.939,1.758c9.706,0.964,21.202,1.091,30.098,1.735
							c11.879-0.73,29.626-2.08,41.624-3.095c5.461-1.208,14.262-2.994,20.828-4.331c0,0-1.016,0.468-1.016,0.468
							s10.972-8.652,10.972-8.652l5.126-4.042l-1.194,6.43l-3.311,17.826l-0.105,0.567c0,0-0.344,0.46-0.344,0.46
							s-2.29,3.063-2.29,3.063l-0.348,0.466l-0.505,0.259c0,0-12.154,6.223-12.154,6.223c-0.101,0.064-0.297,0.14-0.411,0.167
							c0,0-11.172,3.351-11.172,3.351s-0.156,0.047-0.156,0.047l-0.139,0.023c0,0-12.328,2.016-12.328,2.016s-0.14,0.023-0.14,0.023
							l-0.108,0.006l-17.274,0.912c-8.328,0.097-17.576-0.186-25.953-0.261c-1.377-0.026-5.144-0.069-6.489-0.093
							c-5.965-0.475-13.695-1.097-19.573-2.006c0,0-10.393-2.635-10.393-2.635s-0.105-0.027-0.105-0.027
							c-0.047-0.02-10.343-4.281-10.394-4.302c0,0-0.143-0.059-0.143-0.059s-0.083-0.068-0.083-0.068s-7.071-5.829-7.071-5.829
							l-0.209-0.173l-0.025-0.232l-1.24-11.3C718.818,694.371,717.999,691.843,717.301,689.868L717.301,689.868z"/>
					</g>
					<g>
						<path style="fill:#FF7BAC;" d="M714.891,566.14c-0.636,10.56-0.953,21.833-0.803,33.744c0.188,14.96,1.086,28.932,2.41,41.778
							"/>
						<path d="M714.891,566.14c1.221,12.619,1.431,25.128,1.766,37.741c0.212,12.616,0.536,25.121-0.159,37.782
							c-3.269-12.309-4.517-24.991-4.839-37.675C711.45,591.3,712.159,578.579,714.891,566.14L714.891,566.14z"/>
					</g>
					<g>
						<path style="fill:#FF7BAC;" d="M734.976,568.55c-1.087,10.341-1.757,21.923-1.607,34.547
							c0.177,14.917,1.463,28.406,3.214,40.172"/>
						<path d="M734.976,568.55c0.616,10.886,0.668,26.346,0.94,37.357c0.208,11.056,0.823,26.398,0.667,37.362
							c-3.815-12.051-5.335-24.665-5.664-37.255C730.711,593.422,731.698,580.756,734.976,568.55L734.976,568.55z"/>
					</g>
					<g>
						<path style="fill:#FF7BAC;" d="M758.276,568.55c-0.69,12.858-1.011,26.545-0.803,40.975
							c0.182,12.663,0.755,24.734,1.607,36.154"/>
						<path d="M758.276,568.55c1.287,12.878,1.471,25.669,1.667,38.551c0.078,12.885,0.17,25.675-0.863,38.578
							c-2.938-12.652-3.947-25.587-4.135-38.526C754.876,594.214,755.61,581.262,758.276,568.55L758.276,568.55z"/>
					</g>
					<g>
						<path style="fill:#FF7BAC;" d="M792.823,570.157c0,16.872,0,33.744,0,50.616c0,8.838,0,17.675,0,26.513"/>
						<path d="M792.823,570.157c1.978,12.804,2.435,25.662,2.499,38.565c-0.055,12.903-0.51,25.761-2.499,38.565
							c-1.989-12.803-2.444-25.662-2.499-38.565C790.389,595.819,790.846,582.961,792.823,570.157L792.823,570.157z"/>
					</g>
					<g>
						<path style="fill:#FF7BAC;" d="M822.55,568.55c1.432,12.837,2.38,27.101,2.41,42.582c0.025,12.976-0.598,25.071-1.607,36.154"
							/>
						<path d="M822.55,568.55c3.427,12.83,4.687,26.088,4.889,39.322c0.082,13.237-0.912,26.517-4.085,39.414
							c-0.765-11.447-0.722-27.771-0.913-39.363C822.397,596.284,822.036,580.074,822.55,568.55L822.55,568.55z"/>
					</g>
					<g>
						<path style="fill:#FF7BAC;" d="M852.277,571.764c0.759,12.556,0.921,26.569,0,41.778c-0.661,10.925-1.8,21.129-3.214,30.53"/>
						<path d="M852.277,571.764c2.708,11.927,3.261,24.177,2.787,36.35c-0.597,12.168-2.233,24.322-6.001,35.959
							c-0.238-10.563,0.613-25.521,1.007-36.181C850.63,597.197,851.111,582.323,852.277,571.764L852.277,571.764z"/>
					</g>
					<g>
						<path style="fill:#FF7BAC;" d="M722.925,517.131c-0.857,3.316-1.669,6.8-2.41,10.445c-1.029,5.057-1.815,9.891-2.41,14.462"/>
						<path d="M722.925,517.131c0.976,4.443,0.452,8.563-0.341,12.854c-0.875,4.26-2.037,8.266-4.48,12.052
							C715.636,533.621,717.718,524.102,722.925,517.131L722.925,517.131z"/>
					</g>
					<g>
						<path style="fill:#FF7BAC;" d="M739.797,514.72c-0.295,3.43-0.563,6.912-0.803,10.445c-0.334,4.911-0.599,9.733-0.803,14.462"
							/>
						<path d="M739.797,514.72c2.729,7.529,2.154,17.81-1.607,24.906C735.168,531.754,735.748,522.131,739.797,514.72
							L739.797,514.72z"/>
					</g>
					<g>
						<path style="fill:#FF7BAC;" d="M759.883,511.507c-0.28,4.53-0.548,9.082-0.803,13.658c-0.286,5.115-0.554,10.204-0.803,15.265
							"/>
						<path d="M759.883,511.507c2.847,8.826,2.233,20.472-1.607,28.923C755.312,531.415,755.954,520.144,759.883,511.507
							L759.883,511.507z"/>
					</g>
					<g>
						<path style="fill:#FF7BAC;" d="M791.216,510.703c0.268,9.641,0.536,19.282,0.803,28.923"/>
						<path d="M791.216,510.703c3.63,8.655,3.973,20.081,0.804,28.923C788.366,530.976,788.072,519.549,791.216,510.703
							L791.216,510.703z"/>
					</g>
					<g>
						<path style="fill:#FF7BAC;" d="M817.73,511.507c0.637,4.03,1.189,8.322,1.607,12.855c0.47,5.098,0.717,9.932,0.803,14.462"/>
						<path d="M817.73,511.507c4.555,8.21,5.816,18.46,2.411,27.317c-2.025-4.38-2.765-8.824-3.225-13.479
							C816.455,520.67,816.358,516.179,817.73,511.507L817.73,511.507z"/>
					</g>
					<g>
						<path style="fill:#FF7BAC;" d="M841.832,513.917c1.51,4.672,2.939,10.052,4.017,16.069c0.826,4.608,1.325,8.919,1.607,12.855"
							/>
						<path d="M841.832,513.917c6.137,7.635,8.479,19.543,5.624,28.923c-2.28-4.606-3.39-9.262-4.394-14.154
							C842.169,523.772,841.456,519.041,841.832,513.917L841.832,513.917z"/>
					</g>
					<g>
						<path style="fill:#FF7BAC;" d="M720.515,668.979c0.127,4.042,0.574,8.652,1.607,13.658c0.471,2.285,1.018,4.43,1.607,6.427"/>
						<path d="M720.515,668.979c1.985,3.134,2.821,6.285,3.433,9.75c0.474,3.512,0.847,6.71-0.219,10.336
							C718.659,683.835,717.183,675.519,720.515,668.979L720.515,668.979z"/>
					</g>
					<g>
						<path style="fill:#FF7BAC;" d="M738.994,672.193c0.341,4.303,0.858,8.869,1.607,13.658c0.48,3.07,1.022,6.018,1.607,8.838"/>
						<path d="M738.994,672.193c3.749,6.175,5.267,15.528,3.214,22.496C737.466,688.352,736.078,679.597,738.994,672.193
							L738.994,672.193z"/>
					</g>
					<g>
						<path style="fill:#FF7BAC;" d="M761.49,674.603c0.536,7.499,1.071,14.997,1.607,22.496"/>
						<path d="M761.49,674.603c3.863,6.542,4.525,15.472,1.607,22.496C759.21,690.563,758.596,681.629,761.49,674.603
							L761.49,674.603z"/>
					</g>
					<g>
						<path style="fill:#FF7BAC;" d="M792.02,674.603c0.268,8.034,0.536,16.069,0.803,24.103"/>
						<path d="M792.02,674.603c3.626,7.146,3.97,16.733,0.804,24.103C789.174,691.565,788.877,681.976,792.02,674.603
							L792.02,674.603z"/>
					</g>
					<g>
						<path style="fill:#FF7BAC;" d="M822.55,671.389c0.42,3.928,0.601,8.85,0,14.462c-0.5,4.667-1.425,8.724-2.41,12.051"/>
						<path d="M822.55,671.389c4.428,8.011,3.415,19.439-2.41,26.513c-0.636-4.637-0.337-8.863,0.028-13.364
							C820.63,680.047,821.098,675.837,822.55,671.389L822.55,671.389z"/>
					</g>
					<g>
						<path style="fill:#FF7BAC;" d="M845.85,670.586c0.351,3.236,0.51,7.344,0,12.051c-0.484,4.463-1.44,8.261-2.41,11.248"/>
						<path d="M845.85,670.586c4.334,6.973,3.284,17.369-2.41,23.299c-0.668-4.124-0.415-7.802-0.048-11.779
							C843.858,678.139,844.359,674.487,845.85,670.586L845.85,670.586z"/>
					</g>
				</g>
			</g>
			<g>
				<path style="fill:#FF7BAC;stroke:#000000;stroke-width:5;stroke-miterlimit:10;" d="M363.665,519.73
					c13.022-4.88,32.148-10.409,55.796-11.715c25.377-1.402,46.249,2.595,60.148,6.393c7.763,21.419,16.562,53.036,18.311,92.11
					c1.734,38.73-4.086,70.758-9.828,92.698c-13.085,4.902-32.473,10.51-56.499,11.748c-25.065,1.291-45.678-2.665-59.445-6.426
					c-1.964-8.03-12.655-40.575-13.734-69.083c-0.517-13.651-3.834-23.788-2.258-49.188
					C357.896,558.239,363.122,536.194,363.665,519.73z"/>
				<g>
					<g>
						<polygon style="fill:#FF7BAC;" points="488.092,699.216 472.368,704.823 452.61,708.59 431.643,710.997 406.232,710.719 
							392.817,709.927 372.192,704.536 365.72,687.229 371.439,689.079 384.248,692.012 404.691,692.482 427.209,692.152 
							451.803,691.023 468.571,688.141 485.977,683.821 491.835,681.44 						"/>
						<path d="M488.092,699.216c-3.873,1.566-11.62,4.69-15.505,6.224c-6.601,1.514-13.22,2.951-19.834,4.404
							c0,0-20.913,2.876-20.913,2.876s-0.076,0.01-0.076,0.01l-0.141,0.001c-3.566,0.02-21.151,0.119-24.334,0.124
							c-3.478-0.033-11.253-0.538-14.809-0.673c-5.851-1.465-16.273-4.093-22.11-5.613c-1.619-4.289-7.242-19.173-8.792-23.275
							c0,0,4.905,1.573,4.905,1.573s5.723,1.836,5.723,1.836c-1.285-0.321,12.976,3.013,12.589,2.917c0,0-0.491-0.061-0.491-0.061
							s16.854,0.444,16.854,0.444c4.751,0.179,12.014,0.049,16.841,0.045c4.203,0.03,12.654-0.117,16.853-0.293
							c0,0,16.87-0.494,16.87-0.494c4.247-0.69,11.81-1.777,16.513-2.474c5.642-1.268,12.227-2.722,17.4-3.809
							c0,0,5.933-2.197,5.933-2.197l1.281-0.474C491.616,685.325,489.377,694.207,488.092,699.216L488.092,699.216z
							 M488.092,699.216c0,0,3.048-17.922,3.048-17.922s0.963,0.805,0.963,0.805s-5.783,2.566-5.783,2.566
							c-5.804,1.636-11.614,3.261-17.434,4.837c-5.622,1.09-11.236,2.221-16.864,3.277c-0.034-0.01-16.956,1.069-17.026,1.064
							c-7.804,0.591-17.537,0.673-25.4,0.893c-5.727,0.274-19.509-0.197-25.404-0.269c0,0-0.241-0.005-0.241-0.005l-0.251-0.057
							l-12.819-2.89c0,0-0.106-0.024-0.106-0.024l-0.105-0.034c0,0-5.714-1.864-5.714-1.864l3.09-3.232l6.415,17.328
							c0,0-1.656-1.495-1.656-1.495c5.157,1.35,15.449,4.135,20.585,5.539c0,0-0.44-0.07-0.44-0.07l9.652,0.667
							c5.977,0.486,23.498,0.679,28.843,0.945c0,0,21.021-1.937,21.021-1.937c6.111-0.984,13.305-2.16,19.779-3.158
							C471.841,704.337,488.138,699.175,488.092,699.216L488.092,699.216z"/>
					</g>
					<polygon style="fill:#FF7BAC;stroke:#000000;stroke-width:5;stroke-miterlimit:10;" points="491.438,680.05 493.159,671.521 
						494.306,665.834 494.46,653.857 485.39,655.681 458.752,658.312 431.379,660.273 413.109,661.112 389.888,661.473 
						372.959,660.842 360.182,658.612 362.838,670.461 366.391,686.494 374.314,690.355 385.654,691.947 404.659,691.779 
						422.29,692.378 440.963,691.521 469.944,687.374 480.42,685.485 					"/>
					<g>
						<polygon style="fill:#FF7BAC;" points="495.099,652.419 497.264,638.236 485.008,638.799 450.951,641.77 408.119,644.44 
							376.466,645.189 357.231,644.664 359.221,653.023 359.692,658.634 371.554,660.906 390.591,661.441 419.348,660.121 
							444.314,658.975 475.52,655.43 						"/>
						<path d="M495.099,652.419l1.637-14.264c0,0,0.553,0.615,0.553,0.615c-5.16,0.423-12.41,0.869-17.455,1.536
							c-25.837,3.035-52.664,5.468-78.704,6.628c-6.324,0.218-15.677,0.464-21.984,0.63c-3.229,0.189-18.526-0.368-21.983-0.406
							c0,0,2.495-3.072,2.495-3.072s1.964,8.365,1.964,8.365s0.044,0.188,0.044,0.188s0.014,0.177,0.014,0.177
							s0.453,5.613,0.453,5.613s-1.981-2.202-1.981-2.202s11.855,2.309,11.855,2.309l-0.386-0.042
							c4.761,0.143,14.279,0.484,19.033,0.668c7.836-0.293,17.585-0.672,26.066-0.911c10.894-0.5,21.851-0.276,32.716-1.264
							c7.281-0.687,18.82-1.663,26.107-2.281C479.833,654.196,490.717,652.923,495.099,652.419L495.099,652.419z M495.099,652.419
							c-7.447,1.4-18.454,3.715-25.867,4.637c-8.679,1.204-17.363,2.524-26.078,3.512c-8.739,0.612-17.506,1.111-26.249,1.657
							c-8.789,0.556-17.584,1.022-26.377,1.496c0,0-9.521-0.179-9.521-0.179s-9.52-0.222-9.52-0.222s-0.186-0.004-0.186-0.004
							c-1.23-0.235-12.912-2.43-13.89-2.616c-0.12-1.23-0.525-6.148-0.65-7.47c0,0,0.058,0.365,0.058,0.365
							c-0.514-2.188-2.287-9.437-2.781-11.522c1.612,0.039,18.614,0.562,20.73,0.619c4.92,0.088,12.471-0.213,17.47-0.273
							c10.12-0.035,24.71-0.59,34.958-1.24c23.587-0.692,47.091-3.34,70.713-3.473c0,0-0.117,0.613-0.117,0.613L495.099,652.419
							L495.099,652.419z"/>
					</g>
					<g>
						<polygon style="fill:#FF7BAC;" points="496.529,637.566 497.322,624.15 497.921,606.518 497.171,590.174 493.47,570.928 
							483.434,567.045 460.379,565.673 436.823,565.814 413.144,566.9 378.668,570.446 361.913,572.598 354.294,577.317 
							354.056,601.855 354.948,621.289 357.074,636.925 358.952,643.881 379.197,644.228 400.598,644.315 416.663,643.578 
							434.265,642.77 449.732,642.06 471.067,641.08 490.782,638.572 						"/>
						<path d="M496.529,637.566c0.357-8.811,0.524-22.139,0.581-31.075c0.04,0.32-1.097-16.33-1.075-16.264
							c0.178,0.83-4.065-19.214-4.005-19.021c0,0,0.911,1.091,0.911,1.091s-10.097-3.726-10.097-3.726s0.493,0.107,0.493,0.107
							c-5.161-0.25-17.816-0.826-22.772-1.078c-4.746,0.075-17.824,0.274-22.754,0.354c-7.295,0.284-15.388,0.809-22.723,1.161
							c-0.943,0.032-2.845,0.187-3.781,0.314c-10.326,1.19-23.739,2.461-33.995,3.66c0,0-15.082,1.972-15.082,1.972
							s0.991-0.352,0.991-0.352l-7.612,4.731c0,0,1.182-2.099,1.182-2.099c-0.022,4.162-0.423,23.68-0.165,27.413
							c0.093,3.074,0.649,13.887,0.698,16.212c0,0,2.029,15.649,2.029,15.649s-0.059-0.29-0.059-0.29s1.831,6.968,1.831,6.968
							s-2.133-1.663-2.133-1.663c13.471,0.378,28.448,0.636,41.989,0.799c20.105-0.716,49.867-1.568,70.055-2.039
							C478.004,639.591,489.43,638.727,496.529,637.566L496.529,637.566z M496.529,637.566c-7.014,1.571-18.145,3.064-25.375,4.199
							c0.001,0.05-28.029,1.83-28.048,1.865c-15.898,0.899-40.346,2.873-56.107,2.654c-8.609,0.153-21.098-0.123-29.762-0.171
							c-0.292-1.258-2.144-7.49-2.441-8.878c-0.002-0.096-2.234-15.635-2.237-15.719c0,0-0.006-0.117-0.006-0.117
							s-0.531-11.024-0.531-11.024c-0.639-7.347-0.243-25.479-0.226-33.083c0,0,0.01-1.376,0.01-1.376
							c0.174-0.158,8.29-5.078,8.799-5.429c0,0,0.462-0.285,0.462-0.285l0.529-0.067c14.111-1.926,31.38-3.62,45.552-4.984
							c2.17-0.195,5.462-0.584,7.615-0.629c7.417-0.24,15.57-0.677,22.945-0.86c4.984,0.025,18.119,0.055,22.959,0.113
							c4.968,0.332,17.767,1.279,22.862,1.638c0,0,0.277,0.02,0.277,0.02s0.216,0.087,0.216,0.087s9.976,4.04,9.976,4.04
							s0.775,0.314,0.775,0.314s0.136,0.777,0.136,0.777l3.376,19.308c0,0,0.018,0.101,0.018,0.101s0.002,0.062,0.002,0.062
							c-0.001,0.065,0.429,16.363,0.425,16.423C498.275,615.516,497.424,628.727,496.529,637.566L496.529,637.566z"/>
					</g>
					<g>
						<polygon style="fill:#FF7BAC;" points="492.666,568.734 492.426,563.512 489.88,554.074 481.319,551.651 460.606,549.432 
							435.428,548.903 404.519,552.007 365.375,556.973 355.763,562.343 354.042,570.872 354.365,577.914 358.484,575.597 
							370.971,571.503 390.549,568.492 413.674,566.022 443.922,565.338 471.809,566.505 483.466,567.748 						"/>
						<path d="M492.666,568.734c-0.088-1.724-0.342-3.724-0.437-5.168c-0.979-3.111-1.938-6.227-2.882-9.347
							c0,0,0.383,0.388,0.383,0.388l-8.637-2.155c0,0,0.138,0.027,0.138,0.027c-6.922-0.568-13.851-1.079-20.768-1.693
							c-7.393,0.007-17.862,0.037-24.85-0.052c-8.092,0.974-22.672,2.602-30.631,3.467c-11.918,1.625-27.244,3.676-39.296,5.212
							c0,0,0.89-0.293,0.89-0.293s-9.595,5.399-9.595,5.399s1.227-1.682,1.227-1.682s-1.731,8.527-1.731,8.527
							s0.046-0.604,0.046-0.604s0.302,7.042,0.302,7.042s-3.663-2.031-3.663-2.031s4.126-2.303,4.126-2.303s0.216-0.121,0.216-0.121
							s0.221-0.072,0.221-0.072s12.5-4.056,12.5-4.056c0.111-0.041,0.271-0.083,0.384-0.092c6.255-0.867,15.203-2.345,21.373-3.032
							c5.447-0.538,16.201-1.575,21.65-2.057c6.539-0.05,23.4-0.17,29.729-0.152c7.649,0.371,17.084,1.098,24.754,1.606
							c0,0,2.471,0.17,2.471,0.17s1.235,0.092,1.235,0.092C478.086,566.589,486.361,567.834,492.666,568.734L492.666,568.734z
							 M492.666,568.734c-5.43-0.388-14.098-0.947-19.728-1.393c-1.341-0.133-3.567-0.1-4.938-0.136
							c-7.659-0.085-17.049-0.302-24.668-0.388c-6.236,0.301-23.153,0.947-29.613,1.191c-4.336,0.562-16.154,1.937-21.171,2.516
							c-6.103,0.81-15.058,2.423-21.211,3.357c0,0,0.384-0.092,0.384-0.092s-12.474,4.132-12.474,4.132s0.437-0.192,0.437-0.192
							l-4.111,2.329l-3.468,1.964c0,0-0.196-3.996-0.196-3.996l-0.345-7.04c0,0-0.015-0.3-0.015-0.3
							c0.211-1.007,1.826-9.139,1.998-9.963c0.634-0.394,10.228-5.643,11.053-6.132c17.072-2.076,35.999-4.628,53.061-6.02
							c0,0,17.584-1.498,17.584-1.498l0.137-0.012c8.458,0.286,16.914,0.66,25.37,1.019c6.936,0.879,13.867,1.829,20.794,2.769
							c0,0,8.485,2.693,8.485,2.693s0.315,0.1,0.315,0.1s0.068,0.288,0.068,0.288c0.753,3.187,1.503,6.376,2.216,9.573
							C492.63,563.503,492.666,568.734,492.666,568.734L492.666,568.734z"/>
					</g>
					<g>
						<polygon style="fill:#FF7BAC;" points="488.475,554.139 487.175,546.16 483.394,530.944 472.986,525.465 455.355,522.055 
							425.057,522.545 397.685,524.506 375.613,527.974 359.677,537.389 357.961,548.863 356.915,561.117 370.964,556.012 
							386.359,553.897 417.915,551.04 445.288,549.079 458.204,549.543 483.459,552.256 						"/>
						<path d="M488.475,554.139c-0.479-2.711-1.121-5.498-1.604-7.903c0,0-4.277-15.092-4.277-15.092s0.416,0.531,0.416,0.531
							l-10.553-5.202c0,0,0.314,0.11,0.314,0.11l-17.707-3.018c0,0,0.316,0.028,0.316,0.028
							c-10.801,0.517-21.619,0.518-32.401,1.181c-6.502,0.521-18.518,1.529-25.128,2.045c-4.325,0.758-16.73,2.74-21.859,3.562
							c0,0,0.86-0.309,0.86-0.309s-15.908,9.463-15.908,9.463s1.196-1.776,1.196-1.776c-0.494,3.444-1.284,8.336-1.753,11.739
							c0,0-1.044,11.828-1.044,11.828l-3.26-2.497l14.065-5.06c0,0,0.253-0.091,0.253-0.091s0.238-0.031,0.238-0.031
							c5.574-0.665,13.1-1.82,18.591-2.235c10.6-0.84,26.812-2.198,37.305-2.716c0,0,18.658-0.949,18.658-0.949l0.101-0.005
							l0.043,0.003c0.011-0.01,12.948,0.796,12.966,0.789c0.01,0.001,12.589,1.719,12.599,1.72
							c4.206,0.591,8.413,1.171,12.615,1.802C485.107,552.723,486.743,553.456,488.475,554.139L488.475,554.139z M488.475,554.139
							c-1.504-0.545-3.578-1.168-5.038-1.674c-4.228-0.276-8.451-0.602-12.675-0.917c0.009-0.01-12.902-1.005-12.594-0.99
							c0,0-12.928-0.142-12.928-0.142c0.768-0.018-18.629,1.707-18.437,1.716c-4.63,0.37-13.942,1.272-18.556,1.798
							c0,0-18.529,1.889-18.529,1.889c-5.432,0.52-12.966,1.804-18.429,2.559c0,0,0.491-0.121,0.491-0.121s-14.032,5.15-14.032,5.15
							l-3.574,1.312c0.225-2.431,1.064-13.137,1.301-15.795c0.451-3.925,1.382-9.13,1.915-13.081c0,0,1.02-0.599,1.02-0.599
							s15.964-9.367,15.964-9.367s0.408-0.239,0.408-0.239c5.74-0.89,16.797-2.578,22.542-3.421
							c8.615-0.471,20.578-1.449,29.076-1.712c9.712,0.002,19.419-0.059,29.125,0.015c0,0,0.122,0.026,0.122,0.026
							s17.555,3.802,17.555,3.802s0.191,0.041,0.191,0.041l0.123,0.069c0,0,10.262,5.756,10.262,5.756s0.344,0.193,0.344,0.193
							s0.072,0.338,0.072,0.338s3.285,15.339,3.285,15.339C487.836,548.867,488.101,551.566,488.475,554.139L488.475,554.139z"/>
					</g>
					<g>
						<polygon style="fill:#FF7BAC;" points="483.865,530.409 481.498,524.884 479.642,515.111 473.091,510.482 463.795,507.388 
							454.563,505.699 448.207,505.287 437.634,505.068 425.503,505.625 410.229,506.326 394.343,508.036 383.656,510.362 
							374.029,513.769 363.665,519.73 361.793,522.506 359.585,538.226 368.857,530.245 387.176,525.692 406.787,523.384 
							423.538,521.737 446.814,522.285 466.068,523.822 						"/>
						<path d="M483.865,530.409c-0.85-1.937-1.801-3.722-2.615-5.478c-0.767-3.23-1.486-6.468-2.221-9.704l0.253,0.393
							c0,0-6.7-4.416-6.7-4.416s0.231,0.117,0.231,0.117l-9.385-2.826c0.948,0.18-9.393-1.47-9.115-1.421
							c-3.439-0.203-10.69-0.294-14.818-0.237c-2.081-0.067-5.387,0.232-7.491,0.345c-3.737,0.238-11.257,0.699-14.993,0.935
							c-4.636,0.012-18.432,1.779-22.173,2.193c-3.123,0.676-8.377,1.961-10.379,2.321c0,0-9.616,3.438-9.616,3.438l0.402-0.185
							c0,0-10.344,5.995-10.344,5.995s0.819-0.763,0.819-0.763l-1.863,2.782c0,0,0.401-1.046,0.401-1.046
							c-0.714,5.243-1.496,10.476-2.24,15.715c0,0-4.037-2.205-4.037-2.205s9.298-7.95,9.298-7.95s0.441-0.377,0.441-0.377
							s0.554-0.137,0.554-0.137c6.162-1.527,12.339-2.991,18.516-4.458c0,0,0.12-0.013,0.12-0.013l18.204-1.953
							c5.257-0.492,12.906-1.069,18.249-1.521c8.953,0.409,17.931,0.558,26.85,1.391c3.462,0.375,12.364,1.354,15.914,1.745
							C471.4,525.185,478.542,528.375,483.865,530.409L483.865,530.409z M483.865,530.409c-4.922-1.743-12.934-4.198-18.051-5.899
							c-2.524-0.02-12.584-0.63-15.737-0.753c-8.483-0.428-18.706-0.045-26.363-0.237c-10.356,1.14-25.819,3.058-36.27,4.438
							c-4.533,1.241-12.373,3.214-18.003,4.634c0,0,0.994-0.514,0.994-0.514s-9.245,8.011-9.245,8.011l-4.937,4.278
							c0,0,0.9-6.483,0.9-6.483c0.728-5.241,1.418-10.487,2.176-15.724c0,0,0.084-0.578,0.084-0.578l0.318-0.468
							c0.225-0.35,2.034-2.982,2.208-3.252c0.293-0.108,10.862-6.288,11.278-6.393c0,0,9.638-3.375,9.638-3.375
							c3.694-0.86,7.427-1.574,11.14-2.361c0,0,0.101-0.01,0.101-0.01l15.081-1.473c7.285-0.413,15.39-0.518,22.724-0.774
							c1.206-0.03,4.505-0.137,5.682-0.168c1.337,0.028,8.052,0.334,9.508,0.387c2.585,0.127,5.153,0.411,7.725,0.629
							c0,0,9.19,1.915,9.19,1.915s0.11,0.023,0.11,0.023l0.049,0.018c0,0,9.207,3.362,9.207,3.362s0.148,0.054,0.148,0.054
							l0.083,0.063l6.4,4.841l0.218,0.165c0,0,0.035,0.228,0.035,0.228c0.502,3.28,1.021,6.557,1.493,9.842
							C482.367,526.503,483.189,528.729,483.865,530.409L483.865,530.409z"/>
					</g>
					<g>
						<path style="fill:#FF7BAC;" d="M490.94,638.526c0.132-9.261-0.043-19.134-0.652-29.545
							c-0.765-13.077-2.112-25.261-3.785-36.443"/>
						<path d="M490.94,638.526c-1.82-10.974-2.563-21.891-3.37-32.917c-0.686-11.035-1.413-21.951-1.067-33.072
							c3.597,10.588,5.257,21.638,6.055,32.736C493.243,616.38,493.076,627.551,490.94,638.526L490.94,638.526z"/>
					</g>
					<g>
						<path style="fill:#FF7BAC;" d="M473.276,637.225c0.536-9.088,0.656-19.245,0.018-30.28c-0.754-13.04-2.42-24.786-4.424-35.006
							"/>
						<path d="M473.276,637.225c-1.22-9.499-1.916-22.982-2.632-32.614c-0.59-9.679-1.714-23.041-1.773-32.672
							c4.061,10.331,5.959,21.318,6.76,32.335C476.312,615.3,475.898,626.44,473.276,637.225L473.276,637.225z"/>
					</g>
					<g>
						<path style="fill:#FF7BAC;" d="M452.898,638.16c0.087-11.274-0.181-23.257-0.942-35.87
							c-0.668-11.068-1.654-21.602-2.857-31.557"/>
						<path d="M452.898,638.16c-1.888-11.197-2.62-22.365-3.316-33.633c-0.58-11.276-1.115-22.453-0.483-33.793
							c3.323,10.907,4.783,22.187,5.474,33.512C455.145,615.577,454.966,626.947,452.898,638.16L452.898,638.16z"/>
					</g>
					<g>
						<path style="fill:#FF7BAC;" d="M422.618,638.142c-0.677-14.757-1.355-29.513-2.032-44.27
							c-0.355-7.73-0.71-15.459-1.064-23.189"/>
						<path d="M422.618,638.142c-2.489-11.094-3.462-22.32-4.045-33.615c-0.464-11.301-0.525-22.568,0.948-33.844
							c2.5,11.093,3.472,22.319,4.045,33.615C424.021,615.598,424.08,626.865,422.618,638.142L422.618,638.142z"/>
					</g>
					<g>
						<path style="fill:#FF7BAC;" d="M396.682,640.74c-1.768-11.17-3.17-23.607-3.818-37.146
							c-0.543-11.348-0.483-21.952-0.046-31.686"/>
						<path d="M396.682,640.74c-3.756-11.037-5.449-22.593-6.165-34.178c-0.598-11.592-0.205-23.266,2.301-34.653
							c1.473,11.494,1.991,22.875,2.69,34.373C396.094,617.786,396.847,629.155,396.682,640.74L396.682,640.74z"/>
					</g>
					<g>
						<path style="fill:#FF7BAC;" d="M370.554,639.123c-1.168-10.951-1.872-23.201-1.677-36.54
							c0.14-9.581,0.726-18.552,1.585-26.831"/>
						<path d="M370.554,639.123c-3.09-10.287-4.126-20.995-4.208-31.68c0.04-10.686,1.043-21.397,4.116-31.692
							c0.891,10.631,0.817,21.091,0.883,31.684C371.301,618.03,371.404,628.49,370.554,639.123L370.554,639.123z"/>
					</g>
					<g>
						<path style="fill:#FF7BAC;" d="M485.881,681.713c0.616-2.935,1.186-6.014,1.689-9.232c0.697-4.464,1.19-8.723,1.527-12.745"/>
						<path d="M485.881,681.713c-2.062-6.796-0.563-15.998,3.216-21.977C492.02,667.018,490.571,675.505,485.881,681.713
							L485.881,681.713z"/>
					</g>
					<g>
						<path style="fill:#FF7BAC;" d="M471.221,684.498c0.12-3.012,0.215-6.068,0.283-9.167c0.095-4.308,0.133-8.536,0.122-12.681"/>
						<path d="M471.221,684.498c-3.11-6.516-3.023-15.467,0.405-21.848C475.009,669.375,474.883,677.911,471.221,684.498
							L471.221,684.498z"/>
					</g>
					<g>
						<path style="fill:#FF7BAC;" d="M453.783,688.116c0.063-3.973,0.114-7.966,0.154-11.978c0.045-4.485,0.075-8.947,0.09-13.383"
							/>
						<path d="M453.783,688.116c-3.265-7.613-3.198-17.817,0.244-25.361C457.403,670.479,457.291,680.452,453.783,688.116
							L453.783,688.116z"/>
					</g>
					<g>
						<path style="fill:#FF7BAC;" d="M426.41,690.076c-0.621-8.422-1.243-16.843-1.864-25.265"/>
						<path d="M426.41,690.076c-3.935-7.341-4.704-17.426-1.864-25.265C428.51,672.182,429.226,682.199,426.41,690.076
							L426.41,690.076z"/>
					</g>
					<g>
						<path style="fill:#FF7BAC;" d="M403.189,690.438c-0.719-3.499-1.374-7.231-1.921-11.179c-0.615-4.44-1.026-8.658-1.283-12.616
							"/>
						<path d="M403.189,690.438c-4.716-6.83-6.259-15.976-3.205-23.795C403.634,673.141,405.245,683.225,403.189,690.438
							L403.189,690.438z"/>
					</g>
					<g>
						<path style="fill:#FF7BAC;" d="M382.011,689.298c-1.508-4.026-2.974-8.674-4.159-13.893
							c-0.907-3.997-1.517-7.748-1.921-11.179"/>
						<path d="M382.011,689.298c-6.061-6.247-8.632-16.739-6.08-25.071c2.401,3.876,3.628,7.867,4.713,12.13
							C381.623,680.645,382.359,684.753,382.011,689.298L382.011,689.298z"/>
					</g>
					<g>
						<path style="fill:#FF7BAC;" d="M481.892,548.807c-0.273-3.53-0.85-7.544-1.954-11.881c-0.504-1.98-1.069-3.834-1.663-5.557"/>
						<path d="M481.892,548.807c-3.572-4.679-5.206-11.72-3.617-17.438C483.299,535.514,484.976,543.011,481.892,548.807
							L481.892,548.807z"/>
					</g>
					<g>
						<path style="fill:#FF7BAC;" d="M465.602,546.739c-0.471-3.75-1.107-7.722-1.954-11.881c-0.543-2.666-1.135-5.222-1.76-7.665"
							/>
						<path d="M465.602,546.739c-3.946-5.213-5.635-13.249-3.714-19.546C466.69,532.387,468.279,540.147,465.602,546.739
							L465.602,546.739z"/>
					</g>
					<g>
						<path style="fill:#FF7BAC;" d="M445.829,545.534c-0.77-6.537-1.539-13.074-2.309-19.611"/>
						<path d="M445.829,545.534c-4.051-5.474-5.001-13.346-2.309-19.611C447.594,531.39,448.498,539.267,445.829,545.534
							L445.829,545.534z"/>
					</g>
					<g>
						<path style="fill:#FF7BAC;" d="M419.127,546.759c-0.557-7.016-1.114-14.032-1.67-21.048"/>
						<path d="M419.127,546.759c-3.876-6.055-4.567-14.459-1.671-21.048C421.356,531.76,422,540.167,419.127,546.759
							L419.127,546.759z"/>
					</g>
					<g>
						<path style="fill:#FF7BAC;" d="M392.554,550.796c-0.525-3.418-0.881-7.716-0.581-12.648c0.25-4.102,0.896-7.687,1.624-10.637"
							/>
						<path d="M392.554,550.796c-4.618-6.717-4.182-17.015,1.043-23.286c0.967,4.046,0.958,7.727,0.823,11.703
							C394.189,543.184,393.87,546.851,392.554,550.796L392.554,550.796z"/>
					</g>
					<g>
						<path style="fill:#FF7BAC;" d="M372.208,552.434c-0.437-2.816-0.741-6.403-0.484-10.54c0.244-3.923,0.928-7.283,1.656-9.934"
							/>
						<path d="M372.208,552.434c-4.499-5.869-3.991-15.165,1.172-20.475c0.969,3.599,0.984,6.797,0.826,10.318
							C373.949,545.793,373.573,548.968,372.208,552.434L372.208,552.434z"/>
					</g>
				</g>
			</g>
			<g>
				<path style="fill:#FF7BAC;stroke:#000000;stroke-width:5;stroke-miterlimit:10;" d="M584.635,720.245
					c-13.232,4.277-32.591,8.924-56.275,9.145c-25.415,0.237-46.082-4.713-59.792-9.145c-6.773-21.752-14.113-53.74-14.069-92.853
					c0.044-38.768,7.327-70.496,14.069-92.15c13.296-4.297,32.921-9.01,56.978-9.145c25.098-0.14,45.508,4.756,59.088,9.145
					c1.594,8.111,10.781,41.113,10.552,69.64c-0.11,13.661,2.739,23.939,0,49.24C592.164,682.041,585.932,703.823,584.635,720.245z"
					/>
				<g>
					<g>
						<path d="M468.569,535.243c3.941-1.386,11.823-4.153,15.774-5.506c6.664-1.209,13.342-2.341,20.015-3.489
							c0,0,21.023-1.914,21.023-1.914s0.076-0.007,0.076-0.007l0.141,0.006c3.563,0.143,21.135,0.851,24.314,0.992
							c3.473,0.192,11.217,1.054,14.762,1.351c5.778,1.732,16.068,4.835,21.83,6.621c1.421,4.359,6.356,19.485,7.715,23.654
							c0,0-4.827-1.797-4.827-1.797s-5.633-2.096-5.633-2.096c1.269,0.379-12.824-3.605-12.441-3.491c0,0,0.488,0.084,0.488,0.084
							l-16.816-1.216c-4.738-0.396-11.999-0.6-16.821-0.817c-4.197-0.222-12.646-0.463-16.848-0.48c0,0-16.875-0.28-16.875-0.28
							c-4.274,0.495-11.879,1.234-16.609,1.714c-5.694,1.008-12.339,2.158-17.556,3.007c0,0-6.027,1.922-6.027,1.922l-1.302,0.415
							C464.412,548.958,467.056,540.188,468.569,535.243L468.569,535.243z M468.569,535.243l-3.866,17.764
							c0,0-0.925-0.848-0.925-0.848l5.894-2.298c5.873-1.368,11.751-2.725,17.637-4.032c5.666-0.831,11.327-1.703,16.997-2.5
							c0.034,0.012,16.988-0.29,17.057-0.282c7.823-0.232,17.549,0.132,25.414,0.273c5.734-0.011,19.479,1.092,25.365,1.433
							c0,0,0.24,0.016,0.24,0.016l0.248,0.068l12.673,3.475l0.105,0.029c0,0,0.104,0.039,0.104,0.039l5.622,2.124
							c0,0-3.234,3.087-3.234,3.087s-5.614-17.604-5.614-17.604l1.585,1.569c-5.09-1.585-15.243-4.839-20.31-6.477
							c0,0,0.436,0.09,0.436,0.09s-9.612-1.109-9.612-1.109c-5.949-0.76-23.442-1.755-28.769-2.267c0,0-21.087,0.971-21.087,0.971
							c-6.15,0.702-13.39,1.548-19.903,2.248C485.037,530.872,468.521,535.281,468.569,535.243L468.569,535.243z"/>
					</g>
					<polygon style="fill:none;stroke:#000000;stroke-width:5;stroke-miterlimit:10;" points="464.348,554.235 462.238,562.676 
						460.831,568.304 460.127,580.262 469.272,578.855 496.002,577.448 523.436,576.745 541.725,576.745 564.939,577.448 
						581.821,578.855 594.483,581.669 592.373,569.711 589.559,553.532 581.821,549.311 570.566,547.201 551.573,546.497 
						533.988,545.091 515.296,545.091 486.154,547.904 475.603,549.311 					"/>
					<g>
						<path d="M459.424,581.669l-2.289,14.174c0,0-0.525-0.64-0.525-0.64c5.174-0.186,12.437-0.299,17.507-0.734
							c25.949-1.847,52.859-3.047,78.926-3.012c6.328,0.072,15.682,0.255,21.989,0.379c3.234-0.04,18.49,1.217,21.941,1.414
							c0,0-2.633,2.954-2.633,2.954l-1.579-8.446c0,0-0.035-0.19-0.035-0.19l-0.006-0.178c0,0-0.195-5.628-0.195-5.628
							s1.878,2.291,1.878,2.291s-11.737-2.85-11.737-2.85s0.384,0.06,0.384,0.06c-4.75-0.361-14.242-1.138-18.983-1.54
							c-7.841-0.067-17.598-0.135-26.08-0.285c-10.905,0-21.841-0.726-32.739-0.237c-7.305,0.353-18.876,0.798-26.184,1.082
							C474.755,580.594,463.824,581.366,459.424,581.669L459.424,581.669z M459.424,581.669c7.504-1.057,18.605-2.865,26.053-3.446
							c8.725-0.805,17.46-1.725,26.212-2.313c8.758-0.211,17.538-0.307,26.298-0.451c8.806-0.152,17.612-0.215,26.417-0.285
							c0,0,9.503,0.615,9.503,0.615l9.5,0.658c0,0,0.185,0.013,0.185,0.013c1.218,0.291,12.787,3.019,13.755,3.25
							c0.064,1.234,0.243,6.166,0.306,7.492c0,0-0.042-0.367-0.042-0.367c0.414,2.209,1.852,9.532,2.249,11.637
							c-1.608-0.113-18.569-1.415-20.68-1.569c-4.911-0.314-12.468-0.359-17.464-0.528c-10.112-0.445-24.71-0.533-34.978-0.364
							c-23.594-0.391-47.195,1.177-70.798,0.227c0,0,0.145-0.607,0.145-0.607L459.424,581.669L459.424,581.669z"/>
					</g>
					<g>
						<path d="M457.314,596.441c-0.761,8.786-1.539,22.092-2.005,31.016c-0.025-0.321,0.347,16.364,0.328,16.296
							c-0.14-0.837,3.18,19.381,3.129,19.185c0,0-0.86-1.132-0.86-1.132s9.916,4.185,9.916,4.185s-0.487-0.13-0.487-0.13
							c5.144,0.487,17.759,1.642,22.698,2.121c4.744,0.143,17.818,0.544,22.746,0.69c7.301,0.05,15.409-0.102,22.753-0.118
							c0.943,0.011,2.851-0.056,3.792-0.14c10.37-0.715,23.827-1.37,34.127-2.098c0,0,15.157-1.279,15.157-1.279
							s-1.006,0.306-1.006,0.306l7.821-4.377l-1.277,2.042c0.213-4.157,1.508-23.635,1.422-27.377
							c0.048-3.075-0.012-13.902,0.046-16.227c0,0-1.309-15.725-1.309-15.725s0.045,0.292,0.045,0.292s-1.51-7.045-1.51-7.045
							l2.055,1.759c-13.439-0.995-28.389-1.94-41.909-2.724c-20.116-0.207-49.886-0.72-70.075-1.175
							C475.912,595.267,464.459,595.607,457.314,596.441L457.314,596.441z M457.314,596.441c7.079-1.247,18.267-2.229,25.541-3.031
							c0.001-0.05,28.084-0.542,28.104-0.577c15.923-0.17,40.435-1.02,56.17-0.078c8.607,0.242,21.07,1.09,29.723,1.536
							c0.234,1.27,1.798,7.581,2.032,8.981c-0.002,0.096,1.514,15.721,1.514,15.805c0,0,0,0.117,0,0.117s0.025,11.037,0.025,11.037
							c0.302,7.369-0.925,25.463-1.292,33.058c0,0-0.073,1.374-0.073,1.374c-0.181,0.15-8.514,4.693-9.039,5.02
							c0,0-0.475,0.263-0.475,0.263s-0.531,0.042-0.531,0.042c-14.184,1.276-31.513,2.177-45.732,2.89
							c-2.177,0.095-5.483,0.333-7.636,0.279c-7.42-0.1-15.585-0.037-22.961-0.193c-4.978-0.254-18.098-0.886-22.93-1.165
							c-4.948-0.559-17.69-2.093-22.763-2.684c0,0-0.276-0.033-0.276-0.033s-0.211-0.097-0.211-0.097s-9.78-4.493-9.78-4.493
							s-0.76-0.349-0.76-0.349s-0.1-0.783-0.1-0.783s-2.487-19.443-2.487-19.443s-0.013-0.102-0.013-0.102l0.001-0.062
							c0.004-0.065,0.322-16.366,0.328-16.425C454.559,618.388,456.015,605.229,457.314,596.441L457.314,596.441z"/>
					</g>
					<g>
						<path d="M458.017,665.377c0.009,1.726,0.171,3.735,0.199,5.183c0.835,3.152,1.651,6.309,2.451,9.47l-0.365-0.405l8.529,2.548
							c0,0-0.137-0.033-0.137-0.033c6.889,0.885,13.787,1.713,20.669,2.644c7.386,0.332,17.845,0.782,24.822,1.191
							c8.128-0.602,22.767-1.559,30.758-2.059c11.98-1.077,27.384-2.422,39.494-3.404c0,0-0.902,0.252-0.902,0.252
							s9.833-4.954,9.833-4.954s-1.303,1.624-1.303,1.624s2.12-8.438,2.12-8.438s-0.074,0.602-0.074,0.602l0.022-7.049l3.566,2.197
							l-4.227,2.112c0,0-0.221,0.111-0.221,0.111l-0.224,0.061c0,0-12.672,3.478-12.672,3.478c-0.113,0.036-0.275,0.071-0.388,0.074
							c-6.288,0.579-15.294,1.646-21.49,2.049c-5.466,0.288-16.257,0.831-21.722,1.062c-6.534-0.25-23.384-0.903-29.705-1.212
							c-7.624-0.721-17.015-1.88-24.654-2.739c0,0-2.461-0.283-2.461-0.283l-1.229-0.148
							C472.482,668.189,464.274,666.565,458.017,665.377L458.017,665.377z M458.017,665.377c5.407,0.636,14.039,1.593,19.644,2.296
							c1.333,0.194,3.559,0.264,4.926,0.362c7.647,0.436,17.018,1.083,24.624,1.519c6.243-0.015,23.172,0.115,29.636,0.168
							c4.358-0.363,16.226-1.194,21.264-1.543c6.134-0.529,15.153-1.73,21.343-2.38c0,0-0.388,0.074-0.388,0.074l12.651-3.556
							c0,0-0.445,0.172-0.445,0.172s4.214-2.138,4.214-2.138s3.554-1.803,3.554-1.803s0.012,4,0.012,4l0.022,7.049l0.001,0.3
							c-0.258,0.996-2.243,9.045-2.453,9.861c-0.651,0.365-10.476,5.168-11.322,5.618c-17.149,1.291-36.173,2.972-53.281,3.581
							c0,0-17.635,0.69-17.635,0.69l-0.137,0.005c-8.436-0.674-16.866-1.435-25.297-2.181c-6.888-1.196-13.769-2.463-20.645-3.72
							c0,0-8.353-3.079-8.353-3.079s-0.31-0.114-0.31-0.114s-0.055-0.291-0.055-0.291c-0.607-3.218-1.209-6.438-1.775-9.664
							C457.813,670.604,458.017,665.377,458.017,665.377L458.017,665.377z"/>
					</g>
					<g>
						<path d="M461.534,680.149c0.354,2.731,0.868,5.543,1.24,7.969c0,0,3.58,15.273,3.58,15.273s-0.391-0.549-0.391-0.549
							s10.304,5.68,10.304,5.68s-0.308-0.124-0.308-0.124s17.55,3.827,17.55,3.827l-0.315-0.042
							c10.813-0.021,21.62,0.474,32.421,0.306c6.519-0.223,18.569-0.679,25.196-0.891c4.355-0.559,16.838-1.97,21.999-2.556
							c0,0-0.874,0.269-0.874,0.269s16.325-8.724,16.325-8.724l-1.276,1.719c0.651-3.418,1.665-8.268,2.29-11.646
							c0,0,1.586-11.768,1.586-11.768s3.142,2.644,3.142,2.644s-14.282,4.41-14.282,4.41s-0.257,0.079-0.257,0.079l-0.239,0.02
							c-5.599,0.408-13.169,1.217-18.674,1.38c-10.628,0.353-26.884,0.966-37.39,1.003c0,0-18.682,0.093-18.682,0.093
							s-0.101,0-0.101,0l-0.042-0.005c-0.012,0.01-12.898-1.389-12.917-1.383c-0.01-0.002-12.496-2.294-12.507-2.296
							c-4.174-0.783-8.351-1.556-12.519-2.379C464.833,681.718,463.233,680.911,461.534,680.149L461.534,680.149z M461.534,680.149
							c1.477,0.613,3.521,1.331,4.956,1.903c4.211,0.469,8.414,0.989,12.619,1.497c-0.01,0.009,12.843,1.596,12.536,1.566
							c0,0,12.907,0.734,12.907,0.734c-0.768-0.017,18.687-0.851,18.496-0.868c4.642-0.157,13.986-0.632,18.619-0.945
							c0,0,18.597-1.038,18.597-1.038c5.451-0.27,13.035-1.207,18.526-1.711c0,0-0.496,0.099-0.496,0.099s14.254-4.501,14.254-4.501
							l3.63-1.146c-0.337,2.418-1.665,13.075-2.024,15.719c-0.631,3.9-1.799,9.057-2.513,12.979c0,0-1.047,0.551-1.047,0.551
							s-16.377,8.625-16.377,8.625l-0.418,0.22c-5.775,0.626-16.898,1.805-22.675,2.384c-8.628,0.076-20.622,0.504-29.124,0.377
							c-9.702-0.447-19.401-0.832-29.093-1.351c0,0-0.12-0.032-0.12-0.032l-17.363-4.603c0,0-0.189-0.05-0.189-0.05
							s-0.12-0.074-0.12-0.074s-9.987-6.22-9.987-6.22l-0.335-0.208l-0.057-0.341l-2.579-15.473
							C461.931,685.445,461.79,682.737,461.534,680.149L461.534,680.149z"/>
					</g>
					<g>
						<path d="M465.051,704.066c0.76,1.974,1.628,3.8,2.361,5.592c0.618,3.261,1.187,6.53,1.774,9.795c0,0-0.235-0.404-0.235-0.404
							l6.491,4.718c0,0-0.225-0.127-0.225-0.127s9.246,3.253,9.246,3.253c-0.939-0.224,9.316,1.9,9.04,1.838
							c3.426,0.361,10.665,0.784,14.791,0.916c2.076,0.162,5.392,0.015,7.499-0.001c3.744-0.066,11.277-0.182,15.02-0.246
							c4.632,0.2,18.494-0.932,22.25-1.174c3.15-0.533,8.458-1.575,10.474-1.843c0,0,9.763-2.994,9.763-2.994l-0.41,0.166
							l10.608-5.514c0,0-0.853,0.724-0.853,0.724l1.988-2.694c0,0-0.449,1.026-0.449,1.026c0.953-5.205,1.974-10.397,2.958-15.596
							l3.932,2.387c0,0-9.653,7.515-9.653,7.515l-0.458,0.356c0,0-0.559,0.112-0.559,0.112c-6.225,1.243-12.464,2.422-18.701,3.604
							c0,0-0.121,0.007-0.121,0.007l-18.274,1.116c-5.274,0.251-12.941,0.476-18.299,0.683c-8.925-0.819-17.886-1.379-26.758-2.621
							c-3.441-0.533-12.289-1.92-15.817-2.473C477.263,709.855,470.275,706.341,465.051,704.066L465.051,704.066z M465.051,704.066
							c4.837,1.966,12.728,4.787,17.762,6.72c2.52,0.135,12.542,1.207,15.686,1.474c8.454,0.816,18.684,0.902,26.325,1.446
							c10.397-0.663,25.932-1.871,36.435-2.77c4.585-1.032,12.508-2.643,18.197-3.804c0,0-1.016,0.468-1.016,0.468
							s9.603-7.579,9.603-7.579s5.128-4.047,5.128-4.047s-1.196,6.435-1.196,6.435c-0.967,5.202-1.897,10.411-2.895,15.608
							c0,0-0.11,0.574-0.11,0.574l-0.339,0.453c-0.241,0.339-2.169,2.885-2.355,3.147c-0.298,0.094-11.139,5.783-11.559,5.869
							c0,0-9.783,2.93-9.783,2.93c-3.73,0.69-7.492,1.232-11.236,1.848c0,0-0.101,0.005-0.101,0.005l-15.133,0.78
							c-7.296,0.079-15.397-0.189-22.735-0.269c-1.206-0.026-4.506-0.069-5.684-0.093c-1.335-0.089-8.028-0.703-9.481-0.823
							c-2.577-0.245-5.129-0.647-7.688-0.983c0,0-9.093-2.335-9.093-2.335l-0.109-0.028l-0.048-0.02l-9.043-3.781l-0.146-0.061
							c0,0-0.08-0.067-0.08-0.067s-6.171-5.129-6.171-5.129l-0.21-0.175l-0.024-0.23c-0.351-3.299-0.72-6.596-1.04-9.9
							C466.368,708.036,465.649,705.774,465.051,704.066L465.051,704.066z"/>
					</g>
					<g>
						<path d="M462.941,595.738c1.314,11.046,1.557,21.986,1.857,33.037c0.18,11.055,0.405,21.993-0.45,33.086
							c-3.108-10.742-4.259-21.857-4.547-32.979C459.625,617.756,460.304,606.604,462.941,595.738L462.941,595.738z"/>
					</g>
					<g>
						<path d="M480.527,597.848c0.783,9.545,0.86,23.046,1.134,32.7c0.146,9.696,0.655,23.095,0.273,32.719
							c-3.583-10.506-4.975-21.569-5.27-32.611C476.489,619.611,477.413,608.501,480.527,597.848L480.527,597.848z"/>
					</g>
					<g>
						<path d="M500.926,597.848c1.373,11.272,1.591,22.462,1.77,33.75c0.063,11.291,0.085,22.48-1.067,33.78
							c-2.819-11.048-3.761-22.383-3.932-33.727C497.646,620.304,498.347,608.954,500.926,597.848L500.926,597.848z"/>
					</g>
					<g>
						<path d="M531.174,599.255c1.978,11.197,2.435,22.455,2.499,33.765c-0.054,11.31-0.511,22.568-2.499,33.765
							c-1.989-11.196-2.445-22.455-2.499-33.765C528.739,621.71,529.196,610.452,531.174,599.255L531.174,599.255z"/>
					</g>
					<g>
						<path d="M557.201,597.848c3.246,11.198,4.408,22.819,4.591,34.425c0.066,11.608-0.862,23.251-3.888,34.511
							c-0.945-11.549-0.939-22.943-1.11-34.46C556.737,620.805,556.505,609.414,557.201,597.848L557.201,597.848z"/>
					</g>
					<g>
						<path d="M583.228,600.662c2.615,10.418,3.159,21.162,2.751,31.839c-0.53,10.673-2.023,21.327-5.565,31.47
							c-0.402-10.66,0.151-21.106,0.571-31.691C581.514,621.698,581.891,611.245,583.228,600.662L583.228,600.662z"/>
					</g>
					<g>
						<path d="M469.975,552.828c1.749,6.883-0.171,16.007-4.22,21.806C463.169,567.226,465.005,558.815,469.975,552.828
							L469.975,552.828z"/>
					</g>
					<g>
						<path d="M484.747,550.718c2.808,6.652,2.31,15.589-1.407,21.806C480.27,565.652,480.787,557.131,484.747,550.718
							L484.747,550.718z"/>
					</g>
					<g>
						<path d="M502.333,547.904c2.913,7.754,2.378,17.945-1.407,25.324C497.907,565.356,498.478,555.399,502.333,547.904
							L502.333,547.904z"/>
					</g>
					<g>
						<path d="M529.767,547.201c3.598,7.55,3.902,17.587,0.704,25.324C526.849,564.98,526.593,554.941,529.767,547.201
							L529.767,547.201z"/>
					</g>
					<g>
						<path d="M552.98,547.904c4.398,7.039,5.52,16.246,2.111,23.917C551.742,565.163,550.595,555.015,552.98,547.904
							L552.98,547.904z"/>
					</g>
					<g>
						<path d="M574.083,550.015c5.768,6.518,7.855,17.118,4.924,25.323c-2.221-3.982-3.263-8.025-4.152-12.333
							C574.074,558.676,573.527,554.538,574.083,550.015L574.083,550.015z"/>
					</g>
					<g>
						<path d="M467.865,685.777c3.354,4.838,4.663,11.946,2.814,17.586C465.851,698.992,464.519,691.426,467.865,685.777
							L467.865,685.777z"/>
					</g>
					<g>
						<path d="M484.044,688.591c3.703,5.388,5.022,13.494,2.814,19.696C482.298,702.877,481.067,695.053,484.044,688.591
							L484.044,688.591z"/>
					</g>
					<g>
						<path d="M503.74,690.701c3.795,5.654,4.384,13.562,1.407,19.696C501.329,704.749,500.787,696.838,503.74,690.701
							L503.74,690.701z"/>
					</g>
					<g>
						<path d="M530.471,690.701c3.594,6.227,3.899,14.653,0.704,21.103C527.556,705.583,527.299,697.155,530.471,690.701
							L530.471,690.701z"/>
					</g>
					<g>
						<path d="M557.201,687.887c4.305,6.922,3.397,17.189-2.11,23.213c-0.781-4.086-0.603-7.763-0.285-11.728
							C555.218,695.416,555.706,691.768,557.201,687.887L557.201,687.887z"/>
					</g>
					<g>
						<path d="M577.6,687.184c4.223,6.018,3.279,15.382-2.11,20.4c-0.803-3.639-0.671-6.835-0.352-10.345
							C575.557,693.738,576.078,690.584,577.6,687.184L577.6,687.184z"/>
					</g>
				</g>
			</g>
			<g>
				<path style="fill:#FF7BAC;stroke:#000000;stroke-miterlimit:10;" d="M514.038,735.937
					c-6.101-18.873-12.728-46.485-13.043-80.264c-0.338-36.249,6.723-65.726,13.043-85.28c31.025-9.66,76.649-20.129,132.436-20.066
					c55.295,0.062,100.548,10.45,131.432,20.066c6.128,18.964,12.851,46.955,13.043,81.267c0.2,35.797-6.784,64.908-13.043,84.277
					c-11.569,2.273-58.639,15.377-99.327,15.049c-19.484-0.157-34.144,3.907-70.231,0
					C568.529,746.675,537.46,737.788,514.038,735.937z"/>
				<g>
					<g>
						<path d="M777.906,570.393c0.022,0.099,7.608,22.582,7.608,22.678c0.007,0.011,4.674,28.323,4.68,28.336
							c0.04-0.011,2.504,30.052,2.535,30.067c-0.205,5.286-1.362,30.108-1.579,34.865c-0.275,4.729-1.535,15.902-1.959,20.74
							c-2.134,7.481-6.708,22.062-8.973,29.514c0,0-0.368,1.195-0.368,1.195s-1.202,0.391-1.202,0.391s-25.064,8.147-25.064,8.147
							s-4.886,1.588-4.886,1.588l1.799-4.823c0,0,2.996-8.031,2.996-8.031l-0.068,0.208l5.058-18.048c0,0-0.084,0.488-0.084,0.488
							c0.31-4.729,1.88-25.751,2.122-30.003c0.325-8.615,0.822-21.381,1.15-30.031c0.127-7.728,0.294-28.799,0.436-35.895
							c0,0-2.643-24.125-2.643-24.125c-1.41-7.628-3.174-17.413-4.49-24.952c0,0-2.822-8.569-2.822-8.569s-0.426-1.292-0.426-1.292
							l1.274,0.367C753.002,563.209,777.906,570.393,777.906,570.393L777.906,570.393z M777.906,570.393l-25.261-5.808
							c0,0,0.848-0.925,0.848-0.925l3.198,8.436l0.016,0.043c0,0,0.018,0.082,0.018,0.082c1.844,8.337,3.706,16.67,5.499,25.017
							c0.025,0.174,3.374,24.016,3.399,24.19c0.085,8.625,0.386,27.982,0.359,36.319c-0.208,8.705-0.524,21.517-0.732,30.19
							c-0.173,4.474-1.679,25.542-1.968,30.351c0,0-0.068,0.245-0.068,0.245s-4.974,18.071-4.974,18.071s-0.029,0.105-0.029,0.105
							s-0.039,0.103-0.039,0.103s-3.024,8.021-3.024,8.021l-3.087-3.234l25.101-8.031c0,0-1.569,1.585-1.569,1.585
							s4.56-14.502,4.56-14.502s4.616-14.485,4.616-14.485s-0.09,0.436-0.09,0.436c0.508-4.896,1.886-15.88,2.237-20.604
							c0.259-3.853,2.065-30.69,2.353-34.29c-0.048,0.125-1.573-30.454-1.576-29.97c0,0-3.476-28.483-3.476-28.483
							C784.354,593.669,777.871,570.344,777.906,570.393L777.906,570.393z"/>
					</g>
					<polygon style="fill:none;stroke:#000000;stroke-width:5;stroke-miterlimit:10;" points="750.817,564.373 738.777,561.363 
						730.751,559.357 713.695,558.353 715.702,571.396 717.708,609.521 718.711,648.65 718.711,674.736 717.708,707.845 
						715.702,731.924 711.688,749.983 728.744,746.974 751.82,742.96 757.84,731.924 760.85,715.871 761.853,688.782 763.86,663.7 
						763.86,637.04 759.847,595.475 757.84,580.426 					"/>
					<g>
						<path d="M711.688,557.35c0,0-20.171-3.488-20.171-3.488s0.64-0.525,0.64-0.525c0.19,7.383,0.261,17.744,0.826,24.98
							c1.577,24.277,2.832,50.801,3.267,74.988c0.186,8.705,0.848,29.139,0.484,37.561c-0.129,9.015-0.404,22.344-0.586,31.331
							c0.052,4.605-1.754,26.347-2.039,31.263c0,0-2.954-2.633-2.954-2.633s12.044-2.263,12.044-2.263l0.188-0.035l0.18-0.006
							c0,0,8.027-0.286,8.027-0.286s-2.291,1.878-2.291,1.878l4.049-16.744c0,0-0.06,0.384-0.06,0.384
							c0.508-6.775,1.589-20.316,2.14-27.079c0.068-11.568,0.135-25.06,0.285-37.27c-0.069-15.56,0.894-31.175,0.086-46.721
							c-0.563-10.42-1.339-26.925-1.836-37.348C713.461,579.178,712.19,563.634,711.688,557.35L711.688,557.35z M711.688,557.35
							c0.878,6.459,2.893,21.667,3.702,27.854c1.319,15.491,2.868,31.217,3.856,46.712c0.374,24.972,0.595,49.952,0.742,74.926
							c-0.45,6.926-1.394,20.53-1.893,27.455c0,0-0.047,0.196-0.047,0.196l-3.977,16.761l-0.428,1.804
							c-1.156,0.092-8.556,0.309-9.889,0.396c0,0,0.367-0.042,0.367-0.042s-12.034,2.315-12.034,2.315s-3.198,0.615-3.198,0.615
							l0.244-3.249l1.868-24.882c0.464-7.013,0.48-17.8,0.731-24.935c0.115-4.171,0.409-14.684,0.527-18.707
							c-0.015-26.368-0.095-54.919-0.765-81.203c-0.405-16.668-1.094-33.332-0.408-50.029c0,0,0.027-0.664,0.027-0.664l0.613,0.139
							C691.727,552.812,711.688,557.35,711.688,557.35L711.688,557.35z"/>
					</g>
					<g>
						<path d="M690.619,554.34c-12.527-1.187-31.482-2.471-44.207-3.243c0.305-0.022-23.337,0.374-23.273,0.356
							c0.787-0.208-27.613,4.439-27.453,4.338c0,0,1.131-0.86,1.131-0.86s-6.035,14.114-6.035,14.114s0.13-0.487,0.13-0.487
							c-0.725,7.347-2.439,25.335-3.145,32.388c-0.264,7.134-0.832,25.067-1.085,32.482c-0.072,7.22,0.04,14.445,0.051,21.665
							c0.065,3.757-0.076,12.617,0.24,16.245c0.993,14.807,1.912,34.013,2.942,48.719c0,0,1.81,21.631,1.81,21.631
							s-0.306-1.006-0.306-1.006s6.237,11.158,6.237,11.158s-2.042-1.277-2.042-1.277c2.186,0.124,34.115,1.969,35.17,1.997
							c2.48,0.018,9.17,0.004,11.736,0.018c0,0,15.649,0.025,15.649,0.025c-1.05,0.108,22.422-1.94,22.212-1.899
							c0,0-0.292,0.045-0.292,0.045s10.043-2.174,10.043-2.174s-1.759,2.055-1.759,2.055c0.671-11.428,2.061-28.609,2.598-39.883
							c1.743-22.61,1.279-56.926,1.726-79.894c-0.001,0.055,0.605-40.213,0.607-39.952
							C692.508,580.47,691.901,564.65,690.619,554.34L690.619,554.34z M690.619,554.34c1.696,10.13,2.946,26.06,4,36.455
							c0.035,0.018,0.584,40.027,0.607,40.058c0.108,23.143,1.228,57.256-0.211,80.076c-0.375,11.978-1.605,29.613-2.249,41.663
							c-1.082,0.202-10.65,2.466-11.976,2.691c-0.1,0.009-22.416,2.105-22.507,2.114c0,0-0.114,0-0.114,0
							s-15.725,0.025-15.725,0.025c-2.608,0.014-9.273,0.007-11.794,0.018c-1.004-0.106-33.207-1.721-35.314-1.891
							c0,0-1.374-0.074-1.374-0.074s-0.669-1.203-0.669-1.203l-6.212-11.172c0,0-0.263-0.473-0.263-0.473s-0.043-0.533-0.043-0.533
							c-1.833-20.216-3.13-44.912-4.174-65.177c-0.142-3.173-0.496-7.75-0.42-10.88c0.122-10.572,0.008-22.196,0.209-32.704
							c0.378-7.512,1.142-25.365,1.561-32.666c0.776-7.041,2.893-25.228,3.709-32.453c0,0,0.031-0.27,0.031-0.27
							s0.099-0.218,0.099-0.218s6.343-13.978,6.343-13.978s0.343-0.756,0.343-0.756s0.789-0.105,0.789-0.105
							s27.712-3.676,27.712-3.676s0.096-0.013,0.096-0.013s0.066,0.001,0.066,0.001c0.062,0.002,23.34,0.351,23.397,0.357
							c1.728,0.225,23.67,2.212,24.832,2.366C676.414,552.531,685.504,553.719,690.619,554.34L690.619,554.34z"/>
					</g>
					<g>
						<path d="M592.296,555.343c0.042,0.002-7.625,0.211-7.411,0.2c0,0-13.538,3.35-13.538,3.35l0.405-0.365
							c0,0-3.748,12.128-3.748,12.128c0.144-0.869-4.048,29.96-3.948,29.193c-0.625,11.578-1.258,24.922-1.922,35.649
							c1.038,14.43,2.121,35.923,3.308,50.152c1.097,12.459,3.206,37.62,4.222,50.089c0,0-0.252-0.902-0.252-0.902
							s7.053,14.031,7.053,14.031s-1.624-1.303-1.624-1.303s12.037,3.02,12.037,3.02l-0.602-0.074l10.053,0.022l-2.197,3.566
							c0,0-3.018-6.026-3.018-6.026c-0.069-0.117-0.147-0.316-0.172-0.445c0,0-4.978-18.07-4.978-18.07l-0.055-0.199
							c0,0-0.019-0.189-0.019-0.189c-0.536-5.228-1.838-17.941-2.336-22.958c-1.124-11.051-1.604-27.23-2.271-38.379
							c-0.001-0.041-0.008-0.127-0.003-0.167c0,0,0.968-28.241,0.968-28.241l0.538-14.112c1.097-12.174,2.755-26.489,4.022-38.669
							C588.158,577.058,590.665,564.925,592.296,555.343L592.296,555.343z M592.296,555.343c-1.006,7.793-2.499,19.947-3.576,27.981
							c-0.137,0.888-0.304,2.613-0.337,3.506c-0.8,12.182-1.892,26.491-2.668,38.645c0,0-0.118,14.1-0.118,14.1
							c-0.047-0.077-0.311,28.784-0.347,28.019c0.909,11.109,1.602,27.195,2.854,38.218c0.577,5.001,1.998,17.727,2.572,22.847
							c0,0-0.074-0.387-0.074-0.387l5.055,18.048l-0.172-0.445c0.969,1.885,3.857,7.641,4.844,9.571c0,0-3.998,0.009-3.998,0.009
							s-10.053,0.022-10.053,0.022s-0.302,0.001-0.302,0.001c-0.888-0.223-12.82-3.192-13.457-3.352c0,0-0.51-1.026-0.51-1.026
							l-6.993-14.061c0,0-0.215-0.432-0.215-0.432s-0.037-0.471-0.037-0.471c-1.751-23.215-4.333-52.142-5.204-75.297
							c0,0-1.097-25.139-1.097-25.139l-0.006-0.13c0,0,0.007-0.093,0.007-0.093c0.908-11.966,1.911-23.925,2.885-35.887
							c0.006-0.034,5.036-29.285,5.043-29.322c0,0,0.015-0.086,0.015-0.086s0.018-0.051,0.018-0.051s4.278-11.951,4.278-11.951
							l0.11-0.308l0.295-0.058c0.045-0.003,13.692-2.679,13.733-2.674C584.84,555.139,592.296,555.343,592.296,555.343
							L592.296,555.343z"/>
					</g>
					<g>
						<path d="M571.226,560.36c-3.871,0.486-7.827,1.133-11.392,1.638c0,0-21.826,4.893-21.826,4.893l0.549-0.391l-8.217,14.629
							c0,0,0.124-0.308,0.124-0.308s-5.624,24.991-5.624,24.991l0.042-0.315c-0.077,15.427-0.829,30.847-0.666,46.261
							c0.278,9.304,0.894,26.504,1.167,35.962c0.821,6.713,2.755,23.948,3.601,31.466c0,0-0.269-0.874-0.269-0.874l12.422,23.295
							c0,0-1.719-1.276-1.719-1.276c4.884,0.932,11.818,2.378,16.646,3.264c0,0,16.818,2.251,16.818,2.251l-2.644,3.142
							c0,0-6.309-20.365-6.309-20.365l-0.078-0.253c0,0-0.021-0.243-0.021-0.243c-0.586-7.964-1.799-18.769-2.039-26.603
							c-0.549-15.149-1.513-38.317-1.639-53.292c-0.02-0.124-0.291-26.673-0.293-26.78c-0.006-0.022,1.835-18.374,1.831-18.401
							c0.003-0.016,3.119-17.847,3.122-17.865c0,0,3.196-17.835,3.196-17.835C569.034,565.074,570.167,562.772,571.226,560.36
							L571.226,560.36z M571.226,560.36c-0.912,2.177-1.933,4.919-2.803,7.055c0,0-2.322,17.97-2.322,17.97
							c-0.006-0.022-2.424,18.202-2.391,17.887c0,0-1.184,18.399-1.184,18.399c0.03-0.787,1.047,26.655,1.072,26.451
							c0.194,6.624,0.811,19.958,1.229,26.571c0,0,1.391,26.546,1.391,26.546c0.365,7.781,1.672,18.615,2.37,26.456
							c0,0-0.099-0.496-0.099-0.496s6.401,20.336,6.401,20.336s1.144,3.633,1.144,3.633c-2.167-0.367-18.175-2.295-20.766-2.693
							c-5.353-0.854-12.585-2.52-17.978-3.487c0,0-0.553-1.047-0.553-1.047l-12.323-23.347c0,0-0.22-0.416-0.22-0.416
							c-0.888-8.246-2.616-24.093-3.443-32.339c-0.116-9.57-0.574-26.686-0.68-36.08c0.194-15.456,1.162-30.91,1.74-46.353
							c0,0,0.009-0.184,0.009-0.184s0.034-0.131,0.034-0.131l6.4-24.804l0.047-0.182c0,0,0.078-0.127,0.078-0.127
							s8.757-14.312,8.757-14.312s0.202-0.33,0.202-0.33s0.348-0.061,0.348-0.061s22.027-3.891,22.027-3.891
							C563.649,561.022,567.498,560.747,571.226,560.36L571.226,560.36z"/>
					</g>
					<g>
						<path d="M537.114,565.376c-2.773,1.06-5.402,2.227-7.991,3.26c0,0-13.994,2.374-13.994,2.374l0.404-0.234l-6.817,9.189
							c0,0,0.127-0.225,0.127-0.225l-4.753,13.144c0,0,0.048-0.156,0.048-0.156s-2.785,13.094-2.785,13.094
							c-0.609,5.489-1.218,15.009-1.463,21.199c-0.247,2.965-0.06,7.703-0.052,10.713c0.094,7.74,0.229,19.106,0.287,26.816
							c0.015,0.831,0.015,3.205,0.028,4.022c0,0,0.087,1.339,0.087,1.339c-0.004-0.344,1.537,22.473,1.437,21.162
							c0,0,2.694,15.365,2.694,15.365l-0.069-0.294l4.256,13.93l-0.166-0.41l7.85,15.138c0,0-0.724-0.853-0.724-0.853
							s3.839,2.84,3.839,2.84l-1.026-0.449c0,0,22.247,4.206,22.247,4.206s-2.387,3.932-2.387,3.932l-10.733-13.757l-0.356-0.456
							c-1.809-9.04-3.551-18.093-5.296-27.145c0.012,0.032-1.686-26.158-1.68-26.178c-0.394-7.572-0.774-18.523-1.106-26.212
							c1.172-12.651,1.796-25.359,3.493-37.944c0.72-4.912,2.582-17.537,3.326-22.573
							C529.093,582.883,533.928,572.734,537.114,565.376L537.114,565.376z M537.114,565.376c-2.859,6.977-7.033,17.999-9.873,25.212
							c-0.326,4.058-1.873,17.823-2.327,22.442c-1.259,12.207-1.466,26.233-2.312,37.639c0.863,14.84,2.499,37.008,3.744,51.997
							c1.56,7.211,3.697,17.771,5.384,26.087c0,0-0.468-1.016-0.468-1.016s10.796,13.707,10.796,13.707l4.039,5.128
							c0,0-6.426-1.196-6.426-1.196s-22.259-4.142-22.259-4.142s-0.567-0.105-0.567-0.105s-0.46-0.344-0.46-0.344
							c-0.212-0.188-4.156-3.082-4.291-3.205c0,0-0.26-0.506-0.26-0.506l-7.78-15.174l-0.104-0.203l-0.062-0.208
							c0,0-4.192-13.949-4.192-13.949s-0.046-0.154-0.046-0.154s-0.023-0.141-0.023-0.141l-2.537-15.392
							c-0.014-0.066-0.028-0.182-0.029-0.248c0,0-1.175-21.553-1.175-21.553c-0.133-10.391,0.18-21.931,0.246-32.383
							c0.027-1.721,0.068-6.416,0.093-8.096c0.551-7.28,1.31-17.028,2.378-24.219c0,0,0.013-0.103,0.013-0.103
							s0.014-0.057,0.014-0.057l3.234-12.991c0,0,0.025-0.1,0.025-0.1c0.021-0.052,5.28-12.941,5.303-12.998
							c0,0,0.057-0.139,0.057-0.139l0.071-0.087c0,0,7.229-8.87,7.229-8.87l0.169-0.207c0,0,0.236-0.027,0.236-0.027
							s14.098-1.639,14.098-1.639C531.546,567.294,534.606,566.275,537.114,565.376L537.114,565.376z"/>
					</g>
					<g>
						<path d="M691.622,562.366c-13.665,0.973-33.283,1.204-47.143,1.584c-13.919,0.216-33.395,0.826-47.167,0.423
							c15.438-3.593,31.252-5.033,47.061-5.421C660.185,558.677,676.044,559.444,691.622,562.366L691.622,562.366z"/>
					</g>
					<g>
						<path d="M688.612,587.449c-15.631,0.347-31.088,0.156-46.663,0.552c-15.578,0.289-31.011,1.136-46.644,1.454
							c15.134-4.274,30.85-6.054,46.536-6.452C657.531,582.731,673.306,583.846,688.612,587.449L688.612,587.449z"/>
					</g>
					<g>
						<path d="M688.612,616.545c-16.084,1.115-32.076,1.227-48.148,1.459c-16.075,0.107-32.063,0.338-48.168-0.456
							c15.854-3.175,31.988-4.318,48.116-4.542C656.541,612.909,672.695,613.708,688.612,616.545L688.612,616.545z"/>
					</g>
					<g>
						<path d="M686.606,659.687c-16.012,1.977-32.068,2.431-48.158,2.499c-16.091-0.059-32.146-0.511-48.158-2.499
							c16.012-1.988,32.068-2.441,48.158-2.499C654.538,657.256,670.593,657.71,686.606,659.687L686.606,659.687z"/>
					</g>
					<g>
						<path d="M688.612,696.809c-16.091,3.789-32.617,5.244-49.111,5.483c-16.496,0.112-33.049-1.011-49.213-4.48
							c14.27-0.464,34.71-0.331,49.161-0.519C653.96,697.187,674.256,696.654,688.612,696.809L688.612,696.809z"/>
					</g>
					<g>
						<path d="M684.599,733.931c-14.939,2.89-30.198,3.465-45.365,2.859c-15.161-0.731-30.311-2.655-44.932-6.872
							c13.137,0.194,31.873,1.318,45.154,1.879C652.788,732.422,671.423,732.967,684.599,733.931L684.599,733.931z"/>
					</g>
					<g>
						<path d="M752.824,572.399c-5.496,0.763-10.637-0.046-15.934-1.036c-5.265-1.071-10.319-2.381-15.168-4.984
							C732.27,564.163,743.766,566.687,752.824,572.399L752.824,572.399z"/>
					</g>
					<g>
						<path d="M755.834,593.469c-9.299,2.574-22.235,1.843-31.102-2.006C734.654,588.541,746.38,589.24,755.834,593.469
							L755.834,593.469z"/>
					</g>
					<g>
						<path d="M759.847,618.551c-6.032,1.61-12.072,1.722-18.195,1.44c-6.12-0.375-12.108-1.17-17.924-3.446
							C734.994,613.693,748.959,614.484,759.847,618.551L759.847,618.551z"/>
					</g>
					<g>
						<path d="M760.85,657.68c-10.844,3.691-25.086,4.112-36.119,1.004C735.57,654.968,749.814,654.595,760.85,657.68L760.85,657.68
							z"/>
					</g>
					<g>
						<path d="M759.847,690.789c-9.872,5.057-23.505,6.287-34.112,3.01c5.539-2.066,11.126-2.848,16.888-3.408
							C748.395,689.944,754.03,689.734,759.847,690.789L759.847,690.789z"/>
					</g>
					<g>
						<path d="M756.837,720.888c-9.875,6.874-24.385,9.722-36.119,7.023c5.847-2.387,11.724-3.641,17.794-4.876
							C744.604,721.914,750.523,720.877,756.837,720.888L756.837,720.888z"/>
					</g>
					<g>
						<path d="M563.2,569.39c-4.001,2.044-8.007,2.932-12.274,3.673c-4.317,0.59-8.332,1.233-12.809,0.34
							C545.048,567.862,554.892,566.09,563.2,569.39L563.2,569.39z"/>
					</g>
					<g>
						<path d="M559.187,592.465c-4.416,2.292-8.979,3.296-13.755,4.041c-4.811,0.633-9.438,1.091-14.337-0.027
							C539.315,591.369,549.865,589.679,559.187,592.465L559.187,592.465z"/>
					</g>
					<g>
						<path d="M556.177,620.558c-8.257,3.987-19.353,4.804-28.092,2.007C536.335,618.554,547.435,617.785,556.177,620.558
							L556.177,620.558z"/>
					</g>
					<g>
						<path d="M556.177,658.683c-8.978,3.688-20.896,4.111-30.099,1.004C535.051,655.974,546.97,655.6,556.177,658.683
							L556.177,658.683z"/>
					</g>
					<g>
						<path d="M560.19,696.809c-10.183,4.671-23.941,3.448-33.109-3.01c5.729-0.336,11.051,0.192,16.632,0.654
							C549.284,695.014,554.615,695.455,560.19,696.809L560.19,696.809z"/>
					</g>
					<g>
						<path d="M561.193,725.904c-8.877,4.552-21.345,3.289-29.096-3.01c5.083-0.386,9.725,0.096,14.646,0.558
							C551.654,724.02,556.295,724.494,561.193,725.904L561.193,725.904z"/>
					</g>
				</g>
			</g>
		</g>
	</g>
</g>
</svg>
