<?xml version="1.0" encoding="iso-8859-1"?>
<!-- Generator: Adobe Illustrator 27.2.0, SVG Export Plug-In . SVG Version: 6.00 Build 0)  -->
<svg version="1.1" id="Calque_1" xmlns="http://www.w3.org/2000/svg" xmlns:xlink="http://www.w3.org/1999/xlink" x="0px" y="0px"
	 viewBox="0 0 1400 1400" style="enable-background:new 0 0 1400 1400;" xml:space="preserve">
<circle style="opacity:0.79;fill:#22B573;" cx="700.128" cy="700" r="700"/>
<g>
	<g>
		<path style="opacity:0.78;fill:#FF0000;" d="M586.382,866.141c-37.093-49.077,14.716-83.06,8.742-246.532
			c-2.234-61.124-11.1-100.789,13.988-146.87c13.375-24.567,26.924-33.552,41.963-68.19c14.247-32.814,17.224-59.614,20.981-96.165
			c8.142-79.201,0.001-155.612,0-155.612l0,0c-0.222,0.222,10.431-10.543,12.239-12.239c14.752-13.836,65.672-10.099,75.183,12.239
			c4.083,9.589-3.693,12.671-5.245,36.717c-1.353,20.958,4.067,26.171,3.497,48.957c-0.408,16.304-3.515,26.917-5.245,34.969
			c-7.195,33.486,0.241,65.417,6.994,94.416c17.739,76.172,50.996,83.859,68.19,155.612c2.204,9.199,2.859,14.087,6.994,80.429
			c11.768,188.829,10.736,217.805-10.491,248.28c-26.353,37.833-64.974,50.905-75.183,54.202
			C693.097,924.406,619.742,910.278,586.382,866.141z"/>
		<ellipse style="opacity:0.47;fill:#FFFFFF;" cx="714.019" cy="577.647" rx="111.901" ry="47.958"/>
	</g>
	<g>
		<path style="opacity:0.75;fill:#FFFF00;" d="M825.92,925.588c-8.672,8.214-9.561,24.055-5.245,34.969
			c9.669,24.455,47.643,29.689,69.938,27.975c25.579-1.966,57.609-15.157,57.699-29.724c0.102-16.518-40.984-16.194-55.95-48.957
			c-11.241-24.608-0.175-51.309,1.748-55.95c11.887-28.681,31.375-26.078,52.454-52.453c29.901-37.415,31.639-93.896,15.736-134.631
			c-4.955-12.692-10.993-28.158-26.227-40.214c-38.833-30.733-109.55-17.252-138.128,15.736
			c-59.11,68.233,24.246,213.12,59.447,211.562c4.514-0.2,9.39-2.878,13.988,0c12.742,7.976,9.776,50.129-10.491,62.944
			C847.9,925.06,836.006,916.035,825.92,925.588z"/>
		<ellipse style="opacity:0.52;fill:#FFFFFF;" cx="877.499" cy="747.247" rx="90.045" ry="34.399"/>
	</g>
</g>
<path style="fill:none;" d="M311.389,950.737c-8.784-8.784-17.569-17.569-26.353-26.353"/>
<g>
	
		<ellipse style="fill:#DE7E0C;stroke:#1D1D1B;stroke-linecap:round;stroke-miterlimit:10;" cx="496.796" cy="854.054" rx="231.096" ry="89.587"/>
	<path style="fill:#B65534;stroke:#1D1D1B;stroke-linecap:round;stroke-miterlimit:10;" d="M681.268,909.18
		c-2.565,2.565,9.651,106.115,8.109,152.037c-1.571,46.784-16.112,115.687-18.148,119.189c-0.032,0.055-0.182,0.301-0.096,0.414
		c0.986,1.302,30.145-19.125,34.462-22.299c41.479-30.501,43.972-126.041,44.597-150.01c0,0,2.566-61.151-23.632-164.048
		c-0.129-0.505-0.561-2.205-0.694-2.179c-0.304,0.059,1.911,8.913,2.027,14.19c0,0,0.286,13.061-40.543,46.625l0,0
		C687.35,903.098,682.62,907.828,681.268,909.18z"/>
	<path style="fill:#FFF29A;stroke:#1D1D1B;stroke-linecap:round;stroke-miterlimit:10;" d="M689.236,1057.911
		c0.06-0.636,0.108-1.161,0.14-1.509v-89.242c0-0.166-0.005-0.331-0.015-0.496l-1.971-32.476c-0.027-0.453-0.093-0.903-0.195-1.346
		l-4.987-21.611c-0.591-2.561-2.375-4.683-4.796-5.704c-71.173-30.036-142.345-60.072-213.518-90.108
		c-3.396-1.433-7.489-0.541-9.618,2.469c-0.017,0.024-0.034,0.048-0.051,0.072c-3.262,4.711-0.944,11.449,0,14.19
		c3.702,10.759,25.159,50.697,55.884,103.896c0.573,0.993,0.938,2.106,1.058,3.246l7.881,74.875c0.03,0.285,0.045,0.571,0.045,0.858
		v89.63c0,3.182,1.843,6.077,4.727,7.422l145.282,68.745c4.746,2.215,3.104-4.847,4.241-9.96l1.757-7.907
		c0.056-0.251,0.1-0.505,0.132-0.761l6.034-30.024c1.912-10.674,2.059-25.872,4.054-40.543
		C687.668,1074.368,688.925,1061.218,689.236,1057.911z"/>
	<path style="fill:#F6A000;stroke:#1D1D1B;stroke-linecap:round;stroke-miterlimit:10;" d="M356.82,927.395
		c0.047,0.012,0.119,0.03,0.206,0.052c1.194,0.3,2.085,0.472,2.488,0.553c0.003,0.001,0.87,0.193,2.603,0.578
		c0.577,0.128,4.951,1.1,5.059,1.125c0,0,23.948,5.326,26.119,5.804c0.057,0.013,0.115,0.023,0.115,0.023
		c0.038,0.007,0.077,0.014,0.116,0.02l26.039,4.006c0.132,0.02,0.266,0.033,0.399,0.039l50.238,2.009
		c0.16,0.006,0.32,0.002,0.48-0.013l39.201-3.733c1.788-0.17,3.422,1.018,3.812,2.771l3.312,14.904
		c0.04,0.181,0.066,0.365,0.078,0.55l2.01,32.156l4.036,46.411c0.012,0.142,0.016,0.285,0.011,0.427l-2.02,60.601l-3.041,58.064
		l-3.021,28.914c-0.013,0.126-0.033,0.252-0.06,0.376l-5.439,25.381c-0.352,1.641-1.802,2.813-3.48,2.813h-52.937
		c-0.183,0-0.365-0.014-0.546-0.042l-38.917-6.039l-48.258-8.043c-0.262-0.044-0.517-0.116-0.763-0.217l-44.228-18.093
		l-29.728-13.873c-0.448-0.209-0.848-0.509-1.173-0.881l-13.334-15.239c-0.24-0.274-0.436-0.583-0.582-0.917l-13.895-31.761
		c-0.05-0.114-0.093-0.229-0.131-0.348l-14.06-44.189c-0.049-0.154-0.087-0.31-0.115-0.469l-8.006-46.034
		c-0.041-0.234-0.058-0.471-0.051-0.709l2.012-72.417c0.004-0.135,0.015-0.271,0.034-0.405l6.027-42.187
		c0.017-0.121,0.041-0.241,0.071-0.36l8.015-32.06c0.033-0.131,0.073-0.26,0.121-0.386c2.003-4.667,10.088-29.605,12.092-34.272
		c2.903-0.642-0.729,20.217,0,21.653c0.142,0.28,0.265,0.683,0.227,1.25l5.546,14.788c0.203,0.542,0.535,1.026,0.968,1.41
		l17.475,15.534c0.076,0.062,0.153,0.125,0.229,0.187c8.673,6.928,16.482,11.322,22.18,14.101
		c8.165,3.983,18.282,7.385,38.516,14.19c2.544,0.855,4.651,1.555,6.081,2.027"/>
	<path style="fill:#F6A000;stroke:#1D1D1B;stroke-linecap:round;stroke-miterlimit:10;" d="M328.246,919.168"/>
	<path style="fill:#F6A000;stroke:#1D1D1B;stroke-linecap:round;stroke-miterlimit:10;" d="M310.298,907.153"/>
</g>
</svg>
