<?xml version="1.0" encoding="iso-8859-1"?>
<!-- Generator: Adobe Illustrator 27.2.0, SVG Export Plug-In . SVG Version: 6.00 Build 0)  -->
<svg version="1.1" id="Calque_1" xmlns="http://www.w3.org/2000/svg" xmlns:xlink="http://www.w3.org/1999/xlink" x="0px" y="0px"
	 viewBox="0 0 1400 1400" style="enable-background:new 0 0 1400 1400;" xml:space="preserve">
<g>
	<defs>
		<circle id="SVGID_1_" cx="697.283" cy="706.717" r="689.717"/>
	</defs>
	<clipPath id="SVGID_00000128452443679253867790000007662541518184713600_">
		<use xlink:href="#SVGID_1_"  style="overflow:visible;"/>
	</clipPath>
	<g style="display:none;clip-path:url(#SVGID_00000128452443679253867790000007662541518184713600_);">
		<defs>
			<polygon id="SVGID_00000023241453494429590600000009242821113755502475_" points="121.341,183.667 121.341,1365.083 
				1372.091,1365.083 1364.128,193.376 			"/>
		</defs>
		<clipPath id="SVGID_00000038380510903362504880000010087369391597667994_" style="display:inline;">
			<use xlink:href="#SVGID_00000023241453494429590600000009242821113755502475_"  style="overflow:visible;"/>
		</clipPath>
		<g style="display:inline;clip-path:url(#SVGID_00000038380510903362504880000010087369391597667994_);">
			
				<image style="overflow:visible;" width="1054" height="1046" xlink:href="../Documents/MUN/Illustrations MUN/Capture d&#x2019;e&#x301;cran 2025-04-05 a&#x300; 14.58.39.png"  transform="matrix(2.4272 0 0 2.4272 121.341 -1085.7406)">
			</image>
		</g>
	</g>
	
		<circle style="opacity:0.79;clip-path:url(#SVGID_00000128452443679253867790000007662541518184713600_);fill:#0000FF;" cx="696.597" cy="706.006" r="689.789"/>
	
		<ellipse style="opacity:0.1;clip-path:url(#SVGID_00000128452443679253867790000007662541518184713600_);fill:#FFFFFF;" cx="788.303" cy="684.276" rx="704.626" ry="635.105"/>
	
		<path style="opacity:0.38;clip-path:url(#SVGID_00000128452443679253867790000007662541518184713600_);fill:#FF0000;stroke:#FFFFFF;stroke-width:3;stroke-miterlimit:10;" d="
		M349.892,1251.052c20.738,7.416,32.565,25.701,43.973,39.708c18.19,22.334,40.505,40.16,55.389,48.419
		c40.143,22.275,99.46,15.58,139.85-15.418c9.237-7.089,37.317-28.64,45.035-65.519c9.098-43.472-20.484-58.626-25.056-122.789
		c-1.495-20.982-3.749-59.465,17.423-97.949c4.954-9.004,30.611-55.639,86.154-68.699c32.401-7.619,59.397-0.15,68.996,2.943
		c13.531,4.361,58.819,18.957,76.595,64.127c1.944,4.939,20.088,53.426-10.786,91.653c-1.651,2.044-29.276,35.352-74.272,31.374
		c-31.194-2.758-61.802-22.643-73.442-50.834c-2.22-5.377-9.636-23.336-2.854-42.888c1.391-4.011,6.188-17.198,19.979-25.466
		c4.122-2.472,18.279-10.959,32.921-5.175c13.636,5.385,22.787,21.208,22.733,27.288c-0.006,0.721-0.165,3.857,1.593,5.003
		c0.893,0.582,1.998,0.465,3.286,0.14c1.998-0.505,6.539-1.651,9.923-6.156c0.48-0.639,3.31-4.512,3.385-9.725
		c0.113-7.882-6.145-13.811-11.317-18.576c-3.825-3.525-14.266-12.895-31.063-16.129c-16.548-3.186-29.366,1.492-34.548,3.461
		c-15.133,5.751-23.835,15.461-26.483,18.609c-14.376,17.089-15.281,36.865-15.233,43.762c0.167,23.824,12.731,40.597,22.467,53.594
		c7.387,9.861,18.026,24.064,37.468,32.851c16.829,7.606,31.482,7.189,44.304,6.824c10.486-0.298,32.476-1.174,56.02-14.059
		c9.663-5.289,36.521-19.988,48.188-52.225c9.555-26.402,3.689-50.114,0.631-62.478c-5.949-24.048-17.506-40.456-22.534-47.018
		c-5.224-6.818-19.518-24.044-44.006-36.419c-20.968-10.597-38.725-12.238-57.38-13.962c-17.4-1.608-37.773-3.49-62.491,3.914
		c-24.73,7.408-40.631,20.164-49.581,27.493c-12.998,10.642-31.96,29.602-44.969,58.942c-12.663,28.561-13.6,53.235-13.74,58.629
		c-0.524,20.317,3.34,35.839,9.259,59.61c7.688,30.879,11.185,29.364,14.303,48.311c2.591,15.74,7.212,43.816-7.301,72.063
		c-11.399,22.185-29.035,33.642-36.539,37.918c-20.147,11.479-38.722,11.908-57.646,12.345c-16.288,0.376-33.756,0.779-52.502-8.819
		c-7.506-3.843-14.343-10.136-27.711-22.565c-23.097-21.474-52.07-51.567-52.07-51.567c-10.929-11.352-15.604-16.443-24.459-19.137
		c-8.506-2.588-16.633-1.096-32.888,1.887c-16.63,3.052-27.248,5.001-28.043,10.318c-0.646,4.322,5.322,10.039,11.383,12
		c8.314,2.689,13.212-2.853,24.691-3.881C335.746,1245.992,342.481,1248.401,349.892,1251.052z"/>
	<g style="opacity:0.88;clip-path:url(#SVGID_00000128452443679253867790000007662541518184713600_);">
		<path style="fill:#FF0000;stroke:#FF00FF;stroke-width:10;stroke-miterlimit:10;" d="M43.811,1533.516
			c-1.899-12.501,37.421-21.628,36.567-38.395c-0.454-8.911-12.004-15.059-14.627-16.455c-13.065-6.954-20.781-0.056-42.052-3.657
			c-11.701-1.981-28.753-7.35-29.254-14.627c-0.333-4.845,7-5.735,10.97-14.627c3.852-8.628,3.009-21.369-3.657-27.425
			c-7.08-6.433-14.643,0.206-27.425-5.485c-12.751-5.677-20.984-19.3-18.283-23.769c2.521-4.172,13.868,0.797,16.455-3.657
			c1.857-3.197-2.571-8.202-9.142-18.283c-10.122-15.529-15.785-28.461-14.627-29.254c0.863-0.59,4.458,6.269,12.798,9.142
			c3.274,1.128,10.716,2.825,12.798,0c4.169-5.655-19.984-20.152-20.112-42.052c-0.075-12.913,8.211-27.134,18.284-29.254
			c9.214-1.939,13.252,7.651,31.082,18.283c23.717,14.144,30.614,5.55,58.507,20.112c15.757,8.226,17.124,12.831,34.739,20.112
			c14.148,5.848,24.888,10.11,34.739,5.485c9.852-4.625,17.141-17.355,16.455-29.254c-1.012-17.548-18.77-22.833-54.85-56.679
			c-19.562-18.35-29.45-27.816-34.739-42.052c-0.687-1.85-10.941-30.686,1.828-56.679c4.013-8.168,9.877-15.198,10.97-14.627
			c1.136,0.594-4.619,8.5-1.828,14.627c3.487,7.656,19.312,10.321,31.082,5.485c3.149-1.294,11.52-4.733,14.627-12.798
			c5.94-15.419-15.137-27.558-10.97-47.537c2.293-10.994,11.126-19.071,12.798-18.284c1.391,0.655-2.684,7.206,0,12.798
			c4.141,8.629,22.742,11.578,27.425,5.485c3.595-4.677-4.008-10.778-5.485-25.597c-1.991-19.982,8.83-39.016,12.798-38.395
			c1.566,0.245,0.998,3.385,3.657,7.313c6.762,9.991,25.233,11.547,27.425,7.313c1.517-2.93-6.254-5.75-9.142-16.455
			c-2.36-8.75,0.154-16.795,2.123-23.098c1.881-6.021,2.942-9.416,5.191-9.813c5.903-1.041,10.484,20.24,18.283,20.112
			c5.657-0.093,6.471-11.341,16.455-23.769c13.009-16.193,32.384-22.934,34.739-20.112c1.969,2.36-9.159,9.982-7.313,20.112
			c0.891,4.889,3.964,5.758,14.627,16.455c12.088,12.127,14.247,17.137,18.284,16.455c6.827-1.154,8.437-16.803,10.97-16.455
			c3.818,0.524-0.664,35.964,7.313,38.395c5.204,1.586,11.109-12.282,16.455-10.97c6.242,1.532,5.769,22.301,5.485,49.365
			c-0.783,74.523,1.096,79.511-5.485,93.246c-8.888,18.551-18.872,23.137-18.284,38.395c0.545,14.123,9.857,29.876,23.769,34.739
			c22.222,7.768,45.566-15.963,54.85-29.254c10.035-14.366,12.134-28.689,14.627-45.709c5.436-37.106-5.305-41.297,1.828-62.164
			c0,0,3.696-10.811,47.537-54.85c-1.584,5.12-4.557,17.277,0,31.082c1.908,5.779,6.187,18.743,16.455,21.94
			c11.436,3.561,23.893-6.989,32.91-14.627c17.167-14.54,24.158-30.743,27.425-29.254c1.117,0.509,0.998,2.72,0,14.627
			c-1.702,20.306-2.141,23.247,0,25.597c4.36,4.786,16.588,4.009,23.768-1.828c8.076-6.565,4.578-15.31,14.627-25.597
			c5.248-5.372,11.583-8.496,12.798-7.313c1.358,1.322-4.852,6.878-3.657,12.798c1.419,7.026,12.408,10.307,14.627,10.97
			c13.751,4.106,24.481-0.939,62.164-9.142c7.829-1.704,14.335-3.004,16.455,0c2.428,3.439-2.664,10.008-7.313,18.283
			c-4.707,8.377-19.029,33.87-12.798,51.194c5.732,15.937,27.367,20.813,25.597,25.597c-1.303,3.521-12.346-0.952-20.112,5.485
			c-6.528,5.411-9.106,17.175-5.485,25.597c6.515,15.151,30.67,13.841,31.082,21.94c0.228,4.469-7.045,6.431-23.768,18.284
			c-14.071,9.972-23.094,16.495-21.94,21.94c1.035,4.885,9.839,6.901,20.112,9.142c23.956,5.226,35.971,0.651,38.395,5.485
			c2.864,5.712-10.911,18.078-25.597,31.082c-20.992,18.589-31.489,27.883-42.052,31.082c-26.721,8.09-35.564-11.665-65.821-7.313
			c-26.226,3.772-48.354,22.754-58.507,43.88c-7.268,15.122-13.254,41.444-1.828,51.194c8.032,6.854,19.495,1.102,53.022-7.313
			c27.367-6.87,45.625-9.538,80.447-14.627c23.276-3.402,69.842-9.993,73.134,0c1.992,6.047-13.328,13.721-10.97,20.112
			c3.515,9.526,40.426,0.272,43.88,9.142c2.558,6.566-14.251,18.559-16.455,20.112c-19.891,14.006-37.209,15.15-62.164,20.112
			c-34.796,6.919-58.691,11.67-82.276,27.425c-20.262,13.535-17.815,20.175-36.567,31.082
			c-15.406,8.961-32.847,13.662-71.306,14.627c-59.767,1.499-67.806-8.598-124.328-9.142c-45.081-0.434-73.553,5.666-76.791-3.657
			c-3.887-11.192,35.372-25.08,42.052-60.336c0.947-5,4.021-21.875-5.485-38.395c-2.111-3.669-10.184-16.605-25.597-21.94
			c-18.629-6.449-36.194,2.287-53.022,10.97c-12.976,6.695-31.042,18.193-51.194,40.224c-33.049,36.131-33.423,58.742-56.679,63.992
			c-14.676,3.313-31.162-1.936-36.567-3.657C9.541,1528.419,120.471,2038.164,43.811,1533.516z"/>
		<g style="opacity:0.68;">
			<path style="fill:#FF0000;" d="M274.35,1440.376c42.778-51.334,114.125-125.618,174.195-182.042
				c62.955-59.134,133.694-113.097,189.888-153.794"/>
			<path style="fill:#FFFFFF;" d="M270.509,1437.175c108.827-125.084,231.6-238.121,367.925-332.633
				c-117.459,84.859-223.901,183.741-319.923,292.115c-13.747,15.402-27.276,30.995-40.32,46.92
				C278.191,1443.577,270.509,1437.175,270.509,1437.175L270.509,1437.175z"/>
		</g>
		<g style="opacity:0.66;">
			<path style="fill:#FF0000;" d="M274.35,1435.668c-16.74-125.023-42.895-284.571-59.634-409.593"/>
			<path style="fill:#FFFFFF;" d="M269.394,1436.332c-16.785-136.884-37.889-273.342-54.679-410.257
				c20.106,136.56,44.482,272.339,64.59,408.93C279.306,1435.004,269.394,1436.332,269.394,1436.332L269.394,1436.332z"/>
		</g>
		<g style="opacity:0.68;">
			<path style="fill:#FF0000;" d="M431.282,1275.597c-5.999-27.021-14.161-72.052-14.124-111.422
				c0.027-28.408,10.53-69.46,14.124-91.021"/>
			<path style="fill:#FFFFFF;" d="M426.401,1276.681c-7.343-39.001-12.926-78.682-11.204-118.454
				c1.565-20.332,6.1-40.256,10.573-60.077c1.893-8.323,3.861-16.623,5.511-24.996c-1.239,8.445-2.803,16.843-4.286,25.244
				c-4.337,25.039-9.02,50.346-7.158,75.836c2.028,33.835,8.325,67.387,16.325,100.279
				C436.163,1274.513,426.401,1276.681,426.401,1276.681L426.401,1276.681z"/>
		</g>
		<g style="opacity:0.68;">
			<path style="fill:#FF0000;" d="M471.16,1236.263c-0.149-24.801,2.126-55.451,10.437-89.514
				c5.998-24.579,13.909-45.898,21.934-63.709"/>
			<path style="fill:#FFFFFF;" d="M466.16,1236.293c1.267-52.951,14.069-105.794,37.372-153.253
				c-10.045,24.324-17.45,49.643-22.015,75.378c-4.574,25.668-6.349,51.803-5.357,77.814
				C476.159,1236.233,466.16,1236.293,466.16,1236.293L466.16,1236.293z"/>
		</g>
		<g style="opacity:0.68;">
			<path style="fill:#FF0000;" d="M550.551,1172.022c-3.513-6.236,1.866-30.97,0-42.372c-0.794-4.853-2.179-13.818,0-25.109
				c0.888-4.602,6.836-19.331,7.847-21.971"/>
			<path style="fill:#FFFFFF;" d="M546.195,1174.476c-1.406-2.925-1.387-4.998-1.482-7.738c0.034-6.003,1-11.841,1.756-17.628
				c0.803-6.429,1.928-12.765,1.438-19.175c-1.048-8.743-0.709-17.715,1.547-26.202c2.409-7.336,5.822-14.143,8.944-21.163
				c-2.29,7.163-4.945,14.376-6.506,21.717c-1.079,7.336-0.781,14.845,0.682,22.058c0.356,1.739,0.904,4.063,1.078,5.801
				c1.009,9.593-0.035,19.317,0.127,28.82c0.066,2.581,0.118,5.139,0.687,7.502c0.146,0.621,0.408,1.194,0.442,1.1
				C554.907,1169.568,546.195,1174.476,546.195,1174.476L546.195,1174.476z"/>
		</g>
		<g style="opacity:0.68;">
			<path style="fill:#FF0000;" d="M548.982,1173.591c14.292,8.75,29.864,14.675,37.664,15.693c8.689,1.134,16.149,0.664,26.679,0
				c11.024-0.695,35.861-0.441,42.372-1.569"/>
			<path style="fill:#FFFFFF;" d="M551.592,1169.327c10.937,7.13,22.91,13.945,35.735,16.892
				c13.384,2.301,27.292,0.611,40.839,1.343c8.04,0.099,19.598,0.813,27.529,0.153c-7.807,1.383-19.46,1.712-27.481,2.347
				c-16.256,0.488-32.81,4.95-48.951,1.084c-11.535-2.919-22.433-7.602-32.893-13.291
				C546.371,1177.855,551.592,1169.327,551.592,1169.327L551.592,1169.327z"/>
		</g>
		<g style="opacity:0.68;">
			<path style="fill:#FF0000;" d="M477.577,1232.441c29.541-2.314,58.515,1.139,73.758,4.708
				c24.107,5.645,40.626,14.167,67.481,12.555c13.547-0.813,37.006-3.89,43.941-6.277"/>
			<path style="fill:#FFFFFF;" d="M477.187,1227.456c31.723-1.415,63.832,1.996,93.819,12.458
				c26.762,9.1,40.686,10.113,68.623,7.095c7.746-0.884,15.576-1.576,23.129-3.583c-3.703,1.276-7.561,2.036-11.395,2.809
				c-15.449,2.747-31.075,5.506-46.834,4.947c-11.851-0.536-23.598-3.416-34.926-6.469c-15.034-4.232-29.99-7.075-45.535-7.986
				c-15.395-1.02-30.874-0.888-46.1,0.699C477.968,1237.425,477.187,1227.456,477.187,1227.456L477.187,1227.456z"/>
		</g>
		<g style="opacity:0.68;">
			<path style="fill:#FFFFFF;" d="M437.111,1268.244c54.748,36.887,110.426,54.163,176.738,46.849
				c20.8-2.458,40.937-9.086,60.679-15.956c-9.755,3.904-19.609,7.581-29.629,10.813c-40.241,13.354-84.227,13.327-125.504,4.469
				c-31.2-7.216-60.387-21.264-87.665-37.746C431.731,1276.673,437.111,1268.244,437.111,1268.244L437.111,1268.244z"/>
		</g>
		<g>
			<path style="fill:#FF0000;" d="M290.043,1441.945c6.533,14.611,19.827,38.306,45.51,54.926
				c13.838,8.955,37.282,19.745,94.159,17.263c68.504-2.99,97.417-21.389,175.764-37.664c40.415-8.395,74.669-12.213,98.867-14.124"
				/>
			<path style="fill:#C1272D;" d="M294.608,1439.904c10.683,24.797,28.806,46.986,53.146,59.136
				c16.481,7.996,34.875,10.603,53.061,11.73c27.798,1.36,55.831-0.506,83.185-5.762c27.418-5.414,54.357-14.04,81.569-20.768
				c45.5-11.354,92.033-18.736,138.777-21.894c-46.664,4.201-92.839,12.583-137.986,24.918
				c-27.197,7.371-53.713,16.538-81.35,22.642c-36.909,7.552-75.559,10.821-112.965,4.897c-15.59-2.683-30.698-8.336-43.587-17.629
				c-18.893-13.332-33.455-32.327-42.978-53.188C285.479,1443.986,294.608,1439.904,294.608,1439.904L294.608,1439.904z"/>
		</g>
	</g>
	<g style="opacity:0.56;clip-path:url(#SVGID_00000128452443679253867790000007662541518184713600_);">
		<path style="fill:#FF0000;" d="M238.256,1121.803c7.138-4.78,18.997-14.125,28.248-29.817
			c13.302-22.566,13.117-44.529,12.555-53.357"/>
		<path style="fill:#FFFFFF;" d="M236.03,1118.48c20.254-12.204,35.154-32.775,40.486-55.895c1.866-7.79,2.709-15.864,2.542-23.955
			c0.833,8.049,0.665,16.251-0.578,24.334c-2.436,16.317-9.316,31.998-19.782,44.869c-5.256,6.499-11.398,12.324-18.216,17.294
			L236.03,1118.48L236.03,1118.48z"/>
	</g>
	<g style="opacity:0.56;clip-path:url(#SVGID_00000128452443679253867790000007662541518184713600_);">
		<path style="fill:#FF0000;" d="M252.379,1200.27c9.367-7.582,22.498-20.243,32.956-39.233
			c18.639-33.845,17.104-66.58,15.693-80.036"/>
		<path style="fill:#FFFFFF;" d="M249.863,1197.16c19.616-14.864,35.025-35.427,43.367-58.683
			c6.709-18.306,9.211-37.996,7.799-57.477c1.491,11.104,1.656,22.421,0.497,33.644c-2.32,22.641-10.378,44.608-23.512,63.271
			c-6.565,9.394-14.382,17.942-23.118,25.463L249.863,1197.16L249.863,1197.16z"/>
	</g>
	<g style="opacity:0.56;clip-path:url(#SVGID_00000128452443679253867790000007662541518184713600_);">
		<path style="fill:#FF0000;" d="M235.117,1248.919c-30.939-3.01-55.976-8.161-73.758-12.555
			c-19.63-4.851-30.053-7.499-42.372-14.124c-25.812-13.882-40.729-34.885-48.649-48.649"/>
		<path style="fill:#FFFFFF;" d="M234.73,1252.9c-31.587-3.688-62.66-10.413-93.096-19.581
			c-30.86-8.704-56.311-31.839-71.295-59.728c8.164,13.495,18.458,25.726,30.775,35.407c12.242,9.767,26.428,16.709,41.623,20.476
			c15.18,3.842,30.623,7.203,46.084,9.807c15.478,2.585,31.061,4.469,46.683,5.656C235.504,1244.937,234.73,1252.9,234.73,1252.9
			L234.73,1252.9z"/>
	</g>
	<g style="opacity:0.56;clip-path:url(#SVGID_00000128452443679253867790000007662541518184713600_);">
		<path style="fill:#FF0000;" d="M222.562,1193.992c-17.626-8.943-39.91-22.396-62.773-42.372
			c-20.867-18.232-36.19-36.632-47.08-51.788"/>
		<path style="fill:#FFFFFF;" d="M220.752,1197.559c-43.197-23.375-80.608-57.166-108.043-97.726
			c14.756,19.375,31.761,36.941,50.578,52.153c18.785,15.25,39.367,28.146,61.085,38.44
			C224.372,1190.425,220.752,1197.559,220.752,1197.559L220.752,1197.559z"/>
	</g>
	<g style="opacity:0.56;clip-path:url(#SVGID_00000128452443679253867790000007662541518184713600_);">
		<path style="fill:#FF0000;" d="M219.424,1121.803c-12.819-7.019-30.919-19.152-47.08-39.233
			c-7.56-9.394-13.137-18.59-17.263-26.678"/>
		<path style="fill:#FFFFFF;" d="M217.503,1125.312c-27.111-16.255-49.354-40.615-62.421-69.42
			c3.841,6.789,8.176,13.269,12.96,19.365c7.146,9.104,15.347,17.361,24.346,24.622c8.944,7.168,18.697,13.378,28.957,18.417
			C221.345,1118.295,217.503,1125.312,217.503,1125.312L217.503,1125.312z"/>
	</g>
	
		<circle style="opacity:0.81;clip-path:url(#SVGID_00000128452443679253867790000007662541518184713600_);fill:#FF0000;stroke:#FF00FF;stroke-width:12;stroke-miterlimit:10;" cx="317.506" cy="429.732" r="124.761"/>
	
		<circle style="opacity:0.84;clip-path:url(#SVGID_00000128452443679253867790000007662541518184713600_);fill:#FF0000;stroke:#FF00FF;stroke-width:12;stroke-miterlimit:10;" cx="275.135" cy="888.759" r="124.761"/>
	
		<circle style="opacity:0.81;clip-path:url(#SVGID_00000128452443679253867790000007662541518184713600_);fill:#FF0000;stroke:#FF00FF;stroke-width:12;stroke-miterlimit:10;" cx="628.232" cy="639.237" r="124.761"/>
	
		<circle style="opacity:0.86;clip-path:url(#SVGID_00000128452443679253867790000007662541518184713600_);fill:#FF0000;stroke:#FF00FF;stroke-width:12;stroke-miterlimit:10;" cx="695.713" cy="239.059" r="124.761"/>
	
		<circle style="opacity:0.95;clip-path:url(#SVGID_00000128452443679253867790000007662541518184713600_);fill:#FF0000;stroke:#FF00FF;stroke-width:12;stroke-miterlimit:10;" cx="245.318" cy="1146.128" r="124.761"/>
	
		<circle style="opacity:0.93;clip-path:url(#SVGID_00000128452443679253867790000007662541518184713600_);fill:#FF0000;stroke:#FF00FF;stroke-width:12;stroke-miterlimit:10;" cx="515.241" cy="852.664" r="124.761"/>
	
		<circle style="clip-path:url(#SVGID_00000128452443679253867790000007662541518184713600_);fill:#FF0000;stroke:#FF00FF;stroke-width:12;stroke-miterlimit:10;" cx="411.666" cy="1031.567" r="93.375"/>
	
		<circle style="opacity:0.81;clip-path:url(#SVGID_00000128452443679253867790000007662541518184713600_);fill:#FF0000;stroke:#FF00FF;stroke-width:12;stroke-miterlimit:10;" cx="410.096" cy="669.054" r="105.929"/>
	
		<circle style="opacity:0.67;clip-path:url(#SVGID_00000128452443679253867790000007662541518184713600_);fill:#FF0000;stroke:#FF00FF;stroke-width:12;stroke-miterlimit:10;" cx="179.406" cy="650.222" r="124.761"/>
	
		<circle style="opacity:0.97;clip-path:url(#SVGID_00000128452443679253867790000007662541518184713600_);fill:#FF0000;stroke:#FF00FF;stroke-width:12;stroke-miterlimit:10;" cx="520.734" cy="374.806" r="108.283"/>
	
		<circle style="clip-path:url(#SVGID_00000128452443679253867790000007662541518184713600_);fill:#FF0000;stroke:#FF00FF;stroke-width:12;stroke-miterlimit:10;" cx="695.713" cy="446.21" r="99.652"/>
	
		<circle style="clip-path:url(#SVGID_00000128452443679253867790000007662541518184713600_);fill:#FF0000;stroke:#FF00FF;stroke-width:12;stroke-miterlimit:10;" cx="490.917" cy="527.03" r="78.466"/>
	
		<circle style="opacity:0.71;clip-path:url(#SVGID_00000128452443679253867790000007662541518184713600_);fill:#FF0000;stroke:#FF00FF;stroke-width:12;stroke-miterlimit:10;" cx="481.501" cy="239.844" r="91.021"/>
	
		<circle style="clip-path:url(#SVGID_00000128452443679253867790000007662541518184713600_);fill:#FF0000;stroke:#FF00FF;stroke-width:12;stroke-miterlimit:10;" cx="317.506" cy="228.074" r="93.375"/>
	
		<circle style="opacity:0.67;clip-path:url(#SVGID_00000128452443679253867790000007662541518184713600_);fill:#FF0000;stroke:#FF00FF;stroke-width:12;stroke-miterlimit:10;" cx="140.173" cy="267.307" r="124.761"/>
	
		<circle style="clip-path:url(#SVGID_00000128452443679253867790000007662541518184713600_);fill:#FF0000;stroke:#FF00FF;stroke-width:12;stroke-miterlimit:10;" cx="122.126" cy="461.118" r="95.729"/>
	
		<path style="clip-path:url(#SVGID_00000128452443679253867790000007662541518184713600_);fill:#FF0000;stroke:#FF00FF;stroke-width:12;stroke-miterlimit:10;" d="
		M213.146,994.688c0,51.136-41.454,92.59-92.59,92.59s-92.59-41.454-92.59-92.59s41.454-92.59,92.59-92.59
		S213.146,943.552,213.146,994.688z"/>
	<g style="opacity:0.71;clip-path:url(#SVGID_00000128452443679253867790000007662541518184713600_);">
		<path style="opacity:0.93;fill:#00FF00;stroke:#FFFFFF;stroke-width:8;stroke-miterlimit:10;" d="M1556.741,96.958
			c-0.434,12.637-40.762,14.372-43.008,31.01c-1.194,8.842,9.027,17.011,11.349,18.866c11.562,9.239,20.416,3.879,40.661,11.333
			c11.137,4.1,26.909,12.516,26.062,19.761c-0.564,4.823-7.936,4.349-13.474,12.358c-5.374,7.772-6.89,20.45-1.453,27.63
			c5.776,7.626,14.431,2.493,25.947,10.438c11.488,7.926,17.074,22.832,13.597,26.727c-3.246,3.637-13.484-3.336-16.847,0.566
			c-2.414,2.801,1.017,8.535,5.621,19.654c7.091,17.127,10.278,30.88,8.993,31.446c-0.956,0.421-3.228-6.983-10.897-11.341
			c-3.011-1.711-10.013-4.749-12.58-2.355c-5.138,4.791,15.935,23.486,12.03,45.035c-2.303,12.707-13.064,25.159-23.355,25.389
			c-9.413,0.21-11.618-9.959-27.186-23.691c-20.709-18.267-29.07-11.089-53.807-30.535c-13.974-10.985-14.47-15.763-30.444-26.161
			c-12.83-8.352-22.603-14.517-33.136-11.784c-10.535,2.733-20.043,13.904-21.557,25.726c-2.234,17.434,14.247,25.897,43.483,65.805
			c15.851,21.637,23.829,32.76,26.406,47.727c0.335,1.945,5.107,32.175-12.228,55.374c-5.447,7.29-12.505,13.121-13.474,12.358
			c-1.008-0.793,6.104-7.505,4.489-14.04c-2.019-8.167-17.083-13.699-29.542-11.111c-3.334,0.692-12.194,2.533-16.732,9.888
			c-8.676,14.063,9.807,29.873,2.035,48.744c-4.277,10.384-14.446,16.698-15.945,15.616c-1.247-0.9,3.964-6.589,2.355-12.58
			c-2.483-9.244-20.222-15.566-25.947-10.438c-4.394,3.935,1.956,11.331,0.681,26.169c-1.72,20.007-15.859,36.725-19.646,35.384
			c-1.494-0.529-0.358-3.511-2.248-7.861c-4.808-11.065-22.677-15.993-25.611-12.236c-2.03,2.6,5.089,6.802,5.958,17.856
			c0.709,9.035-3.242,16.48-6.337,22.312c-2.957,5.572-4.624,8.714-6.908,8.69c-5.994-0.063-6.58-21.824-14.27-23.133
			c-5.577-0.949-8.448,9.957-20.548,20.334c-15.767,13.523-36.052,16.582-37.846,13.375c-1.501-2.682,10.839-8.126,10.89-18.422
			c0.024-4.969-2.837-6.389-11.349-18.866c-9.65-14.144-10.85-19.466-14.943-19.539c-6.923-0.122-11.385,14.963-13.811,14.155
			c-3.656-1.218,7.271-35.228-0.123-39.085c-4.824-2.517-13.18,10.028-18.193,7.754c-5.854-2.654-1.567-22.982,3.693-49.532
			c14.484-73.106,13.555-78.354,22.551-90.644c12.15-16.598,22.808-19.268,25.037-34.375c2.063-13.982-4.191-31.18-16.97-38.519
			c-20.413-11.725-47.726,7.305-59.297,18.66c-12.508,12.274-17.206,25.966-22.789,42.236
			c-12.172,35.472-2.385,41.568-13.237,60.766c0,0-5.622,9.946-56.819,45.165c2.499-4.741,7.659-16.143,5.72-30.551
			c-0.812-6.031-2.632-19.561-12.136-24.594c-10.586-5.605-24.771,2.473-35.04,8.321c-19.549,11.132-29.403,25.772-32.34,23.707
			c-1.004-0.706-0.48-2.857,2.692-14.377c5.409-19.646,6.382-22.456,4.711-25.16c-3.405-5.507-15.567-6.993-23.699-2.577
			c-9.146,4.966-7.318,14.206-19.088,22.468c-6.147,4.315-12.949,6.219-13.926,4.833c-1.092-1.549,6.035-5.868,5.949-11.907
			c-0.101-7.167-10.299-12.415-12.358-13.475c-12.761-6.567-24.235-3.582-62.784-2.454c-8.009,0.234-14.643,0.314-16.174-3.028
			c-1.753-3.827,4.461-9.347,10.553-16.625c6.168-7.368,24.937-29.79,22.001-47.964c-2.701-16.72-23.069-25.494-20.449-29.87
			c1.929-3.221,11.96,3.207,20.778-1.69c7.412-4.117,12.111-15.206,10.102-24.15c-3.615-16.091-27.599-19.249-26.513-27.285
			c0.599-4.434,8.108-5.025,26.727-13.597c15.666-7.213,25.736-11.964,25.603-17.528c-0.119-4.992-8.401-8.594-18.086-12.687
			c-22.585-9.545-35.237-7.26-36.73-12.457c-1.764-6.141,14.052-15.761,30.88-25.841c24.055-14.408,36.082-21.612,47.054-22.812
			c27.753-3.035,32.81,18.011,63.351,19.301c26.473,1.118,51.715-13.467,65.583-32.364c9.927-13.527,20.655-38.297,11.218-49.983
			c-6.634-8.215-18.96-4.671-53.462-2.569c-28.164,1.716-46.601,0.979-81.765-0.428c-23.505-0.94-70.488-3.031-71.885-13.459
			c-0.846-6.311,15.626-11.034,14.484-17.749c-1.702-10.01-39.685-7.707-41.449-17.061c-1.306-6.925,17.423-15.62,19.875-16.74
			c22.128-10.107,39.362-8.043,64.803-8.328c35.475-0.397,59.836-0.67,85.917-11.816c22.407-9.575,21.223-16.552,41.662-23.822
			c16.792-5.973,34.8-7.384,72.78-1.255c59.022,9.526,65.065,20.93,120.522,31.865c44.231,8.722,73.339,7.966,74.806,17.726
			c1.761,11.716-39.384,18.142-52.437,51.566c-1.852,4.741-7.978,20.761-1.675,38.749c1.4,3.995,6.954,18.195,21.122,26.276
			c17.124,9.767,35.997,4.413,54.135-1.025c13.986-4.193,33.86-12.169,57.722-30.116c39.133-29.432,43.662-51.588,67.487-52.469
			c15.035-0.556,30.273,7.637,35.27,10.324C1589.488,108.275,1574.26-413.179,1556.741,96.958z"/>
		<g style="opacity:0.93;">
			<path style="fill:#00FF00;" d="M1312.999,146.081c-51.494,42.585-135.293,102.47-204.721,146.875
				c-72.762,46.538-152.224,86.562-214.948,116.222"/>
			<path style="fill:#FFFFFF;" d="M1315.548,149.164c-129.743,103.148-271.005,191.918-422.218,260.014
				c131.213-61.539,254.217-138.915,368.744-227.553c16.38-12.581,32.58-25.392,48.376-38.626
				C1310.45,142.999,1315.548,149.164,1315.548,149.164L1315.548,149.164z"/>
		</g>
		<g style="opacity:0.93;">
			<path style="fill:#00FF00;" d="M1312.132,150.709c-6.554,125.968-10.207,287.604-16.761,413.572"/>
			<path style="fill:#FFFFFF;" d="M1316.127,150.917c-8.361,137.668-12.395,275.672-20.756,413.364
				c5.701-137.901,7.063-275.854,12.767-413.78C1308.138,150.501,1316.127,150.917,1316.127,150.917L1316.127,150.917z"/>
		</g>
		<g style="opacity:0.93;">
			<path style="fill:#00FF00;" d="M1128.423,279.166c0.923,27.664,0.659,73.428-6.622,112.118
				c-5.254,27.918-23.132,66.335-30.633,86.867"/>
			<path style="fill:#FFFFFF;" d="M1132.42,279.032c0.231,39.62-1.387,79.61-10.198,118.363
				c-5.181,19.699-13.207,38.472-21.154,57.154c-3.353,7.848-6.778,15.66-9.901,23.602c2.811-8.058,5.932-16.008,8.975-23.977
				c8.995-23.788,18.38-47.787,21.37-73.194c4.405-33.656,4.558-67.822,2.913-101.681
				C1124.425,279.299,1132.42,279.032,1132.42,279.032L1132.42,279.032z"/>
		</g>
		<g style="opacity:0.93;">
			<path style="fill:#00FF00;" d="M1081.988,310.489c-4.418,24.405-12.294,54.112-26.732,86.064
				c-10.418,23.055-22.118,42.554-33.284,58.584"/>
			<path style="fill:#FFFFFF;" d="M1085.924,311.202c-10.657,51.807-32.618,101.418-63.952,143.936
				c14.486-21.965,26.581-45.423,35.972-69.848c9.391-24.37,16.121-49.737,20.108-75.513
				C1078.052,309.777,1085.924,311.202,1085.924,311.202L1085.924,311.202z"/>
		</g>
		<g style="opacity:0.93;">
			<path style="fill:#00FF00;" d="M992.13,359.023c2.306,6.776-7.533,30.098-7.798,41.648c-0.113,4.917-0.401,13.982-4.621,24.68
				c-1.72,4.36-10.276,17.743-11.756,20.151"/>
			<path style="fill:#FFFFFF;" d="M995.917,357.735c1.203,4.76-0.264,8.927-1.319,13.328c-2.498,9.168-6.118,17.895-7.825,27.172
				c-0.283,1.57-0.412,3.917-0.541,5.522c-0.663,7.776-2.572,15.431-5.819,22.491c-3.637,6.782-8.175,12.9-12.456,19.255
				c2.803-4.963,5.634-9.914,8.241-14.978c4.444-8.237,5.985-17.72,6.04-26.955c-0.009-1.758-0.095-4.135,0.067-5.858
				c0.87-9.579,3.777-18.873,5.473-28.22c0.439-2.962,1.289-6.421,0.567-9.181C988.343,360.312,995.917,357.735,995.917,357.735
				L995.917,357.735z"/>
		</g>
		<g style="opacity:0.93;">
			<path style="fill:#00FF00;" d="M993.961,357.769c-12.437-11.23-26.653-19.92-34.132-22.356
				c-8.332-2.714-15.751-3.624-26.223-4.91c-10.964-1.346-35.33-6.166-41.937-6.255"/>
			<path style="fill:#FFFFFF;" d="M991.281,360.738c-9.614-9.008-20.263-17.862-32.495-23.033c-12.82-4.617-26.8-5.388-40.045-8.487
				c-7.898-1.504-19.149-4.232-27.072-4.97c7.922,0.15,19.414,2.073,27.402,2.997c9.165,1.339,18.188,1.923,27.405,2.975
				c6.936,0.896,14.283,2.267,20.641,5.335c10.681,5.045,20.424,11.708,29.524,19.245
				C996.642,354.801,991.281,360.738,991.281,360.738L991.281,360.738z"/>
		</g>
		<g style="opacity:0.93;">
			<path style="fill:#00FF00;" d="M1074.976,313.065c-29.463-3.162-57.306-11.888-71.632-18.201
				c-22.657-9.985-37.325-21.402-64.018-24.759c-13.466-1.694-37.09-2.987-44.346-1.916"/>
			<path style="fill:#FFFFFF;" d="M1074.549,317.043c-31.359-4.271-62.25-13.347-89.804-28.962
				c-24.75-13.759-38.282-17.25-66.364-19.282c-7.78-0.515-15.61-1.235-23.401-0.61c3.876-0.552,7.807-0.568,11.717-0.602
				c15.669,0.227,31.52,0.473,46.866,3.996c11.515,2.764,22.451,7.79,32.992,12.93c13.965,7.005,28.197,12.664,43.306,16.504
				c14.962,3.927,30.227,6.738,45.542,8.07L1074.549,317.043L1074.549,317.043z"/>
		</g>
		<g style="opacity:0.93;">
			<path style="fill:#00FF00;" d="M1124.76,281.673c-15.492-14.526-46.338-41.031-81.331-55.94
				c-42.677-18.183-79.251-20.097-91.974-20.413c-19.913-0.495-45.81,3.817-57.792,5.944"/>
			<path style="fill:#FFFFFF;" d="M1122.024,284.591c-22.453-21.52-47.27-41.164-75.399-54.681
				c-37.746-17.398-80.072-26.877-121.729-22.704c-10.448,0.957-20.861,2.384-31.232,4.058c10.314-2.001,20.682-3.76,31.126-5.052
				c41.972-5.547,85.101,2.725,123.91,19.148c29.205,12.91,55.165,32.141,78.796,53.395
				C1127.496,278.755,1122.024,284.591,1122.024,284.591L1122.024,284.591z"/>
		</g>
		<g style="opacity:0.93;">
			<path style="fill:#00FF00;" d="M1297.862,141.651c-3.733-15.564-12.439-41.3-34.625-62.363
				c-11.953-11.348-33.011-26.269-89.374-34.296c-67.885-9.668-99.689,3.096-179.693,4.675c-41.27,0.814-75.642-1.737-99.778-4.312"
				/>
			<path style="fill:#FFFFFF;" d="M1293.973,142.584c-8.239-36.145-30.28-68.025-65.765-81.352
				c-17.175-6.846-35.484-10.727-53.758-13.619c-18.403-2.884-37.004-4.262-55.634-4.142c-27.98,0.34-56.015,3.922-84.011,5.591
				c-46.796,2.889-93.876,1.687-140.414-3.707c46.629,4.563,93.574,4.926,140.237,1.213c28.079-2.176,55.86-6.246,84.115-7.096
				c18.84-0.459,37.752,0.605,56.424,3.193c18.746,2.628,37.419,6.249,55.23,12.981c14.714,5.499,28.398,13.79,39.255,25.238
				c15.967,16.498,26.658,37.705,32.1,59.835C1301.752,140.718,1293.973,142.584,1293.973,142.584L1293.973,142.584z"/>
		</g>
	</g>
	
		<circle style="clip-path:url(#SVGID_00000128452443679253867790000007662541518184713600_);fill:#FFDB00;stroke:#7AC943;stroke-width:12;stroke-miterlimit:10;" cx="986.823" cy="545.862" r="68.266"/>
	
		<circle style="clip-path:url(#SVGID_00000128452443679253867790000007662541518184713600_);fill:#FFDB00;stroke:#7AC943;stroke-width:12;stroke-miterlimit:10;" cx="1057.442" cy="804.8" r="72.974"/>
	
		<circle style="clip-path:url(#SVGID_00000128452443679253867790000007662541518184713600_);fill:#FFDB00;stroke:#7AC943;stroke-width:12;stroke-miterlimit:10;" cx="1241.053" cy="668.269" r="80.82"/>
	
		<circle style="clip-path:url(#SVGID_00000128452443679253867790000007662541518184713600_);fill:#FFDB00;stroke:#7AC943;stroke-width:12;stroke-miterlimit:10;" cx="1272.439" cy="977.426" r="80.82"/>
	
		<circle style="clip-path:url(#SVGID_00000128452443679253867790000007662541518184713600_);fill:#FFDB00;stroke:#7AC943;stroke-width:12;stroke-miterlimit:10;" cx="1314.026" cy="419.531" r="64.342"/>
	
		<circle style="clip-path:url(#SVGID_00000128452443679253867790000007662541518184713600_);fill:#FFDB00;stroke:#7AC943;stroke-width:12;stroke-miterlimit:10;" cx="1135.124" cy="527.815" r="64.342"/>
	
		<circle style="clip-path:url(#SVGID_00000128452443679253867790000007662541518184713600_);fill:#FFDB00;stroke:#7AC943;stroke-width:12;stroke-miterlimit:10;" cx="1185.342" cy="832.263" r="64.342"/>
	
		<ellipse style="clip-path:url(#SVGID_00000128452443679253867790000007662541518184713600_);fill:#FFDB00;stroke:#7AC943;stroke-width:12;stroke-miterlimit:10;" cx="1110.015" cy="927.207" rx="64.342" ry="61.988"/>
	
		<circle style="clip-path:url(#SVGID_00000128452443679253867790000007662541518184713600_);fill:#FFDB00;stroke:#7AC943;stroke-width:12;stroke-miterlimit:10;" cx="1166.51" cy="1069.231" r="64.342"/>
	
		<circle style="clip-path:url(#SVGID_00000128452443679253867790000007662541518184713600_);fill:#FFDB00;stroke:#7AC943;stroke-width:12;stroke-miterlimit:10;" cx="1284.994" cy="1137.497" r="74.543"/>
	
		<circle style="clip-path:url(#SVGID_00000128452443679253867790000007662541518184713600_);fill:#FFDB00;stroke:#7AC943;stroke-width:12;stroke-miterlimit:10;" cx="1321.088" cy="814.216" r="74.543"/>
	
		<ellipse style="clip-path:url(#SVGID_00000128452443679253867790000007662541518184713600_);fill:#FFDB00;stroke:#7AC943;stroke-width:12;stroke-miterlimit:10;" cx="1071.566" cy="448.564" rx="63.558" ry="71.404"/>
	
		<ellipse style="clip-path:url(#SVGID_00000128452443679253867790000007662541518184713600_);fill:#FFDB00;stroke:#7AC943;stroke-width:12;stroke-miterlimit:10;" cx="979.761" cy="701.225" rx="56.496" ry="65.127"/>
	
		<circle style="clip-path:url(#SVGID_00000128452443679253867790000007662541518184713600_);fill:#FFDB00;stroke:#7AC943;stroke-width:12;stroke-miterlimit:10;" cx="1069.212" cy="621.974" r="64.342"/>
	
		<circle style="clip-path:url(#SVGID_00000128452443679253867790000007662541518184713600_);fill:#FFDB00;stroke:#7AC943;stroke-width:12;stroke-miterlimit:10;" cx="1353.26" cy="560.77" r="56.496"/>
	
		<ellipse style="clip-path:url(#SVGID_00000128452443679253867790000007662541518184713600_);fill:#FFDB00;stroke:#7AC943;stroke-width:12;stroke-miterlimit:10;" cx="1366.599" cy="705.933" rx="61.988" ry="71.404"/>
	
		<circle style="clip-path:url(#SVGID_00000128452443679253867790000007662541518184713600_);fill:#FFDB00;stroke:#7AC943;stroke-width:12;stroke-miterlimit:10;" cx="1249.684" cy="534.092" r="50.218"/>
	
		<circle style="clip-path:url(#SVGID_00000128452443679253867790000007662541518184713600_);fill:#FFDB00;stroke:#7AC943;stroke-width:12;stroke-miterlimit:10;" cx="1127.51" cy="731.14" r="40.57"/>
	
		<circle style="clip-path:url(#SVGID_00000128452443679253867790000007662541518184713600_);fill:#FFDB00;stroke:#7AC943;stroke-width:12;stroke-miterlimit:10;" cx="1197.112" cy="435.555" r="57.28"/>
	
		<path style="opacity:0.38;clip-path:url(#SVGID_00000128452443679253867790000007662541518184713600_);fill:#00FF00;stroke:#FFFFFF;stroke-width:3;stroke-miterlimit:10;" d="
		M927.973,436.794c-13.053,6.821-27.269,4.074-39.233,3.139c-19.076-1.491-37.866,1.199-48.649,4.708
		c-29.083,9.465-52.97,42.153-56.496,76.897c-0.806,7.946-3.257,32.101,10.985,53.357c16.789,25.057,37.612,17.487,70.62,45.51
		c10.794,9.164,30.367,26.214,39.233,54.926c2.074,6.718,12.818,41.511-6.277,75.328c-11.139,19.727-27.078,29.639-32.956,32.956
		c-8.286,4.676-36.021,20.328-65.912,7.847c-3.268-1.365-34.926-15.229-39.233-48.649c-0.23-1.787-3.653-31.267,18.832-51.788
		c15.588-14.226,39.16-20.072,58.065-12.555c3.606,1.434,15.649,6.223,21.971,18.832c1.297,2.586,5.458,11.201,3.139,21.971
		c-0.693,3.219-3.075,14.274-12.555,18.832c-8.828,4.245-20.635,1.329-23.54-1.569c-0.345-0.344-1.783-1.904-3.139-1.569
		c-0.689,0.17-1.137,0.775-1.569,1.569c-0.67,1.233-2.194,4.034-1.569,7.847c0.089,0.541,0.661,3.778,3.139,6.277
		c3.746,3.778,9.464,3.463,14.124,3.139c3.447-0.24,12.735-1.012,21.971-7.847c9.099-6.733,12.704-15.323,14.124-18.832
		c4.146-10.249,3.445-19.166,3.139-21.971c-1.663-15.226-10.779-25.015-14.124-28.248c-11.556-11.167-25.382-12.833-36.094-14.124
		c-8.128-0.979-19.835-2.39-32.956,3.139c-11.358,4.786-17.855,12.277-23.54,18.832c-4.649,5.361-14.279,16.72-18.832,34.525
		c-1.869,7.308-7.062,27.619,3.139,48.649c8.354,17.224,22.461,25.501,29.817,29.817c14.307,8.395,27.496,10.389,32.956,10.985
		c5.673,0.619,20.507,1.638,37.664-4.708c14.691-5.434,23.598-13.498,32.956-21.971c8.728-7.902,18.948-17.155,26.678-32.956
		c7.735-15.809,8.856-29.748,9.416-37.664c0.813-11.496,0.345-29.888-7.847-50.218c-7.974-19.791-19.435-31.909-21.971-34.525
		c-9.55-9.855-18.796-15.261-32.956-23.54c-18.393-10.755-19.262-8.298-29.817-15.693c-8.768-6.143-24.41-17.101-31.386-37.664
		c-5.48-16.15-2.939-30.34-1.569-36.094c3.678-15.449,11.962-24.899,20.401-34.525c7.264-8.286,15.054-17.171,28.248-21.971
		c5.283-1.922,11.44-2.353,23.54-3.139c20.905-1.357,48.649-1.569,48.649-1.569c10.466-0.08,15.056-0.003,20.401-3.139
		c5.135-3.012,8.131-7.762,14.124-17.263c6.131-9.719,10.045-15.925,7.847-18.832c-1.787-2.363-7.27-2.092-10.985,0
		c-5.096,2.869-4.664,7.924-9.416,14.124C936.877,432.141,932.638,434.356,927.973,436.794z"/>
	
		<circle style="opacity:0.71;clip-path:url(#SVGID_00000128452443679253867790000007662541518184713600_);fill:#FF0000;stroke:#FF00FF;stroke-width:12;stroke-miterlimit:10;" cx="443.052" cy="113.513" r="91.021"/>
	
		<circle style="opacity:0.71;clip-path:url(#SVGID_00000128452443679253867790000007662541518184713600_);fill:#FF0000;stroke:#FF00FF;stroke-width:12;stroke-miterlimit:10;" cx="596.846" cy="33.478" r="91.021"/>
	
		<circle style="opacity:0.95;clip-path:url(#SVGID_00000128452443679253867790000007662541518184713600_);fill:#FF0000;stroke:#FF00FF;stroke-width:12;stroke-miterlimit:10;" cx="27.966" cy="790.676" r="124.761"/>
</g>
</svg>
