<?xml version="1.0" encoding="iso-8859-1"?>
<!-- Generator: Adobe Illustrator 27.2.0, SVG Export Plug-In . SVG Version: 6.00 Build 0)  -->
<svg version="1.1" id="Calque_1" xmlns="http://www.w3.org/2000/svg" xmlns:xlink="http://www.w3.org/1999/xlink" x="0px" y="0px"
	 viewBox="0 0 1400 1400" style="enable-background:new 0 0 1400 1400;" xml:space="preserve">
<circle style="opacity:0.79;fill:#0000FF;" cx="699.872" cy="700" r="693"/>
<path style="opacity:0.65;fill:#FFFFFF;" d="M979.098,1079.353l-163.494,57.233c-1.628,0.57-3.409-0.288-3.978-1.915l-1.19-3.398
	c-0.57-1.627,0.288-3.409,1.915-3.978l163.494-57.233c1.627-0.57,3.409,0.288,3.978,1.915l1.19,3.398
	C981.583,1077.003,980.725,1078.784,979.098,1079.353z"/>
<path style="opacity:0.78;fill:#FF0000;" d="M604.326,820.55c-33.448-44.254,13.27-74.898,7.883-222.305
	c-2.014-55.117-10.009-90.884,12.613-132.437c12.06-22.153,24.278-30.255,37.839-61.489c12.847-29.589,15.531-53.756,18.92-86.715
	c7.342-71.418,0.001-140.32,0-140.32l0,0c-0.2,0.2,9.406-9.507,11.036-11.036c13.302-12.477,59.218-9.107,67.795,11.036
	c3.681,8.646-3.331,11.426-4.73,33.109c-1.22,18.899,3.667,23.599,3.153,44.146c-0.368,14.701-3.17,24.272-4.73,31.533
	c-6.488,30.196,0.217,58.989,6.307,85.138c15.996,68.687,45.985,75.618,61.489,140.32c1.988,8.295,2.578,12.703,6.307,72.525
	c10.612,170.273,9.681,196.401-9.46,223.881c-23.763,34.115-58.589,45.902-67.795,48.875
	C700.553,873.089,634.406,860.349,604.326,820.55z"/>
<path style="opacity:0.75;fill:#FFFF00;" d="M820.324,874.156c-7.819,7.407-8.621,21.691-4.73,31.533
	c8.719,22.051,42.961,26.771,63.065,25.226c23.065-1.772,51.948-13.668,52.029-26.803c0.092-14.895-36.957-14.603-50.452-44.146
	c-10.137-22.19-0.158-46.267,1.577-50.452c10.719-25.863,28.292-23.515,47.299-47.299c26.963-33.738,28.53-84.669,14.19-121.4
	c-4.468-11.444-9.913-25.391-23.649-36.262c-35.016-27.713-98.785-15.557-124.554,14.19
	c-53.301,61.528,21.864,192.176,53.605,190.772c4.07-0.18,8.467-2.596,12.613,0c11.49,7.193,8.815,45.203-9.46,56.759
	C840.143,873.679,829.418,865.541,820.324,874.156z"/>
<g style="opacity:0.71;">
	<polyline style="fill:#FFFFFF;stroke:#D20A11;stroke-width:3;stroke-miterlimit:10;" points="389.116,1114.592 594.91,1217.958 
		875.017,1021.967 	"/>
	<polygon style="fill:#00FFFF;stroke:#D20A11;stroke-width:3;stroke-miterlimit:10;" points="382.977,1100.23 596.442,1203.671 
		879.999,1000.574 666.388,916.541 	"/>
	<g>
		<path style="fill:#00FFFF;" d="M393.078,1087.277c3.484-2.287,7.284-4.665,11.446-4.456c4.162,0.209,8.3,4.402,6.783,8.284"/>
		<g>
			<path style="fill:#D20A11;" d="M393.835,1088.572c3.166-2.076,7.046-4.765,11.053-4.223c2.884,0.39,6.094,3.248,4.973,6.357
				c-0.656,1.819,2.242,2.603,2.893,0.797c1.592-4.413-2.216-8.763-6.313-9.881c-5.057-1.38-10.073,1.707-14.12,4.36
				C390.712,1087.036,392.214,1089.635,393.835,1088.572L393.835,1088.572z"/>
		</g>
	</g>
	<g>
		<path style="fill:#00FFFF;" d="M409.792,1076.024c5.626-1.4,12.023,1.366,14.857,6.423"/>
		<g>
			<path style="fill:#D20A11;" d="M410.191,1077.47c5.04-1.207,10.598,1.25,13.163,5.734c0.959,1.676,3.552,0.166,2.59-1.514
				c-3.241-5.666-10.219-8.629-16.551-7.112C407.516,1075.027,408.311,1077.92,410.191,1077.47L410.191,1077.47z"/>
		</g>
	</g>
	<g>
		<path style="fill:#00FFFF;" d="M420.221,1069.596c2.49-2.869,6.529-4.305,10.272-3.652c3.743,0.653,7.057,3.371,8.429,6.914"/>
		<g>
			<path style="fill:#D20A11;" d="M421.282,1070.657c2.228-2.496,5.739-3.898,9.079-3.216c3.122,0.638,5.914,2.834,7.114,5.816
				c0.302,0.751,1,1.28,1.845,1.048c0.713-0.196,1.352-1.089,1.048-1.845c-1.583-3.933-4.994-7.057-9.21-7.912
				c-4.364-0.884-9.032,0.665-11.998,3.988C417.879,1069.972,419.993,1072.101,421.282,1070.657L421.282,1070.657z"/>
		</g>
	</g>
	<g>
		<path style="fill:#00FFFF;" d="M437.741,1061.624c3.395-1.935,7.75-2.072,11.26-0.354c3.51,1.718,6.073,5.243,6.626,9.111"/>
		<g>
			<path style="fill:#D20A11;" d="M438.498,1062.919c3.16-1.748,7.167-1.831,10.334-0.043c2.93,1.654,4.837,4.605,5.348,7.904
				c0.124,0.801,1.128,1.245,1.845,1.048c0.855-0.235,1.172-1.042,1.048-1.845c-0.635-4.096-3.299-7.869-6.96-9.825
				c-4.083-2.181-9.098-2.058-13.129,0.171C435.294,1061.264,436.805,1063.855,438.498,1062.919L438.498,1062.919z"/>
		</g>
	</g>
	<g>
		<path style="fill:#00FFFF;" d="M452.869,1048.802c6.195-2.587,14.229,2.099,15.027,8.765"/>
		<g>
			<path style="fill:#D20A11;" d="M453.267,1050.249c2.752-1.115,5.722-0.763,8.299,0.714c2.434,1.395,4.469,3.841,4.829,6.605
				c0.105,0.803,0.614,1.5,1.5,1.5c0.729,0,1.605-0.691,1.5-1.5c-0.503-3.859-2.814-7.119-6.15-9.099
				c-3.196-1.897-7.275-2.531-10.775-1.112c-0.75,0.304-1.28,0.999-1.048,1.845C451.618,1049.913,452.512,1050.555,453.267,1050.249
				L453.267,1050.249z"/>
		</g>
	</g>
	<g>
		<path style="fill:#00FFFF;" d="M465.998,1043.17c-0.484-4.725,5.577-8.116,10.02-6.438s6.905,6.582,7.476,11.298"/>
		<g>
			<path style="fill:#D20A11;" d="M467.498,1043.17c-0.305-3.714,4.14-6.035,7.402-5.215c4.32,1.086,6.578,6.038,7.094,10.075
				c0.103,0.803,0.616,1.5,1.5,1.5c0.731,0,1.603-0.691,1.5-1.5c-0.575-4.493-2.468-9.046-6.363-11.637
				c-3.599-2.394-8.31-1.949-11.56,0.843c-1.705,1.464-2.758,3.671-2.572,5.934C464.655,1045.08,467.656,1045.097,467.498,1043.17
				L467.498,1043.17z"/>
		</g>
	</g>
	<g>
		<path style="fill:#00FFFF;" d="M483.975,1031.985c5.453-0.962,11.263,3.318,11.961,8.811"/>
		<g>
			<path style="fill:#D20A11;" d="M484.374,1033.432c0.319-0.053-0.044-0.006,0.25-0.036c0.162-0.017,0.325-0.029,0.488-0.036
				c0.325-0.015,0.65-0.013,0.975,0.006c0.519,0.031,1.019,0.113,1.678,0.296c1.163,0.324,2.157,0.819,3.216,1.603
				c0.096,0.071-0.004-0.009,0.15,0.117c0.127,0.104,0.251,0.21,0.374,0.319c0.244,0.218,0.479,0.446,0.703,0.685
				c0.468,0.498,0.687,0.776,1.058,1.372c0.33,0.53,0.615,1.109,0.768,1.537c0.22,0.617,0.368,1.252,0.456,1.9
				c0.11,0.803,1.139,1.242,1.845,1.048c0.866-0.238,1.158-1.039,1.048-1.845c-0.874-6.406-7.573-10.898-13.806-9.858
				c-0.8,0.133-1.246,1.122-1.048,1.845C482.762,1033.232,483.572,1033.565,484.374,1033.432L484.374,1033.432z"/>
		</g>
	</g>
	<g>
		<path style="fill:#00FFFF;" d="M491.18,1026.841c3.045-1.166,6.286-2.352,9.491-1.75c3.205,0.603,6.16,3.76,5.291,6.903"/>
		<g>
			<path style="fill:#D20A11;" d="M491.579,1028.287c2.852-1.09,6.227-2.504,9.316-1.6c2.019,0.591,4.189,2.636,3.621,4.908
				c-0.469,1.873,2.424,2.672,2.893,0.797c0.908-3.629-1.653-6.968-4.906-8.304c-3.83-1.573-8.082-0.085-11.722,1.306
				c-0.756,0.289-1.277,1.01-1.048,1.845C489.933,1027.964,490.818,1028.578,491.579,1028.287L491.579,1028.287z"/>
		</g>
	</g>
	<g>
		<path style="fill:#00FFFF;" d="M504.023,1017.737c0.208-3.134,4.535-4.513,7.331-3.083c2.797,1.43,4.316,4.47,5.651,7.314"/>
		<g>
			<path style="fill:#D20A11;" d="M505.523,1017.737c0.023-0.257,0.266-0.801,0.448-0.997c0.097-0.104,0.197-0.203,0.302-0.299
				c0.224-0.203-0.127,0.066,0.151-0.119c0.245-0.162,0.502-0.313,0.774-0.429c-0.236,0.101,0.158-0.049,0.205-0.065
				c0.145-0.047,0.293-0.088,0.441-0.124c0.15-0.036,0.301-0.068,0.453-0.091c-0.255,0.039,0.238-0.016,0.295-0.018
				c0.746-0.035,1.004-0.003,1.66,0.212c0.006,0.002,0.43,0.175,0.209,0.074c0.164,0.075,0.324,0.164,0.479,0.254
				c0.28,0.162,0.55,0.339,0.799,0.541c0.598,0.484,1.134,1.075,1.581,1.7c0.963,1.35,1.687,2.852,2.391,4.347
				c0.345,0.733,1.398,0.921,2.052,0.538c0.751-0.439,0.884-1.317,0.538-2.052c-1.595-3.39-3.798-7.625-7.845-8.451
				c-3.499-0.715-7.59,1.1-7.933,4.978c-0.071,0.808,0.74,1.5,1.5,1.5C504.894,1019.237,505.451,1018.547,505.523,1017.737
				L505.523,1017.737z"/>
		</g>
	</g>
	<g>
		<path style="fill:#00FFFF;" d="M518.226,1010.976c5.459-1.306,11.586,0.808,15.077,5.202"/>
		<g>
			<path style="fill:#D20A11;" d="M518.625,1012.422c5.03-1.16,10.397,0.83,13.618,4.817c0.51,0.631,1.591,0.53,2.121,0
				c0.623-0.623,0.511-1.489,0-2.121c-3.893-4.818-10.537-6.972-16.537-5.588C515.947,1009.963,516.743,1012.856,518.625,1012.422
				L518.625,1012.422z"/>
		</g>
	</g>
	<g>
		<path style="fill:#00FFFF;" d="M527.868,1002.484c2.988-2.571,7.436-3.309,11.094-1.841s6.362,5.077,6.743,9"/>
		<g>
			<path style="fill:#D20A11;" d="M528.929,1003.544c2.625-2.198,6.543-2.79,9.692-1.429c2.978,1.288,5.229,4.298,5.585,7.528
				c0.089,0.805,0.626,1.5,1.5,1.5c0.742,0,1.589-0.69,1.5-1.5c-0.491-4.457-3.257-8.49-7.428-10.272
				c-4.339-1.854-9.387-0.948-12.97,2.052c-0.622,0.52-0.537,1.584,0,2.121C527.423,1004.16,528.306,1004.066,528.929,1003.544
				L528.929,1003.544z"/>
		</g>
	</g>
	<g>
		<path style="fill:#00FFFF;" d="M542.237,995.093c3.181-1.17,6.537-2.359,9.883-1.821c3.346,0.538,6.566,3.471,6.147,6.834"/>
		<g>
			<path style="fill:#D20A11;" d="M542.635,996.539c3.073-1.129,6.667-2.573,9.973-1.622c2.308,0.663,4.416,2.644,4.159,5.189
				c-0.082,0.807,0.748,1.5,1.5,1.5c0.879,0,1.418-0.691,1.5-1.5c0.369-3.648-2.51-6.643-5.709-7.863
				c-3.992-1.522-8.431,0.012-12.22,1.404c-0.76,0.279-1.275,1.018-1.048,1.845C540.992,996.223,541.871,996.82,542.635,996.539
				L542.635,996.539z"/>
		</g>
	</g>
	<g>
		<path style="fill:#00FFFF;" d="M557.449,985.034c5.367-2.601,12.69,0.54,14.506,6.22"/>
		<g>
			<path style="fill:#D20A11;" d="M558.206,986.33c4.475-2.111,10.72,0.546,12.302,5.324c0.604,1.824,3.502,1.043,2.893-0.798
				c-2.213-6.681-10.373-10.106-16.709-7.117c-0.733,0.346-0.921,1.397-0.538,2.052C556.593,986.542,557.471,986.676,558.206,986.33
				L558.206,986.33z"/>
		</g>
	</g>
	<g>
		<path style="fill:#00FFFF;" d="M571.091,975.695c6.36-2.347,14.298,1.834,15.96,8.407"/>
		<g>
			<path style="fill:#D20A11;" d="M571.49,977.141c5.678-2.03,12.568,1.491,14.115,7.36c0.492,1.865,3.386,1.074,2.893-0.797
				c-1.938-7.351-10.61-12.028-17.805-9.455c-0.762,0.273-1.274,1.022-1.048,1.845C569.848,976.831,570.724,977.415,571.49,977.141
				L571.49,977.141z"/>
		</g>
	</g>
	<g>
		<path style="fill:#00FFFF;" d="M583.017,969.247c6.072-1.759,13.172,1.18,16.224,6.717"/>
		<g>
			<path style="fill:#D20A11;" d="M583.415,970.694c5.508-1.542,11.726,1.047,14.53,6.027c0.947,1.682,3.54,0.172,2.59-1.514
				c-3.453-6.132-11.146-9.302-17.918-7.406C580.761,968.32,581.55,971.216,583.415,970.694L583.415,970.694z"/>
		</g>
	</g>
	<g>
		<path style="fill:#00FFFF;" d="M594.91,961.794c5.492-2.572,12.92,1.275,13.99,7.243"/>
		<g>
			<path style="fill:#D20A11;" d="M595.667,963.089c2.226-1.014,5.01-0.705,7.217,0.46c2.362,1.246,4.07,3.261,4.569,5.887
				c0.151,0.796,1.109,1.25,1.845,1.048c0.834-0.229,1.2-1.047,1.048-1.845c-1.339-7.04-9.815-11.044-16.193-8.14
				c-0.737,0.336-0.917,1.404-0.538,2.052C594.058,963.309,594.927,963.426,595.667,963.089L595.667,963.089z"/>
		</g>
	</g>
	<g>
		<path style="fill:#00FFFF;" d="M605.284,957.129c2.483-2.909,6.136-5.143,9.944-4.786c3.808,0.357,7.315,4.082,6.456,7.809"/>
		<g>
			<path style="fill:#D20A11;" d="M606.345,958.19c2.179-2.514,5.411-4.791,8.917-4.344c2.691,0.343,5.576,3.007,4.976,5.907
				c-0.39,1.884,2.502,2.69,2.893,0.797c0.906-4.382-2.453-8.598-6.694-9.527c-4.65-1.019-9.251,1.628-12.214,5.044
				C602.964,957.521,605.077,959.652,606.345,958.19L606.345,958.19z"/>
		</g>
	</g>
	<g>
		<path style="fill:#00FFFF;" d="M622.064,945.115c4.965-1.363,10.714,2.097,11.834,7.122"/>
		<g>
			<path style="fill:#D20A11;" d="M622.462,946.561c0.687-0.181,0.905-0.217,1.548-0.24c0.612-0.021,1.173,0.022,1.557,0.091
				c1.24,0.224,2.083,0.552,3.098,1.163c0.933,0.562,1.737,1.235,2.476,2.204c-0.138-0.181,0.137,0.203,0.138,0.203
				c0.074,0.108,0.145,0.218,0.215,0.329c0.153,0.244,0.294,0.496,0.422,0.753c0.156,0.313,0.144,0.277,0.276,0.656
				c0.104,0.3,0.188,0.605,0.26,0.914c0.184,0.789,1.086,1.256,1.845,1.048c0.809-0.222,1.232-1.054,1.048-1.845
				c-1.364-5.851-7.899-9.696-13.679-8.17C619.8,944.161,620.591,947.056,622.462,946.561L622.462,946.561z"/>
		</g>
	</g>
	<g>
		<path style="fill:#00FFFF;" d="M632.566,941.995c5.225-5.018,14.737-4.431,19.305,1.193"/>
		<g>
			<path style="fill:#D20A11;" d="M633.626,943.056c4.777-4.486,13.043-3.789,17.183,1.193c1.235,1.486,3.347-0.646,2.121-2.121
				c-5.206-6.263-15.544-6.716-21.426-1.193C630.095,942.259,632.219,944.377,633.626,943.056L633.626,943.056z"/>
		</g>
	</g>
	<g>
		<path style="fill:#00FFFF;" d="M643.717,933.298c5.013-2.731,11.966-1.068,15.202,3.635"/>
		<g>
			<path style="fill:#D20A11;" d="M644.474,934.593c4.322-2.298,10.319-0.93,13.149,3.097c0.465,0.662,1.312,0.971,2.052,0.538
				c0.655-0.383,1.006-1.386,0.538-2.052c-3.794-5.398-11.405-7.283-17.254-4.173C641.255,932.91,642.769,935.5,644.474,934.593
				L644.474,934.593z"/>
		</g>
	</g>
</g>
<g>
	<path style="stroke:#D20A11;stroke-miterlimit:10;" d="M811.652,1138.241l35.82-5.785l62.693-24.092l6.247,1.018l12.005-5.975
		l43.052-17.152l11.904-6.445l-3.073-12.499l-9.026-1.886l-52.666,13.995l5.447,9.108c24.058-0.2,37.441-7.189,45.333-14.077
		c5.391-4.705,12.246-12.875,19.741-11.304c3.24,0.679,6.889,3.239,7.24,6.548c0.392,3.7-3.364,8.114-9.623,9.521"/>
	<polyline style="stroke:#D20A11;stroke-miterlimit:10;" points="808.499,1130.358 841.227,1111.823 901.837,1090.706 
		905.607,1087.434 920.461,1082.517 	"/>
	<g>
		<path d="M913.691,1107.677"/>
		<g>
			<path style="fill:#D20A11;" d="M913.691,1109.177c1.93,0,1.934-3,0-3C911.761,1106.177,911.758,1109.177,913.691,1109.177
				L913.691,1109.177z"/>
		</g>
	</g>
	<g>
		<path d="M914.099,1105.385c-0.035-3.205-0.087-6.496-1.284-9.469s-3.817-5.599-7.013-5.832"/>
		<g>
			<path style="fill:#D20A11;" d="M915.599,1105.385c-0.043-3.806-0.143-7.802-1.963-11.246c-1.582-2.995-4.412-5.245-7.834-5.555
				c-0.808-0.073-1.5,0.742-1.5,1.5c0,0.872,0.69,1.427,1.5,1.5c2.5,0.226,4.43,2.324,5.447,4.472
				c1.355,2.864,1.315,6.233,1.35,9.329C912.621,1107.315,915.621,1107.32,915.599,1105.385L915.599,1105.385z"/>
		</g>
	</g>
	<g>
		<path d="M918.874,1104.772c2.26-1.516,2.855-4.725,2.088-7.337s-2.601-4.757-4.427-6.775c-1.338-1.478-2.793-2.995-4.703-3.566"/>
		<g>
			<path style="fill:#D20A11;" d="M919.631,1106.067c3.597-2.546,3.782-7.303,1.997-11.007c-0.984-2.042-2.521-3.794-4.032-5.46
				c-1.525-1.682-3.162-3.234-5.365-3.952c-1.84-0.599-2.628,2.297-0.797,2.893c1.628,0.53,2.824,1.842,3.945,3.074
				c1.192,1.311,2.372,2.646,3.254,4.192c1.273,2.23,1.955,5.92-0.516,7.669c-0.66,0.467-0.972,1.31-0.538,2.052
				C917.961,1106.182,918.967,1106.537,919.631,1106.067L919.631,1106.067z"/>
		</g>
	</g>
	<g>
		<path d="M926.633,1104.522c-0.085-5.441-0.248-11.168-3.04-15.84c-0.999-1.672-2.542-3.271-4.489-3.354"/>
		<g>
			<path style="fill:#D20A11;" d="M928.133,1104.522c-0.067-4.198-0.161-8.523-1.453-12.558c-1.146-3.58-3.387-7.799-7.575-8.136
				c-1.925-0.155-1.914,2.846,0,3c1.343,0.108,2.375,1.312,3.047,2.373c0.936,1.477,1.559,3.113,1.991,4.801
				c0.877,3.431,0.934,6.999,0.99,10.519C925.164,1106.451,928.164,1106.457,928.133,1104.522L928.133,1104.522z"/>
		</g>
	</g>
	<g>
		<path d="M846.105,1131.024c0.514-1.924,0.775-3.915,0.774-5.906c-0.001-2.104-0.311-4.257-1.316-6.105
			c-1.005-1.848-2.79-3.354-4.875-3.635"/>
		<g>
			<path style="fill:#D20A11;" d="M847.19,1131.323c0.898-3.451,1.262-7.389,0.193-10.847c-0.916-2.963-3.2-5.681-6.396-6.183
				c-0.605-0.095-1.203,0.155-1.384,0.786c-0.153,0.533,0.187,1.29,0.786,1.384c6.311,0.992,5.814,9.715,4.631,14.262
				C844.656,1132.127,846.825,1132.725,847.19,1131.323L847.19,1131.323z"/>
		</g>
	</g>
	<g>
		<path d="M850.056,1130.432c1.886-1.904,1.332-5.048,0.596-7.625c-1.215-4.251-3.004-8.958-7.085-10.66"/>
		<g>
			<path style="fill:#D20A11;" d="M850.852,1131.227c2.845-3.058,1.313-7.744,0.109-11.198c-1.245-3.571-3.185-7.267-6.825-8.853
				c-1.314-0.573-2.461,1.365-1.136,1.943c3.03,1.32,4.636,4.281,5.703,7.261c0.543,1.517,1.037,3.085,1.334,4.671
				c0.29,1.546,0.366,3.357-0.776,4.586C848.275,1130.695,849.863,1132.29,850.852,1131.227L850.852,1131.227z"/>
		</g>
	</g>
	<g>
		<path d="M812.281,1137.556c-1.695-0.782-3.104-2.166-3.917-3.846c-0.294-0.608-0.498-1.375-0.106-1.924
			c0.505-0.707,1.633-0.54,2.348-0.046c1.773,1.227,2.139,4.055,0.736,5.693"/>
		<g>
			<path style="fill:#D20A11;" d="M812.471,1137.233c-1.013-0.475-1.91-1.145-2.647-1.987c-0.356-0.407-0.665-0.852-0.927-1.324
				c-0.252-0.453-0.536-0.997-0.474-1.534c0.124-1.082,1.533-0.686,2.097-0.25c0.701,0.541,1.126,1.383,1.262,2.248
				c0.153,0.968-0.068,2.021-0.705,2.782c-0.308,0.368,0.22,0.901,0.53,0.53c1.43-1.708,1.255-4.517-0.444-5.996
				c-0.791-0.688-2.234-1.183-3.077-0.294c-0.978,1.031-0.061,2.641,0.593,3.581c0.864,1.241,2.043,2.249,3.413,2.891
				C812.526,1138.084,812.908,1137.438,812.471,1137.233L812.471,1137.233z"/>
		</g>
	</g>
</g>
<path style="fill:none;stroke:#000000;stroke-miterlimit:10;" d="M1267.437,640.434"/>
<ellipse style="opacity:0.52;fill:#FFFFFF;" cx="866.834" cy="713.339" rx="81.196" ry="31.019"/>
<polygon style="opacity:0.51;fill:#FFFFFF;" points="429.06,1099.25 592.211,1183.175 847.126,1000.482 679.698,938.288 "/>
<ellipse style="opacity:0.47;fill:#FFFFFF;" cx="719.419" cy="560.406" rx="100.904" ry="43.245"/>
</svg>
