<?xml version="1.0" encoding="iso-8859-1"?>
<!-- Generator: Adobe Illustrator 27.2.0, SVG Export Plug-In . SVG Version: 6.00 Build 0)  -->
<svg version="1.1" id="Calque_1" xmlns="http://www.w3.org/2000/svg" xmlns:xlink="http://www.w3.org/1999/xlink" x="0px" y="0px"
	 viewBox="0 0 1400 1400" style="enable-background:new 0 0 1400 1400;" xml:space="preserve">
<filter  id="AI_FlouGaussien_4">
	<feGaussianBlur  stdDeviation="4"></feGaussianBlur>
</filter>
<path style="fill:#FCEE21;" d="M1383.81,700c0,378.998-307.239,686.237-686.237,686.237c-348.868,0-605.255-280.799-669.452-534.71
	C9.751,778.873,10.509,721.874,11.335,700c10.6-280.592,255.563-686.237,686.237-686.237
	C1076.571,13.763,1383.81,321.002,1383.81,700z"/>
<g style="opacity:0.46;filter:url(#AI_FlouGaussien_4);">
	<ellipse style="fill:#F7931E;" cx="707.723" cy="1090.667" rx="497.02" ry="181.055"/>
</g>
<g>
	<g>
		<path style="fill:none;stroke:#333333;stroke-width:8;stroke-linecap:round;stroke-linejoin:round;stroke-miterlimit:10;" d="
			M426.647,1064.384c-4.126-8.814-11.776-28.569-5.84-50.617c1.356-5.036,2.593-21.089,25.309-36.99
			c38.937-27.256,60.619-33.111,79.82-40.883c36.932-14.95,62.914-23.97,72.033-29.202c0.775-0.445,3.864-1.947,7.787-1.947
			c0,0,3.933,0.385,7.787,3.894c5.408,4.924,10.115,26.75,11.681,56.458"/>
		<path style="fill:none;stroke:#333333;stroke-width:8;stroke-linecap:round;stroke-linejoin:round;stroke-miterlimit:10;" d="
			M898.753,1028.368c-1.062-23.184,0.265-42.301,1.947-56.458c0.757-6.374,1.088-7.543,1.947-7.787
			c8.445-2.401,40.921,92.22,54.511,146.012c2.709,10.721,4.859,20.58,5.841,33.096c1.324,16.879,0.008,32.021-1.947,54.511
			c-0.706,8.125-1.424,14.847-1.947,19.468"/>
		<path style="fill:none;stroke:#333333;stroke-width:3;stroke-linecap:round;stroke-linejoin:round;stroke-miterlimit:10;" d="
			M585.314,913.505c36.667-51.78,59.367-90.752,64.245-103.182c1.005-2.562,3.939-10.574,11.681-15.575
			c8.565-5.532,18.385-4.386,21.415-3.894c15.382,2.498,24.806,15.572,31.149,23.362c14.848,18.234,36.749,29.368,54.511,44.777
			c20.583,17.856,64.436,55.654,132.384,109.022"/>
		<path style="fill:none;stroke:#333333;stroke-width:6;stroke-linecap:round;stroke-linejoin:round;stroke-miterlimit:10;" d="
			M970.785,304.149c8.068,15.923,3.894,40.883,3.894,40.883c-4.542,27.161-18.444,324.08-31.149,718.379"/>
		<path style="fill:none;stroke:#333333;stroke-width:6;stroke-linecap:round;stroke-linejoin:round;stroke-miterlimit:10;" d="
			M460.717,968.016c-18.778-355.478-31.366-580.755-35.043-591.835c-0.323-0.972-3.039-7.805,0-13.628
			c1.904-3.648,5.171-5.186,9.734-7.787c10.314-5.88,16.122-10.852,17.521-11.681c28.24-16.742,462.811-49.514,484.76-60.352
			c1.236-0.61,56.458,40.883,15.575,7.787"/>
		<path style="fill:none;stroke:#333333;stroke-width:6;stroke-linecap:round;stroke-linejoin:round;stroke-miterlimit:10;" d="
			M425.674,366.218"/>
		
			<line style="fill:none;stroke:#333333;stroke-width:6;stroke-linecap:round;stroke-linejoin:round;stroke-miterlimit:10;" x1="450.983" y1="773.334" x2="949.37" y2="827.845"/>
		<path style="fill:#006837;stroke:#000000;stroke-miterlimit:10;" d="M920.534,808.683l-453.976-48.977l-19.468-393.259
			l494.494-54.511l-5.661,483.092C935.825,803.228,928.687,809.562,920.534,808.683z"/>
	</g>
	
		<line style="fill:none;stroke:#333333;stroke-width:2;stroke-linecap:round;stroke-linejoin:round;stroke-miterlimit:10;" x1="661.24" y1="321.67" x2="661.24" y2="340.148"/>
	
		<line style="fill:none;stroke:#333333;stroke-width:2;stroke-linecap:round;stroke-linejoin:round;stroke-miterlimit:10;" x1="447.089" y1="567.424" x2="454.824" y2="567.424"/>
	
		<line style="fill:none;stroke:#333333;stroke-width:2;stroke-linecap:round;stroke-linejoin:round;stroke-miterlimit:10;" x1="953.264" y1="572.811" x2="940.277" y2="572.811"/>
</g>
<g>
	<g>
		<g>
			<path style="fill:#FFFFFF;" d="M542.031,510.166c7.76-5.365,12.646-14.18,13.029-23.614c-1,0-2,0-3,0
				c0.001,4.937,0.001,9.874,0.002,14.811c0,2.469,0.001,4.937,0.001,7.405c0,1.152,0,2.304,0,3.456c0,1.236-0.156,2.267,1.04,2.96
				c3.178,1.844,7.368,0.536,9.775-1.979c2.871-3,3.774-7.329,4.624-11.249c1.154-5.316,1.916-10.716,2.321-16.14
				c0.145-1.943-2.801-1.889-3,0c-0.634,6.03-0.417,12.105,0.616,18.079c0.496,2.864,1.144,5.754,2.089,8.506
				c0.74,2.153,2.309,4.15,4.843,3.731c2.252-0.372,3.95-2.498,4.913-4.426c1.297-2.598,2.3-5.397,3.312-8.116
				c2.041-5.485,3.75-11.092,5.117-16.783c1.579-6.571,2.685-13.248,3.363-19.971c-1,0-2,0-3,0
				c0.828,18.594,1.649,37.204,1.324,55.821c-0.161,9.238-0.606,18.475-1.477,27.675c-0.438,4.625-0.98,9.24-1.658,13.836
				c-0.568,3.854-1.082,7.776-2.235,11.509c-0.888,2.874-2.201,5.853-4.542,7.843c-2.483,2.111-5.903,2.354-8.762,0.853
				c-7.508-3.94-7.376-13.698-6.488-20.973c0.514-4.21,1.602-8.406,3.721-12.106c1.785-3.117,4.177-5.804,6.791-8.248
				c5.402-5.052,11.506-9.306,17.011-14.253c4.763-4.279,9.854-8.35,13.923-13.327c3.884-4.751,6.322-10.181,7.098-16.283
				c0.22-1.732,0.308-3.474,0.312-5.219c0.004-1.931-2.996-1.933-3,0c-0.013,6.553-1.6,12.69-5.485,18.027
				c-3.847,5.286-9.123,9.464-13.968,13.785c-2.892,2.579-5.773,5.131-8.814,7.536c-2.972,2.351-5.985,4.661-8.779,7.225
				c-2.771,2.544-5.333,5.37-7.295,8.593c-2.239,3.677-3.541,7.827-4.21,12.062c-1.227,7.764-1.686,17.572,4.51,23.475
				c2.687,2.56,6.357,4.129,10.096,3.565c3.219-0.486,5.815-2.489,7.669-5.087c1.951-2.733,3.063-6.069,3.813-9.312
				c0.977-4.226,1.516-8.581,2.087-12.877c1.271-9.557,2.023-19.178,2.411-28.81c0.779-19.333,0.106-38.686-0.731-58.005
				c-0.105-2.435-0.214-4.869-0.322-7.303c-0.087-1.96-2.809-1.897-3,0c-1.054,10.441-3.258,20.756-6.539,30.725
				c-0.818,2.487-1.705,4.951-2.657,7.39c-0.861,2.207-1.613,4.734-3.036,6.654c-0.428,0.578-1.188,1.52-1.979,1.587
				c-0.918,0.077-1.272-1.068-1.5-1.759c-0.822-2.492-1.435-5.067-1.91-7.645c-1.092-5.922-1.262-11.986-0.633-17.971c-1,0-2,0-3,0
				c-0.469,6.283-1.42,12.556-2.99,18.661c-0.63,2.449-1.452,5.055-3.325,6.856c-1.62,1.557-4.186,2.318-6.188,1.076
				c0.248,0.432,0.495,0.863,0.743,1.295c-0.001-9.051-0.003-18.102-0.004-27.153c0-1.937-2.922-1.924-3,0
				c-0.337,8.319-4.688,16.285-11.543,21.024C538.94,508.666,540.438,511.268,542.031,510.166L542.031,510.166z"/>
		</g>
	</g>
	<g>
		<g>
			<path style="fill:#FFFFFF;" d="M626.725,475.607c-7.619,3.427-13.634,9.483-16.827,17.218c-1.529,3.703-2.343,7.678-2.553,11.674
				c-0.112,2.135,0.02,4.244,0.183,6.372c0.158,2.06,0.283,4.332,1.827,5.892c1.606,1.623,3.97,1.815,6.126,1.796
				c2.867-0.025,5.734-0.085,8.601-0.127c2.969-0.044,5.938-0.088,8.908-0.132c1.24-0.018,2.48-0.049,3.72-0.044
				c1.04,0.004,2.101,0.025,3.094-0.328c2.004-0.713,3.116-2.812,3.768-4.713c0.787-2.297,0.366-4.904,0.101-7.265
				c-0.569-5.071-1.747-10.06-3.574-14.827c-1.956-5.105-4.503-10.64-8.37-14.599c-3.571-3.655-9.291-5.316-13.598-1.908
				c-1.118,0.884-0.088,2.474,1.061,2.561c12.873,0.976,25.939-2.395,36.742-9.46c-0.752-0.432-1.505-0.863-2.257-1.295
				c-1.029,8.107-2.057,16.214-3.086,24.321c-0.502,3.959-1.044,7.915-1.502,11.879c-0.404,3.501-0.551,7.277,1.119,10.502
				c1.289,2.489,3.785,4.532,6.594,4.946c2.921,0.43,5.566-1.087,7.07-3.555c1.43-2.345,1.848-5.169,2.144-7.849
				c0.454-4.114,0.872-8.232,1.308-12.347c0.96-9.055,1.919-18.11,2.878-27.164c-1,0-2,0-3,0c0.054,12.185,0.107,24.37,0.161,36.555
				c0.02,4.465,0.019,9.131,1.533,13.392c1.126,3.168,5.031,9.828,9.261,7.286c1.944-1.168,2.954-3.898,3.851-5.855
				c1.081-2.357,2.001-4.787,2.751-7.269c1.496-4.95,2.339-10.079,2.833-15.22c0.51-5.305,0.624-10.64,0.617-15.966
				c-0.003-2.447,0.161-4.995-0.132-7.427c-0.234-1.94-1.435-4.066-3.659-4.004c-1.938,0.054-3.481,1.819-3.931,3.599
				c-0.557,2.202,0.557,4.189,2.573,5.14c2.221,1.047,4.85,0.601,7.008-0.381c2.582-1.174,4.62-3.337,7.38-4.146
				c-0.633-0.482-1.266-0.964-1.899-1.446c0.526,8.595,1.052,17.189,1.578,25.784c0.401,6.558-0.058,14.665,4.948,19.704
				c0.422,0.425,1.298,0.629,1.818,0.235c2.487-1.886,4.553-4.147,6.13-6.848c0.975-1.671-1.617-3.183-2.59-1.514
				c-1.302,2.231-2.99,4.206-5.054,5.771c0.606,0.078,1.212,0.156,1.818,0.234c-2.171-2.184-2.999-5.193-3.393-8.172
				c-0.476-3.601-0.546-7.275-0.768-10.898c-0.496-8.099-0.992-16.198-1.487-24.297c-0.058-0.949-0.914-1.735-1.899-1.446
				c-2.059,0.603-3.783,1.779-5.55,2.956c-1.577,1.05-3.23,2.055-5.185,2.066c-1.134,0.007-2.864-0.513-2.535-1.945
				c0.181-0.791,1.051-2.058,1.567-0.811c0.307,0.742,0.214,1.685,0.223,2.468c0.013,1.146,0.024,2.291,0.031,3.437
				c0.014,2.232,0.012,4.465-0.026,6.697c-0.074,4.385-0.283,8.772-0.787,13.13c-0.496,4.295-1.316,8.567-2.584,12.703
				c-0.642,2.096-1.394,4.161-2.3,6.158c-0.439,0.967-0.908,1.921-1.409,2.857c-0.327,0.611-0.905,2.107-1.711,2.23
				c-0.679,0.104-1.573-0.905-1.995-1.332c-0.634-0.641-1.162-1.356-1.613-2.136c-0.899-1.556-1.422-3.285-1.773-5.038
				c-0.784-3.911-0.633-7.967-0.651-11.934c-0.05-11.439-0.101-22.878-0.151-34.317c-0.009-1.971-2.801-1.88-3,0
				c-0.785,7.408-1.57,14.817-2.355,22.225c-0.384,3.622-0.768,7.244-1.151,10.866c-0.33,3.113-0.459,6.326-1.158,9.385
				c-0.485,2.125-1.395,4.718-3.724,5.392c-2.536,0.734-5.076-1.416-6.094-3.571c-1.404-2.971-0.914-6.567-0.525-9.707
				c0.444-3.586,0.909-7.17,1.364-10.755c1.039-8.189,2.078-16.378,3.117-24.566c0.143-1.131-1.379-1.869-2.257-1.295
				c-10.406,6.805-22.832,9.991-35.228,9.051c0.354,0.854,0.707,1.707,1.061,2.561c3.323-2.629,7.73-0.003,10.033,2.646
				c2.801,3.223,4.828,7.392,6.438,11.316c1.69,4.119,2.902,8.436,3.616,12.83c0.364,2.241,0.594,4.517,0.659,6.788
				c0.042,1.454-0.566,3.884-1.944,4.678c-0.627,0.361-1.471,0.268-2.164,0.263c-1.217-0.008-2.435,0.021-3.652,0.039
				c-2.474,0.037-4.949,0.074-7.423,0.11c-2.557,0.038-5.114,0.076-7.67,0.114c-1.846,0.027-4.419,0.474-6.113-0.466
				c-1.58-0.876-1.414-3.16-1.545-4.708c-0.15-1.773-0.232-3.542-0.164-5.322c0.133-3.465,0.788-6.893,1.981-10.151
				c2.779-7.587,8.626-13.387,15.937-16.676C629.997,477.407,628.474,474.821,626.725,475.607L626.725,475.607z"/>
		</g>
	</g>
	<g>
		<g>
			<path style="fill:#FFFFFF;" d="M723.972,478.204c-4.947,8.317-10.113,16.542-14.847,24.98c-1.868,3.33-2.94,7.682,0.511,10.402
				c2.706,2.133,6.458,2.085,9.728,2.093c2.3,0.006,4.6,0.011,6.901,0.017c1.789,0.004,3.825,0.138,5.14-1.316
				c1.371-1.517,1.152-3.901,1.219-5.79c0.086-2.41,0.172-4.819,0.258-7.229c0.35-9.804,0.701-19.609,1.051-29.413
				c0.395-11.051,0.79-22.101,1.185-33.152c0.06-1.683-2.55-2.048-2.946-0.399c-2.88,11.979-3.122,24.351-2.789,36.607
				c0.158,5.805,0.215,11.67,0.841,17.448c0.567,5.237,1.651,10.987,4.817,15.339c3.089,4.246,8.229,7.524,13.487,5.221
				c1.764-0.773,0.239-3.358-1.514-2.59c-4.016,1.759-8.181-2.071-10.112-5.237c-2.605-4.271-3.434-9.587-3.845-14.489
				c-0.45-5.37-0.547-10.787-0.686-16.172c-0.143-5.522-0.175-11.052,0.112-16.571c0.328-6.32,1.103-12.6,2.583-18.758
				c-0.982-0.133-1.964-0.266-2.946-0.399c-0.636,17.781-1.271,35.562-1.907,53.343c-0.157,4.404-0.315,8.807-0.472,13.211
				c-0.072,2.015,0.141,4.317-0.278,6.294c-0.183,0.861-0.648,1.006-1.48,1.049c-1.043,0.053-2.101,0.003-3.145,0.001
				c-2.062-0.005-4.124-0.01-6.187-0.015c-1.535-0.004-3.084-0.009-4.589-0.35c-1.242-0.281-2.591-0.758-3.302-1.89
				c-1.015-1.616-0.164-3.633,0.636-5.151c2.27-4.306,4.973-8.427,7.461-12.61c2.569-4.32,5.139-8.64,7.708-12.959
				C727.551,478.055,724.959,476.545,723.972,478.204L723.972,478.204z"/>
		</g>
	</g>
	<g>
		<g>
			<path style="fill:#FFFFFF;" d="M765.025,423.122c2.427,12.478,0.582,25.646-5.163,36.984c-0.871,1.718,1.717,3.239,2.59,1.514
				c6.129-12.097,8.054-25.986,5.465-39.296C767.55,420.431,764.658,421.233,765.025,423.122L765.025,423.122z"/>
		</g>
	</g>
	<g>
		<g>
			<path style="fill:#FFFFFF;" d="M464.489,510.987c6.174,3.466,12.89,6.966,20.195,5.539c3.209-0.627,6.077-2.333,8.102-4.903
				c2.109-2.677,3.313-5.895,4.593-9.017c2.993-7.299,5.783-14.64,7.245-22.419c1.472-7.835,2.412-15.74,4.12-23.536
				c1.705-7.785,3.836-15.477,6.363-23.036c0.61-1.825,1.126-3.775,1.953-5.515c0.208-0.438,0.556-1.226,1.036-1.439
				c0.565-0.251,0.895,0.351,1.154,0.793c1.796,3.069,2.658,6.767,3.233,10.241c1.278,7.723,1.33,15.765,1.435,23.575
				c0.11,8.215-0.11,16.434-0.661,24.631c-0.275,4.093-0.637,8.18-1.072,12.259c-0.388,3.637-0.819,7.55,0.517,11.057
				c1.055,2.769,3.046,5.219,5.868,6.297c3.062,1.17,6.28,0.061,8.783-1.825c1.329-1.001,2.511-2.157,3.659-3.357
				c1.334-1.396-0.784-3.52-2.121-2.121c-2.062,2.158-4.796,5.111-8.093,4.78c-2.867-0.288-4.847-3.038-5.54-5.625
				c-0.988-3.689-0.218-7.67,0.156-11.395c0.411-4.087,0.739-8.183,0.985-12.283c0.481-8.037,0.646-16.092,0.492-24.142
				c-0.145-7.594-0.275-15.36-1.55-22.863c-0.581-3.418-1.528-6.783-3.06-9.903c-0.613-1.248-1.437-2.577-2.838-3.034
				c-1.432-0.467-2.855,0.076-3.848,1.153c-0.89,0.966-1.375,2.185-1.815,3.401c-0.705,1.948-1.37,3.912-2.015,5.881
				c-1.24,3.787-2.38,7.607-3.417,11.455c-2.033,7.541-3.666,15.189-4.882,22.904c-1.215,7.712-2.347,15.308-4.906,22.719
				c-1.384,4.01-2.995,7.937-4.61,11.858c-1.378,3.345-2.921,7.053-6.135,9.035c-7.075,4.362-15.498-0.209-21.811-3.754
				C464.318,507.45,462.804,510.041,464.489,510.987L464.489,510.987z"/>
		</g>
	</g>
	<g>
		<g>
			<path style="fill:#FFFFFF;" d="M775.829,513.256c5.539-14.719,11.071-29.468,15.394-44.6c2.106-7.372,3.921-14.832,5.286-22.379
				c1.367-7.561,2.489-15.334,2.605-23.029c0.052-3.46-0.324-7.198-2.216-10.192c-1.541-2.439-4.109-4.386-6.989-4.868
				c-2.689-0.449-5.419,0.498-7.194,2.591c-1.827,2.154-2.502,4.964-2.822,7.707c-0.411,3.53-0.243,7.143-0.276,10.69
				c-0.039,4.157-0.077,8.315-0.116,12.472c-0.076,8.149-0.152,16.297-0.227,24.446c-0.173,18.625-0.346,37.25-0.52,55.876
				c0.982-0.133,1.964-0.266,2.946-0.399c-1.949-13.56-3.866-30.661,8.237-40.326c-0.785-0.101-1.571-0.202-2.356-0.304
				c3.126,5.104,4.4,11.207,3.408,17.129c-0.96,5.734-3.262,12.077,0.999,17.066c1.51,1.768,3.793,3.14,6.182,3.043
				c2.602-0.105,4.619-1.881,5.802-4.091c1.437-2.684,2.24-5.801,3.096-8.705c0.935-3.17,1.74-6.379,2.414-9.614
				c1.521-7.297,2.379-14.729,2.582-22.179c0.054-1.973-2.786-1.87-3,0c-0.724,6.326-1.263,12.673-1.601,19.032
				c-0.164,3.098-0.282,6.198-0.353,9.299c-0.059,2.589-0.188,5.197,0.27,7.76c0.747,4.177,4.21,8.072,8.808,6.393
				c4.832-1.765,6.973-7.313,8.494-11.766c2.183-6.392,3.265-13.15,3.285-19.901c0.006-1.986-2.765-1.858-3,0
				c-0.788,6.233-1.203,12.507-1.215,18.79c-0.006,3.181,0.089,6.362,0.285,9.537c0.146,2.358-0.098,5.596,1.378,7.606
				c1.471,2.004,4.007,1.926,6.023,0.84c2.107-1.136,3.596-3.248,4.831-5.235c2.612-4.201,3.985-9.047,4.658-13.914
				c0.789-5.709,0.705-11.474,0.511-17.22c-0.065-1.932-2.918-1.93-3,0c-0.393,9.26,1.558,18.555,5.678,26.86
				c0.855,1.723,1.897,3.48,3.621,4.459c1.689,0.959,3.745,1.049,5.587,0.523c4.241-1.21,6.452-5.155,8.267-8.85
				c0.848-1.727-1.738-3.249-2.59-1.514c-1.456,2.964-3.15,6.63-6.655,7.522c-3.973,1.011-5.497-3.137-6.765-6.08
				c-3.107-7.209-4.476-15.09-4.143-22.921c-1,0-2,0-3,0c0.292,8.665,0.574,17.954-2.915,26.089
				c-0.823,1.919-1.875,3.771-3.147,5.43c-0.711,0.926-3.316,3.862-4.568,2.223c-0.556-0.728-0.492-2.033-0.561-2.889
				c-0.119-1.463-0.217-2.928-0.293-4.395c-0.144-2.769-0.21-5.543-0.201-8.316c0.021-6.201,0.437-12.394,1.214-18.545c-1,0-2,0-3,0
				c-0.016,5.267-0.7,10.491-2.094,15.572c-1.154,4.206-2.565,9.661-6.222,12.452c-1.416,1.081-3.269,1.478-4.702,0.199
				c-1.257-1.122-1.641-3.066-1.801-4.664c-0.24-2.403-0.073-4.861-0.008-7.269c0.075-2.774,0.187-5.548,0.336-8.319
				c0.338-6.277,0.872-12.542,1.587-18.787c-1,0-2,0-3,0c-0.329,12.074-2.447,24.051-6.312,35.497
				c-0.686,2.032-1.432,4.907-3.607,5.851c-1.975,0.857-4.088-0.645-5.236-2.174c-1.616-2.151-1.656-4.855-1.291-7.421
				c0.412-2.9,1.257-5.717,1.562-8.637c0.626-5.998-0.869-12.15-4.009-17.278c-0.548-0.895-1.601-0.907-2.356-0.304
				c-5.519,4.407-8.704,11.144-9.927,17.995c-1.498,8.394-0.281,16.903,0.918,25.25c0.246,1.709,2.931,1.241,2.946-0.399
				c0.292-31.43,0.585-62.86,0.877-94.29c0.029-3.14-0.137-6.354,0.298-9.473c0.326-2.34,1.052-5.147,3.211-6.467
				c2.263-1.383,5.023-0.435,6.84,1.257c2.448,2.278,3.06,5.736,3.131,8.937c0.159,7.21-0.961,14.612-2.17,21.701
				c-1.237,7.248-2.9,14.418-4.849,21.506c-4.421,16.084-10.286,31.72-16.156,47.319
				C772.256,514.268,775.154,515.049,775.829,513.256L775.829,513.256z"/>
		</g>
	</g>
	<g>
		<g>
			<path style="fill:#FFFFFF;" d="M494.709,482.819c3.575-4.269,7.526-8.21,11.829-11.747c2.144-1.762,4.371-3.458,6.705-4.962
				c2.196-1.415,4.524-2.41,7.174-1.848c4.906,1.041,8.745,4.844,13.614,6.118c5.075,1.328,10.632,0.695,15.239-1.828
				c4.765-2.61,8.317-7.123,9.901-12.298c0.566-1.85-2.329-2.641-2.893-0.798c-3.015,9.851-14.063,15.238-23.67,11.301
				c-4.455-1.826-8.277-5.342-13.273-5.651c-5.182-0.321-9.744,3.738-13.55,6.742c-4.832,3.814-9.246,8.131-13.197,12.849
				C491.356,482.168,493.467,484.301,494.709,482.819L494.709,482.819z"/>
		</g>
	</g>
	<g>
		<g>
			<path style="fill:#FFFFFF;" d="M841.859,469.424c1.93,0,1.934-3,0-3C839.929,466.424,839.926,469.424,841.859,469.424
				L841.859,469.424z"/>
		</g>
	</g>
</g>
</svg>
