<?xml version="1.0" encoding="iso-8859-1"?>
<!-- Generator: Adobe Illustrator 27.2.0, SVG Export Plug-In . SVG Version: 6.00 Build 0)  -->
<svg version="1.1" id="Calque_1" xmlns="http://www.w3.org/2000/svg" xmlns:xlink="http://www.w3.org/1999/xlink" x="0px" y="0px"
	 viewBox="0 0 1400 1400" style="enable-background:new 0 0 1400 1400;" xml:space="preserve">
<circle style="fill:#FFFF00;stroke:#1D1D1B;stroke-linecap:round;stroke-miterlimit:10;" cx="700.474" cy="701.5" r="687.5"/>
<g>
	<g>
		<defs>
			<circle id="SVGID_1_" cx="700.448" cy="701.5" r="687.5"/>
		</defs>
		<clipPath id="SVGID_00000152237284430282841740000003060126367080396179_">
			<use xlink:href="#SVGID_1_"  style="overflow:visible;"/>
		</clipPath>
		
			<circle style="clip-path:url(#SVGID_00000152237284430282841740000003060126367080396179_);fill:#FFFF00;stroke:#1D1D1B;stroke-linecap:round;stroke-miterlimit:10;" cx="700.488" cy="701.498" r="687.5"/>
	</g>
	<g>
		<defs>
			<circle id="SVGID_00000158721936502501833330000005145820055367834038_" cx="700.448" cy="701.5" r="687.5"/>
		</defs>
		<clipPath id="SVGID_00000124142115267603604360000004178499354429756349_">
			<use xlink:href="#SVGID_00000158721936502501833330000005145820055367834038_"  style="overflow:visible;"/>
		</clipPath>
		<g style="clip-path:url(#SVGID_00000124142115267603604360000004178499354429756349_);">
			<polygon style="opacity:0.41;fill:#FF7BAC;enable-background:new    ;" points="388.393,1513.034 371.521,1023.761 
				371.521,117.763 1387.184,328.656 			"/>
			<path style="fill:#362D48;" d="M426.621,993.032L-8.578,1207.944c-13.064,6.452-28.362-3.055-28.362-17.626V51.384
				c0-12.576,11.646-21.918,23.922-19.19l435.199,96.711c8.994,1.999,15.393,9.976,15.393,19.19v827.311
				C437.575,982.887,433.329,989.719,426.621,993.032z"/>
			<path style="fill:#F7931E;stroke:#1D1D1B;stroke-width:2;stroke-miterlimit:10;" d="M428.576,879.122L86.954,1047.824
				c-10.255,5.064-22.263-2.398-22.263-13.836v-894.04c0-9.872,9.141-17.205,18.778-15.063l341.622,75.916
				c7.06,1.569,12.083,7.831,12.083,15.063v649.422C437.174,871.159,433.841,876.522,428.576,879.122z"/>
			<path style="fill:#362D48;" d="M438.501,795.28L178.372,923.739c-7.809,3.856-16.952-1.826-16.952-10.535V232.433
				c0-7.517,6.961-13.101,14.299-11.47l260.129,57.807c5.376,1.195,9.201,5.963,9.201,11.47v494.505
				C445.048,789.216,442.51,793.3,438.501,795.28z"/>
			<path style="fill:#F7931E;stroke:#1D1D1B;stroke-width:2;stroke-miterlimit:10;" d="M471.148,747.636L245.572,859.031
				c-6.772,3.344-14.701-1.583-14.701-9.136V259.553c0-6.518,6.036-11.361,12.399-9.946l225.576,50.128
				c4.662,1.036,7.979,5.171,7.979,9.946V738.5C476.825,742.378,474.624,745.919,471.148,747.636z"/>
			<path style="fill:#F7931E;stroke:#1D1D1B;stroke-width:2;stroke-miterlimit:10;" d="M474.457,696.287l-166.331,82.139
				c-4.993,2.466-10.84-1.168-10.84-6.736V336.393c0-4.806,4.451-8.377,9.143-7.334l166.331,36.962
				c3.438,0.764,5.883,3.813,5.883,7.334V689.55C478.644,692.41,477.021,695.021,474.457,696.287z"/>
			<path style="fill:#362D48;" d="M503.088,650.799l-111.453,63.687c-1.572,0.898-3.351,1.371-5.161,1.371h-5.394
				c-5.745,0-10.402-4.657-10.402-10.402V382.08c0-5.745,4.657-10.402,10.402-10.402h18.938c3.718,0,7.154,1.985,9.011,5.206
				l109.922,190.613c1.217,2.11,1.654,4.579,1.237,6.979l-12.013,69.074C507.644,646.603,505.779,649.261,503.088,650.799z"/>
			<path style="fill:#F7931E;stroke:#1D1D1B;stroke-width:2;stroke-miterlimit:10;" d="M523.494,649.206l-126.786,62.61
				c-3.806,1.88-8.263-0.89-8.263-5.135V374.877c0-3.664,3.393-6.385,6.969-5.59L522.2,397.462c2.62,0.582,4.484,2.906,4.484,5.59
				v241.02C526.685,646.25,525.448,648.241,523.494,649.206z"/>
			
				<ellipse transform="matrix(0.0071 -1 1 0.0071 -76.6665 1004.5604)" style="fill:#EDEDED;stroke:#1D1D1B;stroke-width:2.0001;stroke-linecap:round;stroke-miterlimit:10.0003;" cx="467.526" cy="540.887" rx="80.096" ry="46.497"/>
			<path style="fill:#FF7BAC;stroke:#1D1D1B;stroke-width:2;stroke-linecap:round;stroke-miterlimit:10;" d="M514.615,540.202
				c0,36.36-17.112,65.836-38.22,65.836s-38.22-29.476-38.22-65.836s17.112-65.836,38.22-65.836S514.615,503.842,514.615,540.202z"
				/>
		</g>
	</g>
	<g>
		<defs>
			<circle id="SVGID_00000092444657473844093690000003308034983850031265_" cx="700.448" cy="701.5" r="687.5"/>
		</defs>
		<clipPath id="SVGID_00000067955214904012936220000017149010999881588641_">
			<use xlink:href="#SVGID_00000092444657473844093690000003308034983850031265_"  style="overflow:visible;"/>
		</clipPath>
		<g style="clip-path:url(#SVGID_00000067955214904012936220000017149010999881588641_);">
			<g>
				<path style="fill:#F2B158;stroke:#1D1D1B;stroke-width:2;stroke-miterlimit:10;" d="M800.9,818.773
					c-4.708,0.572-12.137,7.13-26.994,20.246c-7.778,6.866-10.127,9.71-11.81,13.497c-4.173,9.393-1.595,18.627,0,25.307
					c7.289,30.528-0.56,30.321,6.749,57.363c5.522,20.43,8.966,33.172,20.246,43.866c19.765,18.736,55.5,23.517,65.799,10.123
					c6.68-8.688,3.911-26.65-5.061-33.743c-6.762-5.345-16.751-4.285-16.871-6.749c-0.103-2.114,7.299-1.809,11.81-6.749
					c7.674-8.402,4.4-29.156-6.749-38.804c-5.704-4.937-11.977-5.675-11.81-8.436c0.23-3.795,12.096-2.628,16.871-8.436
					C854.74,872.077,824.441,815.915,800.9,818.773z"/>
				<path style="fill:#F2B158;stroke:#1D1D1B;stroke-width:2;stroke-miterlimit:10;" d="M726.666,751.287
					c-5.206,0.958-16.83,4.593-23.573,6.766c-3.222,1.038-5.766,3.505-6.906,6.692c-2.218,6.201-5.8,16.221-6.639,18.597
					c-9.201,26.054-13.246,52.311-13.497,53.989c-4.086,27.251-6.676,44.526,0,65.799c6.359,20.262,17.698,33.232,26.994,43.866
					c10.014,11.454,18.869,21.318,33.743,25.307c2.925,0.785,22.375,6.001,30.369-3.374c7.942-9.316,0.318-28.046-3.374-37.117
					c-8.265-20.304-19.523-26.318-18.559-42.179c0.293-4.816,1.256-3.025,3.374-13.497c4.525-22.366,0.322-31.465,6.749-37.117
					c3.984-3.505,6.879-1.132,16.871-3.374c9.326-2.093,24.944-8.231,28.682-16.872C809.739,798.34,760.29,745.097,726.666,751.287z
					"/>
			</g>
			<path style="fill:#E3B16F;stroke:#1D1D1B;stroke-width:2;stroke-miterlimit:10;" d="M848.14,727.667
				c-11.327-1.342-22.89-9.349-45.553-25.307c-30.781-21.674-33.574-27.902-55.676-40.492c-3.925-2.236-2.117-1.06-35.43-16.871
				c-48.452-22.997-53.81-26.213-60.737-32.056c-15.577-13.138-11.941-16.661-30.369-32.056
				c-14.693-12.275-33.704-28.158-48.927-21.933c-8.528,3.487-14.209,13.233-15.184,21.933c-0.634,5.653,0.6,11.937,6.749,21.933
				c12.268,19.944,25.089,23.759,50.614,47.24c8.247,7.587,5.231,5.646,20.246,20.246c2.764,2.688,20.213,19.61,40.492,37.117
				c49.844,43.031,54.998,36.254,75.922,60.737c19.076,22.322,14.409,27.506,35.43,48.927c16.595,16.91,23.422,17.673,42.179,37.117
				c18.565,19.247,28.836,29.894,32.056,47.24c3.069,16.536-0.272,39.143-15.184,52.302c-8.786,7.753-20.265,11.056-52.302,10.123
				c-59.826-1.743-72.342-14.792-114.726-11.81c-21.382,1.504-51.644,4.049-64.112,25.307c-5.824,9.93-7.146,22.887-3.374,33.743
				c1.455,4.187,7.762,19.848,42.179,32.056c28.111,9.971,43.069,6.321,79.296,8.436c39.401,2.3,69.339,9.398,107.978,18.559
				c34.549,8.191,30.409,9.607,67.486,18.559c54.22,13.091,81.33,19.637,109.665,15.184c36.687-5.765,33.353-19.423,72.547-25.307
				c46.174-6.932,83.841,7.065,96.167,11.81c29.91,11.515,37.72,22.943,57.363,33.743c54.914,30.193,155.761,29.883,190.648-25.307
				c36.382-57.556-4.462-159.498-64.112-187.273c-44.556-20.747-78.628,9.74-172.089-13.497
				c-30.025-7.465-53.096-17.222-64.112-21.933c-24.138-10.323-70.361-30.512-116.413-70.86
				c-31.38-27.493-52.251-55.208-87.732-70.86c-8.605-3.796-20.652-8.986-37.117-10.123
				C870.805,722.828,864.768,729.637,848.14,727.667z"/>
		</g>
	</g>
</g>
</svg>
