<?xml version="1.0" encoding="iso-8859-1"?>
<!-- Generator: Adobe Illustrator 27.2.0, SVG Export Plug-In . SVG Version: 6.00 Build 0)  -->
<svg version="1.1" id="Calque_1" xmlns="http://www.w3.org/2000/svg" xmlns:xlink="http://www.w3.org/1999/xlink" x="0px" y="0px"
	 viewBox="0 0 1400 1400" style="enable-background:new 0 0 1400 1400;" xml:space="preserve">
<circle style="opacity:0.53;fill:#00FF00;" cx="697.128" cy="703" r="686"/>
<ellipse style="fill:#F0836E;" cx="735.059" cy="1143.619" rx="116.438" ry="84.065"/>
<ellipse style="fill:#B4252D;" cx="734.214" cy="1117.067" rx="39.54" ry="26.061"/>
<path style="fill:#D4524C;" d="M623.819,518.109c-7.809,34.101-20.76,91.032-31.039,138.433c-0.876,4.038-2.28,10.575-3.547,19.381
	c-0.57,3.96-7.579,54.628,1.774,85.828c14.84,49.511,78.755,76.28,124.156,81.214c6.484,0.705,74.369,6.996,125.93-40.607
	c9.672-8.93,33.333-30.775,39.907-65.525c3.916-20.701,0.15-37.426-1.774-46.144c-9.343-42.34-20.178-99.495-33.699-173.503"/>
<ellipse style="fill:#CC2639;" cx="731.967" cy="719.868" rx="146.478" ry="112.779"/>
<ellipse style="fill:#B4252D;" cx="731.967" cy="687.966" rx="132.999" ry="80.878"/>
<ellipse style="fill:#F0836E;" cx="734.982" cy="516.862" rx="111.112" ry="68.559"/>
<ellipse style="fill:#D4524C;" cx="732.417" cy="516.776" rx="105.59" ry="65.151"/>
<path style="fill:#CC2639;" d="M721.184,1085.32c-2.58-19.682,1.766-39.727,0.899-59.564c-1.771-40.513-1.792-160.742-1.797-174.11
	c0-0.517,0.649-2.411,0-4.582c-1.836-6.139-11.862-7.585-11.682-8.247c0.158-0.58,7.668,0.998,11.682,1.833
	c13.44,2.794,14.656,2.851,16.175,2.749c8.147-0.546,13.605-4.893,14.378-3.665c0.501,0.796-1.793,2.622-3.595,5.498
	c-3.795,6.059-2.986,12.922-2.696,16.495c2.226,27.399-1.574,54.989-0.899,82.473c0.484,19.703-0.636,10.046-0.899,54.982
	c-0.32,54.625,1.332,69.309,0,82.473c-0.145,1.436-0.398,3.562,0,6.415c1.613,11.565,11.017,14.302,10.784,21.076
	c-0.235,6.841-10.102,12.057-16.175,13.746c-0.834,0.232-13.823,3.627-22.466-4.582c-1.296-1.231-6.422-6.099-5.392-10.996
	c1.071-5.088,7.747-5.26,10.784-11.913C722.13,1091.358,721.466,1087.478,721.184,1085.32z"/>
<path style="fill:none;stroke:#000000;stroke-miterlimit:10;" d="M1183.084,675.385"/>
<path style="fill:#FFE600;" d="M501.297,378.231c-64.372-20.693-98.848,18.275-127.576-4.516
	c-33.247-26.375-29.844-112.494,14.677-156.93c59.441-59.329,178.41-30.613,223.541,31.612
	c25.338,34.936,37.717,94.559,14.677,108.383c-22.58,13.548-50.803,14.68-50.805,14.677l0,0
	c-29.66,2.411-1.415,36.821,23.347,64.736c1.314,1.481,2.075,3.461,1.49,4.132C597.317,444.153,555.17,395.549,501.297,378.231z"/>
<path style="fill:#EF7D29;" d="M733.305,375.408c-22.247-13.703-44.323-0.242-65.482-14.677
	c-11.879-8.104-12.222-22.214-15.806-62.095c-9.581-106.6-18.48-132.077,2.258-164.833c3.04-4.802,8.875-13.863,19.193-22.58
	c45.864-38.746,121.743-21.79,163.704-1.129c4.93,2.427,7.45,3.681,10.161,5.645c22.167,16.058,22.057,44.048,22.58,130.963
	c0.36,59.861,0.657,87.355-18.064,106.125c-9.157,9.181-19.193,13.548-19.193,13.548c-24.314,10.58-55.321,3.387-55.321,3.387l0,0
	c0,0-14.472,77.529-14.472,77.531c-0.078,1.137-1.473,7.983-1.333,7.143C762.658,447.664,763.68,394.118,733.305,375.408z"/>
<path style="opacity:0.81;fill:#D466A3;" d="M499.039,194.205c10.352-35.464,39.716-54.253,54.192-63.224
	c99.686-61.775,269.188-27.818,296.925,39.515c12.748,30.946,5.755,73.515-16.935,97.093c0,0-17.234,17.908-126.795,30.308
	c-7.071,0.8-12.663,6.373-13.487,13.442c-2.032,17.419-4.064,34.838-6.097,52.257c-0.035,0.298,0.408,3.044-0.39,3.345
	c-3.408,1.283-5.734-74.6-47.418-71.127c-13.548,1.129-28.377,0.964-48.547-2.258c-45.474-7.264-57.496-5.761-74.513-16.935
	C493.806,262.065,490.951,221.912,499.039,194.205z"/>
<g>
	<path style="fill:#005EAA;" d="M902.654,163.158c-91.538,7.05-137.907,36.766-151.85,85.239
		c-11.965,41.6,44.099,97.063,90.319,123.06c17.382,9.777,36.6,17.202,56.569,22.339c87.331,22.467,189.027,1.18,214.39-58.467
		c18.368-43.198-2.897-107.467-45.16-136.608C1054.824,190.379,979.201,157.262,902.654,163.158z"/>
	<polygon style="fill:#005EAA;" points="847.897,433.551 875.669,374.685 931.796,383.431 	"/>
</g>
<path style="opacity:0.81;fill:#D20A11;" d="M798.786,333.635c-49.305-24.652-100.678-48.316-115.157-88.061
	c-16.934-46.481,45.85-118.927,133.221-117.415c59.415,1.028,148.009,5.653,170.478,68.869c12.718,35.783,1.62,80.09-25.967,109.512
	c-35.978,38.371-86.17,36.677-99.347,34.999c0,0-0.004,0-0.004,0c-35.081-4.463-58.838,39.244-64.541,56.645
	c-0.507,1.548-1.371,4.409-2.069,4.321c-2.328-0.295-0.402-33.049,2.258-58.708C798.691,333.821,801.044,334.764,798.786,333.635z"
	/>
<path style="opacity:0.59;fill:#E1E8F6;" d="M569.601,362.989c-19.818-4.404-26.328,5.429-53.063-2.258
	c-3.596-1.034-15.302-4.4-23.709-10.161c-40.644-27.853-37.926-134.813,9.032-162.575c1.62-0.958,5.167-2.929,20.322-6.774
	c46.607-11.824,98.924-25.096,126.447-1.129c7.984,6.952,12.096,25.333,20.322,62.095c9.982,44.611,19.69,89.952,1.129,102.738
	c-2.012,1.386-7.739,3.182-19.193,6.774c-16.885,5.295-25.327,7.943-30.094,7.822c-0.1-0.003-0.243-0.007-0.388,0.081
	c-4.623,2.821,34.513,71.689,31.612,73.385c-0.748,0.437-3.957-3.783-4.516-4.516C633.122,409.623,603.25,370.467,569.601,362.989z"
	/>
</svg>
