<?xml version="1.0" encoding="iso-8859-1"?>
<!-- Generator: Adobe Illustrator 27.2.0, SVG Export Plug-In . SVG Version: 6.00 Build 0)  -->
<svg version="1.1" id="Calque_1" xmlns="http://www.w3.org/2000/svg" xmlns:xlink="http://www.w3.org/1999/xlink" x="0px" y="0px"
	 viewBox="0 0 1400 1400" style="enable-background:new 0 0 1400 1400;" xml:space="preserve">
<circle style="opacity:0.79;fill:#0000FF;" cx="700.064" cy="700.064" r="699.936"/>
<g>
	<g>
		<path style="opacity:0.78;fill:#FF0000;" d="M586.329,866.19c-37.089-49.072,14.714-83.053,8.741-246.509
			c-2.233-61.118-11.099-100.78,13.986-146.856c13.374-24.565,26.922-33.549,41.959-68.183
			c14.245-32.811,17.222-59.609,20.979-96.156c8.141-79.194,0.001-155.598,0-155.598l0,0c-0.222,0.222,10.43-10.542,12.238-12.238
			c14.751-13.835,65.666-10.098,75.176,12.238c4.082,9.588-3.693,12.67-5.245,36.714c-1.352,20.956,4.067,26.169,3.497,48.952
			c-0.408,16.302-3.515,26.915-5.245,34.966c-7.195,33.483,0.241,65.411,6.993,94.408c17.737,76.165,50.992,83.851,68.183,155.598
			c2.204,9.198,2.859,14.086,6.993,80.421c11.767,188.812,10.735,217.785-10.49,248.257c-26.35,37.83-64.968,50.9-75.177,54.197
			C693.034,924.449,619.685,910.323,586.329,866.19z"/>
		<ellipse style="opacity:0.47;fill:#FFFFFF;" cx="713.954" cy="577.722" rx="111.891" ry="47.953"/>
	</g>
	<g>
		<path style="opacity:0.75;fill:#FFFF00;" d="M825.845,925.632c-8.671,8.213-9.56,24.052-5.245,34.966
			c9.668,24.452,47.638,29.686,69.932,27.973c25.577-1.965,57.604-15.156,57.694-29.721c0.102-16.517-40.981-16.193-55.945-48.952
			c-11.24-24.606-0.175-51.305,1.748-55.945c11.886-28.679,31.372-26.076,52.449-52.449c29.898-37.411,31.636-93.888,15.735-134.618
			c-4.954-12.69-10.992-28.155-26.224-40.211c-38.829-30.73-109.54-17.251-138.115,15.735
			c-59.104,68.227,24.244,213.1,59.442,211.543c4.513-0.2,9.389-2.878,13.986,0c12.741,7.976,9.775,50.124-10.49,62.938
			C847.822,925.104,835.93,916.08,825.845,925.632z"/>
		<ellipse style="opacity:0.52;fill:#FFFFFF;" cx="877.419" cy="747.306" rx="90.037" ry="34.396"/>
	</g>
</g>
<ellipse transform="matrix(0.0437 -0.999 0.999 0.0437 -631.2847 1626.6968)" style="fill:#4E83ED;" cx="534.068" cy="1143.102" rx="135.699" ry="304.872"/>
<ellipse transform="matrix(0.0437 -0.999 0.999 0.0437 -631.7704 1627.8917)" style="fill:#4E8DED;" cx="534.449" cy="1143.953" rx="121.099" ry="272.073"/>
<ellipse transform="matrix(0.0437 -0.999 0.999 0.0437 -623.3345 1618.802)" style="fill:#4EA7ED;" cx="533.919" cy="1135.002" rx="109.843" ry="246.783"/>
<g style="opacity:0.89;">
	<g>
		<path style="fill:#D1D1E6;stroke:#666666;stroke-width:2;stroke-linecap:round;stroke-linejoin:round;stroke-miterlimit:10;" d="
			M652.197,1008.228C541.648,920.493,428.819,816.41,322.175,776.124c18.636,99.123,37.46,208.411,56.429,324.489
			c5.486,5.609,10.985,11.277,16.494,16.991C479.542,1091.502,566.554,1048.007,652.197,1008.228z"/>
		
			<path style="opacity:0.9;fill:#D8E6E6;stroke:#666666;stroke-width:2;stroke-linecap:round;stroke-linejoin:round;stroke-miterlimit:10;" d="
			M628.243,1021.419c-28.936-47.357-57.986-96.398-87-144.217c-56.235,70.425-112.331,142.325-167.192,199.912
			c103.539,50.262,211.477,105.884,316.443,131.393C669.841,1149.054,649.072,1086.009,628.243,1021.419z"/>
		<path style="fill:#FFFFDE;stroke:#666666;stroke-width:2;stroke-linecap:round;stroke-linejoin:round;stroke-miterlimit:10;" d="
			M802.941,935.519c-34.604,85.639-69.858,186.605-105.475,293.124c-107.505-15.907-218.307-64.328-324.456-113.552
			C514.327,1074.491,663.891,980.756,802.941,935.519z"/>
		<path style="fill:#FFFFFF;stroke:#666666;stroke-width:2;stroke-linecap:round;stroke-linejoin:round;stroke-miterlimit:10;" d="
			M336.855,783.062c16.534,99.415,33.207,206.922,49.986,319.975c-5.275,3.133-10.539,6.175-15.792,9.118
			c-14.263-112.179-28.442-219.102-42.516-318.899C331.303,789.875,334.077,786.477,336.855,783.062z"/>
	</g>
</g>
</svg>
