<?xml version="1.0" encoding="iso-8859-1"?>
<!-- Generator: Adobe Illustrator 27.2.0, SVG Export Plug-In . SVG Version: 6.00 Build 0)  -->
<svg version="1.1" id="Calque_1" xmlns="http://www.w3.org/2000/svg" xmlns:xlink="http://www.w3.org/1999/xlink" x="0px" y="0px"
	 viewBox="0 0 1400 1400" style="enable-background:new 0 0 1400 1400;" xml:space="preserve">
<circle style="fill:#FFFF00;" cx="699.468" cy="700.66" r="689.232"/>
<ellipse style="fill:#F0836E;" cx="732.782" cy="1151.692" rx="117.848" ry="85.083"/>
<ellipse style="fill:#B4252D;" cx="731.927" cy="1124.818" rx="40.019" ry="26.376"/>
<path style="fill:#D4524C;" d="M620.194,518.606c-7.904,34.514-21.011,92.135-31.414,140.109
	c-0.887,4.087-2.308,10.702-3.591,19.615c-0.576,4.008-7.67,55.289,1.795,86.868c15.02,50.11,79.709,77.204,125.66,82.197
	c6.562,0.713,75.27,7.081,127.454-41.099c9.79-9.038,33.736-31.148,40.391-66.318c3.964-20.952,0.152-37.88-1.795-46.703
	c-9.456-42.853-20.422-100.701-34.107-175.604"/>
<ellipse style="fill:#CC2639;" cx="729.653" cy="722.809" rx="148.253" ry="114.145"/>
<ellipse style="fill:#B4252D;" cx="729.653" cy="690.521" rx="134.61" ry="81.857"/>
<ellipse style="fill:#F0836E;" cx="732.704" cy="517.343" rx="112.458" ry="69.389"/>
<ellipse style="fill:#D4524C;" cx="730.108" cy="517.256" rx="106.869" ry="65.94"/>
<path style="fill:#CC2639;" d="M718.738,1092.686c-2.611-19.921,1.787-40.207,0.91-60.286
	c-1.792-41.003-1.813-162.688-1.819-176.218c0-0.523,0.658-2.44,0-4.637c-1.859-6.213-12.006-7.677-11.824-8.348
	c0.16-0.587,7.76,1.011,11.824,1.855c13.602,2.828,14.833,2.885,16.372,2.782c8.245-0.552,13.77-4.952,14.553-3.71
	c0.507,0.805-1.815,2.654-3.638,5.564c-3.841,6.133-3.022,13.079-2.729,16.694c2.254,27.731-1.593,55.655-0.909,83.472
	c0.49,19.942-0.644,10.168-0.91,55.648c-0.323,55.287,1.348,70.149,0,83.472c-0.147,1.453-0.403,3.605,0,6.493
	c1.633,11.705,11.15,14.475,10.915,21.332c-0.238,6.924-10.224,12.203-16.372,13.912c-0.844,0.235-13.99,3.671-22.738-4.637
	c-1.312-1.246-6.501-6.173-5.457-11.13c1.084-5.15,7.841-5.323,10.915-12.057C719.696,1098.798,719.025,1094.871,718.738,1092.686z"
	/>
<path style="fill:none;stroke:#000000;stroke-miterlimit:10;" d="M1186.234,677.787"/>
<g style="opacity:0.54;">
	<circle style="fill:#E30613;" cx="693.571" cy="507.127" r="6.493"/>
	<circle style="fill:#0087CB;" cx="726.717" cy="505.418" r="8.201"/>
	<circle style="fill:#FFE600;" cx="744.486" cy="476.714" r="10.252"/>
	<ellipse style="fill:#005EAA;" cx="744.486" cy="531.502" rx="9.568" ry="8.771"/>
	
		<line style="fill:none;stroke:#B3201F;stroke-width:2;stroke-miterlimit:10;" x1="701.43" y1="506.785" x2="717.149" y2="506.785"/>
	
		<line style="fill:none;stroke:#B3201F;stroke-width:5;stroke-miterlimit:10;" x1="731.502" y1="497.217" x2="737.993" y2="485.94"/>
	
		<line style="fill:none;stroke:#B3201F;stroke-width:5;stroke-miterlimit:10;" x1="731.502" y1="513.619" x2="739.019" y2="522.504"/>
</g>
<g style="opacity:0.88;">
	<circle style="fill:#E30613;" cx="563.009" cy="108.513" r="25.659"/>
	<circle style="fill:#0087CB;" cx="592.224" cy="236.383" r="32.41"/>
	<circle style="fill:#FFE600;" cx="716.061" cy="286.017" r="40.513"/>
	
		<ellipse transform="matrix(0.985 -0.1723 0.1723 0.985 -48.183 91.4645)" style="fill:#005EAA;" cx="502.817" cy="323.305" rx="34.663" ry="37.814"/>
	
		<line style="fill:none;stroke:#B3201F;stroke-width:2;stroke-miterlimit:10;" x1="569.689" y1="138.876" x2="580.39" y2="200.067"/>
	
		<line style="fill:none;stroke:#B3201F;stroke-width:5;stroke-miterlimit:10;" x1="627.407" y1="249.425" x2="675.725" y2="267.022"/>
	
		<line style="fill:none;stroke:#B3201F;stroke-width:5;stroke-miterlimit:10;" x1="563.555" y1="260.59" x2="534.086" y2="295.904"/>
</g>
<g style="opacity:0.72;">
	<circle style="fill:#E30613;" cx="724.081" cy="350.458" r="10.383"/>
	<circle style="fill:#0087CB;" cx="679.825" cy="379.762" r="13.115"/>
	<circle style="fill:#FFE600;" cx="678.695" cy="433.739" r="16.395"/>
	
		<ellipse transform="matrix(0.8611 -0.5084 0.5084 0.8611 -94.0953 372.163)" style="fill:#005EAA;" cx="634.134" cy="358.307" rx="15.301" ry="14.026"/>
	<line style="fill:none;stroke:#B3201F;stroke-width:2;stroke-miterlimit:10;" x1="713.536" y1="357.319" x2="691.889" y2="370.1"/>
	
		<line style="fill:none;stroke:#B3201F;stroke-width:5;stroke-miterlimit:10;" x1="679.906" y1="394.946" x2="680.134" y2="415.754"/>
	
		<line style="fill:none;stroke:#B3201F;stroke-width:5;stroke-miterlimit:10;" x1="666.569" y1="372.358" x2="648.992" y2="366.236"/>
</g>
<g style="opacity:0.48;">
	<circle style="fill:#E30613;" cx="767.281" cy="175.236" r="19.024"/>
	<circle style="fill:#0087CB;" cx="858.106" cy="210.006" r="24.031"/>
	<circle style="fill:#FFE600;" cx="939.782" cy="154.203" r="30.038"/>
	
		<ellipse transform="matrix(0.4051 -0.9143 0.9143 0.4051 245.2493 978.7817)" style="fill:#005EAA;" cx="874.736" cy="300.937" rx="25.7" ry="28.036"/>
	
		<line style="fill:none;stroke:#B3201F;stroke-width:2;stroke-miterlimit:10;" x1="788.742" y1="183.651" x2="830.851" y2="202.31"/>
	
		<line style="fill:none;stroke:#B3201F;stroke-width:5;stroke-miterlimit:10;" x1="880.657" y1="193.714" x2="911.437" y2="171.213"/>
	<line style="fill:none;stroke:#B3201F;stroke-width:5;stroke-miterlimit:10;" x1="861.187" y1="237.655" x2="870.78" y2="270.38"/>
</g>
<g style="opacity:0.4;">
	<circle style="fill:#E30613;" cx="685.454" cy="615.588" r="5.578"/>
	<circle style="fill:#0087CB;" cx="683.986" cy="587.111" r="7.046"/>
	<circle style="fill:#FFE600;" cx="659.325" cy="571.844" r="8.808"/>
	<ellipse style="fill:#005EAA;" cx="706.396" cy="571.844" rx="7.535" ry="8.221"/>
	
		<line style="fill:none;stroke:#B3201F;stroke-width:2;stroke-miterlimit:10;" x1="685.161" y1="608.835" x2="685.161" y2="595.331"/>
	<line style="fill:none;stroke:#B3201F;stroke-width:5;stroke-miterlimit:10;" x1="676.94" y1="583" x2="667.252" y2="577.422"/>
	<line style="fill:none;stroke:#B3201F;stroke-width:5;stroke-miterlimit:10;" x1="691.032" y1="583" x2="698.665" y2="576.541"/>
</g>
</svg>
