<?xml version="1.0" encoding="iso-8859-1"?>
<!-- Generator: Adobe Illustrator 27.2.0, SVG Export Plug-In . SVG Version: 6.00 Build 0)  -->
<svg version="1.1" id="Calque_1" xmlns="http://www.w3.org/2000/svg" xmlns:xlink="http://www.w3.org/1999/xlink" x="0px" y="0px"
	 viewBox="0 0 1400 1400" style="enable-background:new 0 0 1400 1400;" xml:space="preserve">
<circle style="opacity:0.75;fill:#22B573;" cx="700.064" cy="700.064" r="699.936"/>
<g>
	<ellipse style="fill:#F15A24;" cx="700.904" cy="1218.676" rx="118.803" ry="85.772"/>
	<ellipse style="fill:#B4252D;" cx="700.041" cy="1191.585" rx="40.343" ry="26.59"/>
	<path style="fill:#D4524C;" d="M587.404,580.459c-7.968,34.794-21.181,92.881-31.669,141.245
		c-0.894,4.12-2.326,10.789-3.619,19.774c-0.581,4.04-7.733,55.737,1.81,87.572c15.142,50.516,80.355,77.83,126.678,82.864
		c6.615,0.719,75.88,7.138,128.488-41.432c9.869-9.112,34.01-31.4,40.718-66.856c3.996-21.122,0.153-38.187-1.81-47.082
		c-9.533-43.2-20.588-101.517-34.384-177.027"/>
	<ellipse style="fill:#F7931E;" cx="697.749" cy="786.317" rx="149.454" ry="115.07"/>
	<ellipse style="fill:#F15A24;" cx="697.749" cy="753.767" rx="135.7" ry="82.521"/>
	<ellipse style="fill:#F0836E;" cx="700.825" cy="579.186" rx="113.37" ry="69.951"/>
	<ellipse style="opacity:0.62;fill:#D4524C;" cx="698.208" cy="579.099" rx="107.735" ry="66.475"/>
	<path style="fill:#CC2639;" d="M686.746,1159.192c-2.632-20.082,1.802-40.534,0.917-60.774
		c-1.807-41.336-1.828-164.007-1.834-177.647c0-0.527,0.663-2.46,0-4.675c-1.873-6.263-12.103-7.74-11.92-8.415
		c0.161-0.592,7.824,1.018,11.92,1.87c13.713,2.851,14.953,2.909,16.504,2.805c8.313-0.557,13.881-4.992,14.67-3.74
		c0.511,0.812-1.83,2.676-3.668,5.61c-3.872,6.182-3.047,13.184-2.751,16.83c2.271,27.956-1.606,56.106-0.917,84.149
		c0.494,20.103-0.648,10.25-0.917,56.099c-0.326,55.735,1.359,70.717,0,84.149c-0.148,1.465-0.406,3.634,0,6.545
		c1.646,11.8,11.24,14.593,11.003,21.505c-0.24,6.98-10.307,12.302-16.504,14.025c-0.851,0.237-14.104,3.701-22.922-4.675
		c-1.323-1.256-6.553-6.223-5.501-11.22c1.093-5.191,7.904-5.366,11.003-12.155C687.712,1165.354,687.035,1161.394,686.746,1159.192
		z"/>
</g>
<g>
	<path style="fill:#ED1E79;" d="M1064.807,515.37c-1.481,6.21,1.771,13.309,6.682,15.59c3.458,1.606,6.731,0.357,8.909,0
		c13.166-2.159,26.403,21.729,40.089,37.862c23.592,27.81,33.986,15.444,51.225,40.089c13.111,18.743,14.538,36.53,31.18,42.316
		c4.499,1.564,11.54,2.748,13.363,0c1.731-2.61-1.557-8.297-15.59-24.499c-13.44-15.517-23.344-25.216-31.18-33.407
		c-20.932-21.878-15.268-20.611-28.953-33.407c-23.85-22.3-34.118-19.666-44.543-37.862c-4.937-8.616-6.688-16.283-13.363-17.817
		C1076.216,502.761,1066.738,507.277,1064.807,515.37z"/>
	<path style="fill:#FFFF00;" d="M1020.264,591.094c-4.566-1.721-7.284,3.373-33.407,15.59c-12.324,5.764-18.606,8.651-24.499,8.909
		c-14.463,0.633-25.718-9.047-35.635-17.817c-27.017-23.893-45.564-41.653-53.452-48.997c-3.983-3.708-2.714-2.402-64.588-55.679
		c-20.602-17.74-30.864-26.79-28.953-35.635c2.52-11.66,23.736-16.218,31.18-17.817c81.905-17.597,208.959,52.292,249.442,75.723
		c47.846,27.693,98.223,61.95,111.358,100.222c3.72,10.839,5.208,24.2,15.59,51.225c9.186,23.91,15.411,32.688,11.136,42.316
		c-6.32,14.234-29.538,16.698-40.089,17.817c-26.546,2.817-47.37-5.908-64.588-13.363c-30.565-13.235-48.975-21.206-60.133-40.089
		C1013.281,639.071,1033.395,596.043,1020.264,591.094z"/>
	<path style="fill:#FCEE21;" d="M1104.896,526.506c-7.731-13.41-9.491-24.932-6.682-97.995c2.876-74.782,6.164-100.264,8.909-118.04
		c4.965-32.15,12.119-64.765,35.635-91.314c11.28-12.734,19.618-16.502,26.726-15.59c6.317,0.81,13.732,5.582,26.726,31.18
		c10.615,20.911,11.199,28.626,20.044,51.225c8.899,22.735,26.941,68.831,44.543,84.632c0.943,0.846,3.502,3.058,4.454,6.681
		c1.932,7.352-4.331,14.501-17.817,28.953c-13.587,14.561-26.187,30.036-40.004,44.379c-3.484,3.617-7.623,7.869-6.767,9.073
		c1.378,1.94,13.813-6.682,31.18-13.363c12.514-4.814,30.149-11.598,51.225-8.909c21.036,2.684,35.184,13.489,37.862,15.59
		c22.783,17.883,27.616,43.497,28.953,51.225c4.149,23.982-3.112,42.213-11.136,62.361c-11.425,28.688-21.251,53.361-44.543,60.133
		c-5.584,1.624-12.769,2.149-55.679-15.59c-34.527-14.273-51.791-21.41-71.269-33.407
		C1133.32,556.829,1116.352,546.378,1104.896,526.506z"/>
</g>
<g>
	<path style="fill:#2E3192;" d="M316.053,583.801c-2.863,0.028-5.587-2.472-6.696-5.022c-2.271-5.221,1.854-11.495,6.696-18.414
		c7.867-11.242,11.801-16.863,20.088-26.784c18.827-22.54,15.141-25.382,30.132-40.176c6.991-6.899,20.088-18.414,20.088-18.414
		c0.012-0.057,0.44-3.621,1.674-6.696c0.923-2.299,1.611-4.013,3.348-5.022c2.554-1.483,5.582-0.399,6.696,0
		c0.265,0.095,6.154,2.289,6.696,6.696c0.395,3.21-2.265,5.819-6.696,10.044c-4.253,4.056-8.007,6.462-8.37,6.696
		c-5.68,3.655-8.435,7.703-18.414,21.762c-6.812,9.598-13.701,19.227-16.74,23.436c-20.033,27.746-19.452,23.126-25.11,33.48
		C323.958,575.428,321.239,583.749,316.053,583.801z"/>
	<path style="fill:#298DE2;" d="M308.114,554.72c-32.637,17.446-62.175,16.914-68.397,16.705c-17.331-0.583-35.682-1.201-51-13.888
		c-27.433-22.721-22.596-65.485-20.713-82.126c1.937-17.129,3.96-35.012,16.852-45.742c13.147-10.942,22.739-18.926,33.466-20.997
		c1.116-0.216,4.251-0.755,5.258-2.964c2.027-4.45-6.944-10.489-10.436-17.568c-4.957-10.046,2.145-20.111,11.469-41.109
		c9.959-22.426,28.181-63.46,19.975-87.475c-0.521-1.525-1.703-4.604-1.045-8.472c2.001-11.756,19.365-21.167,31.797-21.122
		c20.022,0.071,34.245,24.694,49.796,52.408c21.664,38.61,32.039,73.717,37.952,98.524c12.58,52.773,18.87,79.16,8.824,106.417
		C356.624,528.79,318.829,548.993,308.114,554.72z"/>
	<path style="fill:#29ABE2;" d="M360.733,526.864c5.349-10.036,16.787-29.443,42.369-54.727
		c30.301-29.948,45.649-33.748,120.046-79.443c55.704-34.213,82.59-53.88,95.331-44.135c5.577,4.266,8.011,13.837,7.062,21.185
		c-1.688,13.065-14.347,21.22-19.419,24.715c-52.179,35.952-48.004,93.063-91.8,104.158c-7.899,2.001-25.996,4.694-31.777,17.654
		c-1.718,3.852-1.715,7.19-1.765,8.827c-0.587,18.899-15.522,39.984-24.715,52.962c-10.85,15.317-37.404,52.805-81.208,63.554
		c-20.97,5.146-28.146-0.191-30.012-1.765c-4.433-3.741-8.516-11.249-5.296-38.839C341.93,580.597,344.687,556.968,360.733,526.864z
		"/>
</g>
</svg>
