<?xml version="1.0" encoding="iso-8859-1"?>
<!-- Generator: Adobe Illustrator 27.2.0, SVG Export Plug-In . SVG Version: 6.00 Build 0)  -->
<svg version="1.1" id="Calque_1" xmlns="http://www.w3.org/2000/svg" xmlns:xlink="http://www.w3.org/1999/xlink" x="0px" y="0px"
	 viewBox="0 0 1400 1400" style="enable-background:new 0 0 1400 1400;" xml:space="preserve">
<image style="display:none;overflow:visible;" width="420" height="366" xlink:href="Capture d&#x2019;e&#x301;cran 2025-06-20 a&#x300; 16.15.32.png"  transform="matrix(2.5929 0 0 2.5929 203 273)">
</image>
<circle style="opacity:0.26;fill:#00FFFF;stroke:#1D1D1B;stroke-linecap:round;stroke-miterlimit:10;" cx="704.056" cy="697.056" r="689.444"/>
<polygon style="fill:#FFE458;stroke:#000000;stroke-miterlimit:10;" points="398.226,442.316 347.841,413.525 308.253,421.922 
	257.867,383.534 164.295,400.329 181.09,431.519 147.5,425.521 175.092,447.115 147.5,461.71 184.689,501.099 298.655,533.489 
	321.449,612.666 398.226,448.962 "/>
<polygon style="fill:#4E8494;stroke:#000000;stroke-miterlimit:10;" points="413.822,450.714 335.845,622.263 401.825,696.641 
	584.171,529.89 "/>
<polygon style="fill:#F07F2C;stroke:#000000;stroke-miterlimit:10;" points="398.226,720.796 389.829,807.009 584.171,795.876 
	598.567,544.286 "/>
<polygon style="fill:#C5D7EA;stroke:#000000;stroke-miterlimit:10;" points="608.164,557.482 608.164,799.141 693.339,799.141 
	747.323,639.058 "/>
<polygon style="fill:#D20A11;stroke:#000000;stroke-miterlimit:10;" points="363.436,311.555 389.829,409.052 598.567,518.408 
	564.977,288.761 512.193,334.348 "/>
<polygon style="fill:#F1CD3A;stroke:#000000;stroke-miterlimit:10;" points="575.774,273.166 608.164,201.767 618.961,180.793 
	670.546,162.799 784.867,288.761 608.164,502.875 "/>
<polygon style="fill:#E84E0F;stroke:#000000;stroke-miterlimit:10;" points="821.701,274.366 614.163,523.892 768.917,628.261 
	869.687,318.753 "/>
<polygon style="fill:#BD2F56;stroke:#000000;stroke-miterlimit:10;" points="886.138,332.837 784.867,628.261 947.503,612.666 
	1020.843,527.491 1020.843,448.235 1055.633,378.735 "/>
<polygon style="fill:#5A8BBA;stroke:#000000;stroke-miterlimit:10;" points="762.919,655.853 941.552,628.261 929.304,665.442 
	977.274,665.442 1012.445,775.818 974.212,799.141 813.974,799.141 "/>
<polygon style="fill:#DEBB97;stroke:#000000;stroke-miterlimit:10;" points="754.778,665.442 701.706,799.141 804.788,799.141 "/>
<polygon style="fill:#9AB7CA;stroke:#000000;stroke-miterlimit:10;" points="389.829,827.892 636.356,820.748 494.198,1058.553 "/>
<polygon style="fill:#FFD153;stroke:#000000;stroke-miterlimit:10;" points="389.829,848.304 473.086,1058.553 380.231,1032.542 
	335.845,997.315 374.233,935.371 "/>
<polygon style="fill:#E30613;stroke:#000000;stroke-miterlimit:10;" points="654.757,820.748 784.867,820.748 779.714,973.76 
	602.166,917.376 "/>
<polygon style="fill:#0085AC;stroke:#000000;stroke-miterlimit:10;" points="527.788,1039.74 598.567,930.975 769.067,985.358 
	701.706,1030.996 701.706,1102.439 660.881,1102.439 "/>
<polygon style="fill:#FFE400;stroke:#000000;stroke-miterlimit:10;" points="798.908,979.758 810.912,820.748 984.418,820.748 "/>
<polygon style="fill:#889B77;stroke:#000000;stroke-miterlimit:10;" points="817.036,979.758 988.452,829.802 1006.447,837 
	992.051,865.792 999.249,886.185 1023.202,897.254 1050.759,897.254 1050.759,953.429 945.265,1026.544 "/>
<polygon style="fill:#CE9FB5;stroke:#000000;stroke-miterlimit:10;" points="1140.807,995.353 1088.521,1058.553 1101.79,1102.439 
	1132.41,1145.309 1145.606,1176.5 1166,1128.514 1166,1077.944 "/>
</svg>
