<?xml version="1.0" encoding="iso-8859-1"?>
<!-- Generator: Adobe Illustrator 27.2.0, SVG Export Plug-In . SVG Version: 6.00 Build 0)  -->
<svg version="1.1" id="Calque_1" xmlns="http://www.w3.org/2000/svg" xmlns:xlink="http://www.w3.org/1999/xlink" x="0px" y="0px"
	 viewBox="0 0 1400 1400" style="enable-background:new 0 0 1400 1400;" xml:space="preserve">
<g>
	<defs>
		<ellipse id="SVGID_1_" cx="704" cy="669.525" rx="686" ry="657.525"/>
	</defs>
	<clipPath id="SVGID_00000165936684682638287740000002181093160678240694_">
		<use xlink:href="#SVGID_1_"  style="overflow:visible;"/>
	</clipPath>
	<g style="clip-path:url(#SVGID_00000165936684682638287740000002181093160678240694_);">
		<defs>
			<ellipse id="SVGID_00000034077035424728152290000004735917768427852418_" cx="664.8" cy="621.385" rx="620.144" ry="590.225"/>
		</defs>
		<use xlink:href="#SVGID_00000034077035424728152290000004735917768427852418_"  style="overflow:visible;fill:#FFE600;"/>
		<clipPath id="SVGID_00000050621846960579677040000018060216905021535116_">
			<use xlink:href="#SVGID_00000034077035424728152290000004735917768427852418_"  style="overflow:visible;"/>
		</clipPath>
		<g style="display:none;clip-path:url(#SVGID_00000050621846960579677040000018060216905021535116_);">
			
				<image style="display:inline;overflow:visible;" width="1046" height="1046" xlink:href="../Documents/MUN/Illustrations MUN/Capture d&#x2019;e&#x301;cran 2025-04-05 a&#x300; 15.09.25.png"  transform="matrix(1.2879 0 0 1.2879 147.9417 -16.1165)">
			</image>
		</g>
	</g>
	
		<circle style="opacity:0.27;clip-path:url(#SVGID_00000165936684682638287740000002181093160678240694_);fill:#FF00FF;" cx="707.287" cy="699.571" r="689.207"/>
	<path style="opacity:0.58;clip-path:url(#SVGID_00000165936684682638287740000002181093160678240694_);fill:#0000FF;" d="
		M-61.327,647.554l289.244-394.881c13.11-17.898,39.011-20.087,54.94-4.644l535.246,518.956
		c23.29,22.581,7.817,62.055-24.615,62.794l-921.156,20.988c-29.569,0.674-47.657-32.217-31.25-56.826L-61.327,647.554z"/>
	<path style="opacity:0.58;clip-path:url(#SVGID_00000165936684682638287740000002181093160678240694_);fill:#0000FF;" d="
		M360.136,555.449l136.045-196.493c14.327-20.693,43.508-24.233,62.368-7.568l222.362,196.493
		c28.997,25.623,10.873,73.503-27.823,73.503H394.681C360.787,621.385,340.842,583.316,360.136,555.449z"/>
	<path style="opacity:0.58;clip-path:url(#SVGID_00000165936684682638287740000002181093160678240694_);fill:#0000FF;" d="
		M542.422,572.876l194.242-294.598c18.156-27.536,58.07-28.881,78.039-2.631l216.905,285.141
		c22.917,30.126,3.441,73.674-34.291,76.676l-411.146,32.714c-27.838,2.215-51.65-19.778-51.65-47.703v-23.257
		C534.519,589.853,537.267,580.694,542.422,572.876z"/>
	<path style="opacity:0.58;clip-path:url(#SVGID_00000165936684682638287740000002181093160678240694_);fill:#0000FF;" d="
		M926.323,505.971l170.516-164.233c38.944-37.509,101.604-33.826,135.886,7.987l135.514,165.286
		c45.312,55.266,13.617,138.854-56.946,150.183l-277.667,44.579c-36.85,5.916-73.65-10.861-93.352-42.558l-28.363-45.633
		C888.843,584.47,894.85,536.285,926.323,505.971z"/>
	<path style="clip-path:url(#SVGID_00000165936684682638287740000002181093160678240694_);fill:#0000FF;" d="M-58.67,660.649
		l290.692-396.857c13.176-17.988,39.206-20.188,55.215-4.667l537.926,521.554c23.407,22.695,7.856,62.366-24.738,63.109
		l-925.768,21.093c-29.717,0.677-47.895-32.378-31.407-57.111L-58.67,660.649z"/>
	<path style="clip-path:url(#SVGID_00000165936684682638287740000002181093160678240694_);fill:#0000FF;" d="M367.252,563.439
		l136.045-196.493c14.327-20.693,43.508-24.233,62.368-7.568l222.362,196.493c28.997,25.623,10.873,73.503-27.823,73.503H401.798
		C367.903,629.374,347.958,591.306,367.252,563.439z"/>
	<path style="clip-path:url(#SVGID_00000165936684682638287740000002181093160678240694_);fill:#0000FF;" d="M556.118,590.767
		L750.36,296.169c18.156-27.536,58.07-28.881,78.039-2.631l216.905,285.141c22.917,30.126,3.441,73.674-34.291,76.676
		l-411.146,32.714c-27.838,2.215-51.65-19.778-51.65-47.703v-23.257C548.216,607.744,550.963,598.585,556.118,590.767z"/>
	<path style="clip-path:url(#SVGID_00000165936684682638287740000002181093160678240694_);fill:#0000FF;" d="M935.722,514.732
		l170.516-164.233c38.944-37.509,101.604-33.826,135.886,7.987l135.514,165.286c45.312,55.266,13.617,138.854-56.946,150.183
		l-277.667,44.58c-36.85,5.916-73.65-10.861-93.352-42.558l-28.363-45.633C898.242,593.231,904.249,545.045,935.722,514.732z"/>
	
		<ellipse style="clip-path:url(#SVGID_00000165936684682638287740000002181093160678240694_);fill:#009245;" cx="181.46" cy="727.53" rx="335.94" ry="269.358"/>
	
		<ellipse style="clip-path:url(#SVGID_00000165936684682638287740000002181093160678240694_);fill:#007844;" cx="198.619" cy="749.654" rx="335.94" ry="269.358"/>
	
		<ellipse transform="matrix(0.9892 -0.1466 0.1466 0.9892 -91.9072 158.1391)" style="opacity:0.99;clip-path:url(#SVGID_00000165936684682638287740000002181093160678240694_);fill:#009245;" cx="1026.792" cy="702.527" rx="521.564" ry="196.311"/>
	
		<ellipse transform="matrix(0.9892 -0.1466 0.1466 0.9892 -92.7672 162.3234)" style="opacity:0.99;clip-path:url(#SVGID_00000165936684682638287740000002181093160678240694_);fill:#008145;" cx="1054.747" cy="710.453" rx="521.564" ry="196.311"/>
	<path style="opacity:0.87;clip-path:url(#SVGID_00000165936684682638287740000002181093160678240694_);fill:#99EAA3;" d="
		M-155.948,780.982C-110.4,667.223,35.174,610.454,66.08,599.179c154.896-56.51,308.727-20.69,520.377,31.247
		c278,68.219,287.965,126.931,457.932,130.67c198.26,4.362,252.349-74.037,385.079-36.929
		c138.522,38.728,255.556,173.309,235.904,289.748c-22.364,132.511-214.485,198.469-405.894,264.182
		c-270.558,92.886-594.973,204.262-929.741,82.379C40.245,1255.078-236.69,982.638-155.948,780.982z"/>
	<path style="clip-path:url(#SVGID_00000165936684682638287740000002181093160678240694_);fill:#5EA66A;" d="M-156.215,794.089
		C-110.667,680.33,34.907,623.561,65.812,612.286c154.896-56.51,308.727-20.69,520.377,31.247
		c278,68.219,287.965,126.931,457.932,130.671c198.26,4.362,252.349-74.037,385.079-36.929
		c138.522,38.728,255.556,173.309,235.904,289.748c-22.364,132.511-214.485,198.469-405.894,264.182
		c-270.559,92.886-594.974,204.262-929.741,82.379C39.977,1268.185-236.958,995.745-156.215,794.089z"/>
	<path style="opacity:0.8;clip-path:url(#SVGID_00000165936684682638287740000002181093160678240694_);fill:#FFFFFF;" d="
		M857.229,956.624c0,0.001,5.22,426.786,5.22,426.787l0,0c-0.002-0.033-183.113,24.5-189.214,0c-0.291-1.169-0.095-2.111,0-2.618
		c2.697-14.416,4.519-110.074,4.031-367.295c-0.062-32.447,5.713-64.649,17.044-95.039c16.899-45.318,33.797-90.636,50.696-135.954
		c0.87-79.859,1.74-159.718,2.61-239.576c-4.14-0.195-6.598-1.679-7.83-2.618c-7.629-5.82-7.224-20.502-1.305-26.183
		c1.76-1.689,2.916-1.536,5.22-3.927c3.882-4.031,4.094-8.096,5.22-10.473c0,0,4.09-8.633,53.502-5.237
		c-0.073,1.457,0.074,3.486,1.305,5.237c1.004,1.428,1.746,1.274,2.61,2.618c1.586,2.469,0.031,4.462,1.305,6.546
		c1.102,1.803,2.966,1.456,5.22,2.618c5.309,2.738,6.357,10.536,6.525,11.782c0.658,4.892-0.61,12.059-5.22,15.71
		c-1.993,1.579-4.806,2.648-5.22,5.237c-0.206,1.293,0.019,5.237,0,3.927l0,0c0,0.001-1.305,233.03-1.305,233.031l0,0
		c-8.602-20.552,17.254,41.083,26.098,61.531C842.833,863.748,857.229,955.315,857.229,956.624"/>
	<path style="opacity:0.81;clip-path:url(#SVGID_00000165936684682638287740000002181093160678240694_);fill:#FFFFFF;" d="
		M704.73,955.197c0,0.001,5.924,377.751,5.924,377.751l0,0c-0.002-0.029-207.819,21.685-214.743,0c-0.33-1.035-0.108-1.868,0-2.318
		c3.061-12.76,5.129-97.427,4.574-325.095c-0.07-28.719,6.483-57.221,19.344-84.119c19.179-40.111,38.357-80.222,57.536-120.333
		c0.987-70.684,1.975-141.367,2.962-212.051c-4.698-0.172-7.488-1.486-8.886-2.318c-8.659-5.151-8.199-18.147-1.481-23.175
		c1.997-1.495,3.31-1.359,5.924-3.476c4.406-3.568,4.646-7.166,5.924-9.27c0,0,4.642-7.641,60.72-4.635
		c-0.083,1.289,0.084,3.085,1.481,4.635c1.139,1.264,1.982,1.127,2.962,2.318c1.8,2.185,0.035,3.949,1.481,5.794
		c1.251,1.596,3.366,1.289,5.924,2.318c6.025,2.423,7.215,9.325,7.405,10.429c0.746,4.33-0.693,10.673-5.924,13.905
		c-2.262,1.398-5.455,2.344-5.924,4.635c-0.234,1.144,0.021,4.635,0,3.476l0,0c0,0.001-1.481,206.256-1.481,206.257l0,0
		c-9.763-18.19,19.581,36.363,29.62,54.461C688.393,872.992,704.73,954.038,704.73,955.197"/>
	<path style="opacity:0.8;clip-path:url(#SVGID_00000165936684682638287740000002181093160678240694_);fill:#FF0000;" d="
		M734.162,979.695c0,0.001,7.619,400.816,7.619,400.817l0,0c-0.002-0.031-267.275,23.009-276.18,0c-0.425-1.098-0.139-1.982,0-2.459
		c3.936-13.539,6.596-103.376,5.883-344.945c-0.09-30.472,8.338-60.715,24.878-89.255c24.665-42.56,49.331-85.121,73.996-127.681
		c1.27-74.999,2.54-149.999,3.809-224.998c-6.042-0.183-9.63-1.577-11.428-2.459c-11.136-5.465-10.545-19.255-1.905-24.59
		c2.568-1.586,4.257-1.443,7.619-3.688c5.667-3.786,5.975-7.604,7.619-9.836c0,0,5.97-8.108,78.092-4.918
		c-0.107,1.368,0.108,3.274,1.905,4.918c1.465,1.341,2.549,1.196,3.809,2.459c2.314,2.318,0.045,4.19,1.905,6.148
		c1.609,1.693,4.329,1.367,7.619,2.459c7.749,2.571,9.279,9.895,9.523,11.065c0.96,4.594-0.891,11.325-7.619,14.754
		c-2.91,1.483-7.015,2.487-7.619,4.918c-0.301,1.214,0.027,4.918,0,3.688l0,0c0,0.001-1.905,218.85-1.905,218.851l0,0
		c-12.556-19.301,25.184,38.583,38.094,57.786C713.15,892.471,734.162,978.466,734.162,979.695"/>
	<path style="opacity:0.72;clip-path:url(#SVGID_00000165936684682638287740000002181093160678240694_);fill:#FFFF00;" d="
		M868.087,953.064c0,0.001,6.041,426.786,6.041,426.787l0,0c-0.002-0.033-211.927,24.5-218.987,0c-0.337-1.169-0.11-2.111,0-2.618
		c3.121-14.416,5.23-110.074,4.665-367.295c-0.071-32.447,6.611-64.649,19.727-95.039c19.558-45.318,39.115-90.636,58.673-135.954
		c1.007-79.859,2.014-159.718,3.021-239.576c-4.791-0.195-7.636-1.679-9.062-2.618c-8.83-5.82-8.361-20.502-1.51-26.183
		c2.036-1.689,3.375-1.536,6.041-3.927c4.493-4.031,4.738-8.096,6.041-10.473c0,0,4.734-8.633,61.921-5.237
		c-0.085,1.457,0.086,3.486,1.51,5.237c1.162,1.428,2.021,1.274,3.021,2.618c1.835,2.469,0.036,4.462,1.51,6.546
		c1.276,1.803,3.433,1.456,6.041,2.618c6.144,2.738,7.357,10.536,7.551,11.782c0.761,4.892-0.706,12.059-6.041,15.71
		c-2.307,1.579-5.563,2.648-6.041,5.237c-0.239,1.293,0.022,5.237,0,3.927l0,0c0,0.001-1.51,233.03-1.51,233.031l0,0
		c-9.956-20.552,19.969,41.083,30.205,61.531C851.426,860.188,868.087,951.755,868.087,953.064"/>
</g>
</svg>
