<?xml version="1.0" encoding="iso-8859-1"?>
<!-- Generator: Adobe Illustrator 27.2.0, SVG Export Plug-In . SVG Version: 6.00 Build 0)  -->
<svg version="1.1" id="Calque_1" xmlns="http://www.w3.org/2000/svg" xmlns:xlink="http://www.w3.org/1999/xlink" x="0px" y="0px"
	 viewBox="0 0 1400 1400" style="enable-background:new 0 0 1400 1400;" xml:space="preserve">
<circle style="fill:#00FFFF;" cx="697" cy="703.128" r="682"/>
<ellipse style="fill:#F0836E;" cx="734.709" cy="1141.178" rx="115.759" ry="83.575"/>
<ellipse style="fill:#B4252D;" cx="733.869" cy="1114.781" rx="39.31" ry="25.909"/>
<g>
	<path style="fill:#FBE8F4;stroke:#000000;stroke-miterlimit:10;" d="M586.221,690.008c0.568,2.508-3.219,3.71-6.012,12.024
		c-2.398,7.139-0.707,9.531-3.607,14.429c-2.744,4.634-6.87,6.904-9.619,8.417c-2.919,1.606-8.973,4.937-15.631,3.607
		c-5.003-0.999-8.143-4.19-12.024-8.417c-14.192-15.456-21.288-23.184-20.441-26.453
		C522.608,679.252,584.016,680.269,586.221,690.008z"/>
	<path style="fill:#FFE8F1;stroke:#000000;stroke-width:0.75;stroke-miterlimit:10;" d="M606.662,662.352
		c-3.599-2.875-5.772-1.636-12.024-4.81c-3.576-1.815-3.689-2.639-7.214-4.81c-6.382-3.929-12.314-5.111-16.834-6.012
		c-8.955-1.784-13.821-2.754-18.036,0c-2.972,1.942-3.108,4.094-6.012,4.81c-3.685,0.908-6.077-1.914-10.822-3.607
		c-0.656-0.234-9.374-3.234-15.631,0c-8.714,4.503-7.177,18.261-15.631,20.441c-2.025,0.522-3.194,0.012-4.81,1.202
		c-3.517,2.593-3.507,9.09-2.405,13.226c2.155,8.089,10.725,15.553,19.238,15.631c6.901,0.064,10.45-4.756,15.631-2.405
		c2.88,1.307,2.465,3.105,6.012,6.012c0.38,0.311,7.755,6.195,15.631,4.81c6.706-1.179,6.138-6.284,15.631-9.619
		c4.013-1.41,8.633-2.085,10.822-2.405c5.867-0.857,6.443-0.229,9.619-1.202c1.745-0.535,7.385-2.264,10.822-7.214
		c2.909-4.189,1.521-6.768,4.81-9.619c2.8-2.427,4.986-1.58,6.012-3.607C612.928,670.297,610.239,665.21,606.662,662.352z"/>
	<path style="fill:#ABB662;stroke:#1D1D1B;stroke-width:0.75;stroke-miterlimit:10;" d="M625.299,837.302
		c0-11.06-13.226-24.048-13.226-24.048c-12.053-11.837-15.531-10.565-28.858-22.846c-10.314-9.505-13.496-15.118-14.429-16.834
		c-2.576-4.736-8.315-15.286-4.81-25.25c2.044-5.811,4.594-3.922,8.417-12.024c0,0,4.874-10.332,3.779-21.397
		c-0.006-0.06-0.054-0.419-0.111-0.991c-0.041-0.408-0.039-0.453-0.061-0.458c-0.198-0.049-0.308,3.661-2.405,6.012
		c-1.995,2.236-3.931,1.16-6.012,3.607c-1.541,1.812-1.38,3.463-2.405,3.607c-0.974,0.137-1.38-1.318-3.607-3.607
		c-2.61-2.683-4.322-3.017-4.81-4.81c-0.122-0.449-0.402-1.853-0.082-3.302c0.02-0.089,0.068-0.308,0.082-0.305
		c0.058,0.01-0.507,3.666-1.202,7.214c-1.279,6.532-1.896,7.07-2.405,7.214c-0.748,0.212-1.491-0.365-3.607-2.405
		c-6.258-6.034-9.387-9.052-11.213-11.298c-0.175-0.215-0.656-0.812-0.811-0.726c-0.269,0.149,0.659,2.25,1.202,3.607
		c1.404,3.505,1.624,5.492,2.405,8.417c1.94,7.266,3.248,12.168,7.214,15.631c2.658,2.321,4.493,2.235,8.417,6.012
		c1.954,1.881,2.938,3.288,3.607,4.81c0.921,2.095,0.802,3.398,1.202,6.012c0.412,2.693,1.076,4.601,2.405,8.417
		c0.233,0.67,2.093,5.952,4.81,10.822c0.882,1.581,5.217,9.147,14.429,16.834c10.87,9.071,14.266,6.407,21.643,14.429
		c5.862,6.374,9.619,14.429,9.619,14.429c1.678,3.597,4.325,7.608,9.619,15.631c0.062,0.095,0.893,1.34,1.202,1.202
		c0.212-0.094,0.039-0.771,0-2.405C625.283,837.834,625.299,837.384,625.299,837.302z"/>
	<g>
		<path style="fill:#1D1D1B;" d="M562.173,752.533c0.975-6.39,2.109-13.391,2.191-19.824c0.174-2.224,0.54-4.414,0.213-6.629
			c0.638,2.163,0.415,4.465,0.363,6.661C565.114,739.445,563.978,746.093,562.173,752.533L562.173,752.533z"/>
	</g>
	<g>
		<path style="fill:#1D1D1B;" d="M559.768,752.533c-2.381-3.518-3.798-7.582-5.146-11.585c-1.012-4.07-2.702-8.216-2.069-12.464
			c-0.029,4.232,1.714,8.216,2.784,12.242C556.604,744.729,557.927,748.75,559.768,752.533L559.768,752.533z"/>
	</g>
	<path style="fill:none;stroke:#1D1D1B;stroke-width:0.5;stroke-miterlimit:10;" d="M557.363,705.639
		c-0.131-3.153-0.561-10.323,0.601-15.03c1.974-7.995,5.847-13.662,8.417-16.834"/>
	<path style="fill:none;stroke:#1D1D1B;stroke-width:0.5;stroke-miterlimit:10;" d="M553.756,706.841
		c-0.677-4.466-2.317-15.532-1.202-22.846c0.811-5.317,2.227-9.778,3.607-13.226"/>
	<path style="fill:none;stroke:#1D1D1B;stroke-width:0.5;stroke-miterlimit:10;" d="M548.947,706.841
		c-0.938-4.825-1.769-14.856-2.405-20.441c-0.681-5.984-1.049-11.617-1.202-16.834"/>
	<path style="fill:none;stroke:#1D1D1B;stroke-width:0.5;stroke-miterlimit:10;" d="M548.947,706.841
		c-2.405-6.012-7.214-16.834-9.619-22.846c-1.603-4.008-3.206-8.016-4.81-12.024"/>
	<g>
		<path style="fill:#1D1D1B;" d="M566.983,698.424c4.964-15.648,14.588-29.642,26.453-40.882
			C582.066,669.258,572.577,683.022,566.983,698.424L566.983,698.424z"/>
	</g>
	<g>
		<path style="fill:#1D1D1B;" d="M560.971,702.032c-2.365-6.767-3.443-14.266-1.421-21.282c1.786-6.997,5.181-13.446,8.068-20.025
			c0.991-2.185,2.052-4.344,3.179-6.462c1.131-2.117,2.35-4.183,3.401-6.339c-4.286,8.58-8.279,17.292-11.953,26.149
			C558.234,683.632,557.815,692.137,560.971,702.032L560.971,702.032z"/>
	</g>
	<g>
		<path style="fill:#1D1D1B;" d="M551.351,706.841c-1.643-18.118-3.048-37.141-3.607-55.311
			C548.973,669.588,550.367,688.756,551.351,706.841L551.351,706.841z"/>
	</g>
	<g>
		<path style="fill:#1D1D1B;" d="M538.125,702.032c-2.518-8.574-4.408-17.311-7.75-25.625c-2.982-8.388-6.988-16.615-13.893-22.471
			c7.236,5.638,11.306,13.848,14.361,22.296C534.156,684.572,535.979,693.351,538.125,702.032L538.125,702.032z"/>
	</g>
	<g>
		<path style="fill:#1D1D1B;" d="M535.72,699.627c-7.683-12.021-16.879-23.093-27.655-32.465
			C519.308,676.002,528.583,687.264,535.72,699.627L535.72,699.627z"/>
	</g>
	
		<ellipse transform="matrix(0.5592 -0.829 0.829 0.5592 -306.2247 767.7473)" style="fill:#E7E463;" cx="568.9" cy="671.856" rx="4.838" ry="2.221"/>
	
		<ellipse transform="matrix(0.4053 -0.9142 0.9142 0.4053 -278.6808 906.9807)" style="fill:#E7E463;" cx="557.797" cy="667.694" rx="4.838" ry="2.221"/>
	<ellipse style="fill:#F2E770;" cx="544.941" cy="668.647" rx="2.221" ry="4.838"/>
	<path style="fill:#F7F46F;" d="M531.953,673.151c1.006,2.475,2.743,4.108,3.879,3.646c1.136-0.462,1.242-2.843,0.235-5.318
		c-1.006-2.475-2.743-4.108-3.879-3.646C531.052,668.295,530.947,670.676,531.953,673.151z"/>
</g>
<g>
	<g>
		<path style="fill:#ABB470;stroke:#000000;stroke-miterlimit:10;" d="M647.209,859.608c2.803-7.098,7.348-5.264,20.853-18.699
			c13.265-13.196,11.935-18.006,21.779-24.288c10.896-6.953,19.899-5.767,21.133-10.43c1.028-3.886-4.265-8.339-8.17-10.49
			c-15.506-8.54-38.93,2.801-46.934,6.676c-11.547,5.591-12.526,8.534-19.765,9.645c-9.814,1.507-16.028-2.673-28.215-9.113
			c-22.297-11.784-33.881-17.906-48.379-19.47c-14.486-1.562-11.159,3.662-32.805,3.634c-5.695-0.007-34.548-0.406-53.454,3.671
			c-1.433,0.309-4.6,1.031-5.475,3.139c-0.363,0.875-0.355,2.276,3.367,7.011c3.537,4.499,5.331,5.509,9.793,10.734
			c1.385,1.622,2.597,3.133,3.249,3.969c1.995,2.56,3.133,4.282,4.92,6.521c32.763,41.029,64.234,50.843,64.234,50.843
			c25.1,7.827,37.149-1.107,55.384,12.082c5.738,4.15,13.352,9.658,17.708,20.195c3.958,9.576,1.698,14.773,6.92,23.008
			c5.946,9.376,16.674,14.931,19.399,12.481c1.571-1.412-0.395-4.984-1.488-10.949c-2.551-13.92,3.478-19.761,4.19-32.749
			C656.592,876.326,642.328,871.97,647.209,859.608z"/>
	</g>
	<path style="fill:#697039;" d="M469.368,795.501c-0.516,1.023,16.655,10.078,31.836,17.153
		c19.854,9.253,37.249,15.56,54.296,21.136c34.57,11.307,62.162,17.793,92.091,24.756c24.649,5.735,59.328,13.192,59.328,13.193
		c0,0,3.382-1.939,3.383-1.939c0.656-0.345,0.711-0.353,0.723-0.415c0.254-1.22-19.119-4.212-19.119-4.212
		c-15.571-2.405-27.578-5.243-49.467-10.416c-12.63-2.985-9.821-2.976-51.881-15.776c-36.3-11.047-35.344-10.126-45.965-14.11
		c-15.294-5.737-18.905-8.256-44.435-18.359C486.528,801.115,469.863,794.52,469.368,795.501z"/>
	<path style="fill:#707933;" d="M545.962,824.084c-1.997-1.59-1.274-4.585-1.649-7.484c-0.836-6.454-6.886-10.691-13.925-15.62
		c-0.754-0.528-1.296-0.879-1.911-1.277c-9.325-6.033-18.172-9.045-18.253-9.08l0,0c0,0,19.173,5.21,29.864,16.597
		c3.498,3.726,4.854,6.799,6.197,9.935c0.464,1.082,2.818,6.577,1.649,7.484C547.454,825.012,546.501,824.513,545.962,824.084z"/>
	<path style="fill:#707933;" d="M581.3,835.134c-1.638-2.106-1.327-5.013-1.84-8.083c-1.142-6.832-6.061-12.614-11.783-19.342
		c-0.613-0.721-1.052-1.209-1.549-1.763c-7.542-8.402-14.484-13.586-14.548-13.641l0,0c0,0,14.94,9.88,23.939,24.108
		c2.945,4.656,4.214,8.134,5.479,11.675c0.437,1.221,2.654,7.426,1.84,8.083C582.503,836.44,581.742,835.702,581.3,835.134z"/>
	<path style="fill:#707933;" d="M608.815,849.608c-2.719,0.852-4.39,3.368-6.835,5.586c-5.443,4.937-13.25,7.057-22.334,9.524
		c-0.974,0.264-1.651,0.431-2.42,0.621c-11.664,2.875-20.712,3.457-20.801,3.468l0,0c0,0,18.63-0.219,35.328-7.052
		c5.464-2.236,8.792-4.391,12.158-6.599c1.161-0.762,7.061-4.631,6.835-5.586C610.653,849.178,609.549,849.378,608.815,849.608z"/>
	<path style="fill:#707933;" d="M639.987,859.86c-2.719,0.852-4.39,3.368-6.835,5.586c-5.443,4.937-13.25,7.057-22.334,9.524
		c-0.974,0.264-1.651,0.431-2.42,0.621c-11.664,2.875-20.712,3.457-20.801,3.468l0,0c0,0,18.63-0.219,35.328-7.052
		c5.464-2.236,8.792-4.391,12.158-6.599c1.161-0.762,7.061-4.631,6.835-5.586C641.825,859.429,640.721,859.63,639.987,859.86z"/>
	<path style="fill:#707933;" d="M579.915,840.249c-2.191,0.483-3.334,2.709-5.156,4.548c-4.056,4.094-10.379,5.167-17.736,6.416
		c-0.789,0.134-1.339,0.21-1.964,0.297c-9.477,1.32-16.997,0.748-17.07,0.748l0,0c0,0,15.584,2.124,28.873-2.395
		c4.349-1.479,6.917-3.147,9.511-4.861c0.895-0.591,5.442-3.595,5.156-4.548C581.411,840.062,580.507,840.118,579.915,840.249z"/>
	<path style="fill:#707933;" d="M541.04,829.302c-1.993-0.074-3.842,0.823-6.089,1.443c-5.002,1.38-10.622,1.013-17.162,0.586
		c-0.701-0.046-1.183-0.086-1.731-0.131c-8.306-0.687-14.233-1.999-14.293-2.009l0,0c0,0,11.897,3.165,24.638,2.862
		c4.169-0.099,6.957-0.535,9.785-0.988c0.976-0.156,5.933-0.951,6.089-1.443C542.342,829.421,541.578,829.322,541.04,829.302z"/>
	<path style="fill:#707933;" d="M613.444,846.158c-1.8-2.827-1.869-6.301-2.732-10.108c-1.922-8.475-7.258-16.307-13.466-25.419
		c-0.665-0.977-1.137-1.641-1.673-2.396c-8.125-11.445-15.285-18.886-15.352-18.964l0,0c0,0,15.253,14.468,25.47,33.222
		c3.343,6.137,4.967,10.566,6.595,15.07c0.562,1.554,3.415,9.448,2.732,10.108C614.737,847.942,613.93,846.92,613.444,846.158z"/>
	<path style="fill:#707933;" d="M642.785,853.325c-1.334-2.255-1.513-4.918-2.247-7.877c-1.632-6.585-5.568-12.852-10.146-20.143
		c-0.491-0.781-0.838-1.314-1.232-1.92c-5.974-9.174-11.138-15.235-11.187-15.298l0,0c0,0,10.948,11.851,18.626,26.727
		c2.512,4.868,3.788,8.341,5.069,11.872c0.442,1.218,2.687,7.406,2.247,7.877C643.734,854.757,643.145,853.934,642.785,853.325z"/>
	<path style="fill:#707933;" d="M646.509,859.124c-0.134,3.061-3.791,3.283-6.515,4.828c-6.063,3.439-5.865,12.497-5.633,23.036
		c0.025,1.13,0.073,1.93,0.127,2.839c0.823,13.777,4.417,25.836,4.442,25.949l0,0c0,0-9.158-25.644-5.46-43.105
		c1.21-5.714,3.369-8.534,5.603-11.364c0.771-0.976,4.686-5.935,6.515-4.828C646.339,856.934,646.545,858.297,646.509,859.124z"/>
	<path style="fill:#707933;" d="M649.354,857.354c2.922-2.509-1.308-4.652-3.069-7.346c-3.92-5.997,5.453-13.103,16.358-21.37
		c1.169-0.886,2.034-1.498,3.016-2.192c14.889-10.528,31.424-18.198,31.568-18.275l0,0c0,0-37.005,15.498-50.102,31.388
		c-4.286,5.2-4.499,8.606-4.63,12.06c-0.045,1.192-0.275,7.244,3.069,7.346C646.94,859.006,648.565,858.031,649.354,857.354z"/>
</g>
<g>
	<g>
		<path style="fill:#ABB470;" d="M899.468,722.411c3.971,4.638,0.76,7.512,4.877,22.629c4.044,14.848,8.073,15.495,8.535,25.291
			c0.511,10.843-4.08,17.389-1.219,19.967c2.384,2.148,7.799-0.393,10.973-2.662c12.605-9.012,14.115-31.067,14.631-38.602
			c0.744-10.872-0.978-12.654,1.219-18.636c2.979-8.11,8.578-11.459,18.288-18.636c17.766-13.131,26.997-19.954,34.139-30.616
			c7.136-10.653,1.978-9.9,10.973-26.622c2.366-4.399,14.617-26.563,19.508-42.596c0.371-1.215,1.162-3.915,0-5.324
			c-0.482-0.586-1.499-1.067-6.466,0.161c-4.72,1.167-6.194,2.203-11.823,3.832c-1.747,0.506-3.342,0.917-4.217,1.129
			c-2.678,0.65-4.396,0.93-6.756,1.533c-43.255,11.038-63.4,31.947-63.4,31.947c-16.067,16.676-14.602,29.1-31.7,38.602
			c-5.38,2.99-12.52,6.958-21.946,6.656c-8.566-0.275-11.387-3.832-19.508-2.662c-9.246,1.332-17.711,7.689-17.069,10.649
			c0.37,1.706,3.768,1.431,8.535,2.662c11.124,2.875,12.849,9.569,21.946,14.642C883.487,723.842,892.551,714.334,899.468,722.411z"
			/>
	</g>
	<path style="fill:#697039;" d="M1019.562,607.27c-0.526-0.755-14.193,9.365-25.604,18.636
		c-14.923,12.124-26.696,23.374-37.796,34.609c-22.51,22.784-38.641,41.853-56.085,62.562
		c-14.367,17.056-34.138,41.264-34.138,41.264c0,0,0,3.29,0,3.29c-0.023,0.627-0.039,0.672,0,0.704
		c0.777,0.621,10.973-13.311,10.973-13.311c8.195-11.198,15.226-19.491,28.042-34.609c7.395-8.723,6.224-6.555,32.919-34.609
		c23.039-24.212,21.977-23.793,29.262-30.616c10.49-9.824,13.809-11.738,31.7-27.953
		C1008.388,618.579,1020.066,607.994,1019.562,607.27z"/>
	<path style="fill:#707933;" d="M967.135,656.521c1.978-0.99,3.844,0.612,6.096,1.331c5.014,1.601,10.586-1.6,17.069-5.324
		c0.695-0.399,1.173-0.696,1.716-1.033c8.229-5.107,14.075-10.897,14.134-10.947l0,0c0,0-11.717,13.006-24.385,17.304
		c-4.145,1.407-6.929,1.384-9.754,1.331c-0.975-0.018-5.925-0.112-6.096-1.331C965.846,657.351,966.601,656.789,967.135,656.521z"/>
	<path style="fill:#707933;" d="M944.493,679.988c2.202-0.533,4.176,0.72,6.608,1.392c5.414,1.496,11.635-0.292,18.873-2.373
		c0.776-0.223,1.31-0.392,1.918-0.583c9.203-2.904,15.83-6.465,15.896-6.495l0,0c0,0-13.339,8.108-27.36,10.109
		c-4.588,0.655-7.63,0.425-10.715,0.17c-1.064-0.088-6.471-0.534-6.608-1.392C943.05,680.464,943.899,680.132,944.493,679.988z"/>
	<path style="fill:#707933;" d="M922.618,696.216c0.511-2.398-0.616-4.566-1.206-7.229c-1.313-5.926,0.39-12.699,2.372-20.579
		c0.212-0.845,0.373-1.426,0.554-2.087c2.757-10.017,6.088-17.213,6.116-17.286l0,0c0,0-7.566,14.477-9.547,29.762
		c-0.648,5.002-0.469,8.325-0.269,11.695c0.069,1.163,0.421,7.07,1.206,7.229C922.167,697.787,922.48,696.863,922.618,696.216z"/>
	<path style="fill:#707933;" d="M902.28,716.741c0.511-2.398-0.616-4.566-1.206-7.229c-1.313-5.926,0.39-12.699,2.372-20.579
		c0.212-0.845,0.373-1.427,0.554-2.087c2.757-10.017,6.088-17.213,6.116-17.286l0,0c0,0-7.566,14.477-9.547,29.762
		c-0.648,5.002-0.469,8.325-0.269,11.695c0.069,1.163,0.421,7.07,1.206,7.229C901.829,718.312,902.142,717.388,902.28,716.741z"/>
	<path style="fill:#707933;" d="M941.368,677.137c0.559-1.862-0.577-3.52-1.152-5.569c-1.279-4.561,0.566-9.822,2.714-15.943
		c0.23-0.656,0.403-1.108,0.599-1.622c2.975-7.785,6.506-13.399,6.536-13.455l0,0c0,0-7.997,11.306-10.239,23.152
		c-0.734,3.876-0.592,6.442-0.428,9.044c0.057,0.898,0.344,5.458,1.152,5.569C940.883,678.358,941.217,677.64,941.368,677.137z"/>
	<path style="fill:#707933;" d="M965.403,650.9c0.88-1.515,0.998-3.256,1.481-5.209c1.076-4.346,3.671-8.563,6.691-13.47
		c0.324-0.526,0.553-0.885,0.812-1.293c3.94-6.181,7.347-10.305,7.379-10.348l0,0c0,0-7.222,8.094-12.285,18.047
		c-1.657,3.257-2.498,5.564-3.343,7.908c-0.291,0.809-1.772,4.917-1.481,5.209C964.777,651.865,965.165,651.309,965.403,650.9z"/>
	<path style="fill:#707933;" d="M923.194,700.996c2.79-0.407,5.331,0.749,8.443,1.408c6.926,1.466,14.802,0.068,23.965-1.558
		c0.982-0.174,1.659-0.308,2.427-0.459c11.645-2.295,19.996-5.239,20.08-5.263l0,0c0,0-16.787,6.752-34.585,8.119
		c-5.824,0.447-9.701,0.16-13.633-0.15c-1.357-0.107-8.248-0.65-8.443-1.408C921.368,701.374,922.44,701.106,923.194,700.996z"/>
	<path style="fill:#707933;" d="M905.845,721.179c2.184-0.246,4.184,0.543,6.628,1.006c5.439,1.031,11.602,0.171,18.773-0.829
		c0.769-0.107,1.298-0.19,1.899-0.284c9.111-1.423,15.636-3.304,15.701-3.32l0,0c0,0-13.11,4.336-27.05,5.091
		c-4.562,0.247-7.602,0.024-10.687-0.216c-1.064-0.083-6.47-0.502-6.628-1.006C904.417,721.414,905.256,721.246,905.845,721.179z"/>
	<path style="fill:#707933;" d="M900.108,722.039c-2.158-1.169-0.803-4.073-0.791-6.717c0.027-5.884-6.606-8.885-14.323-12.375
		c-0.827-0.374-1.426-0.616-2.105-0.89c-10.304-4.161-20.516-5.582-20.607-5.602l0,0c0,0,22.342,1.851,33.436,10.788
		c3.63,2.925,4.775,5.576,5.895,8.288c0.386,0.936,2.35,5.688,0.791,6.717C901.762,722.67,900.69,722.355,900.108,722.039z"/>
	<path style="fill:#707933;" d="M900.208,724.854c0.603,3.133,3.906,0.609,6.585,0.185c5.962-0.942,7.215,8.777,8.672,20.085
		c0.156,1.212,0.24,2.094,0.335,3.094c1.44,15.174,0.132,30.626,0.128,30.764l0,0c0,0,4.135-34-1.927-49.656
		c-1.983-5.123-4.359-6.474-6.802-7.778c-0.843-0.45-5.125-2.735-6.585-0.185C900.014,722.413,900.045,724.009,900.208,724.854z"/>
</g>
<g>
	<g>
		<path style="fill:#ABB569;" d="M730.936,926.862c-1.16-0.457,0.776,0.441-0.32-0.146c-0.333-0.179-0.677-0.336-1.008-0.519
			c-0.551-0.305-1.087-0.635-1.607-0.99c-0.116-0.079-1.121-0.831-0.307-0.192c-0.198-0.156-0.393-0.317-0.586-0.48
			c-0.628-0.532-1.225-1.1-1.794-1.695c-0.484-0.508-0.924-1.048-1.384-1.577c0.548,0.63,0.111,0.154,0.002,0.002
			c-0.223-0.312-0.448-0.621-0.663-0.939c-0.821-1.217-1.545-2.498-2.171-3.826c-0.146-0.309-0.291-0.62-0.422-0.936
			c0.324,0.777-0.219-0.608-0.221-0.611c-0.262-0.709-0.501-1.426-0.72-2.15c-0.526-1.74-0.929-3.516-1.242-5.306
			c-0.052-0.299-0.102-0.599-0.149-0.899c-0.005-0.033-0.214-1.516-0.096-0.611c-0.098-0.755-0.178-1.512-0.25-2.27
			c-0.176-1.852-0.282-3.71-0.36-5.568c-0.303-7.28-0.373-14.542-2.093-21.668c-0.797-3.303-1.819-6.546-2.628-9.846
			c-0.385-1.57-0.693-3.149-0.963-4.742c-0.144-0.848,0.079,1.05-0.047-0.403c-0.036-0.42-0.083-0.839-0.109-1.26
			c-0.044-0.689-0.059-1.379-0.044-2.069c0.015-0.698,0.07-1.391,0.134-2.086c0.109-1.176-0.205,0.97,0.03-0.187
			c0.069-0.341,0.123-0.686,0.197-1.027c0.171-0.789,0.384-1.57,0.645-2.335c0.074-0.217,0.156-0.43,0.233-0.646
			c0.186-0.468,0.165-0.425-0.064,0.129c0.092-0.207,0.188-0.411,0.287-0.614c0.297-0.602,0.627-1.188,0.996-1.749
			c0.119-0.181,0.802-1.061,0.074-0.165c0.208-0.256,0.42-0.509,0.644-0.752c0.223-0.242,0.456-0.476,0.697-0.701
			c0.155-0.144,1.018-0.805,0.101-0.143c0.639-0.461,1.297-0.864,2.004-1.214c2.114-1.048,2.869-4.211,1.614-6.157
			c-1.395-2.163-3.896-2.736-6.157-1.614c-5.657,2.806-9.048,8.871-10.006,14.94c-1.162,7.363,0.803,14.392,2.744,21.448
			c0.45,1.637,0.887,3.279,1.251,4.939c0.201,0.916,0.38,1.837,0.531,2.763c-0.004-0.023,0.222,1.539,0.113,0.711
			c0.084,0.636,0.15,1.276,0.211,1.914c0.353,3.685,0.417,7.389,0.548,11.087c0.279,7.839,1.032,15.709,4.144,22.987
			c3.068,7.174,8.512,12.975,15.815,15.853c2.195,0.865,5.035-0.947,5.536-3.143C734.669,929.808,733.287,927.789,730.936,926.862
			L730.936,926.862z"/>
	</g>
</g>
<path style="fill:#D4524C;" d="M624.118,519.315c-7.764,33.902-20.638,90.501-30.858,137.626
	c-0.871,4.015-2.267,10.513-3.527,19.268c-0.567,3.937-7.534,54.309,1.763,85.328c14.754,49.222,78.296,75.836,123.432,80.74
	c6.446,0.7,73.936,6.955,125.195-40.37c9.616-8.878,33.139-30.595,39.674-65.143c3.893-20.581,0.149-37.208-1.763-45.875
	c-9.289-42.093-20.06-98.915-33.503-172.491"/>
<ellipse style="fill:#CC2639;" cx="731.636" cy="719.898" rx="145.624" ry="112.122"/>
<ellipse style="fill:#B4252D;" cx="731.636" cy="688.182" rx="132.223" ry="80.406"/>
<ellipse style="fill:#F0836E;" cx="734.633" cy="518.075" rx="110.465" ry="68.159"/>
<ellipse style="fill:#D4524C;" cx="732.083" cy="517.99" rx="104.974" ry="64.771"/>
<g>
	<g>
		<path style="fill:#ABB569;" d="M739.893,1001.798c1.192-4.17,2.933-7.582,4.999-11.441c1.895-3.539,3.144-7.138,3.303-11.182
			c0.217-5.523-1.032-11.245-2.739-16.469c-1.751-5.358-4.189-10.477-6.889-15.416c-3.188-5.833-6.63-11.533-9.976-17.276
			c-1.943-3.335-7.131-0.318-5.181,3.028c5.483,9.41,11.712,18.768,15.49,29.038c1.819,4.946,3.199,10.235,3.308,15.529
			c0.021,1.004-0.029,1.999-0.114,2.998c-0.082,0.964,0.06-0.311-0.029,0.238c-0.038,0.235-0.079,0.47-0.125,0.703
			c-0.089,0.446-0.194,0.889-0.317,1.326c-0.106,0.377-0.224,0.751-0.354,1.12c-0.062,0.178-0.464,1.191-0.207,0.587
			c-0.331,0.779-0.713,1.537-1.106,2.286c-2.283,4.345-4.489,8.58-5.847,13.332C733.044,1003.922,738.832,1005.51,739.893,1001.798
			L739.893,1001.798z"/>
	</g>
</g>
<g>
	<g>
		<path style="fill:#ABB569;" d="M742.393,1018.298c4.817-14.88,8.271-30.64,8.15-46.351c-0.046-5.915-0.613-11.962-2.288-17.656
			c-0.728-2.475-1.686-4.921-2.927-7.186c-1.655-3.021-3.846-5.788-5.955-8.5c-2.436-3.132-5.038-6.35-8.073-8.939
			c-4.529-3.864-10.479-6.36-14.016-11.242c-2.141-2.956-2.961-6.518-3.45-10.079c-0.539-3.92-0.905-7.869-1.375-11.798
			c-0.638-5.327-1.346-10.646-1.947-15.977c-0.358-3.174-0.398-6.113-0.089-9.306c0.059-0.609,0.125-1.216,0.198-1.824
			c0.096-0.805,0.103-0.859,0.246-1.796c0.244-1.598,0.535-3.189,0.873-4.77c0.768-3.601,1.773-7.15,2.992-10.624
			c0.675-1.922,1.411-3.823,2.224-5.691c0.646-1.484,0.438-3.219-1.076-4.105c-1.269-0.742-3.455-0.417-4.105,1.076
			c-3.049,7.008-5.369,14.287-6.588,21.842c-0.648,4.018-1.305,8.238-0.967,12.321c0.348,4.202,0.957,8.387,1.473,12.57
			c0.434,3.512,0.859,7.024,1.268,10.539c0.482,4.143,0.766,8.368,1.675,12.446c0.855,3.833,2.518,7.312,5.098,10.279
			c2.33,2.68,5.284,4.778,8.19,6.782c1.379,0.951,2.771,1.882,4.13,2.861c0.363,0.262,0.718,0.535,1.081,0.796
			c0.454,0.327-0.174-0.144-0.132-0.105c0.078,0.073,0.162,0.139,0.24,0.212c1.103,1.036,2.172,2.097,3.198,3.211
			c1.987,2.156,3.855,4.424,5.603,6.778c1.809,2.437,3.623,4.907,4.91,7.669c0.111,0.238,0.218,0.478,0.323,0.718
			c-0.231-0.525,0.093,0.234,0.157,0.397c0.234,0.6,0.452,1.206,0.653,1.818c0.41,1.245,0.757,2.51,1.05,3.788
			c0.303,1.316,0.549,2.645,0.751,3.98c0.093,0.616,0.117,0.802,0.21,1.639c0.087,0.786,0.16,1.573,0.219,2.362
			c1.124,14.778-1.694,29.778-5.767,43.927c-0.612,2.126-1.263,4.239-1.944,6.344c-0.499,1.541,0.583,3.275,2.095,3.69
			C740.327,1020.839,741.892,1019.844,742.393,1018.298L742.393,1018.298z"/>
	</g>
</g>
<g>
	<g>
		<path style="fill:#ABB569;" d="M714.294,1097.568c-0.507-1.731-0.919-3.487-1.212-5.267c-0.031-0.185-0.198-1.437-0.128-0.818
			c0.068,0.594,0.002-0.011-0.008-0.111c-0.025-0.237-0.052-0.473-0.075-0.71c-0.087-0.887-0.146-1.777-0.177-2.668
			c-0.064-1.782-0.018-3.567,0.133-5.343c0.035-0.415,0.076-0.83,0.123-1.244c0.027-0.237,0.057-0.473,0.086-0.71
			c-0.004,0.036-0.128,0.832-0.037,0.31c0.155-0.885,0.291-1.77,0.475-2.65c0.371-1.772,0.846-3.522,1.416-5.24
			c0.269-0.81,0.559-1.613,0.87-2.408c0.089-0.228,0.181-0.455,0.273-0.683c0.03-0.076,0.276-0.643,0.058-0.142
			c-0.235,0.539,0.084-0.182,0.141-0.309c0.126-0.282,0.254-0.563,0.385-0.842c1.591-3.394,3.582-6.509,5.772-9.542
			c0.298-0.413-0.071,0.088-0.113,0.141c0.201-0.255,0.402-0.51,0.607-0.762c0.329-0.406,0.663-0.807,1.002-1.204
			c0.729-0.852,1.483-1.684,2.259-2.493c1.591-1.658,3.28-3.216,5.041-4.69c1.812-1.517,1.683-4.819,0-6.364
			c-1.927-1.769-4.431-1.618-6.364,0c-12.571,10.525-21.208,26.119-21.153,42.75c0.015,4.51,0.684,9.065,1.95,13.392
			c0.661,2.257,3.197,3.9,5.536,3.143C713.441,1102.363,715.002,1099.988,714.294,1097.568L714.294,1097.568z"/>
	</g>
</g>
<path style="fill:#CC2639;" d="M720.915,1083.219c-2.565-19.567,1.756-39.495,0.893-59.217
	c-1.761-40.277-1.781-159.805-1.787-173.095c0-0.514,0.646-2.397,0-4.555c-1.825-6.103-11.793-7.541-11.614-8.199
	c0.157-0.577,7.623,0.992,11.614,1.822c13.361,2.778,14.57,2.834,16.081,2.733c8.1-0.543,13.526-4.864,14.294-3.644
	c0.498,0.791-1.783,2.607-3.574,5.466c-3.773,6.024-2.969,12.846-2.68,16.398c2.213,27.239-1.565,54.668-0.893,81.992
	c0.481,19.588-0.632,9.987-0.893,54.662c-0.318,54.307,1.324,68.905,0,81.992c-0.144,1.428-0.395,3.541,0,6.377
	c1.603,11.498,10.952,14.219,10.721,20.954c-0.234,6.801-10.043,11.987-16.081,13.665c-0.829,0.231-13.742,3.606-22.335-4.555
	c-1.289-1.224-6.385-6.064-5.36-10.932c1.065-5.058,7.701-5.229,10.721-11.843C721.856,1089.222,721.196,1085.364,720.915,1083.219z
	"/>
<path style="fill:none;stroke:#000000;stroke-miterlimit:10;" d="M1180.123,675.675"/>
<image style="display:none;overflow:visible;" width="548" height="1056" xlink:href="Capture d&#x2019;e&#x301;cran 2025-06-20 a&#x300; 15.25.48.png"  transform="matrix(0.7701 0 0 0.7701 1496 376)">
</image>
<g>
	<path style="fill:#ABB470;stroke:#000000;stroke-miterlimit:10;" d="M782.751,945.015c2.993,5.051-0.745,6.95,0.307,21.497
		c1.033,14.288,4.878,15.748,3.384,24.696c-1.654,9.904-7.483,14.819-5.175,17.768c1.924,2.458,7.768,1.339,11.349-0.021
		c14.222-5.401,20.099-24.992,22.106-31.686c2.897-9.658,1.553-11.641,4.91-16.566c4.551-6.678,10.738-8.486,21.741-12.858
		c20.131-8.001,30.59-12.157,39.753-20.236c9.156-8.072,3.92-8.512,16.116-21.661c3.208-3.459,19.698-20.816,27.71-34.233
		c0.607-1.017,1.924-3.283,1.059-4.809c-0.359-0.634-1.266-1.289-6.408-1.259c-4.886,0.029-6.546,0.644-12.42,0.893
		c-1.823,0.077-3.478,0.102-4.383,0.104c-2.77,0.006-4.519-0.114-6.966-0.083c-44.847,0.574-68.87,15.082-68.87,15.082
		c-19.16,11.571-20.187,23.11-38.937,27.978c-5.9,1.532-13.73,3.565-22.964,1.244c-8.392-2.109-10.466-5.934-18.706-6.642
		c-9.382-0.805-18.993,3.098-18.949,5.91c0.025,1.621,3.431,2.111,7.886,4.258c10.397,5.013,10.766,11.433,18.727,17.991
		C766.709,942.836,777.538,936.218,782.751,945.015z"/>
</g>
<path style="fill:#ABB569;stroke:#000000;stroke-miterlimit:10;" d="M705.5,1095.5c0.039-0.077,0.093-0.184,0.148-0.295
	c0,0,0.431-0.858,0.852-1.705c10.988-22.151,31-107,31-107c11.182-47.414,25.791-36.222,42-90c15.098-50.09,12.039-91.698,11-103
	c-4.683-50.956-23.945-91.429-32-108c-14.192-29.198-21.257-32.991-27-56c-9.991-40.026-0.427-75.88,1-81
	c10.26-36.805,26.733-41.936,25-70c-1.193-19.313-10.389-39.469-12-43c-9.346-20.483-17.29-24.834-18-39
	c-0.488-9.743,3.114-10.791,13-36c11.001-28.053,17.964-55.884,18-56c1.308,4.448,3.055,11.851,3,21
	c-0.145,23.94-12.455,30.619-18,62c-3.233,18.298-1.367,29.152,4,37c2.124,3.106,3.048,3.185,6,7c9.19,11.878,11.097,25.155,12,32
	c2.714,20.574-2.646,38.597-8,56c-8.893,28.908-14.984,31.404-18,53c-2.264,16.211-0.863,29.353,0,37c0.78,6.908,3.194,24.384,12,46
	c10.713,26.299,16.938,24.486,28,49c7.881,17.467,10.588,31.644,16,60c4.261,22.324,6.851,35.892,7,55
	c0.043,5.531,0.035,31.103-9,65c-5.308,19.914-23.277,49.214-37,79c-25.047,54.367-17.733,37.627-26,64
	c-11.394,36.347-13.349,70.126-11.99,74.267c0.047,0.143,0.325,0.943-0.01,1.733c-1.25,2.949-10.361,4.155-13,0
	c-1.456-2.293-1.227-4.764,0-7C705.694,1096.146,705.356,1095.704,705.5,1095.5"/>
<g>
	<path style="fill:#FBE8F4;stroke:#000000;stroke-miterlimit:10;" d="M924.466,745.275c-2.361-0.321-2.175-3.998-8.484-9.12
		c-5.417-4.398-8.042-3.707-11.352-7.813c-3.131-3.885-3.762-8.203-4.183-11.08c-0.447-3.055-1.373-9.39,1.942-14.737
		c2.491-4.017,6.279-5.707,11.207-7.704c18.02-7.301,27.03-10.951,29.591-9.155C954.445,693.558,933.634,746.522,924.466,745.275z"
		/>
	<path style="fill:#FFE8F1;stroke:#000000;stroke-width:0.75;stroke-miterlimit:10;" d="M941.834,771.99
		c3.663-2.19,3.293-4.479,8.076-8.874c2.736-2.514,3.487-2.345,6.515-4.7c5.481-4.263,8.432-9.028,10.681-12.658
		c4.455-7.193,6.876-11.101,5.853-15.653c-0.721-3.209-2.544-4.026-2.223-6.779c0.408-3.493,3.633-4.653,6.643-8.221
		c0.416-0.493,5.849-7.086,5.073-13.566c-1.08-9.024-13.519-12.155-12.667-20.2c0.204-1.927,1.027-2.776,0.517-4.564
		c-1.109-3.894-6.751-5.993-10.698-6.38c-7.72-0.755-16.979,4.261-19.809,11.624c-2.295,5.969,0.737,10.613-2.986,14.346
		c-2.069,2.075-3.495,1.131-7.169,3.266c-0.393,0.229-7.893,4.719-9.247,12.005c-1.153,6.202,3.461,7.367,3.275,16.688
		c-0.079,3.941-0.992,8.169-1.425,10.172c-1.16,5.37-1.893,5.666-2.078,8.738c-0.102,1.689-0.432,7.144,2.749,11.733
		c2.692,3.884,5.38,3.516,6.787,7.296c1.198,3.218-0.247,4.84,1.179,6.388C932.905,774.85,938.193,774.168,941.834,771.99z"/>
	<path style="fill:#ABB662;stroke:#1D1D1B;stroke-width:0.75;stroke-miterlimit:10;" d="M783.952,731.388
		c9.598,3.589,25.163-3.674,25.163-3.674c14.184-6.619,14.21-10.05,29.192-17.63c11.596-5.867,17.5-6.806,19.292-7.059
		c4.947-0.699,15.965-2.255,23.475,4.021c4.38,3.66,1.913,5.26,7.704,11.207c0,0,7.385,7.583,17.343,10.224
		c0.054,0.014,0.381,0.089,0.896,0.225c0.368,0.097,0.406,0.113,0.417,0.096c0.107-0.156-3.078-1.456-4.437-4.038
		c-1.293-2.457,0.269-3.788-1.179-6.388c-1.073-1.926-2.557-2.322-2.35-3.258c0.197-0.89,1.591-0.77,4.301-1.96
		c3.175-1.395,4.021-2.772,5.735-2.613c0.429,0.04,1.738,0.253,2.892,1c0.071,0.046,0.245,0.159,0.238,0.17
		c-0.027,0.047-3.017-1.63-5.871-3.385c-5.254-3.23-5.521-3.94-5.481-4.428c0.059-0.718,0.8-1.176,3.258-2.35
		c7.268-3.473,10.902-5.209,13.444-6.065c0.243-0.082,0.917-0.306,0.893-0.468c-0.042-0.282-2.166-0.158-3.521-0.127
		c-3.497,0.081-5.294-0.373-8.085-0.645c-6.935-0.675-11.614-1.13-15.907,1.188c-2.877,1.553-3.398,3.174-7.949,5.354
		c-2.267,1.086-3.807,1.483-5.345,1.57c-2.117,0.12-3.21-0.407-5.608-0.908c-2.471-0.516-4.343-0.559-8.085-0.645
		c-0.657-0.015-5.845-0.115-10.953,0.662c-1.658,0.252-9.631,1.559-19.292,7.059c-11.4,6.49-10.19,10.302-19.546,14.101
		c-7.434,3.018-15.644,3.666-15.644,3.666c-3.666,0.289-8.007,1.284-16.688,3.275c-0.102,0.023-1.453,0.34-1.434,0.653
		c0.013,0.214,0.657,0.284,2.087,0.78C783.495,731.201,783.881,731.361,783.952,731.388z"/>
	<g>
		<path style="fill:#1D1D1B;" d="M878.008,704.113c5.238,2.902,10.963,6.125,16.502,8.316c1.873,0.877,3.65,1.909,5.675,2.356
			c-2.086-0.137-4.018-1.074-5.907-1.827C888.388,710.963,882.996,707.791,878.008,704.113L878.008,704.113z"/>
	</g>
	<g>
		<path style="fill:#1D1D1B;" d="M878.788,702.026c3.822-0.934,7.815-0.887,11.725-0.734c3.862,0.418,8.014,0.341,11.486,2.277
			c-3.67-1.39-7.69-1.127-11.529-1.529C886.586,701.864,882.67,701.664,878.788,702.026L878.788,702.026z"/>
	</g>
	<path style="fill:none;stroke:#1D1D1B;stroke-width:0.5;stroke-miterlimit:10;" d="M920.266,715.158
		c2.778,0.91,9.141,2.863,12.849,5.4c6.298,4.308,9.959,9.509,11.878,12.768"/>
	<path style="fill:none;stroke:#1D1D1B;stroke-width:0.5;stroke-miterlimit:10;" d="M920.393,711.637
		c4.095,0.862,14.232,3.03,20.217,6.371c4.351,2.429,7.763,5.105,10.308,7.423"/>
	<path style="fill:none;stroke:#1D1D1B;stroke-width:0.5;stroke-miterlimit:10;" d="M921.954,707.463
		c4.492,0.752,13.467,3.286,18.52,4.547c5.414,1.351,10.422,2.859,15,4.42"/>
	<path style="fill:none;stroke:#1D1D1B;stroke-width:0.5;stroke-miterlimit:10;" d="M921.954,707.463
		c5.998-0.136,16.951-0.798,22.949-0.934c3.999-0.091,7.997-0.181,11.996-0.272"/>
	<g>
		<path style="fill:#1D1D1B;" d="M923.405,725.847c11.985,9.368,21.013,22.269,26.895,36.225
			C943.8,748.414,934.94,735.719,923.405,725.847L923.405,725.847z"/>
	</g>
	<g>
		<path style="fill:#1D1D1B;" d="M922.226,719.459c6.641,0.133,13.506,1.628,18.941,5.66c5.495,3.819,9.991,8.861,14.761,13.504
			c1.573,1.571,3.102,3.194,4.573,4.86c1.469,1.67,2.863,3.401,4.391,5.015c-6.066-6.494-12.332-12.785-18.827-18.847
			c-3.282-2.927-6.835-5.707-10.903-7.424C931.091,720.486,926.647,719.781,922.226,719.459L922.226,719.459z"/>
	</g>
	<g>
		<path style="fill:#1D1D1B;" d="M921.174,709.55c16.263,4.431,33.23,9.385,49.173,14.82
			C954.269,719.6,937.182,714.588,921.174,709.55L921.174,709.55z"/>
	</g>
	<g>
		<path style="fill:#1D1D1B;" d="M929.64,699.632c8.26,0.583,16.454,1.776,24.755,1.572c8.247,0.136,16.682-0.667,24.01-4.746
			c-7.166,4.442-15.75,5.347-24.01,5.246C946.08,701.87,937.869,700.601,929.64,699.632L929.64,699.632z"/>
	</g>
	<g>
		<path style="fill:#1D1D1B;" d="M932.508,698.326c12.921-2.789,25.507-7.177,37.15-13.465
			C958.349,691.772,945.557,696.167,932.508,698.326L932.508,698.326z"/>
	</g>
	
		<ellipse transform="matrix(0.8142 -0.5806 0.5806 0.8142 -251.6522 685.9539)" style="fill:#E7E463;" cx="945.841" cy="736.134" rx="2.058" ry="4.483"/>
	
		<ellipse transform="matrix(0.6998 -0.7143 0.7143 0.6998 -233.8344 899.226)" style="fill:#E7E463;" cx="953.056" cy="727.848" rx="2.058" ry="4.483"/>
	
		<ellipse transform="matrix(0.3503 -0.9367 0.9367 0.3503 -49.5868 1361.28)" style="fill:#F2E770;" cx="956.401" cy="716.382" rx="2.058" ry="4.483"/>
	<path style="fill:#F7F46F;" d="M956.707,703.648c-2.475,0.07-4.455,1.047-4.423,2.183c0.032,1.136,2.064,2,4.539,1.93
		c2.475-0.07,4.455-1.047,4.423-2.183C961.214,704.443,959.182,703.579,956.707,703.648z"/>
</g>
<g>
	<path style="fill:#FBE8F4;stroke:#000000;stroke-miterlimit:10;" d="M711.433,219.447c0.422,3.176,4.511,3.445,10.387,12.529
		c5.045,7.8,4.347,11.183,9.01,16.147c4.412,4.697,9.238,6.141,12.453,7.103c3.414,1.021,10.494,3.14,16.359-0.504
		c4.406-2.737,6.185-7.522,8.275-13.774c7.641-22.863,11.461-34.294,9.391-37.942C768.213,186.973,709.795,207.118,711.433,219.447z
		"/>
	<path style="fill:#FFE8F1;stroke:#000000;stroke-width:0.75;stroke-miterlimit:10;" d="M681.21,192.668
		c2.34-4.548,4.898-3.736,9.664-9.459c2.726-3.274,2.517-4.293,5.057-7.977c4.599-6.667,9.825-9.91,13.807-12.38
		c7.889-4.895,12.176-7.555,17.273-5.56c3.594,1.407,4.553,3.939,7.609,3.9c3.879-0.05,5.083-4.163,8.975-7.651
		c0.538-0.482,7.732-6.757,14.97-4.818c10.078,2.7,13.904,19.631,22.84,19.632c2.14,0,3.063-0.971,5.069-0.044
		c4.366,2.017,6.858,9.793,7.395,15.08c1.051,10.34-4.283,21.91-12.406,24.628c-6.585,2.203-11.839-2.468-15.896,1.942
		c-2.254,2.451-1.165,4.474-3.443,9.044c-0.244,0.489-5.041,9.8-13.118,10.571c-6.876,0.656-8.298-5.624-18.673-6.688
		c-4.387-0.45-9.071,0.167-11.29,0.459c-5.948,0.783-6.259,1.713-9.675,1.527c-1.878-0.102-7.944-0.432-13.141-5.294
		c-4.398-4.114-4.062-7.627-8.31-10.023c-3.616-2.04-5.383-0.353-7.146-2.462C678.268,204.103,678.884,197.189,681.21,192.668z"/>
	<path style="fill:#ABB662;stroke:#1D1D1B;stroke-width:0.75;stroke-miterlimit:10;" d="M730.718,407.678
		c-4.258-13.229,3.408-32.842,3.408-32.842c6.986-17.874,10.806-17.425,18.841-36.222c6.218-14.549,7.104-22.244,7.337-24.583
		c0.644-6.46,2.077-20.848-5.115-31.686c-4.195-6.321-5.909-3.276-12.69-11.788c0,0-8.646-10.856-11.857-24.429
		c-0.017-0.074-0.11-0.518-0.275-1.22c-0.118-0.501-0.137-0.553-0.118-0.567c0.17-0.12,1.705,4.285,4.618,6.45
		c2.771,2.06,4.212,0.176,7.146,2.462c2.174,1.693,2.655,3.716,3.692,3.573c0.986-0.136,0.814-2.001,2.066-5.427
		c1.467-4.014,2.978-4.941,2.754-7.236c-0.056-0.574-0.328-2.34-1.193-3.975c-0.053-0.101-0.184-0.347-0.196-0.34
		c-0.052,0.03,1.897,4.229,3.929,8.259c3.74,7.419,4.538,7.873,5.081,7.888c0.798,0.023,1.288-0.896,2.529-3.988
		c3.67-9.147,5.505-13.721,6.389-16.971c0.085-0.311,0.316-1.173,0.497-1.118c0.315,0.095,0.235,2.894,0.237,4.685
		c0.005,4.625,0.559,7.07,0.937,10.809c0.94,9.289,1.574,15.556-0.891,20.921c-1.652,3.595-3.442,4.058-5.746,9.786
		c-1.147,2.853-1.548,4.838-1.603,6.865c-0.076,2.789,0.54,4.312,1.163,7.562c0.642,3.349,0.741,5.836,0.938,10.809
		c0.035,0.873,0.287,7.764-0.44,14.427c-0.236,2.162-1.475,12.549-7.337,24.583c-6.918,14.2-11.196,12.061-15.172,23.931
		c-3.159,9.431-3.657,20.224-3.657,20.224c-0.222,4.82-1.213,10.434-3.194,21.662c-0.023,0.132-0.339,1.878-0.689,1.809
		c-0.239-0.047-0.334-0.91-0.926-2.876C730.938,408.31,730.75,407.777,730.718,407.678z"/>
	<g>
		<path style="fill:#1D1D1B;" d="M758.536,286.823c-4.24-7.217-7.872-14.808-10.276-22.842c-0.897-2.614-1.982-5.257-2.211-8.058
			c0.538,2.745,1.733,5.259,2.752,7.858C751.343,271.414,755.137,279.487,758.536,286.823L758.536,286.823z"/>
	</g>
	<g>
		<path style="fill:#1D1D1B;" d="M760.839,286.082c0.328-5.187,0.029-10.403-0.3-15.582c-0.525-5.141-0.414-10.449-2.049-15.407
			c2.213,4.785,2.2,10.2,2.797,15.355C761.539,275.653,761.766,280.931,760.839,286.082L760.839,286.082z"/>
	</g>
	<path style="fill:none;stroke:#1D1D1B;stroke-width:0.5;stroke-miterlimit:10;" d="M745.088,229.248
		c-1.089-3.811-3.437-12.52-6.362-17.793c-4.969-8.954-10.86-14.539-14.542-17.541"/>
	<path style="fill:none;stroke:#1D1D1B;stroke-width:0.5;stroke-miterlimit:10;" d="M749.005,229.575
		c-1.071-5.55-3.761-19.293-7.644-27.697c-2.823-6.11-5.897-11.009-8.547-14.709"/>
	<path style="fill:none;stroke:#1D1D1B;stroke-width:0.5;stroke-miterlimit:10;" d="M753.611,228.092
		c-0.959-6.06-4.025-18.316-5.567-25.192c-1.652-7.368-3.467-14.219-5.33-20.506"/>
	<path style="fill:none;stroke:#1D1D1B;stroke-width:0.5;stroke-miterlimit:10;" d="M753.611,228.092
		c-0.012-7.933,0.428-22.359,0.417-30.292c-0.008-5.288-0.016-10.577-0.023-15.865"/>
	<g>
		<path style="fill:#1D1D1B;" d="M733.098,223.584c-10.871-16.085-25.023-29.86-41.073-40.747
			C708.465,193.161,722.778,207.113,733.098,223.584L733.098,223.584z"/>
	</g>
	<g>
		<path style="fill:#1D1D1B;" d="M740.245,226.046c-0.463-5.874-1.36-11.752-3.329-17.302c-1.947-5.552-5.075-10.617-8.418-15.436
			c-5.267-7.091-10.552-14.211-16.136-21.064c-1.871-2.278-3.82-4.5-5.615-6.842c1.862,2.29,3.879,4.443,5.812,6.676
			c5.734,6.753,11.041,13.841,16.342,20.942c3.331,4.876,6.486,9.956,8.372,15.602C739.189,214.231,739.954,220.15,740.245,226.046
			L740.245,226.046z"/>
	</g>
	<g>
		<path style="fill:#1D1D1B;" d="M751.308,228.834c-6.017-21.935-12.062-45.289-17.84-67.272
			C739.92,183.448,745.902,206.647,751.308,228.834L751.308,228.834z"/>
	</g>
	<g>
		<path style="fill:#1D1D1B;" d="M762.123,219.003c-1.243-10.77-2.863-21.526-2.933-32.388c-0.296-10.782,0.077-22.038,5.144-31.814
			c-4.694,9.936-4.977,21.021-4.644,31.803C759.714,197.464,761.271,208.197,762.123,219.003L762.123,219.003z"/>
	</g>
	<g>
		<path style="fill:#1D1D1B;" d="M763.501,215.386c2.028-16.384,6.362-32.66,13.986-47.358
			C770.518,183.023,766.151,199.095,763.501,215.386L763.501,215.386z"/>
	</g>
	
		<ellipse transform="matrix(0.722 -0.6919 0.6919 0.722 67.3293 552.363)" style="fill:#E7E463;" cx="721.033" cy="192.396" rx="2.361" ry="5.753"/>
	
		<ellipse transform="matrix(0.8123 -0.5833 0.5833 0.8123 29.7434 460.3978)" style="fill:#E7E463;" cx="730.064" cy="183.995" rx="2.297" ry="5.912"/>
	
		<ellipse transform="matrix(0.9519 -0.3064 0.3064 0.9519 -19.7877 236.2823)" style="fill:#F2E770;" cx="742.743" cy="181.172" rx="2.234" ry="6.079"/>
	<path style="fill:#F7F46F;" d="M756.915,182.556c-0.01,3.271-1.045,5.759-2.311,5.557c-1.266-0.202-2.284-3.018-2.273-6.289
		c0.01-3.271,1.045-5.759,2.311-5.557C755.908,176.47,756.926,179.285,756.915,182.556z"/>
</g>
<g>
	<g>
		<path style="fill:#ABB470;stroke:#000000;stroke-miterlimit:10;" d="M734.861,433.683c4.166-2.164,5.848,0.378,18.025-0.633
			c11.961-0.993,13.094-3.674,20.635-2.818c8.347,0.947,12.609,4.872,15.028,3.222c2.016-1.375,0.938-5.386-0.288-7.83
			c-4.869-9.706-21.443-13.377-27.106-14.631c-8.17-1.81-9.802-0.843-14.013-3.063c-5.71-3.009-7.374-7.242-11.304-14.747
			c-7.191-13.732-10.927-20.866-17.921-27.03c-6.989-6.159-7.233-2.538-18.553-10.695c-2.978-2.146-17.93-13.182-29.376-18.447
			c-0.868-0.399-2.8-1.263-4.059-0.637c-0.523,0.26-1.051,0.899-0.903,4.445c0.141,3.371,0.696,4.504,1.045,8.551
			c0.108,1.257,0.169,2.398,0.192,3.022c0.071,1.911,0.012,3.12,0.096,4.808c1.549,30.93,14.292,47.22,14.292,47.22
			c10.163,12.992,19.866,13.475,24.396,26.316c1.425,4.04,3.317,9.403,1.591,15.819c-1.569,5.831-4.729,7.337-5.126,13.036
			c-0.452,6.488,3.051,13.043,5.409,12.958c1.359-0.049,1.689-2.409,3.384-5.524c3.957-7.271,9.334-7.652,14.645-13.272
			C733.415,444.794,727.606,437.452,734.861,433.683z"/>
	</g>
	<path style="fill:#697039;" d="M666.146,337.706c-0.659,0.27,4.886,10.836,10.143,19.755c6.874,11.665,13.581,21.069,20.385,30.011
		c13.796,18.133,25.773,31.456,38.792,45.873c10.722,11.874,26.039,28.303,26.039,28.303c0,0,2.508,0.393,2.508,0.393
		c0.474,0.09,0.506,0.107,0.536,0.084c0.597-0.458-8.406-9.103-8.406-9.103c-7.236-6.949-12.442-12.753-21.933-23.334
		c-5.476-6.105-4.009-5.044-21.159-26.673c-14.801-18.666-14.65-17.889-18.695-23.691c-5.825-8.355-6.756-10.856-16.279-25.042
		C672.993,346.707,666.777,337.447,666.146,337.706z"/>
	<path style="fill:#707933;" d="M695.37,379.483c-0.44-1.472,1.076-2.558,1.982-4.014c2.016-3.241,0.46-7.438-1.35-12.321
		c-0.194-0.523-0.344-0.886-0.515-1.298c-2.587-6.244-6.073-10.938-6.102-10.984l0,0c0,0,8.055,9.576,9.322,18.761
		c0.414,3.006-0.044,4.909-0.533,6.836c-0.169,0.665-1.026,4.043-1.982,4.014C695.798,380.465,695.489,379.881,695.37,379.483z"/>
	<path style="fill:#707933;" d="M709.666,397.789c-0.057-1.571,1.212-2.772,2.11-4.357c2-3.527,1.624-8,1.186-13.203
		c-0.047-0.558-0.091-0.944-0.14-1.382c-0.753-6.647-2.416-11.609-2.428-11.658l0,0c0,0,4.064,10.1,3.364,19.938
		c-0.229,3.219-0.887,5.274-1.571,7.355c-0.236,0.718-1.434,4.366-2.11,4.357C709.8,398.834,709.682,398.213,709.666,397.789z"/>
	<path style="fill:#707933;" d="M718.565,414.704c-1.747-0.637-3.579-0.125-5.702-0.039c-4.726,0.19-9.619-1.785-15.312-4.084
		c-0.61-0.246-1.028-0.426-1.503-0.629c-7.198-3.085-12.156-6.225-12.207-6.253l0,0c0,0,9.835,6.91,21.173,10.094
		c3.71,1.042,6.272,1.317,8.873,1.582c0.897,0.092,5.457,0.557,5.702,0.039C719.691,415.2,719.037,414.876,718.565,414.704z"/>
	<path style="fill:#707933;" d="M730.984,431.08c-1.747-0.637-3.579-0.125-5.702-0.039c-4.726,0.19-9.619-1.785-15.312-4.084
		c-0.61-0.246-1.028-0.426-1.503-0.629c-7.198-3.085-12.156-6.225-12.207-6.253l0,0c0,0,9.835,6.91,21.173,10.094
		c3.71,1.042,6.272,1.317,8.873,1.582c0.897,0.092,5.457,0.557,5.702,0.039C732.11,431.577,731.456,431.252,730.984,431.08z"/>
	<path style="fill:#707933;" d="M706.997,399.587c-1.331-0.605-2.775-0.026-4.428,0.122c-3.68,0.33-7.398-1.562-11.723-3.764
		c-0.464-0.236-0.781-0.408-1.141-0.604c-5.462-2.967-9.182-6.056-9.22-6.083l0,0c0,0,7.35,6.826,16.024,9.777
		c2.839,0.966,4.817,1.175,6.827,1.374c0.693,0.069,4.216,0.417,4.428-0.122C707.851,400.066,707.356,399.751,706.997,399.587z"/>
	<path style="fill:#707933;" d="M690.81,379.998c-1.015-0.784-2.324-1.072-3.736-1.637c-3.143-1.256-5.945-3.537-9.206-6.191
		c-0.349-0.284-0.587-0.484-0.856-0.711c-4.086-3.436-6.69-6.261-6.717-6.288l0,0c0,0,5.024,5.911,11.808,10.568
		c2.22,1.524,3.845,2.375,5.498,3.234c0.57,0.296,3.467,1.801,3.736,1.637C691.447,380.541,691.084,380.209,690.81,379.998z"/>
	<path style="fill:#707933;" d="M722.301,414.881c0.133-1.959,1.417-3.56,2.413-5.611c2.217-4.566,2.401-10.124,2.616-16.592
		c0.023-0.693,0.029-1.172,0.035-1.716c0.099-8.246-0.82-14.314-0.826-14.375l0,0c0,0,2.483,12.299,0.7,24.646
		c-0.583,4.04-1.417,6.66-2.278,9.314c-0.297,0.916-1.805,5.569-2.413,5.611C722.299,416.176,722.265,415.41,722.301,414.881z"/>
	<path style="fill:#707933;" d="M734.934,429.17c0.159-1.525,1.078-2.799,1.819-4.417c1.649-3.6,1.972-7.922,2.348-12.95
		c0.04-0.539,0.061-0.911,0.085-1.334c0.361-6.407-0.037-11.098-0.039-11.145l0,0c0,0,1.224,9.493-0.413,19.126
		c-0.536,3.152-1.189,5.207-1.86,7.29c-0.232,0.719-1.409,4.369-1.819,4.417C734.886,430.176,734.891,429.582,734.934,429.17z"/>
	<path style="fill:#707933;" d="M734.678,433.201c-1.234,1.337-3.233,0.063-5.246-0.262c-4.481-0.722-7.821,3.46-11.707,8.325
		c-0.417,0.522-0.696,0.902-1.013,1.335c-4.808,6.556-7.511,13.376-7.541,13.437l0,0c0,0,4.957-15.073,13.531-21.599
		c2.806-2.135,5.008-2.602,7.254-3.045c0.775-0.153,4.709-0.928,5.246,0.262C735.422,432.144,735.011,432.839,734.678,433.201z"/>
	<path style="fill:#707933;" d="M736.841,433.468c2.484-0.038,1.084-2.601,1.186-4.485c0.228-4.194,7.836-3.889,16.688-3.535
		c0.949,0.038,1.634,0.086,2.412,0.141c11.796,0.828,23.368,3.572,23.473,3.591l0,0c0,0-25.263-6.896-38.16-4.618
		c-4.22,0.745-5.627,2.21-7.009,3.726c-0.477,0.523-2.898,3.181-1.186,4.485C734.949,433.309,736.17,433.479,736.841,433.468z"/>
</g>
<g>
	<g>
		<path style="fill:#ABB569;" d="M871.148,767.115c-11.66-8.307-23.563-16.27-35.698-23.867c-6.067-3.798-12.192-7.505-18.37-11.119
			c-6.007-3.514-12.082-7.041-18.717-9.247c-3.346-1.112-6.755-1.607-10.23-2.105c-1.684-0.241-3.371-0.516-5.007-0.991
			c-0.369-0.107-0.729-0.244-1.097-0.352c-0.901-0.266,0.574,0.341-0.334-0.125c-0.339-0.174-0.68-0.337-1.01-0.53
			c-0.164-0.096-1.444-1.012-0.667-0.392c-1.837-1.464-4.594-1.928-6.364,0c-1.496,1.63-1.966,4.797,0,6.364
			c2.775,2.212,5.867,3.57,9.35,4.255c3.028,0.595,6.118,0.801,9.131,1.481c1.583,0.357,3.141,0.82,4.671,1.362
			c0.696,0.246,1.383,0.515,2.07,0.786c1.344,0.53-0.757-0.36,0.56,0.238c0.405,0.184,0.812,0.363,1.215,0.551
			c3.102,1.444,6.091,3.119,9.053,4.829c12.515,7.229,24.8,14.861,36.846,22.846c6.762,4.482,13.446,9.081,20.053,13.788
			c1.923,1.37,5.091,0.402,6.157-1.614C873.987,770.953,873.201,768.578,871.148,767.115L871.148,767.115z"/>
	</g>
</g>
<g>
	<g>
		<path style="fill:#ABB569;" d="M788.569,720.893c-3.59-3.616-7.18-7.231-10.77-10.847c-3.411-3.436-7.096-6.748-10.127-10.533
			c0.407,0.509-0.058-0.075-0.114-0.155c-0.173-0.243-0.347-0.483-0.514-0.73c-0.291-0.428-0.568-0.866-0.835-1.31
			c-0.61-1.015-1.158-2.065-1.664-3.135c-0.254-0.536-0.497-1.078-0.731-1.623c-0.205-0.478-0.015-0.041,0.021,0.048
			c-0.112-0.275-0.224-0.551-0.334-0.827c-0.44-1.104-0.858-2.218-1.276-3.331c-1.803-4.799-3.604-9.599-5.406-14.399
			c-3.604-9.599-7.209-19.198-10.812-28.798c-3.471-9.249-6.908-18.542-9.335-28.131c-0.679-2.682-1.277-5.384-1.769-8.106
			c-0.237-1.314-0.453-2.632-0.633-3.955c0.093,0.678-0.011-0.103-0.023-0.202c-0.045-0.389-0.093-0.777-0.136-1.166
			c-0.077-0.699-0.146-1.399-0.206-2.1c-0.225-2.643-0.325-5.298-0.274-7.95c0.027-1.407,0.095-2.813,0.209-4.216
			c0.051-0.626,0.11-1.251,0.178-1.875c0.034-0.313,0.071-0.625,0.11-0.937c-0.094,0.753,0.09-0.604,0.101-0.679
			c0.35-2.318-0.581-4.952-3.143-5.536c-2.143-0.488-5.159,0.654-5.536,3.143c-3.133,20.735,3.137,40.849,10.279,60.091
			c3.661,9.866,7.392,19.706,11.091,29.558c1.831,4.877,3.662,9.754,5.493,14.631c1.781,4.744,3.404,9.675,6.026,14.037
			c2.939,4.89,7.276,8.786,11.261,12.799c4.169,4.199,8.338,8.398,12.507,12.596c1.661,1.673,4.724,1.787,6.364,0
			C790.223,725.455,790.342,722.678,788.569,720.893L788.569,720.893z"/>
	</g>
</g>
<g>
	<g>
		<path style="fill:#ABB569;" d="M871.682,766.893c-6.556,0.388-12.491-2.241-17.915-5.69c-5.743-3.651-10.961-8.062-16.725-11.682
			c-3.069-1.927-6.278-3.494-9.652-4.816c-4.049-1.587-7.95-3.172-11.63-5.526c-3.501-2.239-6.84-4.713-10.41-6.848
			c-3.482-2.082-7.078-3.965-10.669-5.85c-7.071-3.709-14.196-7.467-20.306-12.671c-5.355-4.56-9.926-9.964-13.765-15.847
			c-7.868-12.06-12.777-25.78-16.688-39.557c-4.703-16.563-8.692-33.544-10.26-50.718c-0.206-2.254-0.365-4.512-0.482-6.772
			c-0.1-1.921-3.101-1.933-3,0c0.939,18.051,4.809,35.809,9.458,53.229c3.782,14.172,8.392,28.357,15.782,41.104
			c3.584,6.182,7.857,12.011,12.919,17.067c5.569,5.564,12.085,9.875,18.968,13.638c7.345,4.016,14.88,7.637,21.813,12.361
			c3.594,2.449,7.146,4.97,11.138,6.744c3.809,1.692,7.809,2.916,11.503,4.866c11.698,6.172,21.329,17.897,34.999,19.77
			c1.637,0.224,3.272,0.295,4.922,0.197C873.601,769.78,873.614,766.779,871.682,766.893L871.682,766.893z"/>
	</g>
</g>
<path style="fill:#697039;" d="M924.075,867.11c-0.368-0.796-15.858,5.375-28.954,11.27c-17.127,7.709-30.973,15.312-44.154,23.048
	c-26.728,15.688-46.428,29.407-67.748,44.322c-17.559,12.283-41.871,29.853-41.871,29.853c0,0-0.654,2.971-0.655,2.971
	c-0.147,0.561-0.172,0.599-0.14,0.635c0.642,0.73,13.468-9.639,13.468-9.639c10.309-8.334,18.891-14.296,34.536-25.166
	c9.027-6.272,7.441-4.568,39.345-24.107c27.534-16.863,26.404-16.715,34.944-21.295c12.298-6.594,15.951-7.602,36.819-18.361
	C910.807,874.896,924.428,867.873,924.075,867.11z"/>
<path style="fill:#707933;" d="M862.582,900.204c2.147-0.464,3.668,1.387,5.746,2.526c4.625,2.535,10.757,0.854,17.89-1.101
	c0.765-0.21,1.295-0.374,1.897-0.56c9.13-2.825,16.047-6.785,16.115-6.817l0,0c0,0-14.141,9.201-27.487,10.332
	c-4.367,0.37-7.108-0.255-9.882-0.916c-0.957-0.228-5.82-1.388-5.746-2.526C861.145,900.673,862.002,900.329,862.582,900.204z"/>
<path style="fill:#707933;" d="M835.587,916.48c2.277-0.003,3.974,1.557,6.239,2.693c5.041,2.527,11.531,2.263,19.082,1.956
	c0.809-0.033,1.37-0.069,2.007-0.11c9.652-0.624,16.895-2.4,16.966-2.413l0,0c0,0-14.766,4.425-28.989,3.187
	c-4.654-0.405-7.608-1.273-10.599-2.174c-1.032-0.311-6.274-1.888-6.239-2.693C834.07,916.596,834.973,916.481,835.587,916.48z"/>
<path style="fill:#707933;" d="M810.789,926.385c0.981-2.055,0.301-4.258,0.249-6.79c-0.116-5.638,2.911-11.385,6.433-18.071
	c0.378-0.717,0.651-1.207,0.962-1.765c4.711-8.448,9.427-14.224,9.47-14.283l0,0c0,0-10.341,11.431-15.335,24.806
	c-1.634,4.377-2.119,7.417-2.592,10.504c-0.163,1.065-0.991,6.477-0.249,6.79C810.032,927.705,810.524,926.939,810.789,926.385z"/>
<path style="fill:#707933;" d="M786.652,940.505c0.981-2.055,0.301-4.258,0.249-6.79c-0.116-5.638,2.911-11.385,6.433-18.071
	c0.378-0.717,0.651-1.207,0.962-1.765c4.711-8.448,9.427-14.224,9.47-14.283l0,0c0,0-10.341,11.431-15.335,24.806
	c-1.634,4.377-2.119,7.417-2.592,10.504c-0.163,1.065-0.991,6.477-0.249,6.79C785.895,941.825,786.387,941.059,786.652,940.505z"/>
<path style="fill:#707933;" d="M833.073,913.226c0.921-1.56,0.132-3.304-0.027-5.28c-0.354-4.397,2.513-8.748,5.848-13.81
	c0.357-0.543,0.618-0.914,0.914-1.335c4.482-6.385,9.081-10.688,9.122-10.732l0,0c0,0-10.135,8.474-14.702,18.686
	c-1.495,3.342-1.865,5.69-2.221,8.075c-0.123,0.823-0.747,5.005,0.028,5.28C832.352,914.224,832.825,913.647,833.073,913.226z"/>
<path style="fill:#707933;" d="M861.992,894.751c1.169-1.177,1.632-2.724,2.497-4.383c1.925-3.692,5.324-6.937,9.278-10.712
	c0.424-0.405,0.721-0.679,1.058-0.991c5.115-4.726,9.294-7.711,9.334-7.743l0,0c0,0-8.731,5.741-15.704,13.631
	c-2.282,2.582-3.57,4.482-4.869,6.416c-0.448,0.667-2.725,4.056-2.497,4.383C861.183,895.486,861.676,895.068,861.992,894.751z"/>
<path style="fill:#707933;" d="M810.406,930.827c2.832,0.239,5.108,1.835,8.045,3.105c6.537,2.828,14.582,3.276,23.941,3.798
	c1.003,0.056,1.697,0.082,2.484,0.113c11.939,0.457,20.759-0.388,20.847-0.392l0,0c0,0-17.896,2.452-35.717-0.179
	c-5.832-0.861-9.597-1.962-13.413-3.096c-1.316-0.391-8.004-2.379-8.045-3.105C808.53,930.772,809.641,930.763,810.406,930.827z"/>
<path style="fill:#707933;" d="M789.284,945.287c2.203,0.252,4.018,1.399,6.335,2.348c5.158,2.113,11.406,2.675,18.676,3.329
	c0.779,0.07,1.318,0.11,1.929,0.156c9.267,0.694,16.075,0.412,16.143,0.412l0,0c0,0-13.789,1.068-27.685-1.278
	c-4.547-0.768-7.501-1.63-10.495-2.516c-1.033-0.306-6.28-1.858-6.335-2.348C787.829,945.189,788.69,945.219,789.284,945.287z"/>
<path style="fill:#707933;" d="M783.456,944.818c-1.895-1.525,0.019-3.853,0.557-6.238c1.198-5.308-4.746-9.459-11.661-14.288
	c-0.741-0.518-1.283-0.866-1.899-1.261c-9.332-5.996-19.118-9.497-19.205-9.535l0,0c0,0,21.662,6.524,30.823,17.006
	c2.998,3.43,3.599,6.073,4.164,8.766c0.195,0.929,1.185,5.648-0.557,6.238C784.961,945.747,783.968,945.229,783.456,944.818z"/>
<path style="fill:#707933;" d="M782.995,947.382c-0.029,2.96,3.73,1.398,6.456,1.598c6.066,0.444,5.368,9.494,4.555,20.024
	c-0.087,1.129-0.18,1.943-0.285,2.867c-1.599,14.018-5.963,27.689-5.995,27.813l0,0c0,0,10.841-29.809,7.979-45.266
	c-0.936-5.058-3.01-6.794-5.159-8.502c-0.742-0.589-4.509-3.583-6.456-1.598C783.289,945.135,783.003,946.583,782.995,947.382z"/>
<g>
	<g>
		<path style="fill:#ABB470;stroke:#000000;stroke-miterlimit:10;" d="M661.11,601.005c3.076,7.148,8.065,5.301,22.888,18.83
			c14.56,13.289,13.1,18.132,23.905,24.458c11.959,7.002,21.842,5.807,23.196,10.503c1.128,3.914-4.681,8.398-8.967,10.563
			c-17.019,8.6-42.73-2.821-51.515-6.723c-12.674-5.63-13.749-8.594-21.694-9.713c-10.772-1.517-17.593,2.691-30.969,9.177
			c-24.473,11.867-37.188,18.032-53.101,19.606c-15.9,1.573-12.248-3.688-36.007-3.66c-6.25,0.007-37.92,0.408-58.671-3.697
			c-1.573-0.311-5.049-1.038-6.009-3.161c-0.399-0.882-0.389-2.292,3.695-7.06c3.882-4.531,5.852-5.547,10.749-10.809
			c1.52-1.633,2.851-3.155,3.566-3.997c2.189-2.577,3.439-4.312,5.401-6.567c35.961-41.317,70.503-51.199,70.504-51.199
			c27.55-7.881,40.775,1.115,60.79-12.167c6.298-4.179,14.656-9.725,19.436-20.336c4.344-9.643,1.863-14.877,7.596-23.169
			c6.527-9.441,18.301-15.035,21.293-12.569c1.724,1.422-0.433,5.019-1.633,11.025c-2.8,14.017,3.817,19.899,4.599,32.979
			C671.408,584.169,655.753,588.556,661.11,601.005z"/>
	</g>
	<path style="fill:#697039;" d="M465.911,665.561c-0.566-1.03,18.281-10.148,34.944-17.273
		c21.792-9.318,40.884-15.669,59.595-21.284c37.944-11.386,68.23-17.918,101.08-24.93c27.055-5.775,65.119-13.285,65.119-13.285
		c0,0,3.712,1.953,3.713,1.953c0.72,0.347,0.78,0.356,0.794,0.418c0.279,1.229-20.985,4.242-20.985,4.242
		c-17.091,2.422-30.27,5.28-54.295,10.49c-13.862,3.006-10.779,2.996-56.945,15.887c-39.843,11.125-38.793,10.197-50.451,14.209
		c-16.787,5.777-20.75,8.314-48.772,18.488C484.745,659.907,466.454,666.548,465.911,665.561z"/>
	<path style="fill:#707933;" d="M549.981,636.777c-2.191,1.601-1.398,4.617-1.81,7.537c-0.917,6.499-7.558,10.766-15.284,15.729
		c-0.828,0.532-1.423,0.885-2.098,1.286c-10.235,6.075-19.946,9.108-20.035,9.144l0,0c0,0,21.044-5.246,32.779-16.714
		c3.84-3.752,5.328-6.846,6.802-10.004c0.509-1.089,3.093-6.624,1.81-7.537C551.618,635.843,550.572,636.345,549.981,636.777z"/>
	<path style="fill:#707933;" d="M588.767,625.65c-1.798,2.121-1.456,5.048-2.019,8.139c-1.254,6.88-6.652,12.703-12.933,19.478
		c-0.673,0.726-1.154,1.218-1.7,1.776c-8.278,8.461-15.897,13.681-15.968,13.737l0,0c0,0,16.398-9.949,26.275-24.277
		c3.232-4.689,4.625-8.191,6.014-11.756c0.479-1.23,2.913-7.479,2.019-8.139C590.088,624.335,589.253,625.078,588.767,625.65z"/>
	<path style="fill:#707933;" d="M618.968,611.074c-2.985-0.858-4.818-3.392-7.503-5.625c-5.974-4.971-14.544-7.107-24.513-9.591
		c-1.069-0.266-1.812-0.434-2.657-0.625c-12.802-2.895-22.734-3.481-22.831-3.493l0,0c0,0,20.449,0.22,38.776,7.102
		c5.997,2.252,9.65,4.422,13.345,6.645c1.275,0.767,7.75,4.663,7.503,5.625C620.985,611.508,619.774,611.306,618.968,611.074z"/>
	<path style="fill:#707933;" d="M653.183,600.751c-2.985-0.858-4.819-3.392-7.503-5.625c-5.974-4.971-14.544-7.107-24.513-9.591
		c-1.069-0.266-1.812-0.435-2.657-0.625c-12.802-2.895-22.734-3.481-22.831-3.493l0,0c0,0,20.449,0.22,38.776,7.102
		c5.997,2.252,9.65,4.422,13.345,6.645c1.275,0.767,7.75,4.663,7.503,5.625C655.2,601.184,653.988,600.982,653.183,600.751z"/>
	<path style="fill:#707933;" d="M587.248,620.499c-2.405-0.487-3.659-2.728-5.659-4.58c-4.452-4.123-11.392-5.204-19.468-6.461
		c-0.866-0.135-1.47-0.212-2.156-0.3c-10.402-1.329-18.656-0.753-18.737-0.753l0,0c0,0,17.105-2.139,31.692,2.412
		c4.773,1.489,7.592,3.169,10.439,4.895c0.982,0.596,5.973,3.621,5.659,4.58C588.89,620.687,587.897,620.631,587.248,620.499z"/>
	<path style="fill:#707933;" d="M544.579,631.523c-2.188,0.075-4.217-0.829-6.683-1.453c-5.49-1.39-11.659-1.02-18.837-0.591
		c-0.769,0.046-1.299,0.086-1.9,0.132c-9.116,0.691-15.622,2.013-15.688,2.023l0,0c0,0,13.058-3.187,27.043-2.883
		c4.576,0.1,7.636,0.538,10.741,0.995c1.071,0.158,6.512,0.958,6.683,1.453C546.008,631.403,545.169,631.503,544.579,631.523z"/>
	<path style="fill:#707933;" d="M624.05,614.549c-1.975,2.846-2.051,6.345-2.999,10.179c-2.109,8.534-7.966,16.421-14.781,25.597
		c-0.73,0.983-1.248,1.653-1.837,2.413c-8.918,11.525-16.777,19.019-16.851,19.097l0,0c0,0,16.741-14.57,27.956-33.455
		c3.67-6.18,5.452-10.64,7.239-15.176c0.617-1.565,3.748-9.514,2.999-10.179C625.468,612.753,624.583,613.781,624.05,614.549z"/>
	<path style="fill:#707933;" d="M656.254,607.331c-1.465,2.271-1.661,4.953-2.466,7.932c-1.791,6.631-6.111,12.942-11.137,20.284
		c-0.539,0.787-0.92,1.324-1.352,1.933c-6.557,9.239-12.225,15.342-12.279,15.405l0,0c0,0,12.016-11.935,20.444-26.914
		c2.758-4.902,4.158-8.399,5.564-11.955c0.485-1.227,2.95-7.458,2.466-7.932C657.295,605.89,656.649,606.718,656.254,607.331z"/>
	<path style="fill:#707933;" d="M660.342,601.492c-0.147-3.082-4.16-3.306-7.151-4.862c-6.655-3.463-6.437-12.584-6.183-23.197
		c0.027-1.138,0.08-1.943,0.139-2.859c0.903-13.873,4.849-26.017,4.876-26.131l0,0c0,0-10.051,25.824-5.993,43.407
		c1.328,5.754,3.698,8.594,6.15,11.444c0.846,0.983,5.143,5.977,7.151,4.862C660.155,603.697,660.381,602.324,660.342,601.492z"/>
	<path style="fill:#707933;" d="M663.465,603.274c3.208,2.527-1.435,4.684-3.369,7.397c-4.303,6.039,5.985,13.194,17.955,21.52
		c1.283,0.892,2.232,1.508,3.31,2.208c16.342,10.602,34.492,18.326,34.65,18.403l0,0c0,0-40.617-15.607-54.992-31.608
		c-4.704-5.236-4.938-8.667-5.082-12.144c-0.05-1.2-0.302-7.295,3.369-7.397C660.815,601.61,662.599,602.592,663.465,603.274z"/>
</g>
</svg>
