<svg xmlns="http://www.w3.org/2000/svg" xml:space="preserve" width="32" height="32">
  <path d="M698.8 768.4c-3.5 14.8 4.3 31.8 16 37.2 8.2 3.8 16 .8 21.2 0 31.4-5.1 62.9 51.8 95.5 90.2 56.2 66.3 81 36.8 122 95.5 31.3 44.7 34.7 87 74.4 100.9 10.7 3.7 27.5 6.5 31.8 0 4.1-6.2-3.7-19.8-37.1-58.4-32-37-55.7-60-74.3-79.6-50-52.1-36.4-49.1-69-79.6-56.9-53.2-81.3-46.9-106.2-90.2-11.7-20.6-15.9-38.8-31.8-42.5-15.3-3.5-37.9 7.3-42.5 26.5z" style="fill:#ed1e79" transform="matrix(.023 0 0 .023 -.4 .7)"/>
  <path d="M592.7 948.9c-10.9-4.1-17.4 8-79.6 37.1-29.4 13.8-44.3 20.6-58.4 21.3-34.5 1.5-61.3-21.6-84.9-42.5-64.4-57-108.6-99.3-127.4-116.8-9.5-8.8-6.4-5.7-153.9-132.6-49-42.3-73.5-63.9-69-85 6-27.7 56.6-38.6 74.3-42.4 195.2-42 498 124.6 594.4 180.4 114 66 234 147.7 265.4 238.9 8.8 25.8 12.4 57.6 37.1 122 21.9 57 36.7 78 26.6 100.9-15.1 33.9-70.4 39.7-95.6 42.4-63.2 6.7-112.9-14-153.9-31.8-72.8-31.6-116.7-50.6-143.3-95.6-48.4-82-.5-184.5-31.8-196.3z" style="fill:#ff0" transform="matrix(.023 0 0 .023 -.4 .7)"/>
  <path d="M794.4 795c-18.5-32-22.7-59.4-16-233.5 6.9-178.2 14.7-239 21.3-281.3 11.8-76.6 28.8-154.3 84.9-217.6 26.9-30.3 46.7-39.3 63.7-37.1 15 1.9 32.7 13.3 63.6 74.3 25.3 49.8 26.7 68.2 47.8 122 21.2 54.2 64.2 164 106.1 201.7 2.3 2 8.4 7.3 10.7 16 4.6 17.4-10.4 34.5-42.5 68.9-32.4 34.7-62.4 71.6-95.3 105.8-8.3 8.6-18.2 18.7-16.1 21.6 3.2 4.6 32.9-16 74.3-31.9 29.8-11.4 71.8-27.6 122-21.2a189.4 189.4 0 0 1 90.2 37.1c54.3 42.7 65.8 103.7 69 122.1 10 57.2-7.4 100.6-26.5 148.6-27.2 68.4-50.6 127.2-106.1 143.3-13.4 3.9-30.5 5.1-132.7-37.2-82.3-34-123.4-51-169.8-79.6-81-49.8-121.3-74.7-148.6-122Z" style="fill:#fcee21" transform="matrix(.023 0 0 .023 -.4 .7)"/>
</svg>
