<svg xmlns="http://www.w3.org/2000/svg" xml:space="preserve" width="32" height="32" viewBox="0 0 320 320">
  <g style="opacity:.71">
    <path d="m49.7 626.7 559.4 281 761.5-532.8" style="fill:#fff;stroke:#000;stroke-width:2;stroke-miterlimit:10" transform="matrix(.236 0 0 .236 -7.3 42.6)"/>
    <path d="m33 587.7 580.3 281.2 770.9-552.1L803.5 88.3z" style="fill:#0ff;stroke:#000;stroke-width:2;stroke-miterlimit:10" transform="matrix(.236 0 0 .236 -7.3 42.6)"/>
    <path d="M60.5 552.5c9.4-6.2 19.8-12.7 31-12.1 11.4.5 22.6 12 18.5 22.5" style="fill:#0ff" transform="matrix(.236 0 0 .236 -7.3 42.6)"/>
    <path d="M7.3 173.4c1.8-1.1 3.7-2.4 5.8-2.7h1.5a4.5 4.5 0 0 1 3 2 3 3 0 0 1 .6 1.4v.4s0-.1 0 0a2.7 2.7 0 0 1-.2.6c-.2.3.1.8.5.9.4 0 .7-.2.8-.5.8-2.1-.5-4.3-2.3-5.4-2-1.3-4.6-1-6.7 0-1.3.6-2.5 1.3-3.7 2.1-.3.2-.4.6-.2 1 .1.3.6.4 1 .2z"/>
    <path d="M105.9 521.9a37.3 37.3 0 0 1 40.4 17.4" style="fill:#0ff" transform="matrix(.236 0 0 .236 -7.3 42.6)"/>
    <path d="M17.9 166.3a8.2 8.2 0 0 1 8.7 3.8c.5.8 1.7 0 1.2-.7a9.6 9.6 0 0 0-10.3-4.5c-.9.2-.5 1.6.4 1.4z"/>
    <path d="M134.3 504.4a30.7 30.7 0 0 1 27.9-10 30.7 30.7 0 0 1 22.9 18.9" style="fill:#0ff" transform="matrix(.236 0 0 .236 -7.3 42.6)"/>
    <path d="M24.9 162a6.4 6.4 0 0 1 9.2-.5c.7.6 1.3 1.4 1.6 2.3.1.3.5.6.9.5.3-.1.6-.5.5-.9a7.8 7.8 0 0 0-10.2-4.5 8 8 0 0 0-3 2.1c-.3.3-.3.7 0 1 .2.3.7.3 1 0z"/>
    <path d="M181.9 482.7c9.2-5.2 21-5.6 30.6-1a33.3 33.3 0 0 1 18 24.8" style="fill:#0ff" transform="matrix(.236 0 0 .236 -7.3 42.6)"/>
    <path d="M36 157c1.6-1 3.6-1.1 5.4-.6a7.2 7.2 0 0 1 5 5.8c0 .4.6.6.9.5.4-.1.6-.5.5-.9a8.5 8.5 0 0 0-12.5-6c-.8.4-.1 1.6.7 1.2z"/>
    <path d="M223 447.9c16.8-7 38.7 5.7 40.9 23.8" style="fill:#0ff" transform="matrix(.236 0 0 .236 -7.3 42.6)"/>
    <path d="M45.5 148.9a6.1 6.1 0 0 1 1.5-.4h.1a6.5 6.5 0 0 1 3.1.4s.2 0 0 0h.2a8.9 8.9 0 0 1 1.4.9s.1.1 0 0a6.8 6.8 0 0 1 2 2.6c.1.1.1 0 0 0a4.5 4.5 0 0 1 .4.8 6 6 0 0 1 0 .5s0 .2 0 0c.1.5.4.8.8.8.3 0 .7-.3.7-.7a8.1 8.1 0 0 0-7.6-6.8c-1 0-2 .1-3 .5-.3.1-.6.5-.4.9 0 .3.5.6.8.5z"/>
    <path d="M258.7 432.6c-1.3-12.9 15.2-22.1 27.2-17.5 12.1 4.5 18.8 17.9 20.4 30.7" style="fill:#0ff" transform="matrix(.236 0 0 .236 -7.3 42.6)"/>
    <path d="M54.5 144.6a3.7 3.7 0 0 1 0-.6s0-.2 0 0c0-.3 0-.6.2-.8v-.2a3.8 3.8 0 0 1 .4-.5c-.1.1 0 0 0 0l.3-.3c.7-.7 1.5-1.1 2.6-1.3.1 0 0 0 0 0a4.2 4.2 0 0 1 1 0h.2c.6.1 1 .3 1.5.6 1 .6 1.8 1.4 2.4 2.4.6 1.1 1 2.5 1.2 3.8 0 .4.3.7.7.7.3 0 .8-.3.7-.7a10 10 0 0 0-4-7.3c-1-.7-2.3-1-3.6-1-1.3.2-2.5.7-3.5 1.6-1 .9-1.7 2.2-1.5 3.6 0 .3.3.7.7.7.3 0 .7-.3.7-.7z"/>
    <path d="M307.6 402.2a29 29 0 0 1 32.5 24" style="fill:#0ff" transform="matrix(.236 0 0 .236 -7.3 42.6)"/>
    <path d="M65.5 138h.5a6 6 0 0 1 1.8.2c.7.2 1.4.6 2.1 1a6 6 0 0 1 2.4 3.8c0 .4.3.8.7.8.3 0 .7-.4.7-.8-.4-3-2.9-5.6-6-6.2a7 7 0 0 0-2.6 0c-.4 0-.6.5-.5.8.1.4.5.5.9.5z"/>
    <path d="M327.2 388.2c8.2-3.2 17-6.4 25.8-4.8 8.7 1.7 16.7 10.2 14.3 18.8" style="fill:#0ff" transform="matrix(.236 0 0 .236 -7.3 42.6)"/>
    <path d="M70.1 134.8c2-.7 4.2-1.7 6.3-1a4 4 0 0 1 1.8 1.3l.5 1v1.1c-.2.9 1.2 1.3 1.4.4.4-1.7-.4-3.3-1.8-4.3-1.5-1.2-3.5-1.3-5.3-1a21 21 0 0 0-3.3 1.1c-.3.2-.6.5-.4.9 0 .3.5.6.8.5z"/>
    <path d="M362 363.4c.6-8.5 12.4-12.2 20-8.4 7.6 4 11.7 12.2 15.4 20" style="fill:#0ff" transform="matrix(.236 0 0 .236 -7.3 42.6)"/>
    <path d="M78.9 128.3s0-.2 0 0v-.4c.1-.1 0 0 .1 0l.1-.2s.1-.2 0-.2l.2-.1.2-.2a4.5 4.5 0 0 1 .6-.3s-.1 0 0 0a3.7 3.7 0 0 1 .8-.2c-.1 0 0 0 0 0h.3c.7 0 1.1 0 1.7.4.6.4 1.2 1 1.6 1.7.6.8 1 1.7 1.4 2.5.2.4.7.5 1 .3.3-.2.4-.6.2-1-.8-1.7-1.8-3.6-3.5-4.7-1.4-.9-3.3-1-4.7 0a3 3 0 0 0-1.4 2.4c0 .4.3.7.7.7.4 0 .7-.3.7-.7z"/>
    <path d="M400.7 345a41.3 41.3 0 0 1 41 14.2" style="fill:#0ff" transform="matrix(.236 0 0 .236 -7.3 42.6)"/>
    <path d="M87.5 124.6a9 9 0 0 1 9 3.2c.2.3.7.2 1 0 .3-.3.2-.7 0-1-2.5-3-6.6-4.4-10.4-3.5-.4 0-.6.5-.5.8.1.4.5.6.9.5z"/>
    <path d="M426.9 322a30 30 0 0 1 30.2-5 30 30 0 0 1 18.3 24.4" style="fill:#0ff" transform="matrix(.236 0 0 .236 -7.3 42.6)"/>
    <path d="M94 119a6.2 6.2 0 0 1 9.3 1.4c.5.8.8 1.8 1 2.7 0 .4.2.7.6.7.4 0 .8-.3.7-.7a7.6 7.6 0 0 0-12.7-5c-.2.2-.2.6 0 .9.4.3.8.3 1 0z"/>
    <path d="M466 301.9a54.4 54.4 0 0 1 26.8-5c9.1 1.5 17.9 9.5 16.7 18.6" style="fill:#0ff" transform="matrix(.236 0 0 .236 -7.3 42.6)"/>
    <path d="M102.9 114.5c1.7-.7 3.5-1.3 5.3-1.3 1.4 0 2.8.7 3.5 1.8.5.6.7 1.2.6 2 0 .4.3.7.7.7.4 0 .7-.3.7-.7.2-1.7-.9-3.3-2.3-4.2a7.2 7.2 0 0 0-5.5-.8l-3.4 1c-.3.2-.6.6-.5 1 .1.3.5.6.9.5z"/>
    <path d="M507.3 274.5c14.6-7 34.5 1.5 39.4 17" style="fill:#0ff" transform="matrix(.236 0 0 .236 -7.3 42.6)"/>
    <path d="M112.8 108a5 5 0 0 1 1.8-.5 6.7 6.7 0 0 1 1.4 0c-.1 0 0 0 0 0a7.3 7.3 0 0 1 2.5.9 6 6 0 0 1 2.6 3.1c.1.4.5.6.9.5.3-.1.6-.5.5-.9a7.8 7.8 0 0 0-7.7-5 7 7 0 0 0-2.7.6c-.3.2-.4.7-.2 1 .2.3.6.4 1 .2z"/>
    <path d="M544.4 249.1c17.3-6.3 38.9 5 43.4 22.9" style="fill:#0ff" transform="matrix(.236 0 0 .236 -7.3 42.6)"/>
    <path d="M121.4 102c1.5-.5 3-.5 4.5 0a8 8 0 0 1 3.7 2.6c.6.7 1 1.5 1.2 2.3.2.9 1.6.5 1.4-.4a8.9 8.9 0 0 0-8.2-6.3c-1 0-2 .1-3 .5-.3 0-.6.4-.5.8.1.4.6.7 1 .5z"/>
    <path d="M576.8 231.6A39.4 39.4 0 0 1 621 250" style="fill:#0ff" transform="matrix(.236 0 0 .236 -7.3 42.6)"/>
    <path d="M129 97.9a8.6 8.6 0 0 1 9.7 4c.4.8 1.7 0 1.2-.7a10 10 0 0 0-11.2-4.7c-.9.3-.5 1.6.4 1.4z"/>
    <path d="M609.1 211.3c15-7 35.2 3.5 38 19.7" style="fill:#0ff" transform="matrix(.236 0 0 .236 -7.3 42.6)"/>
    <path d="M136.9 93a5.4 5.4 0 0 1 2.6-.3h.1c.2 0 0 0 0 0a6.8 6.8 0 0 1 3 1.1l1.3 1.4c.5.6.8 1.2 1 2 0 .4.4.7.8.6.4-.1.5-.5.5-1-.6-3.2-4-5.6-7.3-5.6-1 0-1.9.2-2.7.6-.4.2-.5.7-.3 1 .2.4.6.4 1 .2z"/>
    <path d="M637.3 198.7c6.8-8 16.7-14 27-13 10.4 1 20 11 17.6 21.2" style="fill:#0ff" transform="matrix(.236 0 0 .236 -7.3 42.6)"/>
    <path d="M143.7 90a8 8 0 0 1 4.6-2.9c1.6-.2 3.2.4 4.2 1.7l.5 1.2v1.2c0 .4.1.8.5.9.4 0 .8-.2.9-.5.4-2.1-.8-4.2-2.6-5.2-2-1.1-4.3-.8-6.2.2-1.1.6-2.1 1.4-3 2.3-.2.3-.2.8 0 1 .3.3.8.3 1 0z"/>
    <path d="M683 166a27 27 0 0 1 32.1 19.4" style="fill:#0ff" transform="matrix(.236 0 0 .236 -7.3 42.6)"/>
    <path d="M154.1 82.4c1.4-.3 3 0 4.2.7 1.3.8 2.2 2 2.6 3.4 0 .4.5.6.8.5.4-.1.6-.5.5-.9a7.1 7.1 0 0 0-6-5.2c-.9-.1-1.7 0-2.4.2-1 .2-.5 1.6.3 1.3z"/>
    <path d="M699.5 155c14.2-24 40-21.2 52.5 5.8" style="fill:#0ff" transform="matrix(.236 0 0 .236 -7.3 42.6)"/>
    <path d="M158.5 79.5c.5-.9 1.2-1.8 2-2.4l1.2-.7s.1 0 0 0a5.4 5.4 0 0 1 1.2-.3h.1c.2 0-.1 0 0 0H164.3a6.4 6.4 0 0 1 1.3.3c.2 0-.1 0 0 0h.2a6.6 6.6 0 0 1 1.1.7s.1.1 0 0l.6.6c1 .9 1.7 2 2.2 3.2.2.3.7.4 1 .2.4-.2.4-.6.3-1a9.7 9.7 0 0 0-5-5c-2-.9-4.2-.5-5.9.6-1.1.8-2 2-2.8 3.1-.4.8.8 1.5 1.3.7z"/>
    <path d="M737.8 126.9a32.9 32.9 0 0 1 41.4 9.9" style="fill:#0ff" transform="matrix(.236 0 0 .236 -7.3 42.6)"/>
    <path d="M167.3 73.1a6.3 6.3 0 0 1 3.7-.7c1.2.1 2.5.6 3.6 1.3l1.4 1.5c.3.3.7.5 1 .3.3-.2.5-.7.3-1a8.6 8.6 0 0 0-10.8-2.6c-.8.5 0 1.7.8 1.2z"/>
  </g>
  <path d="M452.8 743.7 550 728l170.5-65.5 17 2.8 32.6-16.2 117-46.7 32.4-17.5-8.4-34-24.5-5.1-143.2 38 14.8 24.8c65.4-.5 101.8-19.5 123.3-38.3 14.6-12.8 33.3-35 53.6-30.7 8.9 1.8 18.8 8.8 19.7 17.8 1 10-9.1 22-26.1 25.9" style="stroke:#000;stroke-width:.5;stroke-miterlimit:10" transform="matrix(.236 0 0 .236 -7.3 42.6)"/>
  <path d="m444.2 722.3 89-50.4 164.7-57.4 10.3-8.9 40.4-13.3" style="stroke:#000;stroke-width:.5;stroke-miterlimit:10" transform="matrix(.236 0 0 .236 -7.3 42.6)"/>
  <path d="M165 198.5c.3 0 .3-.4 0-.4-.1 0-.1.4 0 .4zM165.4 196.9c0-2.1-.1-4.2-.9-6.1-.7-2-2.4-3.6-4.5-3.8"/>
  <path d="M165.5 196.9c0-3.3-.2-7.2-3.2-9.2-.7-.5-1.5-.8-2.3-.8-.2 0-.2.3 0 .3 1.9.2 3.4 1.6 4.2 3.2 1 2 1 4.3 1 6.5 0 .2.3.2.3 0zM168.4 196.5c1.5-1 1.8-3 1.4-4.7-.5-1.7-1.7-3-2.9-4.4-.8-1-1.8-1.9-3-2.3"/>
  <path d="M168.5 196.6c1.4-1 1.9-2.9 1.5-4.5-.4-2-2-3.7-3.3-5.2a6.6 6.6 0 0 0-2.8-2c-.2 0-.3.3 0 .4.9.3 1.6 1 2.3 1.6l2 2.2c1 1.4 1.9 3.1 1.5 5-.2.8-.6 1.7-1.4 2.2-.2.1 0 .4.2.3zM173.4 196.3c0-3.5-.2-7.2-2-10.1-.6-1.1-1.6-2.1-2.8-2.2"/>
  <path d="M173.6 196.3c0-2-.1-4-.5-5.9-.3-1.8-1-3.8-2.1-5.2a3.5 3.5 0 0 0-2.4-1.4c-.3 0-.3.4 0 .4 1.8 0 2.9 2 3.4 3.6.7 1.7 1 3.5 1.1 5.4l.1 3.1c0 .2.4.2.4 0zM121.7 213.3c.3-1.3.5-2.5.5-3.8 0-1.4-.2-2.7-.8-4a4.4 4.4 0 0 0-3.2-2.2"/>
  <path d="M121.9 213.3c.5-2 .8-4.5.1-6.6-.5-1.7-1.8-3.3-3.7-3.6-.2 0-.3.3-.1.3 1.8.3 3 1.9 3.5 3.6.6 2 .4 4.2-.2 6.2 0 .2.3.3.4.1z"/>
  <path d="M124.2 212.9c1.3-1.2.9-3.2.4-4.9-.8-2.7-1.9-5.7-4.5-6.8"/>
  <path d="M124.4 213c1.3-1.4.8-3.5.3-5.2-.5-1.7-1-3.5-2.2-5a6 6 0 0 0-2.3-1.8c-.2 0-.4.2-.2.3 1.6.7 2.6 2.1 3.3 3.6a18.5 18.5 0 0 1 1.6 5.1c0 1 0 2-.8 2.8-.1.1.1.4.3.2zM100 217.5c-1-.5-2-1.4-2.5-2.5-.2-.4-.3-.9 0-1.2.2-.5 1-.4 1.4 0 1.2.7 1.4 2.5.5 3.6"/>
  <path d="M100 217.3a5.2 5.2 0 0 1-2.2-2.1c-.2-.3-.4-.7-.3-1 0-.8 1-.6 1.4-.3.5.4.7 1 .8 1.5.1.7 0 1.4-.4 1.9-.2.1 0 .4.2.2 1-1 .8-2.8-.3-3.7-.4-.5-1.3-.8-1.9-.2-.6.6 0 1.6.4 2.2.6.8 1.3 1.4 2.2 1.8.2.1.4-.2.2-.3z"/>
</svg>
