<svg xmlns="http://www.w3.org/2000/svg" xml:space="preserve" width="32" height="32">
  <g style="opacity:.89">
    <path d="M882.5 783.7C611.3 568.5 334.5 313 72.8 214.4c45.8 243.1 92 511.2 138.5 796a8025 8025 0 0 1 40.5 41.6c207.1-64 420.6-170.7 630.7-268.3z" style="fill:#d1d1e6;stroke:#000;stroke-width:4;stroke-linecap:round;stroke-linejoin:round;stroke-miterlimit:10" transform="matrix(.027 0 0 .027 -2 -4.8)"/>
    <path d="M823.8 816c-71-116.1-142.3-236.4-213.5-353.8-138 172.8-275.6 349.2-410.2 490.5C454.1 1076 719 1212.5 976.5 1275a21777.1 21777.1 0 0 1-152.7-459Z" style="fill:#d8e6e6;stroke:#000;stroke-width:4;stroke-linecap:round;stroke-linejoin:round;stroke-miterlimit:10" transform="matrix(.027 0 0 .027 -2 -4.8)"/>
    <path d="M1252.4 605.4c-85 210-171.4 457.7-258.8 719-263.8-38.9-535.6-157.7-796-278.6 346.7-99.5 713.6-329.5 1054.8-440.4Z" style="fill:#ffffde;stroke:#000;stroke-width:4;stroke-linecap:round;stroke-linejoin:round;stroke-miterlimit:10" transform="matrix(.027 0 0 .027 -2 -4.8)"/>
    <path d="M108.9 231.4c40.5 243.8 81.4 507.5 122.6 784.9-13 7.7-25.9 15.1-38.8 22.3-35-275.2-69.7-537.4-104.3-782.2a9522 9522 0 0 0 20.5-25z" style="fill:#fff;stroke:#000;stroke-width:4;stroke-linecap:round;stroke-linejoin:round;stroke-miterlimit:10" transform="matrix(.027 0 0 .027 -2 -4.8)"/>
  </g>
</svg>
